M48
; DRILL file {KiCad 8.0.6-8.0.6-0~ubuntu22.04.1} date 2025-01-13T21:54:40+0000
; FORMAT={-:-/ absolute / metric / decimal}
; #@! TF.CreationDate,2025-01-13T21:54:40+00:00
; #@! TF.GenerationSoftware,Kicad,Pcbnew,8.0.6-8.0.6-0~ubuntu22.04.1
; #@! TF.FileFunction,Plated,1,2,PTH
FMAT,2
METRIC
; #@! TA.AperFunction,Plated,PTH,ComponentDrill
T1C0.800
; #@! TA.AperFunction,Plated,PTH,ComponentDrill
T2C1.000
; #@! TA.AperFunction,Plated,PTH,ComponentDrill
T3C1.220
; #@! TA.AperFunction,Plated,PTH,ComponentDrill
T4C1.420
; #@! TA.AperFunction,Plated,PTH,ComponentDrill
T5C1.430
%
G90
G05
T1
X110.12Y-72.5
X110.22Y-116.0
X112.66Y-52.5
X117.74Y-72.5
X117.84Y-116.0
X120.28Y-52.5
X121.0Y-120.42
X121.0Y-128.04
X126.5Y-58.12
X126.5Y-65.74
X129.6Y-58.12
X129.6Y-65.74
X134.0Y-120.54
X134.0Y-128.16
X137.9Y-71.52
X137.9Y-79.14
X141.0Y-71.52
X141.0Y-79.14
X147.0Y-121.12
X147.0Y-128.74
X147.42Y-70.6
X147.42Y-73.7
X155.04Y-70.6
X155.04Y-73.7
T2
X110.8Y-76.7
X110.8Y-79.24
X110.8Y-81.78
X110.8Y-84.32
X110.8Y-86.86
X110.8Y-89.4
X110.8Y-91.94
X110.8Y-94.48
X115.5Y-69.55
X118.0Y-69.55
X120.1Y-76.7
X120.1Y-79.24
X120.1Y-81.78
X120.1Y-84.32
X120.1Y-86.86
X120.1Y-89.4
X120.1Y-91.94
X120.1Y-94.48
X120.5Y-69.55
X126.0Y-84.55
X128.5Y-84.55
X131.0Y-84.55
X136.5Y-99.55
X139.0Y-99.55
X141.5Y-99.55
X147.0Y-114.55
X147.5Y-76.7
X147.5Y-79.24
X147.5Y-81.78
X147.5Y-84.32
X147.5Y-86.86
X147.5Y-89.4
X147.5Y-91.94
X147.5Y-94.48
X148.5Y-98.4
X149.5Y-114.55
X151.04Y-98.4
X152.0Y-114.55
X153.58Y-98.4
X156.12Y-98.4
X157.2Y-76.7
X157.2Y-79.24
X157.2Y-81.78
X157.2Y-84.32
X157.2Y-86.86
X157.2Y-89.4
X157.2Y-91.94
X157.2Y-94.48
T3
X114.5Y-49.5
X114.5Y-119.0
X114.5Y-133.5
X127.4Y-49.5
X127.5Y-118.98
X127.5Y-133.5
X140.5Y-49.5
X140.5Y-119.0
X140.5Y-133.5
X153.5Y-49.5
X153.5Y-119.0
X153.5Y-133.5
T4
X114.5Y-46.4
X114.5Y-122.1
X114.5Y-136.6
X127.4Y-46.4
X127.5Y-122.08
X127.5Y-136.6
X140.5Y-46.4
X140.5Y-122.1
X140.5Y-136.6
X153.5Y-46.4
X153.5Y-122.1
X153.5Y-136.6
T5
X114.5Y-38.1
X114.5Y-130.4
X114.5Y-144.9
X127.4Y-38.1
X127.5Y-130.38
X127.5Y-144.9
X140.5Y-38.1
X140.5Y-130.4
X140.5Y-144.9
X153.5Y-38.1
X153.5Y-130.4
X153.5Y-144.9
T2
X117.35Y-102.3G85X118.65Y-102.3
G05
X117.35Y-107.0G85X118.65Y-107.0
G05
X117.35Y-111.7G85X118.65Y-111.7
G05
X127.85Y-102.3G85X129.15Y-102.3
G05
X127.85Y-107.0G85X129.15Y-107.0
G05
X127.85Y-111.7G85X129.15Y-111.7
G05
X138.35Y-57.3G85X139.65Y-57.3
G05
X138.35Y-62.0G85X139.65Y-62.0
G05
X138.35Y-66.7G85X139.65Y-66.7
G05
X148.85Y-57.3G85X150.15Y-57.3
G05
X148.85Y-62.0G85X150.15Y-62.0
G05
X148.85Y-66.7G85X150.15Y-66.7
G05
M30
