G04 #@! TF.GenerationSoftware,KiCad,Pcbnew,8.0.6-8.0.6-0~ubuntu22.04.1*
G04 #@! TF.CreationDate,2025-01-13T21:54:40+00:00*
G04 #@! TF.ProjectId,Basic_VCA,42617369-635f-4564-9341-2e6b69636164,rev?*
G04 #@! TF.SameCoordinates,Original*
G04 #@! TF.FileFunction,Copper,L2,Bot*
G04 #@! TF.FilePolarity,Positive*
%FSLAX46Y46*%
G04 Gerber Fmt 4.6, Leading zero omitted, Abs format (unit mm)*
G04 Created by KiCad (PCBNEW 8.0.6-8.0.6-0~ubuntu22.04.1) date 2025-01-13 21:54:40*
%MOMM*%
%LPD*%
G01*
G04 APERTURE LIST*
G04 #@! TA.AperFunction,ComponentPad*
%ADD10C,1.600000*%
G04 #@! TD*
G04 #@! TA.AperFunction,ComponentPad*
%ADD11O,1.600000X1.600000*%
G04 #@! TD*
G04 #@! TA.AperFunction,ComponentPad*
%ADD12R,1.930000X1.830000*%
G04 #@! TD*
G04 #@! TA.AperFunction,ComponentPad*
%ADD13C,2.130000*%
G04 #@! TD*
G04 #@! TA.AperFunction,WasherPad*
%ADD14C,4.000000*%
G04 #@! TD*
G04 #@! TA.AperFunction,ComponentPad*
%ADD15C,1.800000*%
G04 #@! TD*
G04 #@! TA.AperFunction,ComponentPad*
%ADD16O,5.000000X3.200000*%
G04 #@! TD*
G04 #@! TA.AperFunction,ComponentPad*
%ADD17R,1.700000X1.700000*%
G04 #@! TD*
G04 #@! TA.AperFunction,ComponentPad*
%ADD18O,1.700000X1.700000*%
G04 #@! TD*
G04 #@! TA.AperFunction,Conductor*
%ADD19C,0.300000*%
G04 #@! TD*
G04 APERTURE END LIST*
D10*
X110220000Y-116000000D03*
D11*
X117840000Y-116000000D03*
D12*
X153500000Y-119000000D03*
D13*
X153500000Y-130400000D03*
X153500000Y-122100000D03*
D12*
X140500000Y-119000000D03*
D13*
X140500000Y-130400000D03*
X140500000Y-122100000D03*
D10*
X147420000Y-73700000D03*
D11*
X155040000Y-73700000D03*
D14*
X113600000Y-62550000D03*
X122400000Y-62550000D03*
D15*
X115500000Y-69550000D03*
X118000000Y-69550000D03*
X120500000Y-69550000D03*
D14*
X134600000Y-92550000D03*
X143400000Y-92550000D03*
D15*
X136500000Y-99550000D03*
X139000000Y-99550000D03*
X141500000Y-99550000D03*
D12*
X153500000Y-133500000D03*
D13*
X153500000Y-144900000D03*
X153500000Y-136600000D03*
D10*
X121000000Y-120420000D03*
D11*
X121000000Y-128040000D03*
D12*
X127500000Y-118980000D03*
D13*
X127500000Y-130380000D03*
X127500000Y-122080000D03*
D16*
X149500000Y-66700000D03*
X149500000Y-62000000D03*
X149500000Y-57300000D03*
D14*
X124100000Y-77550000D03*
X132900000Y-77550000D03*
D15*
X126000000Y-84550000D03*
X128500000Y-84550000D03*
X131000000Y-84550000D03*
D10*
X147000000Y-121120000D03*
D11*
X147000000Y-128740000D03*
D12*
X140500000Y-133500000D03*
D13*
X140500000Y-144900000D03*
X140500000Y-136600000D03*
D12*
X140500000Y-49500000D03*
D13*
X140500000Y-38100000D03*
X140500000Y-46400000D03*
D12*
X127400000Y-49500000D03*
D13*
X127400000Y-38100000D03*
X127400000Y-46400000D03*
D10*
X141000000Y-71520000D03*
D11*
X141000000Y-79140000D03*
D12*
X114500000Y-49500000D03*
D13*
X114500000Y-38100000D03*
X114500000Y-46400000D03*
D10*
X110120000Y-72500000D03*
D11*
X117740000Y-72500000D03*
D12*
X114500000Y-119000000D03*
D13*
X114500000Y-130400000D03*
X114500000Y-122100000D03*
D12*
X153500000Y-49500000D03*
D13*
X153500000Y-38100000D03*
X153500000Y-46400000D03*
D10*
X134000000Y-120540000D03*
D11*
X134000000Y-128160000D03*
D16*
X118000000Y-111700000D03*
X118000000Y-107000000D03*
X118000000Y-102300000D03*
D10*
X126500000Y-58120000D03*
D11*
X126500000Y-65740000D03*
D10*
X137900000Y-71520000D03*
D11*
X137900000Y-79140000D03*
D14*
X145100000Y-107550000D03*
X153900000Y-107550000D03*
D15*
X147000000Y-114550000D03*
X149500000Y-114550000D03*
X152000000Y-114550000D03*
D10*
X129600000Y-58120000D03*
D11*
X129600000Y-65740000D03*
D16*
X139000000Y-66700000D03*
X139000000Y-62000000D03*
X139000000Y-57300000D03*
D10*
X147420000Y-70600000D03*
D11*
X155040000Y-70600000D03*
D10*
X120280000Y-52500000D03*
D11*
X112660000Y-52500000D03*
D12*
X127500000Y-133500000D03*
D13*
X127500000Y-144900000D03*
X127500000Y-136600000D03*
D12*
X114500000Y-133500000D03*
D13*
X114500000Y-144900000D03*
X114500000Y-136600000D03*
D16*
X128500000Y-111700000D03*
X128500000Y-107000000D03*
X128500000Y-102300000D03*
D17*
X147500000Y-76700000D03*
D18*
X147500000Y-79240000D03*
X147500000Y-81780000D03*
X147500000Y-84320000D03*
X147500000Y-86860000D03*
X147500000Y-89400000D03*
X147500000Y-91940000D03*
X147500000Y-94480000D03*
D17*
X110800000Y-76700000D03*
D18*
X110800000Y-79240000D03*
X110800000Y-81780000D03*
X110800000Y-84320000D03*
X110800000Y-86860000D03*
X110800000Y-89400000D03*
X110800000Y-91940000D03*
X110800000Y-94480000D03*
D17*
X148500000Y-98400000D03*
D18*
X151040000Y-98400000D03*
X153580000Y-98400000D03*
X156120000Y-98400000D03*
D17*
X157200000Y-76700000D03*
D18*
X157200000Y-79240000D03*
X157200000Y-81780000D03*
X157200000Y-84320000D03*
X157200000Y-86860000D03*
X157200000Y-89400000D03*
X157200000Y-91940000D03*
X157200000Y-94480000D03*
D17*
X120100000Y-76700000D03*
D18*
X120100000Y-79240000D03*
X120100000Y-81780000D03*
X120100000Y-84320000D03*
X120100000Y-86860000D03*
X120100000Y-89400000D03*
X120100000Y-91940000D03*
X120100000Y-94480000D03*
D19*
X131000000Y-80050000D02*
X120500000Y-69550000D01*
X141500000Y-95050000D02*
X131000000Y-84550000D01*
X141500000Y-99550000D02*
X141500000Y-95050000D01*
X131000000Y-84550000D02*
X131000000Y-80050000D01*
X153580000Y-98400000D02*
X151180000Y-100800000D01*
X121600000Y-74733654D02*
X118066346Y-71200000D01*
X117150000Y-71200000D02*
X115500000Y-69550000D01*
X126000000Y-89050000D02*
X126000000Y-84550000D01*
X147900000Y-113650000D02*
X147900000Y-104080000D01*
X136500000Y-99550000D02*
X126000000Y-89050000D01*
X118066346Y-71200000D02*
X117150000Y-71200000D01*
X147900000Y-104080000D02*
X151180000Y-100800000D01*
X147000000Y-114550000D02*
X147900000Y-113650000D01*
X126000000Y-84550000D02*
X121600000Y-80150000D01*
X121600000Y-80150000D02*
X121600000Y-74733654D01*
X110800000Y-79240000D02*
X112600000Y-81040000D01*
X112600000Y-81040000D02*
X112600000Y-143000000D01*
X112600000Y-143000000D02*
X114500000Y-144900000D01*
X110800000Y-81780000D02*
X112000000Y-82980000D01*
X112000000Y-82980000D02*
X112000000Y-114220000D01*
X112000000Y-114220000D02*
X110220000Y-116000000D01*
X123800000Y-101200000D02*
X123800000Y-141200000D01*
X120100000Y-79240000D02*
X118400000Y-80940000D01*
X118400000Y-80940000D02*
X118400000Y-95800000D01*
X123800000Y-141200000D02*
X127500000Y-144900000D01*
X118400000Y-95800000D02*
X123800000Y-101200000D01*
X146600000Y-98807106D02*
X142600000Y-102807106D01*
X142600000Y-102807106D02*
X142600000Y-142800000D01*
X142600000Y-142800000D02*
X140500000Y-144900000D01*
X148700000Y-93140000D02*
X148700000Y-96000000D01*
X148700000Y-96000000D02*
X146600000Y-98100000D01*
X147500000Y-91940000D02*
X148700000Y-93140000D01*
X146600000Y-98100000D02*
X146600000Y-98807106D01*
X158400000Y-93140000D02*
X158400000Y-140000000D01*
X158400000Y-140000000D02*
X153500000Y-144900000D01*
X157200000Y-91940000D02*
X158400000Y-93140000D01*
X147500000Y-89400000D02*
X146100000Y-90800000D01*
X146100000Y-90800000D02*
X146100000Y-98600000D01*
X146100000Y-98600000D02*
X134000000Y-110700000D01*
X134000000Y-110700000D02*
X134000000Y-120540000D01*
X157320000Y-97820000D02*
X157320000Y-111480000D01*
X157320000Y-111480000D02*
X147680000Y-121120000D01*
X147680000Y-121120000D02*
X147000000Y-121120000D01*
X156000000Y-96500000D02*
X157320000Y-97820000D01*
X157200000Y-89400000D02*
X156000000Y-90600000D01*
X156000000Y-90600000D02*
X156000000Y-96500000D01*
G04 #@! TA.AperFunction,Conductor*
G36*
X113171461Y-37020502D02*
G01*
X113217954Y-37074158D01*
X113228058Y-37144432D01*
X113210773Y-37192334D01*
X113093667Y-37383435D01*
X112998885Y-37612257D01*
X112941066Y-37853088D01*
X112921634Y-38100000D01*
X112941066Y-38346911D01*
X112998885Y-38587742D01*
X113093665Y-38816561D01*
X113223076Y-39027741D01*
X113223077Y-39027743D01*
X113383926Y-39216073D01*
X113572256Y-39376922D01*
X113572260Y-39376925D01*
X113783437Y-39506334D01*
X114012258Y-39601115D01*
X114253089Y-39658934D01*
X114500000Y-39678366D01*
X114746911Y-39658934D01*
X114987742Y-39601115D01*
X115216563Y-39506334D01*
X115427740Y-39376925D01*
X115616073Y-39216073D01*
X115776925Y-39027740D01*
X115906334Y-38816563D01*
X116001115Y-38587742D01*
X116058934Y-38346911D01*
X116078366Y-38100000D01*
X116058934Y-37853089D01*
X116001115Y-37612258D01*
X115906334Y-37383437D01*
X115843895Y-37281545D01*
X115789227Y-37192334D01*
X115770689Y-37123801D01*
X115792146Y-37056124D01*
X115846785Y-37010791D01*
X115896660Y-37000500D01*
X126003340Y-37000500D01*
X126071461Y-37020502D01*
X126117954Y-37074158D01*
X126128058Y-37144432D01*
X126110773Y-37192334D01*
X125993667Y-37383435D01*
X125898885Y-37612257D01*
X125841066Y-37853088D01*
X125821634Y-38100000D01*
X125841066Y-38346911D01*
X125898885Y-38587742D01*
X125993665Y-38816561D01*
X126123076Y-39027741D01*
X126123077Y-39027743D01*
X126283926Y-39216073D01*
X126472256Y-39376922D01*
X126472260Y-39376925D01*
X126683437Y-39506334D01*
X126912258Y-39601115D01*
X127153089Y-39658934D01*
X127400000Y-39678366D01*
X127646911Y-39658934D01*
X127887742Y-39601115D01*
X128116563Y-39506334D01*
X128327740Y-39376925D01*
X128516073Y-39216073D01*
X128676925Y-39027740D01*
X128806334Y-38816563D01*
X128901115Y-38587742D01*
X128958934Y-38346911D01*
X128978366Y-38100000D01*
X128958934Y-37853089D01*
X128901115Y-37612258D01*
X128806334Y-37383437D01*
X128743895Y-37281545D01*
X128689227Y-37192334D01*
X128670689Y-37123801D01*
X128692146Y-37056124D01*
X128746785Y-37010791D01*
X128796660Y-37000500D01*
X139103340Y-37000500D01*
X139171461Y-37020502D01*
X139217954Y-37074158D01*
X139228058Y-37144432D01*
X139210773Y-37192334D01*
X139093667Y-37383435D01*
X138998885Y-37612257D01*
X138941066Y-37853088D01*
X138921634Y-38100000D01*
X138941066Y-38346911D01*
X138998885Y-38587742D01*
X139093665Y-38816561D01*
X139223076Y-39027741D01*
X139223077Y-39027743D01*
X139383926Y-39216073D01*
X139572256Y-39376922D01*
X139572260Y-39376925D01*
X139783437Y-39506334D01*
X140012258Y-39601115D01*
X140253089Y-39658934D01*
X140500000Y-39678366D01*
X140746911Y-39658934D01*
X140987742Y-39601115D01*
X141216563Y-39506334D01*
X141427740Y-39376925D01*
X141616073Y-39216073D01*
X141776925Y-39027740D01*
X141906334Y-38816563D01*
X142001115Y-38587742D01*
X142058934Y-38346911D01*
X142078366Y-38100000D01*
X142058934Y-37853089D01*
X142001115Y-37612258D01*
X141906334Y-37383437D01*
X141843895Y-37281545D01*
X141789227Y-37192334D01*
X141770689Y-37123801D01*
X141792146Y-37056124D01*
X141846785Y-37010791D01*
X141896660Y-37000500D01*
X152103340Y-37000500D01*
X152171461Y-37020502D01*
X152217954Y-37074158D01*
X152228058Y-37144432D01*
X152210773Y-37192334D01*
X152093667Y-37383435D01*
X151998885Y-37612257D01*
X151941066Y-37853088D01*
X151921634Y-38100000D01*
X151941066Y-38346911D01*
X151998885Y-38587742D01*
X152093665Y-38816561D01*
X152223076Y-39027741D01*
X152223077Y-39027743D01*
X152383926Y-39216073D01*
X152572256Y-39376922D01*
X152572260Y-39376925D01*
X152783437Y-39506334D01*
X153012258Y-39601115D01*
X153253089Y-39658934D01*
X153500000Y-39678366D01*
X153746911Y-39658934D01*
X153987742Y-39601115D01*
X154216563Y-39506334D01*
X154427740Y-39376925D01*
X154616073Y-39216073D01*
X154776925Y-39027740D01*
X154906334Y-38816563D01*
X155001115Y-38587742D01*
X155058934Y-38346911D01*
X155078366Y-38100000D01*
X155058934Y-37853089D01*
X155001115Y-37612258D01*
X154906334Y-37383437D01*
X154843895Y-37281545D01*
X154789227Y-37192334D01*
X154770689Y-37123801D01*
X154792146Y-37056124D01*
X154846785Y-37010791D01*
X154896660Y-37000500D01*
X158373500Y-37000500D01*
X158441621Y-37020502D01*
X158488114Y-37074158D01*
X158499500Y-37126500D01*
X158499500Y-75300204D01*
X158479498Y-75368325D01*
X158425842Y-75414818D01*
X158355568Y-75424922D01*
X158304038Y-75403577D01*
X158303876Y-75403875D01*
X158301105Y-75402362D01*
X158297993Y-75401073D01*
X158295968Y-75399557D01*
X158295964Y-75399555D01*
X158159093Y-75348505D01*
X158098597Y-75342000D01*
X157454000Y-75342000D01*
X157454000Y-76269297D01*
X157392993Y-76234075D01*
X157265826Y-76200000D01*
X157134174Y-76200000D01*
X157007007Y-76234075D01*
X156946000Y-76269297D01*
X156946000Y-75342000D01*
X156301402Y-75342000D01*
X156240906Y-75348505D01*
X156104035Y-75399555D01*
X156104034Y-75399555D01*
X155987095Y-75487095D01*
X155899555Y-75604034D01*
X155899555Y-75604035D01*
X155848505Y-75740906D01*
X155842000Y-75801402D01*
X155842000Y-76446000D01*
X156769297Y-76446000D01*
X156734075Y-76507007D01*
X156700000Y-76634174D01*
X156700000Y-76765826D01*
X156734075Y-76892993D01*
X156769297Y-76954000D01*
X155842000Y-76954000D01*
X155842000Y-77598597D01*
X155848505Y-77659093D01*
X155899555Y-77795964D01*
X155899555Y-77795965D01*
X155987095Y-77912904D01*
X156104034Y-78000444D01*
X156219172Y-78043388D01*
X156276008Y-78085935D01*
X156300819Y-78152455D01*
X156285728Y-78221829D01*
X156267841Y-78246782D01*
X156124280Y-78402729D01*
X156124275Y-78402734D01*
X156001141Y-78591206D01*
X155910703Y-78797386D01*
X155910702Y-78797387D01*
X155855437Y-79015624D01*
X155855436Y-79015630D01*
X155855436Y-79015632D01*
X155836844Y-79240000D01*
X155855436Y-79464368D01*
X155855436Y-79464370D01*
X155855437Y-79464375D01*
X155910702Y-79682612D01*
X155910703Y-79682613D01*
X156001141Y-79888793D01*
X156124275Y-80077265D01*
X156124279Y-80077270D01*
X156276762Y-80242908D01*
X156321234Y-80277522D01*
X156454424Y-80381189D01*
X156487680Y-80399186D01*
X156538071Y-80449200D01*
X156553423Y-80518516D01*
X156528862Y-80585129D01*
X156487680Y-80620813D01*
X156454426Y-80638810D01*
X156454424Y-80638811D01*
X156276762Y-80777091D01*
X156124279Y-80942729D01*
X156124275Y-80942734D01*
X156001141Y-81131206D01*
X155910703Y-81337386D01*
X155910702Y-81337387D01*
X155855437Y-81555624D01*
X155836844Y-81780000D01*
X155855437Y-82004375D01*
X155910702Y-82222612D01*
X155910703Y-82222613D01*
X156001141Y-82428793D01*
X156124275Y-82617265D01*
X156124279Y-82617270D01*
X156276762Y-82782908D01*
X156331331Y-82825381D01*
X156454424Y-82921189D01*
X156487680Y-82939186D01*
X156538071Y-82989200D01*
X156553423Y-83058516D01*
X156528862Y-83125129D01*
X156487680Y-83160813D01*
X156454426Y-83178810D01*
X156454424Y-83178811D01*
X156276762Y-83317091D01*
X156124279Y-83482729D01*
X156124275Y-83482734D01*
X156001141Y-83671206D01*
X155910703Y-83877386D01*
X155910702Y-83877387D01*
X155855437Y-84095624D01*
X155855436Y-84095630D01*
X155855436Y-84095632D01*
X155837062Y-84317366D01*
X155836844Y-84320000D01*
X155855437Y-84544375D01*
X155910702Y-84762612D01*
X155910703Y-84762613D01*
X155910704Y-84762616D01*
X156001140Y-84968791D01*
X156001141Y-84968793D01*
X156124275Y-85157265D01*
X156124279Y-85157270D01*
X156276762Y-85322908D01*
X156282400Y-85327296D01*
X156454424Y-85461189D01*
X156487680Y-85479186D01*
X156538071Y-85529200D01*
X156553423Y-85598516D01*
X156528862Y-85665129D01*
X156487680Y-85700813D01*
X156454426Y-85718810D01*
X156454424Y-85718811D01*
X156276762Y-85857091D01*
X156124279Y-86022729D01*
X156124275Y-86022734D01*
X156001141Y-86211206D01*
X155910703Y-86417386D01*
X155910702Y-86417387D01*
X155855437Y-86635624D01*
X155836844Y-86860000D01*
X155855437Y-87084375D01*
X155910702Y-87302612D01*
X155910703Y-87302613D01*
X156001141Y-87508793D01*
X156124275Y-87697265D01*
X156124279Y-87697270D01*
X156276762Y-87862908D01*
X156331331Y-87905381D01*
X156454424Y-88001189D01*
X156487680Y-88019186D01*
X156538071Y-88069200D01*
X156553423Y-88138516D01*
X156528862Y-88205129D01*
X156487680Y-88240813D01*
X156454426Y-88258810D01*
X156454424Y-88258811D01*
X156276762Y-88397091D01*
X156124279Y-88562729D01*
X156124275Y-88562734D01*
X156001141Y-88751206D01*
X155910703Y-88957386D01*
X155910702Y-88957387D01*
X155855437Y-89175624D01*
X155836844Y-89400000D01*
X155855436Y-89624369D01*
X155876038Y-89705723D01*
X155873370Y-89776670D01*
X155842989Y-89825749D01*
X155488508Y-90180231D01*
X155424686Y-90275750D01*
X155424685Y-90275752D01*
X155416444Y-90288084D01*
X155366807Y-90407919D01*
X155366806Y-90407922D01*
X155341500Y-90535139D01*
X155341500Y-96564860D01*
X155366806Y-96692077D01*
X155366807Y-96692080D01*
X155403870Y-96781558D01*
X155416445Y-96811917D01*
X155488509Y-96919769D01*
X155488513Y-96919773D01*
X155549323Y-96980583D01*
X155583349Y-97042895D01*
X155578284Y-97113710D01*
X155535737Y-97170546D01*
X155520198Y-97180491D01*
X155374704Y-97259228D01*
X155374698Y-97259232D01*
X155197097Y-97397465D01*
X155044670Y-97563045D01*
X154955780Y-97699101D01*
X154901776Y-97745189D01*
X154831428Y-97754764D01*
X154767071Y-97724786D01*
X154744816Y-97699101D01*
X154705884Y-97639511D01*
X154655724Y-97562734D01*
X154655720Y-97562729D01*
X154526600Y-97422470D01*
X154503240Y-97397094D01*
X154503239Y-97397093D01*
X154503237Y-97397091D01*
X154391651Y-97310240D01*
X154325576Y-97258811D01*
X154127574Y-97151658D01*
X154127572Y-97151657D01*
X154127571Y-97151656D01*
X153914639Y-97078557D01*
X153914630Y-97078555D01*
X153870476Y-97071187D01*
X153692569Y-97041500D01*
X153467431Y-97041500D01*
X153319211Y-97066233D01*
X153245369Y-97078555D01*
X153245360Y-97078557D01*
X153032428Y-97151656D01*
X153032426Y-97151658D01*
X152834426Y-97258810D01*
X152834424Y-97258811D01*
X152656762Y-97397091D01*
X152504279Y-97562729D01*
X152415483Y-97698643D01*
X152361479Y-97744731D01*
X152291131Y-97754306D01*
X152226774Y-97724329D01*
X152204517Y-97698643D01*
X152115720Y-97562729D01*
X151986600Y-97422470D01*
X151963240Y-97397094D01*
X151963239Y-97397093D01*
X151963237Y-97397091D01*
X151851651Y-97310240D01*
X151785576Y-97258811D01*
X151587574Y-97151658D01*
X151587572Y-97151657D01*
X151587571Y-97151656D01*
X151374639Y-97078557D01*
X151374630Y-97078555D01*
X151330476Y-97071187D01*
X151152569Y-97041500D01*
X150927431Y-97041500D01*
X150779211Y-97066233D01*
X150705369Y-97078555D01*
X150705360Y-97078557D01*
X150492428Y-97151656D01*
X150492426Y-97151658D01*
X150294426Y-97258810D01*
X150294424Y-97258811D01*
X150116759Y-97397094D01*
X150055374Y-97463775D01*
X149994521Y-97500346D01*
X149923557Y-97498211D01*
X149865012Y-97458049D01*
X149844618Y-97422470D01*
X149800443Y-97304033D01*
X149712904Y-97187095D01*
X149595965Y-97099555D01*
X149459093Y-97048505D01*
X149398597Y-97042000D01*
X148893449Y-97042000D01*
X148825328Y-97021998D01*
X148778835Y-96968342D01*
X148768731Y-96898068D01*
X148798225Y-96833488D01*
X148804340Y-96826918D01*
X149211490Y-96419769D01*
X149283555Y-96311917D01*
X149333194Y-96192077D01*
X149358500Y-96064857D01*
X149358500Y-93075143D01*
X149333194Y-92947923D01*
X149283555Y-92828083D01*
X149211490Y-92720231D01*
X149119769Y-92628510D01*
X148857010Y-92365751D01*
X148822984Y-92303439D01*
X148823960Y-92245726D01*
X148844564Y-92164368D01*
X148863156Y-91940000D01*
X148844564Y-91715632D01*
X148821548Y-91624745D01*
X148789297Y-91497387D01*
X148789296Y-91497386D01*
X148789296Y-91497384D01*
X148698860Y-91291209D01*
X148692140Y-91280924D01*
X148575724Y-91102734D01*
X148575720Y-91102729D01*
X148423237Y-90937091D01*
X148323525Y-90859482D01*
X148245576Y-90798811D01*
X148212319Y-90780813D01*
X148161929Y-90730802D01*
X148146576Y-90661485D01*
X148171136Y-90594872D01*
X148212320Y-90559186D01*
X148245576Y-90541189D01*
X148423240Y-90402906D01*
X148575722Y-90237268D01*
X148698860Y-90048791D01*
X148789296Y-89842616D01*
X148844564Y-89624368D01*
X148863156Y-89400000D01*
X148844564Y-89175632D01*
X148829174Y-89114857D01*
X148789297Y-88957387D01*
X148789296Y-88957386D01*
X148789296Y-88957384D01*
X148698860Y-88751209D01*
X148692140Y-88740924D01*
X148575724Y-88562734D01*
X148575720Y-88562729D01*
X148423237Y-88397091D01*
X148341382Y-88333381D01*
X148245576Y-88258811D01*
X148212319Y-88240813D01*
X148161929Y-88190802D01*
X148146576Y-88121485D01*
X148171136Y-88054872D01*
X148212320Y-88019186D01*
X148245576Y-88001189D01*
X148423240Y-87862906D01*
X148575722Y-87697268D01*
X148698860Y-87508791D01*
X148789296Y-87302616D01*
X148844564Y-87084368D01*
X148863156Y-86860000D01*
X148844564Y-86635632D01*
X148844562Y-86635624D01*
X148789297Y-86417387D01*
X148789296Y-86417386D01*
X148789296Y-86417384D01*
X148698860Y-86211209D01*
X148692140Y-86200924D01*
X148575724Y-86022734D01*
X148575720Y-86022729D01*
X148423237Y-85857091D01*
X148297760Y-85759428D01*
X148245576Y-85718811D01*
X148212319Y-85700813D01*
X148161929Y-85650802D01*
X148146576Y-85581485D01*
X148171136Y-85514872D01*
X148212320Y-85479186D01*
X148245576Y-85461189D01*
X148423240Y-85322906D01*
X148575722Y-85157268D01*
X148698860Y-84968791D01*
X148789296Y-84762616D01*
X148844564Y-84544368D01*
X148863156Y-84320000D01*
X148844564Y-84095632D01*
X148841388Y-84083092D01*
X148789297Y-83877387D01*
X148789296Y-83877386D01*
X148789296Y-83877384D01*
X148698860Y-83671209D01*
X148692140Y-83660924D01*
X148575724Y-83482734D01*
X148575720Y-83482729D01*
X148423237Y-83317091D01*
X148311029Y-83229756D01*
X148245576Y-83178811D01*
X148212319Y-83160813D01*
X148161929Y-83110802D01*
X148146576Y-83041485D01*
X148171136Y-82974872D01*
X148212320Y-82939186D01*
X148245576Y-82921189D01*
X148423240Y-82782906D01*
X148575722Y-82617268D01*
X148698860Y-82428791D01*
X148789296Y-82222616D01*
X148844564Y-82004368D01*
X148863156Y-81780000D01*
X148844564Y-81555632D01*
X148844562Y-81555624D01*
X148789297Y-81337387D01*
X148789296Y-81337386D01*
X148789296Y-81337384D01*
X148698860Y-81131209D01*
X148657542Y-81067967D01*
X148575724Y-80942734D01*
X148575720Y-80942729D01*
X148423237Y-80777091D01*
X148341382Y-80713381D01*
X148245576Y-80638811D01*
X148212319Y-80620813D01*
X148161929Y-80570802D01*
X148146576Y-80501485D01*
X148171136Y-80434872D01*
X148212320Y-80399186D01*
X148245576Y-80381189D01*
X148423240Y-80242906D01*
X148575722Y-80077268D01*
X148698860Y-79888791D01*
X148789296Y-79682616D01*
X148844564Y-79464368D01*
X148863156Y-79240000D01*
X148844564Y-79015632D01*
X148818299Y-78911913D01*
X148789297Y-78797387D01*
X148789296Y-78797386D01*
X148789296Y-78797384D01*
X148698860Y-78591209D01*
X148628327Y-78483250D01*
X148575724Y-78402734D01*
X148575714Y-78402722D01*
X148432159Y-78246782D01*
X148400737Y-78183117D01*
X148408723Y-78112571D01*
X148453582Y-78057542D01*
X148480827Y-78043388D01*
X148595965Y-78000444D01*
X148712904Y-77912904D01*
X148800444Y-77795965D01*
X148800444Y-77795964D01*
X148851494Y-77659093D01*
X148857999Y-77598597D01*
X148858000Y-77598585D01*
X148858000Y-76954000D01*
X147930703Y-76954000D01*
X147965925Y-76892993D01*
X148000000Y-76765826D01*
X148000000Y-76634174D01*
X147965925Y-76507007D01*
X147930703Y-76446000D01*
X148858000Y-76446000D01*
X148858000Y-75801414D01*
X148857999Y-75801402D01*
X148851494Y-75740906D01*
X148800444Y-75604035D01*
X148800444Y-75604034D01*
X148712904Y-75487095D01*
X148595965Y-75399555D01*
X148459093Y-75348505D01*
X148398597Y-75342000D01*
X147754000Y-75342000D01*
X147754000Y-76269297D01*
X147692993Y-76234075D01*
X147565826Y-76200000D01*
X147434174Y-76200000D01*
X147307007Y-76234075D01*
X147246000Y-76269297D01*
X147246000Y-75342000D01*
X146601402Y-75342000D01*
X146540906Y-75348505D01*
X146404035Y-75399555D01*
X146404034Y-75399555D01*
X146287095Y-75487095D01*
X146199555Y-75604034D01*
X146199555Y-75604035D01*
X146148505Y-75740906D01*
X146142000Y-75801402D01*
X146142000Y-76446000D01*
X147069297Y-76446000D01*
X147034075Y-76507007D01*
X147000000Y-76634174D01*
X147000000Y-76765826D01*
X147034075Y-76892993D01*
X147069297Y-76954000D01*
X146142000Y-76954000D01*
X146142000Y-77598597D01*
X146148505Y-77659093D01*
X146199555Y-77795964D01*
X146199555Y-77795965D01*
X146287095Y-77912904D01*
X146404034Y-78000444D01*
X146519172Y-78043388D01*
X146576008Y-78085935D01*
X146600819Y-78152455D01*
X146585728Y-78221829D01*
X146567841Y-78246782D01*
X146424280Y-78402729D01*
X146424275Y-78402734D01*
X146301141Y-78591206D01*
X146210703Y-78797386D01*
X146210702Y-78797387D01*
X146155437Y-79015624D01*
X146155436Y-79015630D01*
X146155436Y-79015632D01*
X146136844Y-79240000D01*
X146155436Y-79464368D01*
X146155436Y-79464370D01*
X146155437Y-79464375D01*
X146210702Y-79682612D01*
X146210703Y-79682613D01*
X146301141Y-79888793D01*
X146424275Y-80077265D01*
X146424279Y-80077270D01*
X146576762Y-80242908D01*
X146621234Y-80277522D01*
X146754424Y-80381189D01*
X146787680Y-80399186D01*
X146838071Y-80449200D01*
X146853423Y-80518516D01*
X146828862Y-80585129D01*
X146787680Y-80620813D01*
X146754426Y-80638810D01*
X146754424Y-80638811D01*
X146576762Y-80777091D01*
X146424279Y-80942729D01*
X146424275Y-80942734D01*
X146301141Y-81131206D01*
X146210703Y-81337386D01*
X146210702Y-81337387D01*
X146155437Y-81555624D01*
X146136844Y-81780000D01*
X146155437Y-82004375D01*
X146210702Y-82222612D01*
X146210703Y-82222613D01*
X146301141Y-82428793D01*
X146424275Y-82617265D01*
X146424279Y-82617270D01*
X146576762Y-82782908D01*
X146631331Y-82825381D01*
X146754424Y-82921189D01*
X146787680Y-82939186D01*
X146838071Y-82989200D01*
X146853423Y-83058516D01*
X146828862Y-83125129D01*
X146787680Y-83160813D01*
X146754426Y-83178810D01*
X146754424Y-83178811D01*
X146576762Y-83317091D01*
X146424279Y-83482729D01*
X146424275Y-83482734D01*
X146301141Y-83671206D01*
X146210703Y-83877386D01*
X146210702Y-83877387D01*
X146155437Y-84095624D01*
X146155436Y-84095630D01*
X146155436Y-84095632D01*
X146137062Y-84317366D01*
X146136844Y-84320000D01*
X146155437Y-84544375D01*
X146210702Y-84762612D01*
X146210703Y-84762613D01*
X146210704Y-84762616D01*
X146301140Y-84968791D01*
X146301141Y-84968793D01*
X146424275Y-85157265D01*
X146424279Y-85157270D01*
X146576762Y-85322908D01*
X146582400Y-85327296D01*
X146754424Y-85461189D01*
X146787680Y-85479186D01*
X146838071Y-85529200D01*
X146853423Y-85598516D01*
X146828862Y-85665129D01*
X146787680Y-85700813D01*
X146754426Y-85718810D01*
X146754424Y-85718811D01*
X146576762Y-85857091D01*
X146424279Y-86022729D01*
X146424275Y-86022734D01*
X146301141Y-86211206D01*
X146210703Y-86417386D01*
X146210702Y-86417387D01*
X146155437Y-86635624D01*
X146136844Y-86860000D01*
X146155437Y-87084375D01*
X146210702Y-87302612D01*
X146210703Y-87302613D01*
X146301141Y-87508793D01*
X146424275Y-87697265D01*
X146424279Y-87697270D01*
X146576762Y-87862908D01*
X146631331Y-87905381D01*
X146754424Y-88001189D01*
X146787680Y-88019186D01*
X146838071Y-88069200D01*
X146853423Y-88138516D01*
X146828862Y-88205129D01*
X146787680Y-88240813D01*
X146754426Y-88258810D01*
X146754424Y-88258811D01*
X146576762Y-88397091D01*
X146424279Y-88562729D01*
X146424275Y-88562734D01*
X146301141Y-88751206D01*
X146210703Y-88957386D01*
X146210702Y-88957387D01*
X146155437Y-89175624D01*
X146136844Y-89400000D01*
X146155436Y-89624369D01*
X146176038Y-89705723D01*
X146173370Y-89776670D01*
X146142989Y-89825749D01*
X145588511Y-90380228D01*
X145588510Y-90380230D01*
X145556714Y-90427816D01*
X145516445Y-90488082D01*
X145466807Y-90607919D01*
X145466806Y-90607922D01*
X145441500Y-90735139D01*
X145440894Y-90741298D01*
X145439618Y-90741172D01*
X145421498Y-90802885D01*
X145367842Y-90849378D01*
X145297568Y-90859482D01*
X145232988Y-90829988D01*
X145229247Y-90826614D01*
X145002139Y-90613345D01*
X144746781Y-90427817D01*
X144660217Y-90380228D01*
X144470179Y-90275753D01*
X144176702Y-90159557D01*
X143870975Y-90081060D01*
X143870970Y-90081059D01*
X143870965Y-90081058D01*
X143870967Y-90081058D01*
X143557835Y-90041501D01*
X143557824Y-90041500D01*
X143557821Y-90041500D01*
X143242179Y-90041500D01*
X143242176Y-90041500D01*
X143242164Y-90041501D01*
X142929033Y-90081058D01*
X142623301Y-90159556D01*
X142623299Y-90159556D01*
X142623298Y-90159557D01*
X142333132Y-90274442D01*
X142329821Y-90275753D01*
X142053218Y-90427817D01*
X141797861Y-90613345D01*
X141797860Y-90613345D01*
X141567763Y-90829421D01*
X141366562Y-91072631D01*
X141197443Y-91339121D01*
X141197436Y-91339135D01*
X141063044Y-91624732D01*
X141063039Y-91624745D01*
X140965507Y-91924919D01*
X140965504Y-91924932D01*
X140906359Y-92234975D01*
X140906357Y-92234992D01*
X140886540Y-92549993D01*
X140886540Y-92550006D01*
X140906357Y-92865007D01*
X140906359Y-92865024D01*
X140965504Y-93175067D01*
X140965507Y-93175080D01*
X141000261Y-93282043D01*
X141002288Y-93353011D01*
X140965626Y-93413809D01*
X140901913Y-93445134D01*
X140831379Y-93437040D01*
X140791333Y-93410074D01*
X136781259Y-89400000D01*
X132398166Y-85016906D01*
X132364140Y-84954594D01*
X132365116Y-84896881D01*
X132394051Y-84782626D01*
X132413327Y-84550000D01*
X132394051Y-84317374D01*
X132365117Y-84203117D01*
X132336750Y-84091096D01*
X132336747Y-84091089D01*
X132242984Y-83877331D01*
X132115314Y-83681916D01*
X131957225Y-83510186D01*
X131957221Y-83510182D01*
X131851200Y-83427663D01*
X131773017Y-83366810D01*
X131743345Y-83350752D01*
X131724529Y-83340569D01*
X131674139Y-83290555D01*
X131658500Y-83229756D01*
X131658500Y-79985142D01*
X131658499Y-79985139D01*
X131658332Y-79984300D01*
X131654215Y-79963601D01*
X131660540Y-79892889D01*
X131704093Y-79836820D01*
X131771044Y-79813198D01*
X131825704Y-79823890D01*
X131826140Y-79822789D01*
X131829817Y-79824244D01*
X131829821Y-79824247D01*
X132123298Y-79940443D01*
X132429025Y-80018940D01*
X132429033Y-80018941D01*
X132429032Y-80018941D01*
X132532929Y-80032066D01*
X132742179Y-80058500D01*
X132742183Y-80058500D01*
X133057817Y-80058500D01*
X133057821Y-80058500D01*
X133370975Y-80018940D01*
X133676702Y-79940443D01*
X133970179Y-79824247D01*
X134246779Y-79672184D01*
X134502140Y-79486654D01*
X134732233Y-79270582D01*
X134840260Y-79140000D01*
X136586502Y-79140000D01*
X136606457Y-79368087D01*
X136637764Y-79484927D01*
X136665715Y-79589240D01*
X136665717Y-79589246D01*
X136762477Y-79796749D01*
X136818837Y-79877240D01*
X136893802Y-79984300D01*
X137055700Y-80146198D01*
X137243251Y-80277523D01*
X137450757Y-80374284D01*
X137671913Y-80433543D01*
X137900000Y-80453498D01*
X138128087Y-80433543D01*
X138349243Y-80374284D01*
X138556749Y-80277523D01*
X138744300Y-80146198D01*
X138906198Y-79984300D01*
X139037523Y-79796749D01*
X139134284Y-79589243D01*
X139193543Y-79368087D01*
X139213498Y-79140000D01*
X139686502Y-79140000D01*
X139706457Y-79368087D01*
X139737764Y-79484927D01*
X139765715Y-79589240D01*
X139765717Y-79589246D01*
X139862477Y-79796749D01*
X139918837Y-79877240D01*
X139993802Y-79984300D01*
X140155700Y-80146198D01*
X140343251Y-80277523D01*
X140550757Y-80374284D01*
X140771913Y-80433543D01*
X141000000Y-80453498D01*
X141228087Y-80433543D01*
X141449243Y-80374284D01*
X141656749Y-80277523D01*
X141844300Y-80146198D01*
X142006198Y-79984300D01*
X142137523Y-79796749D01*
X142234284Y-79589243D01*
X142293543Y-79368087D01*
X142313498Y-79140000D01*
X142293543Y-78911913D01*
X142234284Y-78690757D01*
X142137523Y-78483251D01*
X142006198Y-78295700D01*
X141844300Y-78133802D01*
X141656749Y-78002477D01*
X141652389Y-78000444D01*
X141449246Y-77905717D01*
X141449240Y-77905715D01*
X141297379Y-77865024D01*
X141228087Y-77846457D01*
X141000000Y-77826502D01*
X140771913Y-77846457D01*
X140550759Y-77905715D01*
X140550753Y-77905717D01*
X140343250Y-78002477D01*
X140155703Y-78133799D01*
X140155697Y-78133804D01*
X139993804Y-78295697D01*
X139993799Y-78295703D01*
X139862477Y-78483250D01*
X139765717Y-78690753D01*
X139765715Y-78690759D01*
X139726348Y-78837680D01*
X139706457Y-78911913D01*
X139686502Y-79140000D01*
X139213498Y-79140000D01*
X139193543Y-78911913D01*
X139134284Y-78690757D01*
X139037523Y-78483251D01*
X138906198Y-78295700D01*
X138744300Y-78133802D01*
X138556749Y-78002477D01*
X138552389Y-78000444D01*
X138349246Y-77905717D01*
X138349240Y-77905715D01*
X138197379Y-77865024D01*
X138128087Y-77846457D01*
X137900000Y-77826502D01*
X137671913Y-77846457D01*
X137450759Y-77905715D01*
X137450753Y-77905717D01*
X137243250Y-78002477D01*
X137055703Y-78133799D01*
X137055697Y-78133804D01*
X136893804Y-78295697D01*
X136893799Y-78295703D01*
X136762477Y-78483250D01*
X136665717Y-78690753D01*
X136665715Y-78690759D01*
X136626348Y-78837680D01*
X136606457Y-78911913D01*
X136586502Y-79140000D01*
X134840260Y-79140000D01*
X134933432Y-79027375D01*
X134933434Y-79027370D01*
X134933437Y-79027368D01*
X135079387Y-78797387D01*
X135102562Y-78760869D01*
X135236956Y-78475266D01*
X135246747Y-78445134D01*
X135276679Y-78353011D01*
X135334495Y-78175072D01*
X135393641Y-77865020D01*
X135394809Y-77846457D01*
X135413460Y-77550006D01*
X135413460Y-77549993D01*
X135393642Y-77234992D01*
X135393640Y-77234975D01*
X135367911Y-77100099D01*
X135334495Y-76924928D01*
X135276679Y-76746989D01*
X135236960Y-76624745D01*
X135236955Y-76624732D01*
X135181558Y-76507007D01*
X135102562Y-76339131D01*
X135077666Y-76299901D01*
X134933437Y-76072631D01*
X134732236Y-75829421D01*
X134502139Y-75613345D01*
X134246781Y-75427817D01*
X134124492Y-75360588D01*
X133970179Y-75275753D01*
X133676702Y-75159557D01*
X133370975Y-75081060D01*
X133370970Y-75081059D01*
X133370965Y-75081058D01*
X133370967Y-75081058D01*
X133057835Y-75041501D01*
X133057824Y-75041500D01*
X133057821Y-75041500D01*
X132742179Y-75041500D01*
X132742176Y-75041500D01*
X132742164Y-75041501D01*
X132429033Y-75081058D01*
X132123301Y-75159556D01*
X131829821Y-75275753D01*
X131553218Y-75427817D01*
X131297861Y-75613345D01*
X131297860Y-75613345D01*
X131067763Y-75829421D01*
X130866562Y-76072631D01*
X130697443Y-76339121D01*
X130697436Y-76339135D01*
X130563044Y-76624732D01*
X130563039Y-76624745D01*
X130465507Y-76924919D01*
X130465504Y-76924932D01*
X130406359Y-77234975D01*
X130406357Y-77234992D01*
X130386540Y-77549993D01*
X130386540Y-77550006D01*
X130406357Y-77865007D01*
X130406359Y-77865024D01*
X130465504Y-78175067D01*
X130465507Y-78175080D01*
X130500261Y-78282043D01*
X130502288Y-78353011D01*
X130465626Y-78413809D01*
X130401913Y-78445134D01*
X130331379Y-78437040D01*
X130291333Y-78410074D01*
X126302996Y-74421737D01*
X125581259Y-73700000D01*
X146106502Y-73700000D01*
X146126457Y-73928086D01*
X146185715Y-74149240D01*
X146185717Y-74149246D01*
X146282477Y-74356749D01*
X146411894Y-74541576D01*
X146413802Y-74544300D01*
X146575700Y-74706198D01*
X146763251Y-74837523D01*
X146970757Y-74934284D01*
X147191913Y-74993543D01*
X147420000Y-75013498D01*
X147648087Y-74993543D01*
X147869243Y-74934284D01*
X148076749Y-74837523D01*
X148264300Y-74706198D01*
X148426198Y-74544300D01*
X148557523Y-74356749D01*
X148654284Y-74149243D01*
X148713543Y-73928087D01*
X148733498Y-73700000D01*
X153726502Y-73700000D01*
X153746457Y-73928086D01*
X153805715Y-74149240D01*
X153805717Y-74149246D01*
X153902477Y-74356749D01*
X154031894Y-74541576D01*
X154033802Y-74544300D01*
X154195700Y-74706198D01*
X154383251Y-74837523D01*
X154590757Y-74934284D01*
X154811913Y-74993543D01*
X155040000Y-75013498D01*
X155268087Y-74993543D01*
X155489243Y-74934284D01*
X155696749Y-74837523D01*
X155884300Y-74706198D01*
X156046198Y-74544300D01*
X156177523Y-74356749D01*
X156274284Y-74149243D01*
X156333543Y-73928087D01*
X156353498Y-73700000D01*
X156333543Y-73471913D01*
X156274284Y-73250757D01*
X156177523Y-73043251D01*
X156046198Y-72855700D01*
X155884300Y-72693802D01*
X155832488Y-72657523D01*
X155696749Y-72562477D01*
X155489246Y-72465717D01*
X155489240Y-72465715D01*
X155395771Y-72440670D01*
X155268087Y-72406457D01*
X155040000Y-72386502D01*
X154811913Y-72406457D01*
X154590759Y-72465715D01*
X154590753Y-72465717D01*
X154383250Y-72562477D01*
X154195703Y-72693799D01*
X154195697Y-72693804D01*
X154033804Y-72855697D01*
X154033799Y-72855703D01*
X153902477Y-73043250D01*
X153805717Y-73250753D01*
X153805715Y-73250759D01*
X153746457Y-73471913D01*
X153726502Y-73700000D01*
X148733498Y-73700000D01*
X148713543Y-73471913D01*
X148654284Y-73250757D01*
X148557523Y-73043251D01*
X148426198Y-72855700D01*
X148264300Y-72693802D01*
X148212488Y-72657523D01*
X148076749Y-72562477D01*
X147869246Y-72465717D01*
X147869240Y-72465715D01*
X147775771Y-72440670D01*
X147648087Y-72406457D01*
X147420000Y-72386502D01*
X147191913Y-72406457D01*
X146970759Y-72465715D01*
X146970753Y-72465717D01*
X146763250Y-72562477D01*
X146575703Y-72693799D01*
X146575697Y-72693804D01*
X146413804Y-72855697D01*
X146413799Y-72855703D01*
X146282477Y-73043250D01*
X146185717Y-73250753D01*
X146185715Y-73250759D01*
X146126457Y-73471913D01*
X146106502Y-73700000D01*
X125581259Y-73700000D01*
X123401260Y-71520000D01*
X136586502Y-71520000D01*
X136606457Y-71748087D01*
X136665716Y-71969243D01*
X136762477Y-72176749D01*
X136893802Y-72364300D01*
X137055700Y-72526198D01*
X137243251Y-72657523D01*
X137450757Y-72754284D01*
X137671913Y-72813543D01*
X137900000Y-72833498D01*
X138128087Y-72813543D01*
X138349243Y-72754284D01*
X138556749Y-72657523D01*
X138744300Y-72526198D01*
X138906198Y-72364300D01*
X139037523Y-72176749D01*
X139134284Y-71969243D01*
X139193543Y-71748087D01*
X139213498Y-71520000D01*
X139686502Y-71520000D01*
X139706457Y-71748087D01*
X139765716Y-71969243D01*
X139862477Y-72176749D01*
X139993802Y-72364300D01*
X140155700Y-72526198D01*
X140343251Y-72657523D01*
X140550757Y-72754284D01*
X140771913Y-72813543D01*
X141000000Y-72833498D01*
X141228087Y-72813543D01*
X141449243Y-72754284D01*
X141656749Y-72657523D01*
X141844300Y-72526198D01*
X142006198Y-72364300D01*
X142137523Y-72176749D01*
X142234284Y-71969243D01*
X142293543Y-71748087D01*
X142313498Y-71520000D01*
X142293543Y-71291913D01*
X142234284Y-71070757D01*
X142137523Y-70863251D01*
X142006198Y-70675700D01*
X141930498Y-70600000D01*
X146106502Y-70600000D01*
X146126457Y-70828087D01*
X146150842Y-70919092D01*
X146185715Y-71049240D01*
X146185717Y-71049246D01*
X146259026Y-71206457D01*
X146282477Y-71256749D01*
X146413802Y-71444300D01*
X146575700Y-71606198D01*
X146763251Y-71737523D01*
X146970757Y-71834284D01*
X147191913Y-71893543D01*
X147420000Y-71913498D01*
X147648087Y-71893543D01*
X147869243Y-71834284D01*
X148076749Y-71737523D01*
X148264300Y-71606198D01*
X148426198Y-71444300D01*
X148557523Y-71256749D01*
X148654284Y-71049243D01*
X148713543Y-70828087D01*
X148733498Y-70600000D01*
X153726502Y-70600000D01*
X153746457Y-70828087D01*
X153770842Y-70919092D01*
X153805715Y-71049240D01*
X153805717Y-71049246D01*
X153879026Y-71206457D01*
X153902477Y-71256749D01*
X154033802Y-71444300D01*
X154195700Y-71606198D01*
X154383251Y-71737523D01*
X154590757Y-71834284D01*
X154811913Y-71893543D01*
X155040000Y-71913498D01*
X155268087Y-71893543D01*
X155489243Y-71834284D01*
X155696749Y-71737523D01*
X155884300Y-71606198D01*
X156046198Y-71444300D01*
X156177523Y-71256749D01*
X156274284Y-71049243D01*
X156333543Y-70828087D01*
X156353498Y-70600000D01*
X156333543Y-70371913D01*
X156274284Y-70150757D01*
X156177523Y-69943251D01*
X156046198Y-69755700D01*
X155884300Y-69593802D01*
X155821744Y-69550000D01*
X155696749Y-69462477D01*
X155489246Y-69365717D01*
X155489240Y-69365715D01*
X155395771Y-69340670D01*
X155268087Y-69306457D01*
X155040000Y-69286502D01*
X154811913Y-69306457D01*
X154590759Y-69365715D01*
X154590753Y-69365717D01*
X154383250Y-69462477D01*
X154195703Y-69593799D01*
X154195697Y-69593804D01*
X154033804Y-69755697D01*
X154033799Y-69755703D01*
X153902477Y-69943250D01*
X153805717Y-70150753D01*
X153805715Y-70150759D01*
X153769553Y-70285717D01*
X153746457Y-70371913D01*
X153726502Y-70600000D01*
X148733498Y-70600000D01*
X148713543Y-70371913D01*
X148654284Y-70150757D01*
X148557523Y-69943251D01*
X148426198Y-69755700D01*
X148264300Y-69593802D01*
X148201744Y-69550000D01*
X148076749Y-69462477D01*
X147869246Y-69365717D01*
X147869240Y-69365715D01*
X147775771Y-69340670D01*
X147648087Y-69306457D01*
X147420000Y-69286502D01*
X147191913Y-69306457D01*
X146970759Y-69365715D01*
X146970753Y-69365717D01*
X146763250Y-69462477D01*
X146575703Y-69593799D01*
X146575697Y-69593804D01*
X146413804Y-69755697D01*
X146413799Y-69755703D01*
X146282477Y-69943250D01*
X146185717Y-70150753D01*
X146185715Y-70150759D01*
X146149553Y-70285717D01*
X146126457Y-70371913D01*
X146106502Y-70600000D01*
X141930498Y-70600000D01*
X141844300Y-70513802D01*
X141707599Y-70418083D01*
X141656749Y-70382477D01*
X141449246Y-70285717D01*
X141449240Y-70285715D01*
X141355771Y-70260670D01*
X141228087Y-70226457D01*
X141000000Y-70206502D01*
X140771913Y-70226457D01*
X140550759Y-70285715D01*
X140550753Y-70285717D01*
X140343250Y-70382477D01*
X140155703Y-70513799D01*
X140155697Y-70513804D01*
X139993804Y-70675697D01*
X139993799Y-70675703D01*
X139862477Y-70863250D01*
X139765717Y-71070753D01*
X139765715Y-71070759D01*
X139713476Y-71265717D01*
X139706457Y-71291913D01*
X139686502Y-71520000D01*
X139213498Y-71520000D01*
X139193543Y-71291913D01*
X139134284Y-71070757D01*
X139037523Y-70863251D01*
X138906198Y-70675700D01*
X138744300Y-70513802D01*
X138607599Y-70418083D01*
X138556749Y-70382477D01*
X138349246Y-70285717D01*
X138349240Y-70285715D01*
X138255771Y-70260670D01*
X138128087Y-70226457D01*
X137900000Y-70206502D01*
X137671913Y-70226457D01*
X137450759Y-70285715D01*
X137450753Y-70285717D01*
X137243250Y-70382477D01*
X137055703Y-70513799D01*
X137055697Y-70513804D01*
X136893804Y-70675697D01*
X136893799Y-70675703D01*
X136762477Y-70863250D01*
X136665717Y-71070753D01*
X136665715Y-71070759D01*
X136613476Y-71265717D01*
X136606457Y-71291913D01*
X136586502Y-71520000D01*
X123401260Y-71520000D01*
X121898166Y-70016906D01*
X121864140Y-69954594D01*
X121865116Y-69896881D01*
X121894051Y-69782626D01*
X121913327Y-69550000D01*
X121894051Y-69317374D01*
X121836749Y-69091093D01*
X121742984Y-68877331D01*
X121674445Y-68772424D01*
X121615314Y-68681916D01*
X121457225Y-68510186D01*
X121457221Y-68510182D01*
X121365118Y-68438496D01*
X121273017Y-68366810D01*
X121067727Y-68255713D01*
X121067724Y-68255712D01*
X121067723Y-68255711D01*
X120846955Y-68179921D01*
X120846948Y-68179919D01*
X120748411Y-68163476D01*
X120616712Y-68141500D01*
X120383288Y-68141500D01*
X120268066Y-68160727D01*
X120153051Y-68179919D01*
X120153044Y-68179921D01*
X119932276Y-68255711D01*
X119932273Y-68255713D01*
X119726985Y-68366809D01*
X119726983Y-68366810D01*
X119542778Y-68510182D01*
X119542774Y-68510186D01*
X119384685Y-68681916D01*
X119355483Y-68726615D01*
X119301480Y-68772704D01*
X119231132Y-68782279D01*
X119166774Y-68752302D01*
X119144517Y-68726615D01*
X119115314Y-68681916D01*
X118957225Y-68510186D01*
X118957221Y-68510182D01*
X118865118Y-68438496D01*
X118773017Y-68366810D01*
X118567727Y-68255713D01*
X118567724Y-68255712D01*
X118567723Y-68255711D01*
X118346955Y-68179921D01*
X118346948Y-68179919D01*
X118248411Y-68163476D01*
X118116712Y-68141500D01*
X117883288Y-68141500D01*
X117768066Y-68160727D01*
X117653051Y-68179919D01*
X117653044Y-68179921D01*
X117432276Y-68255711D01*
X117432273Y-68255713D01*
X117226985Y-68366809D01*
X117226983Y-68366810D01*
X117042778Y-68510182D01*
X117042774Y-68510186D01*
X116884685Y-68681916D01*
X116855483Y-68726615D01*
X116801480Y-68772704D01*
X116731132Y-68782279D01*
X116666774Y-68752302D01*
X116644517Y-68726615D01*
X116615314Y-68681916D01*
X116457225Y-68510186D01*
X116457221Y-68510182D01*
X116365118Y-68438496D01*
X116273017Y-68366810D01*
X116067727Y-68255713D01*
X116067724Y-68255712D01*
X116067723Y-68255711D01*
X115846955Y-68179921D01*
X115846948Y-68179919D01*
X115748411Y-68163476D01*
X115616712Y-68141500D01*
X115383288Y-68141500D01*
X115268066Y-68160727D01*
X115153051Y-68179919D01*
X115153044Y-68179921D01*
X114932276Y-68255711D01*
X114932273Y-68255713D01*
X114726985Y-68366809D01*
X114726983Y-68366810D01*
X114542778Y-68510182D01*
X114542774Y-68510186D01*
X114384685Y-68681916D01*
X114257015Y-68877331D01*
X114163252Y-69091089D01*
X114163249Y-69091096D01*
X114105950Y-69317366D01*
X114105949Y-69317372D01*
X114105949Y-69317374D01*
X114086673Y-69550000D01*
X114105950Y-69782633D01*
X114163249Y-70008903D01*
X114163252Y-70008910D01*
X114257015Y-70222668D01*
X114384685Y-70418083D01*
X114542774Y-70589813D01*
X114542778Y-70589817D01*
X114608650Y-70641087D01*
X114726983Y-70733190D01*
X114932273Y-70844287D01*
X115153049Y-70920080D01*
X115383288Y-70958500D01*
X115383292Y-70958500D01*
X115616708Y-70958500D01*
X115616712Y-70958500D01*
X115846951Y-70920080D01*
X115846959Y-70920077D01*
X115850850Y-70919092D01*
X115921797Y-70921758D01*
X115970880Y-70952140D01*
X116634593Y-71615852D01*
X116668618Y-71678165D01*
X116663554Y-71748980D01*
X116648712Y-71777217D01*
X116602479Y-71843246D01*
X116505717Y-72050753D01*
X116505716Y-72050757D01*
X116446457Y-72271913D01*
X116426502Y-72500000D01*
X116443457Y-72693802D01*
X116446457Y-72728086D01*
X116505715Y-72949240D01*
X116505717Y-72949246D01*
X116602477Y-73156749D01*
X116733795Y-73344291D01*
X116733802Y-73344300D01*
X116895700Y-73506198D01*
X117083251Y-73637523D01*
X117290757Y-73734284D01*
X117511913Y-73793543D01*
X117740000Y-73813498D01*
X117968087Y-73793543D01*
X118189243Y-73734284D01*
X118396749Y-73637523D01*
X118584300Y-73506198D01*
X118746198Y-73344300D01*
X118877523Y-73156749D01*
X118877524Y-73156746D01*
X118879656Y-73153702D01*
X118935113Y-73109373D01*
X119005732Y-73102064D01*
X119069092Y-73134094D01*
X119071964Y-73136877D01*
X120904595Y-74969508D01*
X120938621Y-75031820D01*
X120941500Y-75058603D01*
X120941500Y-75216000D01*
X120921498Y-75284121D01*
X120867842Y-75330614D01*
X120815500Y-75342000D01*
X120354000Y-75342000D01*
X120354000Y-76269297D01*
X120292993Y-76234075D01*
X120165826Y-76200000D01*
X120034174Y-76200000D01*
X119907007Y-76234075D01*
X119846000Y-76269297D01*
X119846000Y-75342000D01*
X119201402Y-75342000D01*
X119140906Y-75348505D01*
X119004035Y-75399555D01*
X119004034Y-75399555D01*
X118887095Y-75487095D01*
X118799555Y-75604034D01*
X118799555Y-75604035D01*
X118748505Y-75740906D01*
X118742000Y-75801402D01*
X118742000Y-76446000D01*
X119669297Y-76446000D01*
X119634075Y-76507007D01*
X119600000Y-76634174D01*
X119600000Y-76765826D01*
X119634075Y-76892993D01*
X119669297Y-76954000D01*
X118742000Y-76954000D01*
X118742000Y-77598597D01*
X118748505Y-77659093D01*
X118799555Y-77795964D01*
X118799555Y-77795965D01*
X118887095Y-77912904D01*
X119004034Y-78000444D01*
X119119172Y-78043388D01*
X119176008Y-78085935D01*
X119200819Y-78152455D01*
X119185728Y-78221829D01*
X119167841Y-78246782D01*
X119024280Y-78402729D01*
X119024275Y-78402734D01*
X118901141Y-78591206D01*
X118810703Y-78797386D01*
X118810702Y-78797387D01*
X118755437Y-79015624D01*
X118755436Y-79015630D01*
X118755436Y-79015632D01*
X118736844Y-79240000D01*
X118755436Y-79464369D01*
X118776038Y-79545723D01*
X118773370Y-79616670D01*
X118742989Y-79665749D01*
X117888508Y-80520231D01*
X117888506Y-80520234D01*
X117860973Y-80561442D01*
X117860972Y-80561444D01*
X117816445Y-80628083D01*
X117766807Y-80747919D01*
X117766806Y-80747922D01*
X117741500Y-80875139D01*
X117741500Y-95864860D01*
X117760339Y-95959564D01*
X117766806Y-95992077D01*
X117816445Y-96111917D01*
X117888509Y-96219769D01*
X120511356Y-98842616D01*
X123104595Y-101435854D01*
X123138621Y-101498166D01*
X123141500Y-101524949D01*
X123141500Y-141264860D01*
X123166806Y-141392077D01*
X123216445Y-141511917D01*
X123288509Y-141619769D01*
X123288513Y-141619773D01*
X125964885Y-144296145D01*
X125998911Y-144358457D01*
X125998309Y-144414654D01*
X125941068Y-144653080D01*
X125941066Y-144653089D01*
X125921634Y-144900000D01*
X125941066Y-145146911D01*
X125998885Y-145387742D01*
X126093666Y-145616563D01*
X126093667Y-145616564D01*
X126210773Y-145807666D01*
X126229311Y-145876199D01*
X126207854Y-145943876D01*
X126153215Y-145989209D01*
X126103340Y-145999500D01*
X115896660Y-145999500D01*
X115828539Y-145979498D01*
X115782046Y-145925842D01*
X115771942Y-145855568D01*
X115789227Y-145807666D01*
X115827674Y-145744924D01*
X115906334Y-145616563D01*
X116001115Y-145387742D01*
X116058934Y-145146911D01*
X116078366Y-144900000D01*
X116058934Y-144653089D01*
X116001115Y-144412258D01*
X115906334Y-144183437D01*
X115776925Y-143972260D01*
X115776922Y-143972256D01*
X115616073Y-143783926D01*
X115427743Y-143623077D01*
X115427741Y-143623076D01*
X115427740Y-143623075D01*
X115216563Y-143493666D01*
X115038155Y-143419767D01*
X114987742Y-143398885D01*
X114846123Y-143364885D01*
X114746911Y-143341066D01*
X114746912Y-143341066D01*
X114500000Y-143321634D01*
X114253088Y-143341066D01*
X114014654Y-143398309D01*
X113943746Y-143394762D01*
X113896145Y-143364885D01*
X113295405Y-142764145D01*
X113261379Y-142701833D01*
X113258500Y-142675050D01*
X113258500Y-137882263D01*
X113278502Y-137814142D01*
X113332158Y-137767649D01*
X113402432Y-137757545D01*
X113466328Y-137786451D01*
X113572260Y-137876925D01*
X113783437Y-138006334D01*
X114012258Y-138101115D01*
X114253089Y-138158934D01*
X114500000Y-138178366D01*
X114746911Y-138158934D01*
X114987742Y-138101115D01*
X115216563Y-138006334D01*
X115427740Y-137876925D01*
X115616073Y-137716073D01*
X115776925Y-137527740D01*
X115906334Y-137316563D01*
X116001115Y-137087742D01*
X116058934Y-136846911D01*
X116078366Y-136600000D01*
X116058934Y-136353089D01*
X116001115Y-136112258D01*
X115906334Y-135883437D01*
X115776925Y-135672260D01*
X115756318Y-135648132D01*
X115616073Y-135483926D01*
X115427743Y-135323077D01*
X115427741Y-135323076D01*
X115427740Y-135323075D01*
X115216563Y-135193666D01*
X115148343Y-135165408D01*
X115093063Y-135120860D01*
X115070642Y-135053497D01*
X115088200Y-134984706D01*
X115140162Y-134936328D01*
X115196562Y-134923000D01*
X115513585Y-134923000D01*
X115513597Y-134922999D01*
X115574093Y-134916494D01*
X115710964Y-134865444D01*
X115710965Y-134865444D01*
X115827904Y-134777904D01*
X115915444Y-134660965D01*
X115915444Y-134660964D01*
X115966494Y-134524093D01*
X115972999Y-134463597D01*
X115973000Y-134463585D01*
X115973000Y-133754000D01*
X115055049Y-133754000D01*
X115086558Y-133677931D01*
X115110000Y-133560080D01*
X115110000Y-133439920D01*
X115086558Y-133322069D01*
X115055049Y-133246000D01*
X115973000Y-133246000D01*
X115973000Y-132536414D01*
X115972999Y-132536402D01*
X115966494Y-132475906D01*
X115915444Y-132339035D01*
X115915444Y-132339034D01*
X115827904Y-132222095D01*
X115710965Y-132134555D01*
X115574093Y-132083505D01*
X115513597Y-132077000D01*
X115196562Y-132077000D01*
X115128441Y-132056998D01*
X115081948Y-132003342D01*
X115071844Y-131933068D01*
X115101338Y-131868488D01*
X115148343Y-131834591D01*
X115216563Y-131806334D01*
X115427740Y-131676925D01*
X115616073Y-131516073D01*
X115776925Y-131327740D01*
X115906334Y-131116563D01*
X116001115Y-130887742D01*
X116058934Y-130646911D01*
X116078366Y-130400000D01*
X116058934Y-130153089D01*
X116001115Y-129912258D01*
X115906334Y-129683437D01*
X115776925Y-129472260D01*
X115776922Y-129472256D01*
X115616073Y-129283926D01*
X115427743Y-129123077D01*
X115427741Y-129123076D01*
X115427740Y-129123075D01*
X115216563Y-128993666D01*
X115168276Y-128973665D01*
X114987742Y-128898885D01*
X114927000Y-128884302D01*
X114746911Y-128841066D01*
X114746912Y-128841066D01*
X114500000Y-128821634D01*
X114253088Y-128841066D01*
X114012257Y-128898885D01*
X113783438Y-128993665D01*
X113572258Y-129123076D01*
X113572256Y-129123077D01*
X113466330Y-129213547D01*
X113401540Y-129242578D01*
X113331340Y-129231973D01*
X113278018Y-129185098D01*
X113258500Y-129117736D01*
X113258500Y-128040000D01*
X119686502Y-128040000D01*
X119706457Y-128268087D01*
X119712532Y-128290759D01*
X119765715Y-128489240D01*
X119765717Y-128489246D01*
X119821674Y-128609246D01*
X119862477Y-128696749D01*
X119993802Y-128884300D01*
X120155700Y-129046198D01*
X120343251Y-129177523D01*
X120550757Y-129274284D01*
X120771913Y-129333543D01*
X121000000Y-129353498D01*
X121228087Y-129333543D01*
X121449243Y-129274284D01*
X121656749Y-129177523D01*
X121844300Y-129046198D01*
X122006198Y-128884300D01*
X122137523Y-128696749D01*
X122234284Y-128489243D01*
X122293543Y-128268087D01*
X122313498Y-128040000D01*
X122293543Y-127811913D01*
X122234284Y-127590757D01*
X122137523Y-127383251D01*
X122006198Y-127195700D01*
X121844300Y-127033802D01*
X121828126Y-127022477D01*
X121656749Y-126902477D01*
X121449246Y-126805717D01*
X121449240Y-126805715D01*
X121355771Y-126780670D01*
X121228087Y-126746457D01*
X121000000Y-126726502D01*
X120771913Y-126746457D01*
X120550759Y-126805715D01*
X120550753Y-126805717D01*
X120343250Y-126902477D01*
X120155703Y-127033799D01*
X120155697Y-127033804D01*
X119993804Y-127195697D01*
X119993799Y-127195703D01*
X119862477Y-127383250D01*
X119765717Y-127590753D01*
X119765715Y-127590759D01*
X119733563Y-127710753D01*
X119706457Y-127811913D01*
X119686502Y-128040000D01*
X113258500Y-128040000D01*
X113258500Y-123034480D01*
X113278502Y-122966359D01*
X113295405Y-122945384D01*
X113851379Y-122389409D01*
X113870807Y-122436311D01*
X113948507Y-122552598D01*
X114047402Y-122651493D01*
X114163689Y-122729193D01*
X114210588Y-122748619D01*
X113578839Y-123380368D01*
X113578839Y-123380369D01*
X113783666Y-123505887D01*
X114012412Y-123600637D01*
X114253168Y-123658437D01*
X114500000Y-123677863D01*
X114746831Y-123658437D01*
X114987587Y-123600637D01*
X115216333Y-123505887D01*
X115421159Y-123380369D01*
X115421159Y-123380368D01*
X114789410Y-122748619D01*
X114836311Y-122729193D01*
X114952598Y-122651493D01*
X115051493Y-122552598D01*
X115129193Y-122436311D01*
X115148619Y-122389410D01*
X115780368Y-123021159D01*
X115780369Y-123021159D01*
X115905887Y-122816333D01*
X116000637Y-122587587D01*
X116058437Y-122346831D01*
X116077863Y-122100000D01*
X116058437Y-121853168D01*
X116000637Y-121612412D01*
X115905887Y-121383666D01*
X115780369Y-121178839D01*
X115780368Y-121178839D01*
X115148619Y-121810588D01*
X115129193Y-121763689D01*
X115051493Y-121647402D01*
X114952598Y-121548507D01*
X114836311Y-121470807D01*
X114789410Y-121451379D01*
X115421159Y-120819630D01*
X115421159Y-120819628D01*
X115216336Y-120694114D01*
X115147037Y-120665409D01*
X115091756Y-120620860D01*
X115069335Y-120553497D01*
X115086893Y-120484706D01*
X115138856Y-120436327D01*
X115195255Y-120423000D01*
X115513585Y-120423000D01*
X115513597Y-120422999D01*
X115541487Y-120420000D01*
X119686502Y-120420000D01*
X119706457Y-120648087D01*
X119712532Y-120670759D01*
X119765715Y-120869240D01*
X119765717Y-120869246D01*
X119862477Y-121076749D01*
X119915350Y-121152260D01*
X119993802Y-121264300D01*
X120155700Y-121426198D01*
X120343251Y-121557523D01*
X120550757Y-121654284D01*
X120771913Y-121713543D01*
X121000000Y-121733498D01*
X121228087Y-121713543D01*
X121449243Y-121654284D01*
X121656749Y-121557523D01*
X121844300Y-121426198D01*
X122006198Y-121264300D01*
X122137523Y-121076749D01*
X122234284Y-120869243D01*
X122293543Y-120648087D01*
X122313498Y-120420000D01*
X122293543Y-120191913D01*
X122234284Y-119970757D01*
X122137523Y-119763251D01*
X122006198Y-119575700D01*
X121844300Y-119413802D01*
X121780106Y-119368853D01*
X121656749Y-119282477D01*
X121449246Y-119185717D01*
X121449240Y-119185715D01*
X121345549Y-119157931D01*
X121228087Y-119126457D01*
X121000000Y-119106502D01*
X120771913Y-119126457D01*
X120550759Y-119185715D01*
X120550753Y-119185717D01*
X120343250Y-119282477D01*
X120155703Y-119413799D01*
X120155697Y-119413804D01*
X119993804Y-119575697D01*
X119993799Y-119575703D01*
X119862477Y-119763250D01*
X119765717Y-119970753D01*
X119765715Y-119970759D01*
X119706457Y-120191913D01*
X119686502Y-120420000D01*
X115541487Y-120420000D01*
X115574093Y-120416494D01*
X115710964Y-120365444D01*
X115710965Y-120365444D01*
X115827904Y-120277904D01*
X115915444Y-120160965D01*
X115915444Y-120160964D01*
X115966494Y-120024093D01*
X115972999Y-119963597D01*
X115973000Y-119963585D01*
X115973000Y-119254000D01*
X115055049Y-119254000D01*
X115086558Y-119177931D01*
X115110000Y-119060080D01*
X115110000Y-118939920D01*
X115086558Y-118822069D01*
X115055049Y-118746000D01*
X115973000Y-118746000D01*
X115973000Y-118036414D01*
X115972999Y-118036402D01*
X115966494Y-117975906D01*
X115915444Y-117839035D01*
X115915444Y-117839034D01*
X115827904Y-117722095D01*
X115710965Y-117634555D01*
X115574093Y-117583505D01*
X115513597Y-117577000D01*
X114754000Y-117577000D01*
X114754000Y-118444950D01*
X114677931Y-118413442D01*
X114560080Y-118390000D01*
X114439920Y-118390000D01*
X114322069Y-118413442D01*
X114246000Y-118444950D01*
X114246000Y-117577000D01*
X113486402Y-117577000D01*
X113425903Y-117583505D01*
X113418234Y-117585318D01*
X113417757Y-117583299D01*
X113357694Y-117587584D01*
X113295388Y-117553548D01*
X113261374Y-117491229D01*
X113258500Y-117464469D01*
X113258500Y-116000000D01*
X116526502Y-116000000D01*
X116546457Y-116228087D01*
X116605716Y-116449243D01*
X116702477Y-116656749D01*
X116833802Y-116844300D01*
X116995700Y-117006198D01*
X117183251Y-117137523D01*
X117390757Y-117234284D01*
X117611913Y-117293543D01*
X117840000Y-117313498D01*
X118068087Y-117293543D01*
X118289243Y-117234284D01*
X118496749Y-117137523D01*
X118684300Y-117006198D01*
X118846198Y-116844300D01*
X118977523Y-116656749D01*
X119074284Y-116449243D01*
X119133543Y-116228087D01*
X119153498Y-116000000D01*
X119133543Y-115771913D01*
X119074284Y-115550757D01*
X118977523Y-115343251D01*
X118846198Y-115155700D01*
X118684300Y-114993802D01*
X118496749Y-114862477D01*
X118403113Y-114818814D01*
X118289246Y-114765717D01*
X118289240Y-114765715D01*
X118157495Y-114730414D01*
X118068087Y-114706457D01*
X117840000Y-114686502D01*
X117611913Y-114706457D01*
X117390759Y-114765715D01*
X117390753Y-114765717D01*
X117183250Y-114862477D01*
X116995703Y-114993799D01*
X116995697Y-114993804D01*
X116833804Y-115155697D01*
X116833799Y-115155703D01*
X116702477Y-115343250D01*
X116605717Y-115550753D01*
X116605715Y-115550759D01*
X116588599Y-115614637D01*
X116546457Y-115771913D01*
X116526502Y-116000000D01*
X113258500Y-116000000D01*
X113258500Y-111561799D01*
X114991500Y-111561799D01*
X114991500Y-111838200D01*
X115027575Y-112112223D01*
X115099112Y-112379204D01*
X115099113Y-112379206D01*
X115099114Y-112379209D01*
X115204886Y-112634567D01*
X115204887Y-112634568D01*
X115204892Y-112634578D01*
X115343082Y-112873929D01*
X115511344Y-113093214D01*
X115511353Y-113093224D01*
X115706775Y-113288646D01*
X115706785Y-113288655D01*
X115706786Y-113288656D01*
X115926067Y-113456915D01*
X116165433Y-113595114D01*
X116420791Y-113700886D01*
X116687769Y-113772423D01*
X116687775Y-113772423D01*
X116687776Y-113772424D01*
X116689903Y-113772704D01*
X116961802Y-113808500D01*
X116961809Y-113808500D01*
X119038191Y-113808500D01*
X119038198Y-113808500D01*
X119312231Y-113772423D01*
X119579209Y-113700886D01*
X119834567Y-113595114D01*
X120073933Y-113456915D01*
X120293214Y-113288656D01*
X120488656Y-113093214D01*
X120656915Y-112873933D01*
X120795114Y-112634567D01*
X120900886Y-112379209D01*
X120972423Y-112112231D01*
X121008500Y-111838198D01*
X121008500Y-111561802D01*
X120972423Y-111287769D01*
X120900886Y-111020791D01*
X120795114Y-110765433D01*
X120719888Y-110635139D01*
X120656917Y-110526070D01*
X120642992Y-110507923D01*
X120488656Y-110306786D01*
X120488655Y-110306785D01*
X120488646Y-110306775D01*
X120293224Y-110111353D01*
X120293214Y-110111344D01*
X120073929Y-109943082D01*
X119834578Y-109804892D01*
X119834573Y-109804889D01*
X119834567Y-109804886D01*
X119579209Y-109699114D01*
X119579206Y-109699113D01*
X119579204Y-109699112D01*
X119359918Y-109640355D01*
X119312231Y-109627577D01*
X119312229Y-109627576D01*
X119312223Y-109627575D01*
X119038200Y-109591500D01*
X119038198Y-109591500D01*
X116961802Y-109591500D01*
X116961799Y-109591500D01*
X116687776Y-109627575D01*
X116420795Y-109699112D01*
X116420791Y-109699114D01*
X116165431Y-109804887D01*
X116165421Y-109804892D01*
X115926070Y-109943082D01*
X115706785Y-110111344D01*
X115706775Y-110111353D01*
X115511353Y-110306775D01*
X115511344Y-110306785D01*
X115343082Y-110526070D01*
X115204892Y-110765421D01*
X115204887Y-110765431D01*
X115099114Y-111020791D01*
X115099112Y-111020795D01*
X115027575Y-111287776D01*
X114991500Y-111561799D01*
X113258500Y-111561799D01*
X113258500Y-106861799D01*
X114991500Y-106861799D01*
X114991500Y-107138200D01*
X115027575Y-107412223D01*
X115099112Y-107679204D01*
X115099113Y-107679206D01*
X115099114Y-107679209D01*
X115204886Y-107934567D01*
X115204887Y-107934568D01*
X115204892Y-107934578D01*
X115343082Y-108173929D01*
X115511344Y-108393214D01*
X115511353Y-108393224D01*
X115706775Y-108588646D01*
X115706785Y-108588655D01*
X115706786Y-108588656D01*
X115919157Y-108751613D01*
X115926070Y-108756917D01*
X116064400Y-108836782D01*
X116165433Y-108895114D01*
X116420791Y-109000886D01*
X116687769Y-109072423D01*
X116687775Y-109072423D01*
X116687776Y-109072424D01*
X116719222Y-109076563D01*
X116961802Y-109108500D01*
X116961809Y-109108500D01*
X119038191Y-109108500D01*
X119038198Y-109108500D01*
X119312231Y-109072423D01*
X119579209Y-109000886D01*
X119834567Y-108895114D01*
X120073933Y-108756915D01*
X120293214Y-108588656D01*
X120488656Y-108393214D01*
X120656915Y-108173933D01*
X120795114Y-107934567D01*
X120900886Y-107679209D01*
X120972423Y-107412231D01*
X121008500Y-107138198D01*
X121008500Y-106861802D01*
X120972423Y-106587769D01*
X120900886Y-106320791D01*
X120795114Y-106065433D01*
X120665317Y-105840619D01*
X120656917Y-105826070D01*
X120532223Y-105663565D01*
X120488656Y-105606786D01*
X120488655Y-105606785D01*
X120488646Y-105606775D01*
X120293224Y-105411353D01*
X120293214Y-105411344D01*
X120073929Y-105243082D01*
X119834578Y-105104892D01*
X119834573Y-105104889D01*
X119834567Y-105104886D01*
X119579209Y-104999114D01*
X119579206Y-104999113D01*
X119579204Y-104999112D01*
X119359918Y-104940355D01*
X119312231Y-104927577D01*
X119312229Y-104927576D01*
X119312223Y-104927575D01*
X119038200Y-104891500D01*
X119038198Y-104891500D01*
X116961802Y-104891500D01*
X116961799Y-104891500D01*
X116687776Y-104927575D01*
X116420795Y-104999112D01*
X116420791Y-104999114D01*
X116222955Y-105081060D01*
X116165431Y-105104887D01*
X116165421Y-105104892D01*
X115926070Y-105243082D01*
X115706785Y-105411344D01*
X115706775Y-105411353D01*
X115511353Y-105606775D01*
X115511344Y-105606785D01*
X115343082Y-105826070D01*
X115204892Y-106065421D01*
X115204887Y-106065431D01*
X115099114Y-106320791D01*
X115099112Y-106320795D01*
X115027575Y-106587776D01*
X114991500Y-106861799D01*
X113258500Y-106861799D01*
X113258500Y-102161799D01*
X114991500Y-102161799D01*
X114991500Y-102438200D01*
X115027575Y-102712223D01*
X115099112Y-102979204D01*
X115099113Y-102979206D01*
X115099114Y-102979209D01*
X115204886Y-103234567D01*
X115204887Y-103234568D01*
X115204892Y-103234578D01*
X115343082Y-103473929D01*
X115343084Y-103473932D01*
X115343085Y-103473933D01*
X115511344Y-103693214D01*
X115511348Y-103693218D01*
X115511353Y-103693224D01*
X115706775Y-103888646D01*
X115706785Y-103888655D01*
X115706786Y-103888656D01*
X115926067Y-104056915D01*
X116165433Y-104195114D01*
X116420791Y-104300886D01*
X116687769Y-104372423D01*
X116687775Y-104372423D01*
X116687776Y-104372424D01*
X116719222Y-104376563D01*
X116961802Y-104408500D01*
X116961809Y-104408500D01*
X119038191Y-104408500D01*
X119038198Y-104408500D01*
X119312231Y-104372423D01*
X119579209Y-104300886D01*
X119834567Y-104195114D01*
X120073933Y-104056915D01*
X120293214Y-103888656D01*
X120488656Y-103693214D01*
X120656915Y-103473933D01*
X120795114Y-103234567D01*
X120900886Y-102979209D01*
X120972423Y-102712231D01*
X121008500Y-102438198D01*
X121008500Y-102161802D01*
X120972423Y-101887769D01*
X120900886Y-101620791D01*
X120795114Y-101365433D01*
X120662155Y-101135143D01*
X120656917Y-101126070D01*
X120566260Y-101007923D01*
X120488656Y-100906786D01*
X120488655Y-100906785D01*
X120488646Y-100906775D01*
X120293224Y-100711353D01*
X120293214Y-100711344D01*
X120134836Y-100589817D01*
X120073933Y-100543085D01*
X120073932Y-100543084D01*
X120073929Y-100543082D01*
X119834578Y-100404892D01*
X119834573Y-100404889D01*
X119834567Y-100404886D01*
X119579209Y-100299114D01*
X119579206Y-100299113D01*
X119579204Y-100299112D01*
X119359918Y-100240355D01*
X119312231Y-100227577D01*
X119312229Y-100227576D01*
X119312223Y-100227575D01*
X119038200Y-100191500D01*
X119038198Y-100191500D01*
X116961802Y-100191500D01*
X116961799Y-100191500D01*
X116687776Y-100227575D01*
X116420795Y-100299112D01*
X116420791Y-100299114D01*
X116224959Y-100380230D01*
X116165431Y-100404887D01*
X116165421Y-100404892D01*
X115926070Y-100543082D01*
X115706785Y-100711344D01*
X115706775Y-100711353D01*
X115511353Y-100906775D01*
X115511344Y-100906785D01*
X115343082Y-101126070D01*
X115204892Y-101365421D01*
X115204887Y-101365431D01*
X115204886Y-101365433D01*
X115149907Y-101498166D01*
X115099114Y-101620791D01*
X115099112Y-101620795D01*
X115027575Y-101887776D01*
X114991500Y-102161799D01*
X113258500Y-102161799D01*
X113258500Y-80975142D01*
X113258499Y-80975139D01*
X113233194Y-80847923D01*
X113183555Y-80728083D01*
X113111490Y-80620231D01*
X113019769Y-80528510D01*
X112157010Y-79665751D01*
X112122984Y-79603439D01*
X112123960Y-79545726D01*
X112144564Y-79464368D01*
X112163156Y-79240000D01*
X112144564Y-79015632D01*
X112118299Y-78911913D01*
X112089297Y-78797387D01*
X112089296Y-78797386D01*
X112089296Y-78797384D01*
X111998860Y-78591209D01*
X111928327Y-78483250D01*
X111875724Y-78402734D01*
X111875714Y-78402722D01*
X111732159Y-78246782D01*
X111700737Y-78183117D01*
X111708723Y-78112571D01*
X111753582Y-78057542D01*
X111780827Y-78043388D01*
X111895965Y-78000444D01*
X112012904Y-77912904D01*
X112100444Y-77795965D01*
X112100444Y-77795964D01*
X112151494Y-77659093D01*
X112157999Y-77598597D01*
X112158000Y-77598585D01*
X112158000Y-76954000D01*
X111230703Y-76954000D01*
X111265925Y-76892993D01*
X111300000Y-76765826D01*
X111300000Y-76634174D01*
X111265925Y-76507007D01*
X111230703Y-76446000D01*
X112158000Y-76446000D01*
X112158000Y-75801414D01*
X112157999Y-75801402D01*
X112151494Y-75740906D01*
X112100444Y-75604035D01*
X112100444Y-75604034D01*
X112012904Y-75487095D01*
X111895965Y-75399555D01*
X111759093Y-75348505D01*
X111698597Y-75342000D01*
X111054000Y-75342000D01*
X111054000Y-76269297D01*
X110992993Y-76234075D01*
X110865826Y-76200000D01*
X110734174Y-76200000D01*
X110607007Y-76234075D01*
X110546000Y-76269297D01*
X110546000Y-75342000D01*
X109901402Y-75342000D01*
X109840906Y-75348505D01*
X109704035Y-75399555D01*
X109704031Y-75399557D01*
X109702007Y-75401073D01*
X109699637Y-75401956D01*
X109696124Y-75403875D01*
X109695848Y-75403370D01*
X109635487Y-75425883D01*
X109566113Y-75410791D01*
X109515912Y-75360588D01*
X109500500Y-75300204D01*
X109500500Y-73852262D01*
X109520502Y-73784141D01*
X109574158Y-73737648D01*
X109644432Y-73727544D01*
X109669600Y-73733863D01*
X109670753Y-73734283D01*
X109685569Y-73738253D01*
X109891913Y-73793543D01*
X110120000Y-73813498D01*
X110348087Y-73793543D01*
X110569243Y-73734284D01*
X110776749Y-73637523D01*
X110964300Y-73506198D01*
X111126198Y-73344300D01*
X111257523Y-73156749D01*
X111354284Y-72949243D01*
X111413543Y-72728087D01*
X111433498Y-72500000D01*
X111413543Y-72271913D01*
X111354284Y-72050757D01*
X111257523Y-71843251D01*
X111126198Y-71655700D01*
X110964300Y-71493802D01*
X110776749Y-71362477D01*
X110739499Y-71345107D01*
X110569246Y-71265717D01*
X110569240Y-71265715D01*
X110458771Y-71236115D01*
X110348087Y-71206457D01*
X110120000Y-71186502D01*
X109891913Y-71206457D01*
X109670747Y-71265718D01*
X109669584Y-71266142D01*
X109669038Y-71266176D01*
X109665443Y-71267140D01*
X109665249Y-71266417D01*
X109598730Y-71270639D01*
X109536692Y-71236115D01*
X109503169Y-71173531D01*
X109500500Y-71147737D01*
X109500500Y-65740000D01*
X125186502Y-65740000D01*
X125206457Y-65968086D01*
X125265715Y-66189240D01*
X125265717Y-66189246D01*
X125362477Y-66396749D01*
X125478053Y-66561809D01*
X125493802Y-66584300D01*
X125655700Y-66746198D01*
X125843251Y-66877523D01*
X126050757Y-66974284D01*
X126271913Y-67033543D01*
X126500000Y-67053498D01*
X126728087Y-67033543D01*
X126949243Y-66974284D01*
X127156749Y-66877523D01*
X127344300Y-66746198D01*
X127506198Y-66584300D01*
X127637523Y-66396749D01*
X127734284Y-66189243D01*
X127793543Y-65968087D01*
X127813498Y-65740000D01*
X128286502Y-65740000D01*
X128306457Y-65968086D01*
X128365715Y-66189240D01*
X128365717Y-66189246D01*
X128462477Y-66396749D01*
X128578053Y-66561809D01*
X128593802Y-66584300D01*
X128755700Y-66746198D01*
X128943251Y-66877523D01*
X129150757Y-66974284D01*
X129371913Y-67033543D01*
X129600000Y-67053498D01*
X129828087Y-67033543D01*
X130049243Y-66974284D01*
X130256749Y-66877523D01*
X130444300Y-66746198D01*
X130606198Y-66584300D01*
X130621953Y-66561799D01*
X135991500Y-66561799D01*
X135991500Y-66838200D01*
X136027575Y-67112223D01*
X136099112Y-67379204D01*
X136099113Y-67379206D01*
X136099114Y-67379209D01*
X136204886Y-67634567D01*
X136204887Y-67634568D01*
X136204892Y-67634578D01*
X136343082Y-67873929D01*
X136511344Y-68093214D01*
X136511353Y-68093224D01*
X136706775Y-68288646D01*
X136706785Y-68288655D01*
X136706786Y-68288656D01*
X136926067Y-68456915D01*
X137165433Y-68595114D01*
X137420791Y-68700886D01*
X137687769Y-68772423D01*
X137687775Y-68772423D01*
X137687776Y-68772424D01*
X137689903Y-68772704D01*
X137961802Y-68808500D01*
X137961809Y-68808500D01*
X140038191Y-68808500D01*
X140038198Y-68808500D01*
X140312231Y-68772423D01*
X140579209Y-68700886D01*
X140834567Y-68595114D01*
X141073933Y-68456915D01*
X141293214Y-68288656D01*
X141488656Y-68093214D01*
X141656915Y-67873933D01*
X141795114Y-67634567D01*
X141900886Y-67379209D01*
X141972423Y-67112231D01*
X142008500Y-66838198D01*
X142008500Y-66561802D01*
X142008500Y-66561799D01*
X146491500Y-66561799D01*
X146491500Y-66838200D01*
X146527575Y-67112223D01*
X146599112Y-67379204D01*
X146599113Y-67379206D01*
X146599114Y-67379209D01*
X146704886Y-67634567D01*
X146704887Y-67634568D01*
X146704892Y-67634578D01*
X146843082Y-67873929D01*
X147011344Y-68093214D01*
X147011353Y-68093224D01*
X147206775Y-68288646D01*
X147206785Y-68288655D01*
X147206786Y-68288656D01*
X147426067Y-68456915D01*
X147665433Y-68595114D01*
X147920791Y-68700886D01*
X148187769Y-68772423D01*
X148187775Y-68772423D01*
X148187776Y-68772424D01*
X148189903Y-68772704D01*
X148461802Y-68808500D01*
X148461809Y-68808500D01*
X150538191Y-68808500D01*
X150538198Y-68808500D01*
X150812231Y-68772423D01*
X151079209Y-68700886D01*
X151334567Y-68595114D01*
X151573933Y-68456915D01*
X151793214Y-68288656D01*
X151988656Y-68093214D01*
X152156915Y-67873933D01*
X152295114Y-67634567D01*
X152400886Y-67379209D01*
X152472423Y-67112231D01*
X152508500Y-66838198D01*
X152508500Y-66561802D01*
X152472423Y-66287769D01*
X152400886Y-66020791D01*
X152295114Y-65765433D01*
X152156915Y-65526067D01*
X151988656Y-65306786D01*
X151988655Y-65306785D01*
X151988646Y-65306775D01*
X151793224Y-65111353D01*
X151793214Y-65111344D01*
X151573929Y-64943082D01*
X151334578Y-64804892D01*
X151334573Y-64804889D01*
X151334567Y-64804886D01*
X151079209Y-64699114D01*
X151079206Y-64699113D01*
X151079204Y-64699112D01*
X150859918Y-64640355D01*
X150812231Y-64627577D01*
X150812229Y-64627576D01*
X150812223Y-64627575D01*
X150538200Y-64591500D01*
X150538198Y-64591500D01*
X148461802Y-64591500D01*
X148461799Y-64591500D01*
X148187776Y-64627575D01*
X147920795Y-64699112D01*
X147920791Y-64699114D01*
X147837054Y-64733799D01*
X147665431Y-64804887D01*
X147665421Y-64804892D01*
X147426070Y-64943082D01*
X147206785Y-65111344D01*
X147206775Y-65111353D01*
X147011353Y-65306775D01*
X147011344Y-65306785D01*
X146843082Y-65526070D01*
X146704892Y-65765421D01*
X146704887Y-65765431D01*
X146599114Y-66020791D01*
X146599112Y-66020795D01*
X146527575Y-66287776D01*
X146491500Y-66561799D01*
X142008500Y-66561799D01*
X141972423Y-66287769D01*
X141900886Y-66020791D01*
X141795114Y-65765433D01*
X141656915Y-65526067D01*
X141488656Y-65306786D01*
X141488655Y-65306785D01*
X141488646Y-65306775D01*
X141293224Y-65111353D01*
X141293214Y-65111344D01*
X141073929Y-64943082D01*
X140834578Y-64804892D01*
X140834573Y-64804889D01*
X140834567Y-64804886D01*
X140579209Y-64699114D01*
X140579206Y-64699113D01*
X140579204Y-64699112D01*
X140359918Y-64640355D01*
X140312231Y-64627577D01*
X140312229Y-64627576D01*
X140312223Y-64627575D01*
X140038200Y-64591500D01*
X140038198Y-64591500D01*
X137961802Y-64591500D01*
X137961799Y-64591500D01*
X137687776Y-64627575D01*
X137420795Y-64699112D01*
X137420791Y-64699114D01*
X137337054Y-64733799D01*
X137165431Y-64804887D01*
X137165421Y-64804892D01*
X136926070Y-64943082D01*
X136706785Y-65111344D01*
X136706775Y-65111353D01*
X136511353Y-65306775D01*
X136511344Y-65306785D01*
X136343082Y-65526070D01*
X136204892Y-65765421D01*
X136204887Y-65765431D01*
X136099114Y-66020791D01*
X136099112Y-66020795D01*
X136027575Y-66287776D01*
X135991500Y-66561799D01*
X130621953Y-66561799D01*
X130737523Y-66396749D01*
X130834284Y-66189243D01*
X130893543Y-65968087D01*
X130913498Y-65740000D01*
X130893543Y-65511913D01*
X130834284Y-65290757D01*
X130737523Y-65083251D01*
X130606198Y-64895700D01*
X130444300Y-64733802D01*
X130256749Y-64602477D01*
X130233209Y-64591500D01*
X130049246Y-64505717D01*
X130049240Y-64505715D01*
X129955771Y-64480670D01*
X129828087Y-64446457D01*
X129600000Y-64426502D01*
X129371913Y-64446457D01*
X129150759Y-64505715D01*
X129150753Y-64505717D01*
X128943250Y-64602477D01*
X128755703Y-64733799D01*
X128755697Y-64733804D01*
X128593804Y-64895697D01*
X128593799Y-64895703D01*
X128462477Y-65083250D01*
X128365717Y-65290753D01*
X128365715Y-65290759D01*
X128306457Y-65511913D01*
X128286502Y-65740000D01*
X127813498Y-65740000D01*
X127793543Y-65511913D01*
X127734284Y-65290757D01*
X127637523Y-65083251D01*
X127506198Y-64895700D01*
X127344300Y-64733802D01*
X127156749Y-64602477D01*
X127133209Y-64591500D01*
X126949246Y-64505717D01*
X126949240Y-64505715D01*
X126855771Y-64480670D01*
X126728087Y-64446457D01*
X126500000Y-64426502D01*
X126271913Y-64446457D01*
X126050759Y-64505715D01*
X126050753Y-64505717D01*
X125843250Y-64602477D01*
X125655703Y-64733799D01*
X125655697Y-64733804D01*
X125493804Y-64895697D01*
X125493799Y-64895703D01*
X125362477Y-65083250D01*
X125265717Y-65290753D01*
X125265715Y-65290759D01*
X125206457Y-65511913D01*
X125186502Y-65740000D01*
X109500500Y-65740000D01*
X109500500Y-62549993D01*
X111086540Y-62549993D01*
X111086540Y-62550006D01*
X111106357Y-62865007D01*
X111106359Y-62865024D01*
X111165504Y-63175067D01*
X111165507Y-63175080D01*
X111263039Y-63475254D01*
X111263044Y-63475267D01*
X111316401Y-63588656D01*
X111397438Y-63760869D01*
X111397440Y-63760872D01*
X111397443Y-63760878D01*
X111566562Y-64027368D01*
X111767763Y-64270578D01*
X111997860Y-64486654D01*
X112191824Y-64627577D01*
X112253221Y-64672184D01*
X112529821Y-64824247D01*
X112823298Y-64940443D01*
X113129025Y-65018940D01*
X113129033Y-65018941D01*
X113129032Y-65018941D01*
X113293129Y-65039670D01*
X113442179Y-65058500D01*
X113442183Y-65058500D01*
X113757817Y-65058500D01*
X113757821Y-65058500D01*
X114070975Y-65018940D01*
X114376702Y-64940443D01*
X114670179Y-64824247D01*
X114946779Y-64672184D01*
X115202140Y-64486654D01*
X115432233Y-64270582D01*
X115633432Y-64027375D01*
X115633434Y-64027370D01*
X115633437Y-64027368D01*
X115802556Y-63760878D01*
X115802562Y-63760869D01*
X115936956Y-63475266D01*
X116034495Y-63175072D01*
X116093641Y-62865020D01*
X116105331Y-62679208D01*
X116113460Y-62550006D01*
X116113460Y-62549993D01*
X119886540Y-62549993D01*
X119886540Y-62550006D01*
X119906357Y-62865007D01*
X119906359Y-62865024D01*
X119965504Y-63175067D01*
X119965507Y-63175080D01*
X120063039Y-63475254D01*
X120063044Y-63475267D01*
X120116401Y-63588656D01*
X120197438Y-63760869D01*
X120197440Y-63760872D01*
X120197443Y-63760878D01*
X120366562Y-64027368D01*
X120567763Y-64270578D01*
X120797860Y-64486654D01*
X120991824Y-64627577D01*
X121053221Y-64672184D01*
X121329821Y-64824247D01*
X121623298Y-64940443D01*
X121929025Y-65018940D01*
X121929033Y-65018941D01*
X121929032Y-65018941D01*
X122093129Y-65039670D01*
X122242179Y-65058500D01*
X122242183Y-65058500D01*
X122557817Y-65058500D01*
X122557821Y-65058500D01*
X122870975Y-65018940D01*
X123176702Y-64940443D01*
X123470179Y-64824247D01*
X123746779Y-64672184D01*
X124002140Y-64486654D01*
X124232233Y-64270582D01*
X124433432Y-64027375D01*
X124433434Y-64027370D01*
X124433437Y-64027368D01*
X124602556Y-63760878D01*
X124602562Y-63760869D01*
X124736956Y-63475266D01*
X124834495Y-63175072D01*
X124893641Y-62865020D01*
X124905331Y-62679208D01*
X124913460Y-62550006D01*
X124913460Y-62549993D01*
X124893642Y-62234992D01*
X124893640Y-62234975D01*
X124875179Y-62138200D01*
X124834495Y-61924928D01*
X124813983Y-61861799D01*
X135991500Y-61861799D01*
X135991500Y-62138200D01*
X136027575Y-62412223D01*
X136099112Y-62679204D01*
X136099113Y-62679206D01*
X136099114Y-62679209D01*
X136204886Y-62934567D01*
X136204887Y-62934568D01*
X136204892Y-62934578D01*
X136343082Y-63173929D01*
X136511344Y-63393214D01*
X136511353Y-63393224D01*
X136706775Y-63588646D01*
X136706785Y-63588655D01*
X136926070Y-63756917D01*
X136932915Y-63760869D01*
X137165433Y-63895114D01*
X137420791Y-64000886D01*
X137687769Y-64072423D01*
X137687775Y-64072423D01*
X137687776Y-64072424D01*
X137719222Y-64076563D01*
X137961802Y-64108500D01*
X137961809Y-64108500D01*
X140038191Y-64108500D01*
X140038198Y-64108500D01*
X140312231Y-64072423D01*
X140579209Y-64000886D01*
X140834567Y-63895114D01*
X141073933Y-63756915D01*
X141293214Y-63588656D01*
X141488656Y-63393214D01*
X141656915Y-63173933D01*
X141795114Y-62934567D01*
X141900886Y-62679209D01*
X141972423Y-62412231D01*
X142008500Y-62138198D01*
X142008500Y-61861802D01*
X142008500Y-61861799D01*
X146491500Y-61861799D01*
X146491500Y-62138200D01*
X146527575Y-62412223D01*
X146599112Y-62679204D01*
X146599113Y-62679206D01*
X146599114Y-62679209D01*
X146704886Y-62934567D01*
X146704887Y-62934568D01*
X146704892Y-62934578D01*
X146843082Y-63173929D01*
X147011344Y-63393214D01*
X147011353Y-63393224D01*
X147206775Y-63588646D01*
X147206785Y-63588655D01*
X147426070Y-63756917D01*
X147432915Y-63760869D01*
X147665433Y-63895114D01*
X147920791Y-64000886D01*
X148187769Y-64072423D01*
X148187775Y-64072423D01*
X148187776Y-64072424D01*
X148219222Y-64076563D01*
X148461802Y-64108500D01*
X148461809Y-64108500D01*
X150538191Y-64108500D01*
X150538198Y-64108500D01*
X150812231Y-64072423D01*
X151079209Y-64000886D01*
X151334567Y-63895114D01*
X151573933Y-63756915D01*
X151793214Y-63588656D01*
X151988656Y-63393214D01*
X152156915Y-63173933D01*
X152295114Y-62934567D01*
X152400886Y-62679209D01*
X152472423Y-62412231D01*
X152508500Y-62138198D01*
X152508500Y-61861802D01*
X152472423Y-61587769D01*
X152400886Y-61320791D01*
X152295114Y-61065433D01*
X152265918Y-61014865D01*
X152156917Y-60826070D01*
X151993689Y-60613346D01*
X151988656Y-60606786D01*
X151988655Y-60606785D01*
X151988646Y-60606775D01*
X151793224Y-60411353D01*
X151793214Y-60411344D01*
X151573929Y-60243082D01*
X151334578Y-60104892D01*
X151334573Y-60104889D01*
X151334567Y-60104886D01*
X151079209Y-59999114D01*
X151079206Y-59999113D01*
X151079204Y-59999112D01*
X150859918Y-59940355D01*
X150812231Y-59927577D01*
X150812229Y-59927576D01*
X150812223Y-59927575D01*
X150538200Y-59891500D01*
X150538198Y-59891500D01*
X148461802Y-59891500D01*
X148461799Y-59891500D01*
X148187776Y-59927575D01*
X147920795Y-59999112D01*
X147920791Y-59999114D01*
X147722955Y-60081060D01*
X147665431Y-60104887D01*
X147665421Y-60104892D01*
X147426070Y-60243082D01*
X147206785Y-60411344D01*
X147206775Y-60411353D01*
X147011353Y-60606775D01*
X147011344Y-60606785D01*
X146843082Y-60826070D01*
X146704892Y-61065421D01*
X146704887Y-61065431D01*
X146599114Y-61320791D01*
X146599112Y-61320795D01*
X146527575Y-61587776D01*
X146491500Y-61861799D01*
X142008500Y-61861799D01*
X141972423Y-61587769D01*
X141900886Y-61320791D01*
X141795114Y-61065433D01*
X141765918Y-61014865D01*
X141656917Y-60826070D01*
X141493689Y-60613346D01*
X141488656Y-60606786D01*
X141488655Y-60606785D01*
X141488646Y-60606775D01*
X141293224Y-60411353D01*
X141293214Y-60411344D01*
X141073929Y-60243082D01*
X140834578Y-60104892D01*
X140834573Y-60104889D01*
X140834567Y-60104886D01*
X140579209Y-59999114D01*
X140579206Y-59999113D01*
X140579204Y-59999112D01*
X140359918Y-59940355D01*
X140312231Y-59927577D01*
X140312229Y-59927576D01*
X140312223Y-59927575D01*
X140038200Y-59891500D01*
X140038198Y-59891500D01*
X137961802Y-59891500D01*
X137961799Y-59891500D01*
X137687776Y-59927575D01*
X137420795Y-59999112D01*
X137420791Y-59999114D01*
X137222955Y-60081060D01*
X137165431Y-60104887D01*
X137165421Y-60104892D01*
X136926070Y-60243082D01*
X136706785Y-60411344D01*
X136706775Y-60411353D01*
X136511353Y-60606775D01*
X136511344Y-60606785D01*
X136343082Y-60826070D01*
X136204892Y-61065421D01*
X136204887Y-61065431D01*
X136099114Y-61320791D01*
X136099112Y-61320795D01*
X136027575Y-61587776D01*
X135991500Y-61861799D01*
X124813983Y-61861799D01*
X124736956Y-61624734D01*
X124602562Y-61339131D01*
X124590923Y-61320791D01*
X124433437Y-61072631D01*
X124232236Y-60829421D01*
X124228664Y-60826067D01*
X124002140Y-60613346D01*
X123993096Y-60606775D01*
X123746781Y-60427817D01*
X123704385Y-60404509D01*
X123470179Y-60275753D01*
X123176702Y-60159557D01*
X122870975Y-60081060D01*
X122870970Y-60081059D01*
X122870965Y-60081058D01*
X122870967Y-60081058D01*
X122557835Y-60041501D01*
X122557824Y-60041500D01*
X122557821Y-60041500D01*
X122242179Y-60041500D01*
X122242176Y-60041500D01*
X122242164Y-60041501D01*
X121929033Y-60081058D01*
X121623301Y-60159556D01*
X121329821Y-60275753D01*
X121053218Y-60427817D01*
X120797861Y-60613345D01*
X120797860Y-60613345D01*
X120567763Y-60829421D01*
X120366562Y-61072631D01*
X120197443Y-61339121D01*
X120197436Y-61339135D01*
X120063044Y-61624732D01*
X120063039Y-61624745D01*
X119965507Y-61924919D01*
X119965504Y-61924932D01*
X119906359Y-62234975D01*
X119906357Y-62234992D01*
X119886540Y-62549993D01*
X116113460Y-62549993D01*
X116093642Y-62234992D01*
X116093640Y-62234975D01*
X116075179Y-62138200D01*
X116034495Y-61924928D01*
X115936956Y-61624734D01*
X115802562Y-61339131D01*
X115790923Y-61320791D01*
X115633437Y-61072631D01*
X115432236Y-60829421D01*
X115428664Y-60826067D01*
X115202140Y-60613346D01*
X115193096Y-60606775D01*
X114946781Y-60427817D01*
X114904385Y-60404509D01*
X114670179Y-60275753D01*
X114376702Y-60159557D01*
X114070975Y-60081060D01*
X114070970Y-60081059D01*
X114070965Y-60081058D01*
X114070967Y-60081058D01*
X113757835Y-60041501D01*
X113757824Y-60041500D01*
X113757821Y-60041500D01*
X113442179Y-60041500D01*
X113442176Y-60041500D01*
X113442164Y-60041501D01*
X113129033Y-60081058D01*
X112823301Y-60159556D01*
X112529821Y-60275753D01*
X112253218Y-60427817D01*
X111997861Y-60613345D01*
X111997860Y-60613345D01*
X111767763Y-60829421D01*
X111566562Y-61072631D01*
X111397443Y-61339121D01*
X111397436Y-61339135D01*
X111263044Y-61624732D01*
X111263039Y-61624745D01*
X111165507Y-61924919D01*
X111165504Y-61924932D01*
X111106359Y-62234975D01*
X111106357Y-62234992D01*
X111086540Y-62549993D01*
X109500500Y-62549993D01*
X109500500Y-58120000D01*
X125186502Y-58120000D01*
X125206457Y-58348087D01*
X125265716Y-58569243D01*
X125362477Y-58776749D01*
X125493802Y-58964300D01*
X125655700Y-59126198D01*
X125843251Y-59257523D01*
X126050757Y-59354284D01*
X126271913Y-59413543D01*
X126500000Y-59433498D01*
X126728087Y-59413543D01*
X126949243Y-59354284D01*
X127156749Y-59257523D01*
X127344300Y-59126198D01*
X127506198Y-58964300D01*
X127637523Y-58776749D01*
X127734284Y-58569243D01*
X127793543Y-58348087D01*
X127813498Y-58120000D01*
X128286502Y-58120000D01*
X128306457Y-58348087D01*
X128365716Y-58569243D01*
X128462477Y-58776749D01*
X128593802Y-58964300D01*
X128755700Y-59126198D01*
X128943251Y-59257523D01*
X129150757Y-59354284D01*
X129371913Y-59413543D01*
X129600000Y-59433498D01*
X129828087Y-59413543D01*
X130049243Y-59354284D01*
X130256749Y-59257523D01*
X130444300Y-59126198D01*
X130606198Y-58964300D01*
X130737523Y-58776749D01*
X130834284Y-58569243D01*
X130893543Y-58348087D01*
X130913498Y-58120000D01*
X130893543Y-57891913D01*
X130834284Y-57670757D01*
X130737523Y-57463251D01*
X130606198Y-57275700D01*
X130492297Y-57161799D01*
X135991500Y-57161799D01*
X135991500Y-57438200D01*
X136027575Y-57712223D01*
X136099112Y-57979204D01*
X136099113Y-57979206D01*
X136099114Y-57979209D01*
X136204886Y-58234567D01*
X136204887Y-58234568D01*
X136204892Y-58234578D01*
X136343082Y-58473929D01*
X136511344Y-58693214D01*
X136511353Y-58693224D01*
X136706775Y-58888646D01*
X136706785Y-58888655D01*
X136926070Y-59056917D01*
X137046068Y-59126198D01*
X137165433Y-59195114D01*
X137420791Y-59300886D01*
X137687769Y-59372423D01*
X137687775Y-59372423D01*
X137687776Y-59372424D01*
X137719222Y-59376563D01*
X137961802Y-59408500D01*
X137961809Y-59408500D01*
X140038191Y-59408500D01*
X140038198Y-59408500D01*
X140312231Y-59372423D01*
X140579209Y-59300886D01*
X140834567Y-59195114D01*
X141073933Y-59056915D01*
X141293214Y-58888656D01*
X141488656Y-58693214D01*
X141656915Y-58473933D01*
X141795114Y-58234567D01*
X141900886Y-57979209D01*
X141972423Y-57712231D01*
X142008500Y-57438198D01*
X142008500Y-57161802D01*
X142008500Y-57161799D01*
X146491500Y-57161799D01*
X146491500Y-57438200D01*
X146527575Y-57712223D01*
X146599112Y-57979204D01*
X146599113Y-57979206D01*
X146599114Y-57979209D01*
X146704886Y-58234567D01*
X146704887Y-58234568D01*
X146704892Y-58234578D01*
X146843082Y-58473929D01*
X147011344Y-58693214D01*
X147011353Y-58693224D01*
X147206775Y-58888646D01*
X147206785Y-58888655D01*
X147426070Y-59056917D01*
X147546068Y-59126198D01*
X147665433Y-59195114D01*
X147920791Y-59300886D01*
X148187769Y-59372423D01*
X148187775Y-59372423D01*
X148187776Y-59372424D01*
X148219222Y-59376563D01*
X148461802Y-59408500D01*
X148461809Y-59408500D01*
X150538191Y-59408500D01*
X150538198Y-59408500D01*
X150812231Y-59372423D01*
X151079209Y-59300886D01*
X151334567Y-59195114D01*
X151573933Y-59056915D01*
X151793214Y-58888656D01*
X151988656Y-58693214D01*
X152156915Y-58473933D01*
X152295114Y-58234567D01*
X152400886Y-57979209D01*
X152472423Y-57712231D01*
X152508500Y-57438198D01*
X152508500Y-57161802D01*
X152472423Y-56887769D01*
X152400886Y-56620791D01*
X152295114Y-56365433D01*
X152156915Y-56126067D01*
X151988656Y-55906786D01*
X151988655Y-55906785D01*
X151988646Y-55906775D01*
X151793224Y-55711353D01*
X151793214Y-55711344D01*
X151573929Y-55543082D01*
X151334578Y-55404892D01*
X151334573Y-55404889D01*
X151334567Y-55404886D01*
X151079209Y-55299114D01*
X151079206Y-55299113D01*
X151079204Y-55299112D01*
X150859918Y-55240355D01*
X150812231Y-55227577D01*
X150812229Y-55227576D01*
X150812223Y-55227575D01*
X150538200Y-55191500D01*
X150538198Y-55191500D01*
X148461802Y-55191500D01*
X148461799Y-55191500D01*
X148187776Y-55227575D01*
X147920795Y-55299112D01*
X147920791Y-55299114D01*
X147665431Y-55404887D01*
X147665421Y-55404892D01*
X147426070Y-55543082D01*
X147206785Y-55711344D01*
X147206775Y-55711353D01*
X147011353Y-55906775D01*
X147011344Y-55906785D01*
X146843082Y-56126070D01*
X146704892Y-56365421D01*
X146704887Y-56365431D01*
X146599114Y-56620791D01*
X146599112Y-56620795D01*
X146527575Y-56887776D01*
X146491500Y-57161799D01*
X142008500Y-57161799D01*
X141972423Y-56887769D01*
X141900886Y-56620791D01*
X141795114Y-56365433D01*
X141656915Y-56126067D01*
X141488656Y-55906786D01*
X141488655Y-55906785D01*
X141488646Y-55906775D01*
X141293224Y-55711353D01*
X141293214Y-55711344D01*
X141073929Y-55543082D01*
X140834578Y-55404892D01*
X140834573Y-55404889D01*
X140834567Y-55404886D01*
X140579209Y-55299114D01*
X140579206Y-55299113D01*
X140579204Y-55299112D01*
X140359918Y-55240355D01*
X140312231Y-55227577D01*
X140312229Y-55227576D01*
X140312223Y-55227575D01*
X140038200Y-55191500D01*
X140038198Y-55191500D01*
X137961802Y-55191500D01*
X137961799Y-55191500D01*
X137687776Y-55227575D01*
X137420795Y-55299112D01*
X137420791Y-55299114D01*
X137165431Y-55404887D01*
X137165421Y-55404892D01*
X136926070Y-55543082D01*
X136706785Y-55711344D01*
X136706775Y-55711353D01*
X136511353Y-55906775D01*
X136511344Y-55906785D01*
X136343082Y-56126070D01*
X136204892Y-56365421D01*
X136204887Y-56365431D01*
X136099114Y-56620791D01*
X136099112Y-56620795D01*
X136027575Y-56887776D01*
X135991500Y-57161799D01*
X130492297Y-57161799D01*
X130444300Y-57113802D01*
X130256749Y-56982477D01*
X130049246Y-56885717D01*
X130049240Y-56885715D01*
X129955771Y-56860670D01*
X129828087Y-56826457D01*
X129600000Y-56806502D01*
X129371913Y-56826457D01*
X129150759Y-56885715D01*
X129150753Y-56885717D01*
X128943250Y-56982477D01*
X128755703Y-57113799D01*
X128755697Y-57113804D01*
X128593804Y-57275697D01*
X128593799Y-57275703D01*
X128462477Y-57463250D01*
X128365717Y-57670753D01*
X128365716Y-57670757D01*
X128306457Y-57891913D01*
X128286502Y-58120000D01*
X127813498Y-58120000D01*
X127793543Y-57891913D01*
X127734284Y-57670757D01*
X127637523Y-57463251D01*
X127506198Y-57275700D01*
X127344300Y-57113802D01*
X127156749Y-56982477D01*
X126949246Y-56885717D01*
X126949240Y-56885715D01*
X126855771Y-56860670D01*
X126728087Y-56826457D01*
X126500000Y-56806502D01*
X126271913Y-56826457D01*
X126050759Y-56885715D01*
X126050753Y-56885717D01*
X125843250Y-56982477D01*
X125655703Y-57113799D01*
X125655697Y-57113804D01*
X125493804Y-57275697D01*
X125493799Y-57275703D01*
X125362477Y-57463250D01*
X125265717Y-57670753D01*
X125265716Y-57670757D01*
X125206457Y-57891913D01*
X125186502Y-58120000D01*
X109500500Y-58120000D01*
X109500500Y-52500000D01*
X111346502Y-52500000D01*
X111366457Y-52728087D01*
X111425716Y-52949243D01*
X111522477Y-53156749D01*
X111653802Y-53344300D01*
X111815700Y-53506198D01*
X112003251Y-53637523D01*
X112210757Y-53734284D01*
X112431913Y-53793543D01*
X112660000Y-53813498D01*
X112888087Y-53793543D01*
X113109243Y-53734284D01*
X113316749Y-53637523D01*
X113504300Y-53506198D01*
X113666198Y-53344300D01*
X113797523Y-53156749D01*
X113894284Y-52949243D01*
X113953543Y-52728087D01*
X113973498Y-52500000D01*
X118966502Y-52500000D01*
X118986457Y-52728087D01*
X119045716Y-52949243D01*
X119142477Y-53156749D01*
X119273802Y-53344300D01*
X119435700Y-53506198D01*
X119623251Y-53637523D01*
X119830757Y-53734284D01*
X120051913Y-53793543D01*
X120280000Y-53813498D01*
X120508087Y-53793543D01*
X120729243Y-53734284D01*
X120936749Y-53637523D01*
X121124300Y-53506198D01*
X121286198Y-53344300D01*
X121417523Y-53156749D01*
X121514284Y-52949243D01*
X121573543Y-52728087D01*
X121593498Y-52500000D01*
X121573543Y-52271913D01*
X121514284Y-52050757D01*
X121417523Y-51843251D01*
X121286198Y-51655700D01*
X121124300Y-51493802D01*
X120936749Y-51362477D01*
X120729246Y-51265717D01*
X120729240Y-51265715D01*
X120635771Y-51240670D01*
X120508087Y-51206457D01*
X120280000Y-51186502D01*
X120051913Y-51206457D01*
X119830759Y-51265715D01*
X119830753Y-51265717D01*
X119623250Y-51362477D01*
X119435703Y-51493799D01*
X119435697Y-51493804D01*
X119273804Y-51655697D01*
X119273799Y-51655703D01*
X119142477Y-51843250D01*
X119045717Y-52050753D01*
X119045716Y-52050757D01*
X118986457Y-52271913D01*
X118966502Y-52500000D01*
X113973498Y-52500000D01*
X113953543Y-52271913D01*
X113894284Y-52050757D01*
X113797523Y-51843251D01*
X113666198Y-51655700D01*
X113504300Y-51493802D01*
X113316749Y-51362477D01*
X113109246Y-51265717D01*
X113109240Y-51265715D01*
X113015771Y-51240670D01*
X112888087Y-51206457D01*
X112660000Y-51186502D01*
X112431913Y-51206457D01*
X112210759Y-51265715D01*
X112210753Y-51265717D01*
X112003250Y-51362477D01*
X111815703Y-51493799D01*
X111815697Y-51493804D01*
X111653804Y-51655697D01*
X111653799Y-51655703D01*
X111522477Y-51843250D01*
X111425717Y-52050753D01*
X111425716Y-52050757D01*
X111366457Y-52271913D01*
X111346502Y-52500000D01*
X109500500Y-52500000D01*
X109500500Y-46400000D01*
X112921634Y-46400000D01*
X112941066Y-46646911D01*
X112998885Y-46887742D01*
X113093665Y-47116561D01*
X113223076Y-47327741D01*
X113223077Y-47327743D01*
X113383926Y-47516073D01*
X113572256Y-47676922D01*
X113572260Y-47676925D01*
X113783437Y-47806334D01*
X113851656Y-47834591D01*
X113906937Y-47879140D01*
X113929358Y-47946503D01*
X113911800Y-48015294D01*
X113859838Y-48063672D01*
X113803438Y-48077000D01*
X113486402Y-48077000D01*
X113425906Y-48083505D01*
X113289035Y-48134555D01*
X113289034Y-48134555D01*
X113172095Y-48222095D01*
X113084555Y-48339034D01*
X113084555Y-48339035D01*
X113033505Y-48475906D01*
X113027000Y-48536402D01*
X113027000Y-49246000D01*
X113944951Y-49246000D01*
X113913442Y-49322069D01*
X113890000Y-49439920D01*
X113890000Y-49560080D01*
X113913442Y-49677931D01*
X113944951Y-49754000D01*
X113027000Y-49754000D01*
X113027000Y-50463597D01*
X113033505Y-50524093D01*
X113084555Y-50660964D01*
X113084555Y-50660965D01*
X113172095Y-50777904D01*
X113289034Y-50865444D01*
X113425906Y-50916494D01*
X113486402Y-50922999D01*
X113486415Y-50923000D01*
X114246000Y-50923000D01*
X114246000Y-50055049D01*
X114322069Y-50086558D01*
X114439920Y-50110000D01*
X114560080Y-50110000D01*
X114677931Y-50086558D01*
X114754000Y-50055049D01*
X114754000Y-50923000D01*
X115513585Y-50923000D01*
X115513597Y-50922999D01*
X115574093Y-50916494D01*
X115710964Y-50865444D01*
X115710965Y-50865444D01*
X115827904Y-50777904D01*
X115915444Y-50660965D01*
X115915444Y-50660964D01*
X115966494Y-50524093D01*
X115972999Y-50463597D01*
X115973000Y-50463585D01*
X115973000Y-49754000D01*
X115055049Y-49754000D01*
X115086558Y-49677931D01*
X115110000Y-49560080D01*
X115110000Y-49439920D01*
X115086558Y-49322069D01*
X115055049Y-49246000D01*
X115973000Y-49246000D01*
X115973000Y-48536414D01*
X115972999Y-48536402D01*
X115966494Y-48475906D01*
X115915444Y-48339035D01*
X115915444Y-48339034D01*
X115827904Y-48222095D01*
X115710965Y-48134555D01*
X115574093Y-48083505D01*
X115513597Y-48077000D01*
X115196562Y-48077000D01*
X115128441Y-48056998D01*
X115081948Y-48003342D01*
X115071844Y-47933068D01*
X115101338Y-47868488D01*
X115148343Y-47834591D01*
X115216563Y-47806334D01*
X115427740Y-47676925D01*
X115616073Y-47516073D01*
X115776925Y-47327740D01*
X115906334Y-47116563D01*
X116001115Y-46887742D01*
X116058934Y-46646911D01*
X116078366Y-46400000D01*
X125821634Y-46400000D01*
X125841066Y-46646911D01*
X125898885Y-46887742D01*
X125993665Y-47116561D01*
X126123076Y-47327741D01*
X126123077Y-47327743D01*
X126283926Y-47516073D01*
X126472256Y-47676922D01*
X126472260Y-47676925D01*
X126683437Y-47806334D01*
X126751656Y-47834591D01*
X126806937Y-47879140D01*
X126829358Y-47946503D01*
X126811800Y-48015294D01*
X126759838Y-48063672D01*
X126703438Y-48077000D01*
X126386402Y-48077000D01*
X126325906Y-48083505D01*
X126189035Y-48134555D01*
X126189034Y-48134555D01*
X126072095Y-48222095D01*
X125984555Y-48339034D01*
X125984555Y-48339035D01*
X125933505Y-48475906D01*
X125927000Y-48536402D01*
X125927000Y-49246000D01*
X126844951Y-49246000D01*
X126813442Y-49322069D01*
X126790000Y-49439920D01*
X126790000Y-49560080D01*
X126813442Y-49677931D01*
X126844951Y-49754000D01*
X125927000Y-49754000D01*
X125927000Y-50463597D01*
X125933505Y-50524093D01*
X125984555Y-50660964D01*
X125984555Y-50660965D01*
X126072095Y-50777904D01*
X126189034Y-50865444D01*
X126325906Y-50916494D01*
X126386402Y-50922999D01*
X126386415Y-50923000D01*
X127146000Y-50923000D01*
X127146000Y-50055049D01*
X127222069Y-50086558D01*
X127339920Y-50110000D01*
X127460080Y-50110000D01*
X127577931Y-50086558D01*
X127654000Y-50055049D01*
X127654000Y-50923000D01*
X128413585Y-50923000D01*
X128413597Y-50922999D01*
X128474093Y-50916494D01*
X128610964Y-50865444D01*
X128610965Y-50865444D01*
X128727904Y-50777904D01*
X128815444Y-50660965D01*
X128815444Y-50660964D01*
X128866494Y-50524093D01*
X128872999Y-50463597D01*
X128873000Y-50463585D01*
X128873000Y-49754000D01*
X127955049Y-49754000D01*
X127986558Y-49677931D01*
X128010000Y-49560080D01*
X128010000Y-49439920D01*
X127986558Y-49322069D01*
X127955049Y-49246000D01*
X128873000Y-49246000D01*
X128873000Y-48536414D01*
X128872999Y-48536402D01*
X128866494Y-48475906D01*
X128815444Y-48339035D01*
X128815444Y-48339034D01*
X128727904Y-48222095D01*
X128610965Y-48134555D01*
X128474093Y-48083505D01*
X128413597Y-48077000D01*
X128096562Y-48077000D01*
X128028441Y-48056998D01*
X127981948Y-48003342D01*
X127971844Y-47933068D01*
X128001338Y-47868488D01*
X128048343Y-47834591D01*
X128116563Y-47806334D01*
X128327740Y-47676925D01*
X128516073Y-47516073D01*
X128676925Y-47327740D01*
X128806334Y-47116563D01*
X128901115Y-46887742D01*
X128958934Y-46646911D01*
X128978366Y-46400000D01*
X138921634Y-46400000D01*
X138941066Y-46646911D01*
X138998885Y-46887742D01*
X139093665Y-47116561D01*
X139223076Y-47327741D01*
X139223077Y-47327743D01*
X139383926Y-47516073D01*
X139572256Y-47676922D01*
X139572260Y-47676925D01*
X139783437Y-47806334D01*
X139851656Y-47834591D01*
X139906937Y-47879140D01*
X139929358Y-47946503D01*
X139911800Y-48015294D01*
X139859838Y-48063672D01*
X139803438Y-48077000D01*
X139486402Y-48077000D01*
X139425906Y-48083505D01*
X139289035Y-48134555D01*
X139289034Y-48134555D01*
X139172095Y-48222095D01*
X139084555Y-48339034D01*
X139084555Y-48339035D01*
X139033505Y-48475906D01*
X139027000Y-48536402D01*
X139027000Y-49246000D01*
X139944951Y-49246000D01*
X139913442Y-49322069D01*
X139890000Y-49439920D01*
X139890000Y-49560080D01*
X139913442Y-49677931D01*
X139944951Y-49754000D01*
X139027000Y-49754000D01*
X139027000Y-50463597D01*
X139033505Y-50524093D01*
X139084555Y-50660964D01*
X139084555Y-50660965D01*
X139172095Y-50777904D01*
X139289034Y-50865444D01*
X139425906Y-50916494D01*
X139486402Y-50922999D01*
X139486415Y-50923000D01*
X140246000Y-50923000D01*
X140246000Y-50055049D01*
X140322069Y-50086558D01*
X140439920Y-50110000D01*
X140560080Y-50110000D01*
X140677931Y-50086558D01*
X140754000Y-50055049D01*
X140754000Y-50923000D01*
X141513585Y-50923000D01*
X141513597Y-50922999D01*
X141574093Y-50916494D01*
X141710964Y-50865444D01*
X141710965Y-50865444D01*
X141827904Y-50777904D01*
X141915444Y-50660965D01*
X141915444Y-50660964D01*
X141966494Y-50524093D01*
X141972999Y-50463597D01*
X141973000Y-50463585D01*
X141973000Y-49754000D01*
X141055049Y-49754000D01*
X141086558Y-49677931D01*
X141110000Y-49560080D01*
X141110000Y-49439920D01*
X141086558Y-49322069D01*
X141055049Y-49246000D01*
X141973000Y-49246000D01*
X141973000Y-48536414D01*
X141972999Y-48536402D01*
X141966494Y-48475906D01*
X141915444Y-48339035D01*
X141915444Y-48339034D01*
X141827904Y-48222095D01*
X141710965Y-48134555D01*
X141574093Y-48083505D01*
X141513597Y-48077000D01*
X141196562Y-48077000D01*
X141128441Y-48056998D01*
X141081948Y-48003342D01*
X141071844Y-47933068D01*
X141101338Y-47868488D01*
X141148343Y-47834591D01*
X141216563Y-47806334D01*
X141427740Y-47676925D01*
X141616073Y-47516073D01*
X141776925Y-47327740D01*
X141906334Y-47116563D01*
X142001115Y-46887742D01*
X142058934Y-46646911D01*
X142078366Y-46400000D01*
X151921634Y-46400000D01*
X151941066Y-46646911D01*
X151998885Y-46887742D01*
X152093665Y-47116561D01*
X152223076Y-47327741D01*
X152223077Y-47327743D01*
X152383926Y-47516073D01*
X152572256Y-47676922D01*
X152572260Y-47676925D01*
X152783437Y-47806334D01*
X152851656Y-47834591D01*
X152906937Y-47879140D01*
X152929358Y-47946503D01*
X152911800Y-48015294D01*
X152859838Y-48063672D01*
X152803438Y-48077000D01*
X152486402Y-48077000D01*
X152425906Y-48083505D01*
X152289035Y-48134555D01*
X152289034Y-48134555D01*
X152172095Y-48222095D01*
X152084555Y-48339034D01*
X152084555Y-48339035D01*
X152033505Y-48475906D01*
X152027000Y-48536402D01*
X152027000Y-49246000D01*
X152944951Y-49246000D01*
X152913442Y-49322069D01*
X152890000Y-49439920D01*
X152890000Y-49560080D01*
X152913442Y-49677931D01*
X152944951Y-49754000D01*
X152027000Y-49754000D01*
X152027000Y-50463597D01*
X152033505Y-50524093D01*
X152084555Y-50660964D01*
X152084555Y-50660965D01*
X152172095Y-50777904D01*
X152289034Y-50865444D01*
X152425906Y-50916494D01*
X152486402Y-50922999D01*
X152486415Y-50923000D01*
X153246000Y-50923000D01*
X153246000Y-50055049D01*
X153322069Y-50086558D01*
X153439920Y-50110000D01*
X153560080Y-50110000D01*
X153677931Y-50086558D01*
X153754000Y-50055049D01*
X153754000Y-50923000D01*
X154513585Y-50923000D01*
X154513597Y-50922999D01*
X154574093Y-50916494D01*
X154710964Y-50865444D01*
X154710965Y-50865444D01*
X154827904Y-50777904D01*
X154915444Y-50660965D01*
X154915444Y-50660964D01*
X154966494Y-50524093D01*
X154972999Y-50463597D01*
X154973000Y-50463585D01*
X154973000Y-49754000D01*
X154055049Y-49754000D01*
X154086558Y-49677931D01*
X154110000Y-49560080D01*
X154110000Y-49439920D01*
X154086558Y-49322069D01*
X154055049Y-49246000D01*
X154973000Y-49246000D01*
X154973000Y-48536414D01*
X154972999Y-48536402D01*
X154966494Y-48475906D01*
X154915444Y-48339035D01*
X154915444Y-48339034D01*
X154827904Y-48222095D01*
X154710965Y-48134555D01*
X154574093Y-48083505D01*
X154513597Y-48077000D01*
X154196562Y-48077000D01*
X154128441Y-48056998D01*
X154081948Y-48003342D01*
X154071844Y-47933068D01*
X154101338Y-47868488D01*
X154148343Y-47834591D01*
X154216563Y-47806334D01*
X154427740Y-47676925D01*
X154616073Y-47516073D01*
X154776925Y-47327740D01*
X154906334Y-47116563D01*
X155001115Y-46887742D01*
X155058934Y-46646911D01*
X155078366Y-46400000D01*
X155058934Y-46153089D01*
X155001115Y-45912258D01*
X154906334Y-45683437D01*
X154776925Y-45472260D01*
X154776922Y-45472256D01*
X154616073Y-45283926D01*
X154427743Y-45123077D01*
X154427741Y-45123076D01*
X154427740Y-45123075D01*
X154216563Y-44993666D01*
X153987742Y-44898885D01*
X153746911Y-44841066D01*
X153746912Y-44841066D01*
X153500000Y-44821634D01*
X153253088Y-44841066D01*
X153012257Y-44898885D01*
X152783438Y-44993665D01*
X152572258Y-45123076D01*
X152572256Y-45123077D01*
X152383926Y-45283926D01*
X152223077Y-45472256D01*
X152223076Y-45472258D01*
X152093665Y-45683438D01*
X151998885Y-45912257D01*
X151941066Y-46153088D01*
X151921634Y-46400000D01*
X142078366Y-46400000D01*
X142058934Y-46153089D01*
X142001115Y-45912258D01*
X141906334Y-45683437D01*
X141776925Y-45472260D01*
X141776922Y-45472256D01*
X141616073Y-45283926D01*
X141427743Y-45123077D01*
X141427741Y-45123076D01*
X141427740Y-45123075D01*
X141216563Y-44993666D01*
X140987742Y-44898885D01*
X140746911Y-44841066D01*
X140746912Y-44841066D01*
X140500000Y-44821634D01*
X140253088Y-44841066D01*
X140012257Y-44898885D01*
X139783438Y-44993665D01*
X139572258Y-45123076D01*
X139572256Y-45123077D01*
X139383926Y-45283926D01*
X139223077Y-45472256D01*
X139223076Y-45472258D01*
X139093665Y-45683438D01*
X138998885Y-45912257D01*
X138941066Y-46153088D01*
X138921634Y-46400000D01*
X128978366Y-46400000D01*
X128958934Y-46153089D01*
X128901115Y-45912258D01*
X128806334Y-45683437D01*
X128676925Y-45472260D01*
X128676922Y-45472256D01*
X128516073Y-45283926D01*
X128327743Y-45123077D01*
X128327741Y-45123076D01*
X128327740Y-45123075D01*
X128116563Y-44993666D01*
X127887742Y-44898885D01*
X127646911Y-44841066D01*
X127646912Y-44841066D01*
X127400000Y-44821634D01*
X127153088Y-44841066D01*
X126912257Y-44898885D01*
X126683438Y-44993665D01*
X126472258Y-45123076D01*
X126472256Y-45123077D01*
X126283926Y-45283926D01*
X126123077Y-45472256D01*
X126123076Y-45472258D01*
X125993665Y-45683438D01*
X125898885Y-45912257D01*
X125841066Y-46153088D01*
X125821634Y-46400000D01*
X116078366Y-46400000D01*
X116058934Y-46153089D01*
X116001115Y-45912258D01*
X115906334Y-45683437D01*
X115776925Y-45472260D01*
X115776922Y-45472256D01*
X115616073Y-45283926D01*
X115427743Y-45123077D01*
X115427741Y-45123076D01*
X115427740Y-45123075D01*
X115216563Y-44993666D01*
X114987742Y-44898885D01*
X114746911Y-44841066D01*
X114746912Y-44841066D01*
X114500000Y-44821634D01*
X114253088Y-44841066D01*
X114012257Y-44898885D01*
X113783438Y-44993665D01*
X113572258Y-45123076D01*
X113572256Y-45123077D01*
X113383926Y-45283926D01*
X113223077Y-45472256D01*
X113223076Y-45472258D01*
X113093665Y-45683438D01*
X112998885Y-45912257D01*
X112941066Y-46153088D01*
X112921634Y-46400000D01*
X109500500Y-46400000D01*
X109500500Y-37126500D01*
X109520502Y-37058379D01*
X109574158Y-37011886D01*
X109626500Y-37000500D01*
X113103340Y-37000500D01*
X113171461Y-37020502D01*
G37*
G04 #@! TD.AperFunction*
G04 #@! TA.AperFunction,Conductor*
G36*
X121488656Y-80970516D02*
G01*
X121496263Y-80977523D01*
X124601832Y-84083092D01*
X124635858Y-84145404D01*
X124634882Y-84203117D01*
X124605949Y-84317370D01*
X124586673Y-84550000D01*
X124605950Y-84782633D01*
X124663249Y-85008903D01*
X124663252Y-85008910D01*
X124757015Y-85222668D01*
X124884685Y-85418083D01*
X125042774Y-85589813D01*
X125042778Y-85589816D01*
X125042780Y-85589818D01*
X125226983Y-85733190D01*
X125275471Y-85759430D01*
X125325859Y-85809441D01*
X125341500Y-85870242D01*
X125341500Y-89114860D01*
X125353587Y-89175624D01*
X125366806Y-89242077D01*
X125416445Y-89361917D01*
X125488509Y-89469769D01*
X130311671Y-94292931D01*
X135101832Y-99083091D01*
X135135858Y-99145403D01*
X135134882Y-99203116D01*
X135105949Y-99317370D01*
X135098861Y-99402908D01*
X135086673Y-99550000D01*
X135105607Y-99778502D01*
X135105950Y-99782633D01*
X135163249Y-100008903D01*
X135163252Y-100008910D01*
X135257015Y-100222668D01*
X135384685Y-100418083D01*
X135542774Y-100589813D01*
X135542778Y-100589817D01*
X135608650Y-100641087D01*
X135726983Y-100733190D01*
X135932273Y-100844287D01*
X136153049Y-100920080D01*
X136383288Y-100958500D01*
X136383292Y-100958500D01*
X136616708Y-100958500D01*
X136616712Y-100958500D01*
X136846951Y-100920080D01*
X137067727Y-100844287D01*
X137273017Y-100733190D01*
X137457220Y-100589818D01*
X137615314Y-100418083D01*
X137644517Y-100373383D01*
X137698519Y-100327296D01*
X137768867Y-100317720D01*
X137833225Y-100347696D01*
X137855481Y-100373382D01*
X137876064Y-100404886D01*
X137884687Y-100418084D01*
X138042774Y-100589813D01*
X138042778Y-100589817D01*
X138108650Y-100641087D01*
X138226983Y-100733190D01*
X138432273Y-100844287D01*
X138653049Y-100920080D01*
X138883288Y-100958500D01*
X138883292Y-100958500D01*
X139116708Y-100958500D01*
X139116712Y-100958500D01*
X139346951Y-100920080D01*
X139567727Y-100844287D01*
X139773017Y-100733190D01*
X139957220Y-100589818D01*
X140115314Y-100418083D01*
X140144517Y-100373383D01*
X140198519Y-100327296D01*
X140268867Y-100317720D01*
X140333225Y-100347696D01*
X140355481Y-100373382D01*
X140376064Y-100404886D01*
X140384687Y-100418084D01*
X140542774Y-100589813D01*
X140542778Y-100589817D01*
X140608650Y-100641087D01*
X140726983Y-100733190D01*
X140932273Y-100844287D01*
X141153049Y-100920080D01*
X141383288Y-100958500D01*
X141383292Y-100958500D01*
X141616708Y-100958500D01*
X141616712Y-100958500D01*
X141846951Y-100920080D01*
X142067727Y-100844287D01*
X142273017Y-100733190D01*
X142457220Y-100589818D01*
X142615314Y-100418083D01*
X142742984Y-100222669D01*
X142836749Y-100008907D01*
X142894051Y-99782626D01*
X142913327Y-99550000D01*
X142894051Y-99317374D01*
X142873766Y-99237270D01*
X142836750Y-99091096D01*
X142836747Y-99091089D01*
X142818193Y-99048791D01*
X142742984Y-98877331D01*
X142644517Y-98726615D01*
X142615314Y-98681916D01*
X142457225Y-98510186D01*
X142457221Y-98510182D01*
X142365118Y-98438496D01*
X142273017Y-98366810D01*
X142243345Y-98350752D01*
X142224529Y-98340569D01*
X142174139Y-98290555D01*
X142158500Y-98229756D01*
X142158500Y-94985142D01*
X142158499Y-94985139D01*
X142154215Y-94963603D01*
X142160540Y-94892889D01*
X142204093Y-94836820D01*
X142271044Y-94813198D01*
X142325704Y-94823890D01*
X142326140Y-94822789D01*
X142329817Y-94824244D01*
X142329821Y-94824247D01*
X142623298Y-94940443D01*
X142929025Y-95018940D01*
X142929033Y-95018941D01*
X142929032Y-95018941D01*
X143093129Y-95039670D01*
X143242179Y-95058500D01*
X143242183Y-95058500D01*
X143557817Y-95058500D01*
X143557821Y-95058500D01*
X143870975Y-95018940D01*
X144176702Y-94940443D01*
X144470179Y-94824247D01*
X144746779Y-94672184D01*
X145002140Y-94486654D01*
X145229249Y-94273383D01*
X145292597Y-94241334D01*
X145363219Y-94248621D01*
X145418690Y-94292931D01*
X145441399Y-94360198D01*
X145441500Y-94365235D01*
X145441500Y-98275050D01*
X145421498Y-98343171D01*
X145404595Y-98364145D01*
X133488513Y-110280226D01*
X133488508Y-110280232D01*
X133416445Y-110388082D01*
X133366807Y-110507919D01*
X133366806Y-110507922D01*
X133341500Y-110635139D01*
X133341500Y-119338111D01*
X133321498Y-119406232D01*
X133287771Y-119441324D01*
X133155703Y-119533799D01*
X133155697Y-119533804D01*
X132993804Y-119695697D01*
X132993799Y-119695703D01*
X132862477Y-119883250D01*
X132765717Y-120090753D01*
X132765715Y-120090759D01*
X132715570Y-120277904D01*
X132706457Y-120311913D01*
X132686502Y-120540000D01*
X132706457Y-120768087D01*
X132721192Y-120823077D01*
X132765715Y-120989240D01*
X132765717Y-120989246D01*
X132862477Y-121196749D01*
X132979193Y-121363437D01*
X132993802Y-121384300D01*
X133155700Y-121546198D01*
X133343251Y-121677523D01*
X133550757Y-121774284D01*
X133771913Y-121833543D01*
X134000000Y-121853498D01*
X134228087Y-121833543D01*
X134449243Y-121774284D01*
X134656749Y-121677523D01*
X134844300Y-121546198D01*
X135006198Y-121384300D01*
X135137523Y-121196749D01*
X135234284Y-120989243D01*
X135293543Y-120768087D01*
X135313498Y-120540000D01*
X135293543Y-120311913D01*
X135234284Y-120090757D01*
X135137523Y-119883251D01*
X135006198Y-119695700D01*
X134844300Y-119533802D01*
X134825410Y-119520575D01*
X134712229Y-119441324D01*
X134667901Y-119385867D01*
X134658500Y-119338111D01*
X134658500Y-111024950D01*
X134678502Y-110956829D01*
X134695405Y-110935855D01*
X135351034Y-110280226D01*
X136186366Y-109444893D01*
X136248676Y-109410870D01*
X136319491Y-109415934D01*
X136376327Y-109458481D01*
X136401138Y-109525001D01*
X136386047Y-109594375D01*
X136384579Y-109596989D01*
X136336779Y-109679780D01*
X136336776Y-109679786D01*
X136336776Y-109679788D01*
X136284956Y-109804892D01*
X136243946Y-109903900D01*
X136243944Y-109903904D01*
X136181160Y-110138217D01*
X136149500Y-110378709D01*
X136149500Y-110621290D01*
X136181160Y-110861782D01*
X136243944Y-111096095D01*
X136243945Y-111096097D01*
X136243946Y-111096100D01*
X136336776Y-111320212D01*
X136336777Y-111320213D01*
X136336782Y-111320224D01*
X136458061Y-111530285D01*
X136458063Y-111530288D01*
X136458064Y-111530289D01*
X136605735Y-111722738D01*
X136605739Y-111722742D01*
X136605744Y-111722748D01*
X136777251Y-111894255D01*
X136777256Y-111894259D01*
X136777262Y-111894265D01*
X136901714Y-111989760D01*
X136969714Y-112041938D01*
X137179775Y-112163217D01*
X137179779Y-112163218D01*
X137179788Y-112163224D01*
X137403900Y-112256054D01*
X137638211Y-112318838D01*
X137638215Y-112318838D01*
X137638217Y-112318839D01*
X137700202Y-112326999D01*
X137878712Y-112350500D01*
X137878719Y-112350500D01*
X138121281Y-112350500D01*
X138121288Y-112350500D01*
X138338637Y-112321885D01*
X138361782Y-112318839D01*
X138361782Y-112318838D01*
X138361789Y-112318838D01*
X138596100Y-112256054D01*
X138820212Y-112163224D01*
X139030289Y-112041936D01*
X139222738Y-111894265D01*
X139394265Y-111722738D01*
X139541936Y-111530289D01*
X139663224Y-111320212D01*
X139756054Y-111096100D01*
X139818838Y-110861789D01*
X139850500Y-110621288D01*
X139850500Y-110378712D01*
X139818838Y-110138211D01*
X139756054Y-109903900D01*
X139663224Y-109679788D01*
X139663218Y-109679779D01*
X139663217Y-109679775D01*
X139541938Y-109469714D01*
X139541936Y-109469711D01*
X139394265Y-109277262D01*
X139394259Y-109277256D01*
X139394255Y-109277251D01*
X139222748Y-109105744D01*
X139222742Y-109105739D01*
X139222738Y-109105735D01*
X139030289Y-108958064D01*
X139030288Y-108958063D01*
X139030285Y-108958061D01*
X138820224Y-108836782D01*
X138820216Y-108836778D01*
X138820212Y-108836776D01*
X138596100Y-108743946D01*
X138596097Y-108743945D01*
X138596095Y-108743944D01*
X138361782Y-108681160D01*
X138121290Y-108649500D01*
X138121288Y-108649500D01*
X137878712Y-108649500D01*
X137878709Y-108649500D01*
X137638217Y-108681160D01*
X137403904Y-108743944D01*
X137403900Y-108743946D01*
X137214766Y-108822288D01*
X137179786Y-108836777D01*
X137179780Y-108836779D01*
X137096989Y-108884579D01*
X137027994Y-108901316D01*
X136960902Y-108878095D01*
X136917015Y-108822288D01*
X136910267Y-108751613D01*
X136942800Y-108688508D01*
X136944852Y-108686407D01*
X141726405Y-103904855D01*
X141788717Y-103870829D01*
X141859532Y-103875894D01*
X141916368Y-103918441D01*
X141941179Y-103984961D01*
X141941500Y-103993950D01*
X141941500Y-117555416D01*
X141921498Y-117623537D01*
X141867842Y-117670030D01*
X141797568Y-117680134D01*
X141739991Y-117656284D01*
X141710965Y-117634556D01*
X141710964Y-117634555D01*
X141574093Y-117583505D01*
X141513597Y-117577000D01*
X140754000Y-117577000D01*
X140754000Y-118444950D01*
X140677931Y-118413442D01*
X140560080Y-118390000D01*
X140439920Y-118390000D01*
X140322069Y-118413442D01*
X140246000Y-118444950D01*
X140246000Y-117577000D01*
X139486402Y-117577000D01*
X139425906Y-117583505D01*
X139289035Y-117634555D01*
X139289034Y-117634555D01*
X139172095Y-117722095D01*
X139084555Y-117839034D01*
X139084555Y-117839035D01*
X139033505Y-117975906D01*
X139027000Y-118036402D01*
X139027000Y-118746000D01*
X139944951Y-118746000D01*
X139913442Y-118822069D01*
X139890000Y-118939920D01*
X139890000Y-119060080D01*
X139913442Y-119177931D01*
X139944951Y-119254000D01*
X139027000Y-119254000D01*
X139027000Y-119963597D01*
X139033505Y-120024093D01*
X139084555Y-120160964D01*
X139084555Y-120160965D01*
X139172095Y-120277904D01*
X139289034Y-120365444D01*
X139425906Y-120416494D01*
X139486402Y-120422999D01*
X139486415Y-120423000D01*
X139803438Y-120423000D01*
X139871559Y-120443002D01*
X139918052Y-120496658D01*
X139928156Y-120566932D01*
X139898662Y-120631512D01*
X139851656Y-120665408D01*
X139831724Y-120673665D01*
X139783438Y-120693665D01*
X139572258Y-120823076D01*
X139572256Y-120823077D01*
X139383926Y-120983926D01*
X139223077Y-121172256D01*
X139223076Y-121172258D01*
X139093665Y-121383438D01*
X138998885Y-121612257D01*
X138941066Y-121853088D01*
X138921634Y-122100000D01*
X138941066Y-122346911D01*
X138998885Y-122587742D01*
X139090947Y-122810000D01*
X139093666Y-122816563D01*
X139219042Y-123021159D01*
X139223076Y-123027741D01*
X139223077Y-123027743D01*
X139383926Y-123216073D01*
X139548843Y-123356925D01*
X139572260Y-123376925D01*
X139783437Y-123506334D01*
X140012258Y-123601115D01*
X140253089Y-123658934D01*
X140500000Y-123678366D01*
X140746911Y-123658934D01*
X140987742Y-123601115D01*
X141216563Y-123506334D01*
X141427740Y-123376925D01*
X141616073Y-123216073D01*
X141719689Y-123094755D01*
X141779139Y-123055945D01*
X141850134Y-123055439D01*
X141910133Y-123093395D01*
X141940086Y-123157763D01*
X141941500Y-123176585D01*
X141941500Y-129323414D01*
X141921498Y-129391535D01*
X141867842Y-129438028D01*
X141797568Y-129448132D01*
X141732988Y-129418638D01*
X141719689Y-129405245D01*
X141616070Y-129283924D01*
X141427743Y-129123077D01*
X141427741Y-129123076D01*
X141427740Y-129123075D01*
X141216563Y-128993666D01*
X141168276Y-128973665D01*
X140987742Y-128898885D01*
X140927000Y-128884302D01*
X140746911Y-128841066D01*
X140746912Y-128841066D01*
X140500000Y-128821634D01*
X140253088Y-128841066D01*
X140012257Y-128898885D01*
X139783438Y-128993665D01*
X139572258Y-129123076D01*
X139572256Y-129123077D01*
X139383926Y-129283926D01*
X139223077Y-129472256D01*
X139223076Y-129472258D01*
X139093665Y-129683438D01*
X138998885Y-129912257D01*
X138941066Y-130153088D01*
X138921634Y-130400000D01*
X138941066Y-130646911D01*
X138998885Y-130887742D01*
X139093665Y-131116561D01*
X139223076Y-131327741D01*
X139223077Y-131327743D01*
X139383926Y-131516073D01*
X139548843Y-131656925D01*
X139572260Y-131676925D01*
X139783437Y-131806334D01*
X139851656Y-131834591D01*
X139906937Y-131879140D01*
X139929358Y-131946503D01*
X139911800Y-132015294D01*
X139859838Y-132063672D01*
X139803438Y-132077000D01*
X139486402Y-132077000D01*
X139425906Y-132083505D01*
X139289035Y-132134555D01*
X139289034Y-132134555D01*
X139172095Y-132222095D01*
X139084555Y-132339034D01*
X139084555Y-132339035D01*
X139033505Y-132475906D01*
X139027000Y-132536402D01*
X139027000Y-133246000D01*
X139944951Y-133246000D01*
X139913442Y-133322069D01*
X139890000Y-133439920D01*
X139890000Y-133560080D01*
X139913442Y-133677931D01*
X139944951Y-133754000D01*
X139027000Y-133754000D01*
X139027000Y-134463597D01*
X139033505Y-134524093D01*
X139084555Y-134660964D01*
X139084555Y-134660965D01*
X139172095Y-134777904D01*
X139289034Y-134865444D01*
X139425906Y-134916494D01*
X139486402Y-134922999D01*
X139486415Y-134923000D01*
X139803438Y-134923000D01*
X139871559Y-134943002D01*
X139918052Y-134996658D01*
X139928156Y-135066932D01*
X139898662Y-135131512D01*
X139851656Y-135165408D01*
X139828243Y-135175106D01*
X139783438Y-135193665D01*
X139572258Y-135323076D01*
X139572256Y-135323077D01*
X139383926Y-135483926D01*
X139223077Y-135672256D01*
X139223076Y-135672258D01*
X139093665Y-135883438D01*
X138998885Y-136112257D01*
X138941066Y-136353088D01*
X138921634Y-136600000D01*
X138941066Y-136846911D01*
X138998885Y-137087742D01*
X139093665Y-137316561D01*
X139223076Y-137527741D01*
X139223077Y-137527743D01*
X139383926Y-137716073D01*
X139572256Y-137876922D01*
X139572260Y-137876925D01*
X139783437Y-138006334D01*
X140012258Y-138101115D01*
X140253089Y-138158934D01*
X140500000Y-138178366D01*
X140746911Y-138158934D01*
X140987742Y-138101115D01*
X141216563Y-138006334D01*
X141427740Y-137876925D01*
X141616073Y-137716073D01*
X141719689Y-137594755D01*
X141779139Y-137555945D01*
X141850134Y-137555439D01*
X141910133Y-137593395D01*
X141940086Y-137657763D01*
X141941500Y-137676585D01*
X141941500Y-142475048D01*
X141921498Y-142543169D01*
X141904595Y-142564144D01*
X141103852Y-143364886D01*
X141041540Y-143398911D01*
X140985343Y-143398309D01*
X140746911Y-143341066D01*
X140746912Y-143341066D01*
X140500000Y-143321634D01*
X140253088Y-143341066D01*
X140012257Y-143398885D01*
X139783438Y-143493665D01*
X139572258Y-143623076D01*
X139572256Y-143623077D01*
X139383926Y-143783926D01*
X139223077Y-143972256D01*
X139223076Y-143972258D01*
X139093665Y-144183438D01*
X138998885Y-144412257D01*
X138998310Y-144414655D01*
X138941066Y-144653089D01*
X138921634Y-144900000D01*
X138941066Y-145146911D01*
X138998885Y-145387742D01*
X139093666Y-145616563D01*
X139093667Y-145616564D01*
X139210773Y-145807666D01*
X139229311Y-145876199D01*
X139207854Y-145943876D01*
X139153215Y-145989209D01*
X139103340Y-145999500D01*
X128896660Y-145999500D01*
X128828539Y-145979498D01*
X128782046Y-145925842D01*
X128771942Y-145855568D01*
X128789227Y-145807666D01*
X128827674Y-145744924D01*
X128906334Y-145616563D01*
X129001115Y-145387742D01*
X129058934Y-145146911D01*
X129078366Y-144900000D01*
X129058934Y-144653089D01*
X129001115Y-144412258D01*
X128906334Y-144183437D01*
X128776925Y-143972260D01*
X128776922Y-143972256D01*
X128616073Y-143783926D01*
X128427743Y-143623077D01*
X128427741Y-143623076D01*
X128427740Y-143623075D01*
X128216563Y-143493666D01*
X128038155Y-143419767D01*
X127987742Y-143398885D01*
X127846123Y-143364885D01*
X127746911Y-143341066D01*
X127746912Y-143341066D01*
X127500000Y-143321634D01*
X127253088Y-143341066D01*
X127014654Y-143398309D01*
X126943746Y-143394762D01*
X126896145Y-143364885D01*
X124495405Y-140964145D01*
X124461379Y-140901833D01*
X124458500Y-140875050D01*
X124458500Y-130380000D01*
X125921634Y-130380000D01*
X125941066Y-130626911D01*
X125998885Y-130867742D01*
X126093665Y-131096561D01*
X126223076Y-131307741D01*
X126223077Y-131307743D01*
X126383926Y-131496073D01*
X126572256Y-131656922D01*
X126572260Y-131656925D01*
X126783437Y-131786334D01*
X126899940Y-131834591D01*
X126955221Y-131879140D01*
X126977642Y-131946503D01*
X126960084Y-132015294D01*
X126908122Y-132063672D01*
X126851722Y-132077000D01*
X126486402Y-132077000D01*
X126425906Y-132083505D01*
X126289035Y-132134555D01*
X126289034Y-132134555D01*
X126172095Y-132222095D01*
X126084555Y-132339034D01*
X126084555Y-132339035D01*
X126033505Y-132475906D01*
X126027000Y-132536402D01*
X126027000Y-133246000D01*
X126944951Y-133246000D01*
X126913442Y-133322069D01*
X126890000Y-133439920D01*
X126890000Y-133560080D01*
X126913442Y-133677931D01*
X126944951Y-133754000D01*
X126027000Y-133754000D01*
X126027000Y-134463597D01*
X126033505Y-134524093D01*
X126084555Y-134660964D01*
X126084555Y-134660965D01*
X126172095Y-134777904D01*
X126289034Y-134865444D01*
X126425906Y-134916494D01*
X126486402Y-134922999D01*
X126486415Y-134923000D01*
X126803438Y-134923000D01*
X126871559Y-134943002D01*
X126918052Y-134996658D01*
X126928156Y-135066932D01*
X126898662Y-135131512D01*
X126851656Y-135165408D01*
X126828243Y-135175106D01*
X126783438Y-135193665D01*
X126572258Y-135323076D01*
X126572256Y-135323077D01*
X126383926Y-135483926D01*
X126223077Y-135672256D01*
X126223076Y-135672258D01*
X126093665Y-135883438D01*
X125998885Y-136112257D01*
X125941066Y-136353088D01*
X125921634Y-136600000D01*
X125941066Y-136846911D01*
X125998885Y-137087742D01*
X126093665Y-137316561D01*
X126223076Y-137527741D01*
X126223077Y-137527743D01*
X126383926Y-137716073D01*
X126572256Y-137876922D01*
X126572260Y-137876925D01*
X126783437Y-138006334D01*
X127012258Y-138101115D01*
X127253089Y-138158934D01*
X127500000Y-138178366D01*
X127746911Y-138158934D01*
X127987742Y-138101115D01*
X128216563Y-138006334D01*
X128427740Y-137876925D01*
X128616073Y-137716073D01*
X128776925Y-137527740D01*
X128906334Y-137316563D01*
X129001115Y-137087742D01*
X129058934Y-136846911D01*
X129078366Y-136600000D01*
X129058934Y-136353089D01*
X129001115Y-136112258D01*
X128906334Y-135883437D01*
X128776925Y-135672260D01*
X128756318Y-135648132D01*
X128616073Y-135483926D01*
X128427743Y-135323077D01*
X128427741Y-135323076D01*
X128427740Y-135323075D01*
X128216563Y-135193666D01*
X128148343Y-135165408D01*
X128093063Y-135120860D01*
X128070642Y-135053497D01*
X128088200Y-134984706D01*
X128140162Y-134936328D01*
X128196562Y-134923000D01*
X128513585Y-134923000D01*
X128513597Y-134922999D01*
X128574093Y-134916494D01*
X128710964Y-134865444D01*
X128710965Y-134865444D01*
X128827904Y-134777904D01*
X128915444Y-134660965D01*
X128915444Y-134660964D01*
X128966494Y-134524093D01*
X128972999Y-134463597D01*
X128973000Y-134463585D01*
X128973000Y-133754000D01*
X128055049Y-133754000D01*
X128086558Y-133677931D01*
X128110000Y-133560080D01*
X128110000Y-133439920D01*
X128086558Y-133322069D01*
X128055049Y-133246000D01*
X128973000Y-133246000D01*
X128973000Y-132536414D01*
X128972999Y-132536402D01*
X128966494Y-132475906D01*
X128915444Y-132339035D01*
X128915444Y-132339034D01*
X128827904Y-132222095D01*
X128710965Y-132134555D01*
X128574093Y-132083505D01*
X128513597Y-132077000D01*
X128148278Y-132077000D01*
X128080157Y-132056998D01*
X128033664Y-132003342D01*
X128023560Y-131933068D01*
X128053054Y-131868488D01*
X128100059Y-131834591D01*
X128216563Y-131786334D01*
X128427740Y-131656925D01*
X128616073Y-131496073D01*
X128776925Y-131307740D01*
X128906334Y-131096563D01*
X129001115Y-130867742D01*
X129058934Y-130626911D01*
X129078366Y-130380000D01*
X129058934Y-130133089D01*
X129001115Y-129892258D01*
X128906334Y-129663437D01*
X128776925Y-129452260D01*
X128776922Y-129452256D01*
X128616073Y-129263926D01*
X128427743Y-129103077D01*
X128427741Y-129103076D01*
X128427740Y-129103075D01*
X128216563Y-128973666D01*
X128203094Y-128968087D01*
X127987742Y-128878885D01*
X127746911Y-128821066D01*
X127746912Y-128821066D01*
X127500000Y-128801634D01*
X127253088Y-128821066D01*
X127012257Y-128878885D01*
X126783438Y-128973665D01*
X126572258Y-129103076D01*
X126572256Y-129103077D01*
X126383926Y-129263926D01*
X126223077Y-129452256D01*
X126223076Y-129452258D01*
X126093665Y-129663438D01*
X125998885Y-129892257D01*
X125941066Y-130133088D01*
X125921634Y-130380000D01*
X124458500Y-130380000D01*
X124458500Y-128160000D01*
X132686502Y-128160000D01*
X132706457Y-128388086D01*
X132765715Y-128609240D01*
X132765717Y-128609246D01*
X132862477Y-128816749D01*
X132968444Y-128968086D01*
X132993802Y-129004300D01*
X133155700Y-129166198D01*
X133343251Y-129297523D01*
X133550757Y-129394284D01*
X133771913Y-129453543D01*
X134000000Y-129473498D01*
X134228087Y-129453543D01*
X134449243Y-129394284D01*
X134656749Y-129297523D01*
X134844300Y-129166198D01*
X135006198Y-129004300D01*
X135137523Y-128816749D01*
X135234284Y-128609243D01*
X135293543Y-128388087D01*
X135313498Y-128160000D01*
X135293543Y-127931913D01*
X135234284Y-127710757D01*
X135137523Y-127503251D01*
X135006198Y-127315700D01*
X134844300Y-127153802D01*
X134656749Y-127022477D01*
X134449246Y-126925717D01*
X134449240Y-126925715D01*
X134355771Y-126900670D01*
X134228087Y-126866457D01*
X134000000Y-126846502D01*
X133771913Y-126866457D01*
X133550759Y-126925715D01*
X133550753Y-126925717D01*
X133343250Y-127022477D01*
X133155703Y-127153799D01*
X133155697Y-127153804D01*
X132993804Y-127315697D01*
X132993799Y-127315703D01*
X132862477Y-127503250D01*
X132765717Y-127710753D01*
X132765715Y-127710759D01*
X132706457Y-127931913D01*
X132686502Y-128160000D01*
X124458500Y-128160000D01*
X124458500Y-122080000D01*
X125921634Y-122080000D01*
X125941066Y-122326911D01*
X125998885Y-122567742D01*
X126093666Y-122796563D01*
X126184863Y-122945384D01*
X126223076Y-123007741D01*
X126223077Y-123007743D01*
X126383926Y-123196073D01*
X126572256Y-123356922D01*
X126572260Y-123356925D01*
X126783437Y-123486334D01*
X127012258Y-123581115D01*
X127253089Y-123638934D01*
X127500000Y-123658366D01*
X127746911Y-123638934D01*
X127987742Y-123581115D01*
X128216563Y-123486334D01*
X128427740Y-123356925D01*
X128616073Y-123196073D01*
X128776925Y-123007740D01*
X128906334Y-122796563D01*
X129001115Y-122567742D01*
X129058934Y-122326911D01*
X129078366Y-122080000D01*
X129058934Y-121833089D01*
X129001115Y-121592258D01*
X128906334Y-121363437D01*
X128776925Y-121152260D01*
X128776922Y-121152256D01*
X128616073Y-120963926D01*
X128427743Y-120803077D01*
X128427741Y-120803076D01*
X128427740Y-120803075D01*
X128216563Y-120673666D01*
X128209530Y-120670753D01*
X128192058Y-120663515D01*
X128148343Y-120645408D01*
X128093063Y-120600860D01*
X128070642Y-120533497D01*
X128088200Y-120464706D01*
X128140162Y-120416328D01*
X128196562Y-120403000D01*
X128513585Y-120403000D01*
X128513597Y-120402999D01*
X128574093Y-120396494D01*
X128710964Y-120345444D01*
X128710965Y-120345444D01*
X128827904Y-120257904D01*
X128915444Y-120140965D01*
X128915444Y-120140964D01*
X128966494Y-120004093D01*
X128972999Y-119943597D01*
X128973000Y-119943585D01*
X128973000Y-119234000D01*
X128055049Y-119234000D01*
X128086558Y-119157931D01*
X128110000Y-119040080D01*
X128110000Y-118919920D01*
X128086558Y-118802069D01*
X128055049Y-118726000D01*
X128973000Y-118726000D01*
X128973000Y-118016414D01*
X128972999Y-118016402D01*
X128966494Y-117955906D01*
X128915444Y-117819035D01*
X128915444Y-117819034D01*
X128827904Y-117702095D01*
X128710965Y-117614555D01*
X128574093Y-117563505D01*
X128513597Y-117557000D01*
X127754000Y-117557000D01*
X127754000Y-118424950D01*
X127677931Y-118393442D01*
X127560080Y-118370000D01*
X127439920Y-118370000D01*
X127322069Y-118393442D01*
X127246000Y-118424950D01*
X127246000Y-117557000D01*
X126486402Y-117557000D01*
X126425906Y-117563505D01*
X126289035Y-117614555D01*
X126289034Y-117614555D01*
X126172095Y-117702095D01*
X126084555Y-117819034D01*
X126084555Y-117819035D01*
X126033505Y-117955906D01*
X126027000Y-118016402D01*
X126027000Y-118726000D01*
X126944951Y-118726000D01*
X126913442Y-118802069D01*
X126890000Y-118919920D01*
X126890000Y-119040080D01*
X126913442Y-119157931D01*
X126944951Y-119234000D01*
X126027000Y-119234000D01*
X126027000Y-119943597D01*
X126033505Y-120004093D01*
X126084555Y-120140964D01*
X126084555Y-120140965D01*
X126172095Y-120257904D01*
X126289034Y-120345444D01*
X126425906Y-120396494D01*
X126486402Y-120402999D01*
X126486415Y-120403000D01*
X126803438Y-120403000D01*
X126871559Y-120423002D01*
X126918052Y-120476658D01*
X126928156Y-120546932D01*
X126898662Y-120611512D01*
X126851656Y-120645408D01*
X126828243Y-120655106D01*
X126783438Y-120673665D01*
X126572258Y-120803076D01*
X126572256Y-120803077D01*
X126383926Y-120963926D01*
X126223077Y-121152256D01*
X126223076Y-121152258D01*
X126093665Y-121363438D01*
X125998885Y-121592257D01*
X125957728Y-121763689D01*
X125941066Y-121833089D01*
X125921634Y-122080000D01*
X124458500Y-122080000D01*
X124458500Y-111561799D01*
X125491500Y-111561799D01*
X125491500Y-111838200D01*
X125527575Y-112112223D01*
X125599112Y-112379204D01*
X125599113Y-112379206D01*
X125599114Y-112379209D01*
X125704886Y-112634567D01*
X125704887Y-112634568D01*
X125704892Y-112634578D01*
X125843082Y-112873929D01*
X126011344Y-113093214D01*
X126011353Y-113093224D01*
X126206775Y-113288646D01*
X126206785Y-113288655D01*
X126206786Y-113288656D01*
X126426067Y-113456915D01*
X126665433Y-113595114D01*
X126920791Y-113700886D01*
X127187769Y-113772423D01*
X127187775Y-113772423D01*
X127187776Y-113772424D01*
X127189903Y-113772704D01*
X127461802Y-113808500D01*
X127461809Y-113808500D01*
X129538191Y-113808500D01*
X129538198Y-113808500D01*
X129812231Y-113772423D01*
X130079209Y-113700886D01*
X130334567Y-113595114D01*
X130573933Y-113456915D01*
X130793214Y-113288656D01*
X130988656Y-113093214D01*
X131156915Y-112873933D01*
X131295114Y-112634567D01*
X131400886Y-112379209D01*
X131472423Y-112112231D01*
X131508500Y-111838198D01*
X131508500Y-111561802D01*
X131472423Y-111287769D01*
X131400886Y-111020791D01*
X131295114Y-110765433D01*
X131219888Y-110635139D01*
X131156917Y-110526070D01*
X131142992Y-110507923D01*
X130988656Y-110306786D01*
X130988655Y-110306785D01*
X130988646Y-110306775D01*
X130793224Y-110111353D01*
X130793214Y-110111344D01*
X130573929Y-109943082D01*
X130334578Y-109804892D01*
X130334573Y-109804889D01*
X130334567Y-109804886D01*
X130079209Y-109699114D01*
X130079206Y-109699113D01*
X130079204Y-109699112D01*
X129859918Y-109640355D01*
X129812231Y-109627577D01*
X129812229Y-109627576D01*
X129812223Y-109627575D01*
X129538200Y-109591500D01*
X129538198Y-109591500D01*
X127461802Y-109591500D01*
X127461799Y-109591500D01*
X127187776Y-109627575D01*
X126920795Y-109699112D01*
X126920791Y-109699114D01*
X126665431Y-109804887D01*
X126665421Y-109804892D01*
X126426070Y-109943082D01*
X126206785Y-110111344D01*
X126206775Y-110111353D01*
X126011353Y-110306775D01*
X126011344Y-110306785D01*
X125843082Y-110526070D01*
X125704892Y-110765421D01*
X125704887Y-110765431D01*
X125599114Y-111020791D01*
X125599112Y-111020795D01*
X125527575Y-111287776D01*
X125491500Y-111561799D01*
X124458500Y-111561799D01*
X124458500Y-106861799D01*
X125491500Y-106861799D01*
X125491500Y-107138200D01*
X125527575Y-107412223D01*
X125599112Y-107679204D01*
X125599113Y-107679206D01*
X125599114Y-107679209D01*
X125704886Y-107934567D01*
X125704887Y-107934568D01*
X125704892Y-107934578D01*
X125843082Y-108173929D01*
X126011344Y-108393214D01*
X126011353Y-108393224D01*
X126206775Y-108588646D01*
X126206785Y-108588655D01*
X126206786Y-108588656D01*
X126419157Y-108751613D01*
X126426070Y-108756917D01*
X126564400Y-108836782D01*
X126665433Y-108895114D01*
X126920791Y-109000886D01*
X127187769Y-109072423D01*
X127187775Y-109072423D01*
X127187776Y-109072424D01*
X127219222Y-109076563D01*
X127461802Y-109108500D01*
X127461809Y-109108500D01*
X129538191Y-109108500D01*
X129538198Y-109108500D01*
X129812231Y-109072423D01*
X130079209Y-109000886D01*
X130334567Y-108895114D01*
X130573933Y-108756915D01*
X130793214Y-108588656D01*
X130988656Y-108393214D01*
X131156915Y-108173933D01*
X131295114Y-107934567D01*
X131400886Y-107679209D01*
X131472423Y-107412231D01*
X131508500Y-107138198D01*
X131508500Y-106861802D01*
X131472423Y-106587769D01*
X131400886Y-106320791D01*
X131295114Y-106065433D01*
X131165317Y-105840619D01*
X131156917Y-105826070D01*
X131032223Y-105663565D01*
X130988656Y-105606786D01*
X130988655Y-105606785D01*
X130988646Y-105606775D01*
X130793224Y-105411353D01*
X130793214Y-105411344D01*
X130573929Y-105243082D01*
X130334578Y-105104892D01*
X130334573Y-105104889D01*
X130334567Y-105104886D01*
X130079209Y-104999114D01*
X130079206Y-104999113D01*
X130079204Y-104999112D01*
X129859918Y-104940355D01*
X129812231Y-104927577D01*
X129812229Y-104927576D01*
X129812223Y-104927575D01*
X129538200Y-104891500D01*
X129538198Y-104891500D01*
X127461802Y-104891500D01*
X127461799Y-104891500D01*
X127187776Y-104927575D01*
X126920795Y-104999112D01*
X126920791Y-104999114D01*
X126722955Y-105081060D01*
X126665431Y-105104887D01*
X126665421Y-105104892D01*
X126426070Y-105243082D01*
X126206785Y-105411344D01*
X126206775Y-105411353D01*
X126011353Y-105606775D01*
X126011344Y-105606785D01*
X125843082Y-105826070D01*
X125704892Y-106065421D01*
X125704887Y-106065431D01*
X125599114Y-106320791D01*
X125599112Y-106320795D01*
X125527575Y-106587776D01*
X125491500Y-106861799D01*
X124458500Y-106861799D01*
X124458500Y-102161799D01*
X125491500Y-102161799D01*
X125491500Y-102438200D01*
X125527575Y-102712223D01*
X125599112Y-102979204D01*
X125599113Y-102979206D01*
X125599114Y-102979209D01*
X125704886Y-103234567D01*
X125704887Y-103234568D01*
X125704892Y-103234578D01*
X125843082Y-103473929D01*
X125843084Y-103473932D01*
X125843085Y-103473933D01*
X126011344Y-103693214D01*
X126011348Y-103693218D01*
X126011353Y-103693224D01*
X126206775Y-103888646D01*
X126206785Y-103888655D01*
X126206786Y-103888656D01*
X126426067Y-104056915D01*
X126665433Y-104195114D01*
X126920791Y-104300886D01*
X127187769Y-104372423D01*
X127187775Y-104372423D01*
X127187776Y-104372424D01*
X127219222Y-104376563D01*
X127461802Y-104408500D01*
X127461809Y-104408500D01*
X129538191Y-104408500D01*
X129538198Y-104408500D01*
X129812231Y-104372423D01*
X130079209Y-104300886D01*
X130334567Y-104195114D01*
X130573933Y-104056915D01*
X130793214Y-103888656D01*
X130988656Y-103693214D01*
X131156915Y-103473933D01*
X131295114Y-103234567D01*
X131400886Y-102979209D01*
X131472423Y-102712231D01*
X131508500Y-102438198D01*
X131508500Y-102161802D01*
X131472423Y-101887769D01*
X131400886Y-101620791D01*
X131295114Y-101365433D01*
X131162155Y-101135143D01*
X131156917Y-101126070D01*
X131066260Y-101007923D01*
X130988656Y-100906786D01*
X130988655Y-100906785D01*
X130988646Y-100906775D01*
X130793224Y-100711353D01*
X130793214Y-100711344D01*
X130634836Y-100589817D01*
X130573933Y-100543085D01*
X130573932Y-100543084D01*
X130573929Y-100543082D01*
X130334578Y-100404892D01*
X130334573Y-100404889D01*
X130334567Y-100404886D01*
X130079209Y-100299114D01*
X130079206Y-100299113D01*
X130079204Y-100299112D01*
X129859918Y-100240355D01*
X129812231Y-100227577D01*
X129812229Y-100227576D01*
X129812223Y-100227575D01*
X129538200Y-100191500D01*
X129538198Y-100191500D01*
X127461802Y-100191500D01*
X127461799Y-100191500D01*
X127187776Y-100227575D01*
X126920795Y-100299112D01*
X126920791Y-100299114D01*
X126724959Y-100380230D01*
X126665431Y-100404887D01*
X126665421Y-100404892D01*
X126426070Y-100543082D01*
X126206785Y-100711344D01*
X126206775Y-100711353D01*
X126011353Y-100906775D01*
X126011344Y-100906785D01*
X125843082Y-101126070D01*
X125704892Y-101365421D01*
X125704887Y-101365431D01*
X125704886Y-101365433D01*
X125649907Y-101498166D01*
X125599114Y-101620791D01*
X125599112Y-101620795D01*
X125527575Y-101887776D01*
X125491500Y-102161799D01*
X124458500Y-102161799D01*
X124458500Y-101135142D01*
X124458499Y-101135139D01*
X124456695Y-101126070D01*
X124433194Y-101007923D01*
X124383555Y-100888083D01*
X124311490Y-100780231D01*
X124219769Y-100688510D01*
X121858499Y-98327240D01*
X119490824Y-95959564D01*
X119456798Y-95897252D01*
X119461863Y-95826437D01*
X119504410Y-95769601D01*
X119570930Y-95744790D01*
X119620831Y-95751296D01*
X119765483Y-95800955D01*
X119765492Y-95800957D01*
X119846000Y-95814391D01*
X119846000Y-94910702D01*
X119907007Y-94945925D01*
X120034174Y-94980000D01*
X120165826Y-94980000D01*
X120292993Y-94945925D01*
X120354000Y-94910702D01*
X120354000Y-95814390D01*
X120434507Y-95800957D01*
X120434516Y-95800955D01*
X120647369Y-95727883D01*
X120647371Y-95727882D01*
X120845300Y-95620768D01*
X120845301Y-95620767D01*
X121022902Y-95482534D01*
X121175325Y-95316958D01*
X121298419Y-95128548D01*
X121388820Y-94922456D01*
X121388823Y-94922449D01*
X121436544Y-94734000D01*
X120530703Y-94734000D01*
X120565925Y-94672993D01*
X120600000Y-94545826D01*
X120600000Y-94414174D01*
X120565925Y-94287007D01*
X120530703Y-94226000D01*
X121436544Y-94226000D01*
X121436544Y-94225999D01*
X121388823Y-94037550D01*
X121388820Y-94037543D01*
X121298419Y-93831451D01*
X121175325Y-93643041D01*
X121022902Y-93477465D01*
X120845301Y-93339232D01*
X120845300Y-93339231D01*
X120811791Y-93321097D01*
X120761401Y-93271083D01*
X120746050Y-93201766D01*
X120770612Y-93135153D01*
X120811790Y-93099472D01*
X120845576Y-93081189D01*
X121023240Y-92942906D01*
X121175722Y-92777268D01*
X121298860Y-92588791D01*
X121389296Y-92382616D01*
X121444564Y-92164368D01*
X121463156Y-91940000D01*
X121444564Y-91715632D01*
X121421548Y-91624745D01*
X121389297Y-91497387D01*
X121389296Y-91497386D01*
X121389296Y-91497384D01*
X121298860Y-91291209D01*
X121292140Y-91280924D01*
X121175724Y-91102734D01*
X121175720Y-91102729D01*
X121023237Y-90937091D01*
X120923525Y-90859482D01*
X120845576Y-90798811D01*
X120812319Y-90780813D01*
X120761929Y-90730802D01*
X120746576Y-90661485D01*
X120771136Y-90594872D01*
X120812320Y-90559186D01*
X120845576Y-90541189D01*
X121023240Y-90402906D01*
X121175722Y-90237268D01*
X121298860Y-90048791D01*
X121389296Y-89842616D01*
X121444564Y-89624368D01*
X121463156Y-89400000D01*
X121444564Y-89175632D01*
X121429174Y-89114857D01*
X121389297Y-88957387D01*
X121389296Y-88957386D01*
X121389296Y-88957384D01*
X121298860Y-88751209D01*
X121292140Y-88740924D01*
X121175724Y-88562734D01*
X121175720Y-88562729D01*
X121023237Y-88397091D01*
X120941382Y-88333381D01*
X120845576Y-88258811D01*
X120812319Y-88240813D01*
X120761929Y-88190802D01*
X120746576Y-88121485D01*
X120771136Y-88054872D01*
X120812320Y-88019186D01*
X120845576Y-88001189D01*
X121023240Y-87862906D01*
X121175722Y-87697268D01*
X121298860Y-87508791D01*
X121389296Y-87302616D01*
X121444564Y-87084368D01*
X121463156Y-86860000D01*
X121444564Y-86635632D01*
X121444562Y-86635624D01*
X121389297Y-86417387D01*
X121389296Y-86417386D01*
X121389296Y-86417384D01*
X121298860Y-86211209D01*
X121292140Y-86200924D01*
X121175724Y-86022734D01*
X121175720Y-86022729D01*
X121023237Y-85857091D01*
X120897760Y-85759428D01*
X120845576Y-85718811D01*
X120812319Y-85700813D01*
X120761929Y-85650802D01*
X120746576Y-85581485D01*
X120771136Y-85514872D01*
X120812320Y-85479186D01*
X120845576Y-85461189D01*
X121023240Y-85322906D01*
X121175722Y-85157268D01*
X121298860Y-84968791D01*
X121389296Y-84762616D01*
X121444564Y-84544368D01*
X121463156Y-84320000D01*
X121444564Y-84095632D01*
X121441388Y-84083092D01*
X121389297Y-83877387D01*
X121389296Y-83877386D01*
X121389296Y-83877384D01*
X121298860Y-83671209D01*
X121292140Y-83660924D01*
X121175724Y-83482734D01*
X121175720Y-83482729D01*
X121023237Y-83317091D01*
X120911029Y-83229756D01*
X120845576Y-83178811D01*
X120812319Y-83160813D01*
X120761929Y-83110802D01*
X120746576Y-83041485D01*
X120771136Y-82974872D01*
X120812320Y-82939186D01*
X120845576Y-82921189D01*
X121023240Y-82782906D01*
X121175722Y-82617268D01*
X121298860Y-82428791D01*
X121389296Y-82222616D01*
X121444564Y-82004368D01*
X121463156Y-81780000D01*
X121444564Y-81555632D01*
X121444562Y-81555624D01*
X121389297Y-81337387D01*
X121389296Y-81337386D01*
X121389296Y-81337384D01*
X121298860Y-81131209D01*
X121298858Y-81131206D01*
X121298857Y-81131203D01*
X121296380Y-81126626D01*
X121298699Y-81125370D01*
X121281175Y-81067967D01*
X121300447Y-80999636D01*
X121353602Y-80952571D01*
X121423763Y-80941716D01*
X121488656Y-80970516D01*
G37*
G04 #@! TD.AperFunction*
G04 #@! TA.AperFunction,Conductor*
G36*
X147208815Y-109162056D02*
G01*
X147239775Y-109225946D01*
X147241500Y-109246722D01*
X147241500Y-113015500D01*
X147221498Y-113083621D01*
X147167842Y-113130114D01*
X147115500Y-113141500D01*
X146883288Y-113141500D01*
X146768066Y-113160727D01*
X146653051Y-113179919D01*
X146653044Y-113179921D01*
X146432276Y-113255711D01*
X146432273Y-113255713D01*
X146226985Y-113366809D01*
X146226983Y-113366810D01*
X146042778Y-113510182D01*
X146042774Y-113510186D01*
X145884685Y-113681916D01*
X145757015Y-113877331D01*
X145663252Y-114091089D01*
X145663249Y-114091096D01*
X145605950Y-114317366D01*
X145605949Y-114317372D01*
X145605949Y-114317374D01*
X145586673Y-114550000D01*
X145601987Y-114734816D01*
X145605950Y-114782633D01*
X145663249Y-115008903D01*
X145663252Y-115008910D01*
X145757015Y-115222668D01*
X145884685Y-115418083D01*
X146042774Y-115589813D01*
X146042778Y-115589817D01*
X146074667Y-115614637D01*
X146226983Y-115733190D01*
X146432273Y-115844287D01*
X146653049Y-115920080D01*
X146883288Y-115958500D01*
X146883292Y-115958500D01*
X147116708Y-115958500D01*
X147116712Y-115958500D01*
X147346951Y-115920080D01*
X147567727Y-115844287D01*
X147773017Y-115733190D01*
X147957220Y-115589818D01*
X148115314Y-115418083D01*
X148144517Y-115373383D01*
X148198519Y-115327296D01*
X148268867Y-115317720D01*
X148333225Y-115347696D01*
X148355481Y-115373382D01*
X148384686Y-115418083D01*
X148384687Y-115418084D01*
X148542774Y-115589813D01*
X148542778Y-115589817D01*
X148574667Y-115614637D01*
X148726983Y-115733190D01*
X148932273Y-115844287D01*
X149153049Y-115920080D01*
X149383288Y-115958500D01*
X149383292Y-115958500D01*
X149616708Y-115958500D01*
X149616712Y-115958500D01*
X149846951Y-115920080D01*
X150067727Y-115844287D01*
X150273017Y-115733190D01*
X150457220Y-115589818D01*
X150615314Y-115418083D01*
X150644517Y-115373383D01*
X150698519Y-115327296D01*
X150768867Y-115317720D01*
X150833225Y-115347696D01*
X150855481Y-115373382D01*
X150884686Y-115418083D01*
X150884687Y-115418084D01*
X151042774Y-115589813D01*
X151042778Y-115589817D01*
X151074667Y-115614637D01*
X151226983Y-115733190D01*
X151432273Y-115844287D01*
X151653049Y-115920080D01*
X151664940Y-115922064D01*
X151728840Y-115953005D01*
X151765868Y-116013580D01*
X151764269Y-116084559D01*
X151733298Y-116135441D01*
X147866500Y-120002238D01*
X147804188Y-120036264D01*
X147733372Y-120031199D01*
X147705135Y-120016357D01*
X147656748Y-119982476D01*
X147449246Y-119885717D01*
X147449240Y-119885715D01*
X147355771Y-119860670D01*
X147228087Y-119826457D01*
X147000000Y-119806502D01*
X146771913Y-119826457D01*
X146550759Y-119885715D01*
X146550753Y-119885717D01*
X146343250Y-119982477D01*
X146155703Y-120113799D01*
X146155697Y-120113804D01*
X145993804Y-120275697D01*
X145993799Y-120275703D01*
X145862477Y-120463250D01*
X145765717Y-120670753D01*
X145765715Y-120670759D01*
X145739636Y-120768087D01*
X145706457Y-120891913D01*
X145686502Y-121120000D01*
X145706457Y-121348087D01*
X145732867Y-121446649D01*
X145765715Y-121569240D01*
X145765717Y-121569246D01*
X145785774Y-121612258D01*
X145862477Y-121776749D01*
X145993802Y-121964300D01*
X146155700Y-122126198D01*
X146343251Y-122257523D01*
X146550757Y-122354284D01*
X146771913Y-122413543D01*
X147000000Y-122433498D01*
X147228087Y-122413543D01*
X147449243Y-122354284D01*
X147656749Y-122257523D01*
X147844300Y-122126198D01*
X148006198Y-121964300D01*
X148137523Y-121776749D01*
X148234284Y-121569243D01*
X148251997Y-121503132D01*
X148284607Y-121446651D01*
X151814462Y-117916797D01*
X151876771Y-117882773D01*
X151947586Y-117887838D01*
X152004422Y-117930385D01*
X152029233Y-117996905D01*
X152028832Y-118019360D01*
X152027001Y-118036392D01*
X152027000Y-118036414D01*
X152027000Y-118746000D01*
X152944951Y-118746000D01*
X152913442Y-118822069D01*
X152890000Y-118939920D01*
X152890000Y-119060080D01*
X152913442Y-119177931D01*
X152944951Y-119254000D01*
X152027000Y-119254000D01*
X152027000Y-119963597D01*
X152033505Y-120024093D01*
X152084555Y-120160964D01*
X152084555Y-120160965D01*
X152172095Y-120277904D01*
X152289034Y-120365444D01*
X152425906Y-120416494D01*
X152486402Y-120422999D01*
X152486415Y-120423000D01*
X152803438Y-120423000D01*
X152871559Y-120443002D01*
X152918052Y-120496658D01*
X152928156Y-120566932D01*
X152898662Y-120631512D01*
X152851656Y-120665408D01*
X152831724Y-120673665D01*
X152783438Y-120693665D01*
X152572258Y-120823076D01*
X152572256Y-120823077D01*
X152383926Y-120983926D01*
X152223077Y-121172256D01*
X152223076Y-121172258D01*
X152093665Y-121383438D01*
X151998885Y-121612257D01*
X151941066Y-121853088D01*
X151921634Y-122100000D01*
X151941066Y-122346911D01*
X151998885Y-122587742D01*
X152090947Y-122810000D01*
X152093666Y-122816563D01*
X152219042Y-123021159D01*
X152223076Y-123027741D01*
X152223077Y-123027743D01*
X152383926Y-123216073D01*
X152548843Y-123356925D01*
X152572260Y-123376925D01*
X152783437Y-123506334D01*
X153012258Y-123601115D01*
X153253089Y-123658934D01*
X153500000Y-123678366D01*
X153746911Y-123658934D01*
X153987742Y-123601115D01*
X154216563Y-123506334D01*
X154427740Y-123376925D01*
X154616073Y-123216073D01*
X154776925Y-123027740D01*
X154906334Y-122816563D01*
X155001115Y-122587742D01*
X155058934Y-122346911D01*
X155078366Y-122100000D01*
X155058934Y-121853089D01*
X155001115Y-121612258D01*
X154906334Y-121383437D01*
X154776925Y-121172260D01*
X154771168Y-121165519D01*
X154616073Y-120983926D01*
X154427743Y-120823077D01*
X154427741Y-120823076D01*
X154427740Y-120823075D01*
X154216563Y-120693666D01*
X154148343Y-120665408D01*
X154093063Y-120620860D01*
X154070642Y-120553497D01*
X154088200Y-120484706D01*
X154140162Y-120436328D01*
X154196562Y-120423000D01*
X154513585Y-120423000D01*
X154513597Y-120422999D01*
X154574093Y-120416494D01*
X154710964Y-120365444D01*
X154710965Y-120365444D01*
X154827904Y-120277904D01*
X154915444Y-120160965D01*
X154915444Y-120160964D01*
X154966494Y-120024093D01*
X154972999Y-119963597D01*
X154973000Y-119963585D01*
X154973000Y-119254000D01*
X154055049Y-119254000D01*
X154086558Y-119177931D01*
X154110000Y-119060080D01*
X154110000Y-118939920D01*
X154086558Y-118822069D01*
X154055049Y-118746000D01*
X154973000Y-118746000D01*
X154973000Y-118036414D01*
X154972999Y-118036402D01*
X154966494Y-117975906D01*
X154915444Y-117839035D01*
X154915444Y-117839034D01*
X154827904Y-117722095D01*
X154710965Y-117634555D01*
X154574093Y-117583505D01*
X154513597Y-117577000D01*
X153754000Y-117577000D01*
X153754000Y-118444950D01*
X153677931Y-118413442D01*
X153560080Y-118390000D01*
X153439920Y-118390000D01*
X153322069Y-118413442D01*
X153246000Y-118444950D01*
X153246000Y-117577000D01*
X152486415Y-117577000D01*
X152486392Y-117577001D01*
X152469360Y-117578832D01*
X152399492Y-117566225D01*
X152347531Y-117517846D01*
X152329974Y-117449054D01*
X152352397Y-117381691D01*
X152366791Y-117364467D01*
X157526407Y-112204852D01*
X157588717Y-112170828D01*
X157659532Y-112175893D01*
X157716368Y-112218440D01*
X157741179Y-112284960D01*
X157741500Y-112293949D01*
X157741500Y-139675049D01*
X157721498Y-139743170D01*
X157704595Y-139764144D01*
X154103853Y-143364885D01*
X154041541Y-143398911D01*
X153985344Y-143398309D01*
X153746911Y-143341066D01*
X153746912Y-143341066D01*
X153500000Y-143321634D01*
X153253088Y-143341066D01*
X153012257Y-143398885D01*
X152783438Y-143493665D01*
X152572258Y-143623076D01*
X152572256Y-143623077D01*
X152383926Y-143783926D01*
X152223077Y-143972256D01*
X152223076Y-143972258D01*
X152093665Y-144183438D01*
X151998885Y-144412257D01*
X151998310Y-144414655D01*
X151941066Y-144653089D01*
X151921634Y-144900000D01*
X151941066Y-145146911D01*
X151998885Y-145387742D01*
X152093666Y-145616563D01*
X152093667Y-145616564D01*
X152210773Y-145807666D01*
X152229311Y-145876199D01*
X152207854Y-145943876D01*
X152153215Y-145989209D01*
X152103340Y-145999500D01*
X141896660Y-145999500D01*
X141828539Y-145979498D01*
X141782046Y-145925842D01*
X141771942Y-145855568D01*
X141789227Y-145807666D01*
X141827674Y-145744924D01*
X141906334Y-145616563D01*
X142001115Y-145387742D01*
X142058934Y-145146911D01*
X142078366Y-144900000D01*
X142058934Y-144653089D01*
X142001690Y-144414653D01*
X142005236Y-144343747D01*
X142035109Y-144296149D01*
X143111490Y-143219769D01*
X143129993Y-143192077D01*
X143183555Y-143111917D01*
X143233194Y-142992077D01*
X143258500Y-142864857D01*
X143258500Y-130400000D01*
X151921634Y-130400000D01*
X151941066Y-130646911D01*
X151998885Y-130887742D01*
X152093665Y-131116561D01*
X152223076Y-131327741D01*
X152223077Y-131327743D01*
X152383926Y-131516073D01*
X152548843Y-131656925D01*
X152572260Y-131676925D01*
X152783437Y-131806334D01*
X152851656Y-131834591D01*
X152906937Y-131879140D01*
X152929358Y-131946503D01*
X152911800Y-132015294D01*
X152859838Y-132063672D01*
X152803438Y-132077000D01*
X152486402Y-132077000D01*
X152425906Y-132083505D01*
X152289035Y-132134555D01*
X152289034Y-132134555D01*
X152172095Y-132222095D01*
X152084555Y-132339034D01*
X152084555Y-132339035D01*
X152033505Y-132475906D01*
X152027000Y-132536402D01*
X152027000Y-133246000D01*
X152944951Y-133246000D01*
X152913442Y-133322069D01*
X152890000Y-133439920D01*
X152890000Y-133560080D01*
X152913442Y-133677931D01*
X152944951Y-133754000D01*
X152027000Y-133754000D01*
X152027000Y-134463597D01*
X152033505Y-134524093D01*
X152084555Y-134660964D01*
X152084555Y-134660965D01*
X152172095Y-134777904D01*
X152289034Y-134865444D01*
X152425906Y-134916494D01*
X152486402Y-134922999D01*
X152486415Y-134923000D01*
X152803438Y-134923000D01*
X152871559Y-134943002D01*
X152918052Y-134996658D01*
X152928156Y-135066932D01*
X152898662Y-135131512D01*
X152851656Y-135165408D01*
X152828243Y-135175106D01*
X152783438Y-135193665D01*
X152572258Y-135323076D01*
X152572256Y-135323077D01*
X152383926Y-135483926D01*
X152223077Y-135672256D01*
X152223076Y-135672258D01*
X152093665Y-135883438D01*
X151998885Y-136112257D01*
X151941066Y-136353088D01*
X151921634Y-136600000D01*
X151941066Y-136846911D01*
X151998885Y-137087742D01*
X152093665Y-137316561D01*
X152223076Y-137527741D01*
X152223077Y-137527743D01*
X152383926Y-137716073D01*
X152572256Y-137876922D01*
X152572260Y-137876925D01*
X152783437Y-138006334D01*
X153012258Y-138101115D01*
X153253089Y-138158934D01*
X153500000Y-138178366D01*
X153746911Y-138158934D01*
X153987742Y-138101115D01*
X154216563Y-138006334D01*
X154427740Y-137876925D01*
X154616073Y-137716073D01*
X154776925Y-137527740D01*
X154906334Y-137316563D01*
X155001115Y-137087742D01*
X155058934Y-136846911D01*
X155078366Y-136600000D01*
X155058934Y-136353089D01*
X155001115Y-136112258D01*
X154906334Y-135883437D01*
X154776925Y-135672260D01*
X154756318Y-135648132D01*
X154616073Y-135483926D01*
X154427743Y-135323077D01*
X154427741Y-135323076D01*
X154427740Y-135323075D01*
X154216563Y-135193666D01*
X154148343Y-135165408D01*
X154093063Y-135120860D01*
X154070642Y-135053497D01*
X154088200Y-134984706D01*
X154140162Y-134936328D01*
X154196562Y-134923000D01*
X154513585Y-134923000D01*
X154513597Y-134922999D01*
X154574093Y-134916494D01*
X154710964Y-134865444D01*
X154710965Y-134865444D01*
X154827904Y-134777904D01*
X154915444Y-134660965D01*
X154915444Y-134660964D01*
X154966494Y-134524093D01*
X154972999Y-134463597D01*
X154973000Y-134463585D01*
X154973000Y-133754000D01*
X154055049Y-133754000D01*
X154086558Y-133677931D01*
X154110000Y-133560080D01*
X154110000Y-133439920D01*
X154086558Y-133322069D01*
X154055049Y-133246000D01*
X154973000Y-133246000D01*
X154973000Y-132536414D01*
X154972999Y-132536402D01*
X154966494Y-132475906D01*
X154915444Y-132339035D01*
X154915444Y-132339034D01*
X154827904Y-132222095D01*
X154710965Y-132134555D01*
X154574093Y-132083505D01*
X154513597Y-132077000D01*
X154196562Y-132077000D01*
X154128441Y-132056998D01*
X154081948Y-132003342D01*
X154071844Y-131933068D01*
X154101338Y-131868488D01*
X154148343Y-131834591D01*
X154216563Y-131806334D01*
X154427740Y-131676925D01*
X154616073Y-131516073D01*
X154776925Y-131327740D01*
X154906334Y-131116563D01*
X155001115Y-130887742D01*
X155058934Y-130646911D01*
X155078366Y-130400000D01*
X155058934Y-130153089D01*
X155001115Y-129912258D01*
X154906334Y-129683437D01*
X154776925Y-129472260D01*
X154776922Y-129472256D01*
X154616073Y-129283926D01*
X154427743Y-129123077D01*
X154427741Y-129123076D01*
X154427740Y-129123075D01*
X154216563Y-128993666D01*
X154168276Y-128973665D01*
X153987742Y-128898885D01*
X153927000Y-128884302D01*
X153746911Y-128841066D01*
X153746912Y-128841066D01*
X153500000Y-128821634D01*
X153253088Y-128841066D01*
X153012257Y-128898885D01*
X152783438Y-128993665D01*
X152572258Y-129123076D01*
X152572256Y-129123077D01*
X152383926Y-129283926D01*
X152223077Y-129472256D01*
X152223076Y-129472258D01*
X152093665Y-129683438D01*
X151998885Y-129912257D01*
X151941066Y-130153088D01*
X151921634Y-130400000D01*
X143258500Y-130400000D01*
X143258500Y-128740000D01*
X145686502Y-128740000D01*
X145706457Y-128968087D01*
X145740670Y-129095771D01*
X145765715Y-129189240D01*
X145765717Y-129189246D01*
X145862477Y-129396749D01*
X145915350Y-129472260D01*
X145993802Y-129584300D01*
X146155700Y-129746198D01*
X146343251Y-129877523D01*
X146550757Y-129974284D01*
X146771913Y-130033543D01*
X147000000Y-130053498D01*
X147228087Y-130033543D01*
X147449243Y-129974284D01*
X147656749Y-129877523D01*
X147844300Y-129746198D01*
X148006198Y-129584300D01*
X148137523Y-129396749D01*
X148234284Y-129189243D01*
X148293543Y-128968087D01*
X148313498Y-128740000D01*
X148293543Y-128511913D01*
X148234284Y-128290757D01*
X148137523Y-128083251D01*
X148006198Y-127895700D01*
X147844300Y-127733802D01*
X147811391Y-127710759D01*
X147656749Y-127602477D01*
X147449246Y-127505717D01*
X147449240Y-127505715D01*
X147355771Y-127480670D01*
X147228087Y-127446457D01*
X147000000Y-127426502D01*
X146771913Y-127446457D01*
X146550759Y-127505715D01*
X146550753Y-127505717D01*
X146343250Y-127602477D01*
X146155703Y-127733799D01*
X146155697Y-127733804D01*
X145993804Y-127895697D01*
X145993799Y-127895703D01*
X145862477Y-128083250D01*
X145765717Y-128290753D01*
X145765715Y-128290759D01*
X145739636Y-128388087D01*
X145706457Y-128511913D01*
X145686502Y-128740000D01*
X143258500Y-128740000D01*
X143258500Y-109553048D01*
X143278502Y-109484927D01*
X143332158Y-109438434D01*
X143402432Y-109428330D01*
X143467012Y-109457824D01*
X143470734Y-109461181D01*
X143479818Y-109469711D01*
X143497860Y-109486654D01*
X143691824Y-109627577D01*
X143753221Y-109672184D01*
X144029821Y-109824247D01*
X144323298Y-109940443D01*
X144629025Y-110018940D01*
X144629033Y-110018941D01*
X144629032Y-110018941D01*
X144793129Y-110039670D01*
X144942179Y-110058500D01*
X144942183Y-110058500D01*
X145257817Y-110058500D01*
X145257821Y-110058500D01*
X145570975Y-110018940D01*
X145876702Y-109940443D01*
X146170179Y-109824247D01*
X146446779Y-109672184D01*
X146702140Y-109486654D01*
X146932233Y-109270582D01*
X146969159Y-109225946D01*
X147018415Y-109166407D01*
X147077249Y-109126668D01*
X147148227Y-109125046D01*
X147208815Y-109162056D01*
G37*
G04 #@! TD.AperFunction*
G04 #@! TA.AperFunction,Conductor*
G36*
X113418197Y-120414836D02*
G01*
X113418234Y-120414682D01*
X113425903Y-120416494D01*
X113486402Y-120422999D01*
X113486415Y-120423000D01*
X113804745Y-120423000D01*
X113872866Y-120443002D01*
X113919359Y-120496658D01*
X113929463Y-120566932D01*
X113899969Y-120631512D01*
X113852963Y-120665409D01*
X113783668Y-120694111D01*
X113783654Y-120694119D01*
X113578839Y-120819628D01*
X113578839Y-120819630D01*
X114210589Y-121451380D01*
X114163689Y-121470807D01*
X114047402Y-121548507D01*
X113948507Y-121647402D01*
X113870807Y-121763689D01*
X113851380Y-121810589D01*
X113295405Y-121254614D01*
X113261379Y-121192302D01*
X113258500Y-121165519D01*
X113258500Y-120535529D01*
X113278502Y-120467408D01*
X113332158Y-120420915D01*
X113402432Y-120410811D01*
X113418197Y-120414836D01*
G37*
G04 #@! TD.AperFunction*
G04 #@! TA.AperFunction,Conductor*
G36*
X111054000Y-95814390D02*
G01*
X111134507Y-95800957D01*
X111134518Y-95800954D01*
X111174586Y-95787199D01*
X111245510Y-95783997D01*
X111306907Y-95819648D01*
X111339282Y-95882833D01*
X111341500Y-95906371D01*
X111341500Y-113895048D01*
X111321498Y-113963169D01*
X111304595Y-113984144D01*
X110605361Y-114683377D01*
X110543049Y-114717402D01*
X110483656Y-114715988D01*
X110448087Y-114706457D01*
X110220000Y-114686502D01*
X109991913Y-114706457D01*
X109770759Y-114765715D01*
X109770753Y-114765717D01*
X109679750Y-114808153D01*
X109609558Y-114818814D01*
X109544745Y-114789834D01*
X109505889Y-114730414D01*
X109500500Y-114693958D01*
X109500500Y-95395964D01*
X109520502Y-95327843D01*
X109574158Y-95281350D01*
X109644432Y-95271246D01*
X109709012Y-95300740D01*
X109720940Y-95313313D01*
X109721146Y-95313125D01*
X109877097Y-95482534D01*
X110054698Y-95620767D01*
X110054699Y-95620768D01*
X110252628Y-95727882D01*
X110252630Y-95727883D01*
X110465483Y-95800955D01*
X110465492Y-95800957D01*
X110546000Y-95814391D01*
X110546000Y-94910702D01*
X110607007Y-94945925D01*
X110734174Y-94980000D01*
X110865826Y-94980000D01*
X110992993Y-94945925D01*
X111054000Y-94910702D01*
X111054000Y-95814390D01*
G37*
G04 #@! TD.AperFunction*
G04 #@! TA.AperFunction,Conductor*
G36*
X156374000Y-99734390D02*
G01*
X156454507Y-99720957D01*
X156454518Y-99720954D01*
X156494586Y-99707199D01*
X156565510Y-99703997D01*
X156626907Y-99739648D01*
X156659282Y-99802833D01*
X156661500Y-99826371D01*
X156661500Y-107483095D01*
X156641498Y-107551216D01*
X156638663Y-107553671D01*
X156658386Y-107589067D01*
X156661500Y-107616904D01*
X156661500Y-111155049D01*
X156641498Y-111223170D01*
X156624595Y-111244144D01*
X153582641Y-114286097D01*
X153520329Y-114320123D01*
X153449513Y-114315058D01*
X153392678Y-114272511D01*
X153371402Y-114227933D01*
X153336750Y-114091096D01*
X153336747Y-114091089D01*
X153242984Y-113877331D01*
X153115314Y-113681916D01*
X152957225Y-113510186D01*
X152957221Y-113510182D01*
X152779912Y-113372177D01*
X152773017Y-113366810D01*
X152567727Y-113255713D01*
X152567724Y-113255712D01*
X152567723Y-113255711D01*
X152346955Y-113179921D01*
X152346948Y-113179919D01*
X152248411Y-113163476D01*
X152116712Y-113141500D01*
X151883288Y-113141500D01*
X151768066Y-113160727D01*
X151653051Y-113179919D01*
X151653044Y-113179921D01*
X151432276Y-113255711D01*
X151432273Y-113255713D01*
X151226985Y-113366809D01*
X151226983Y-113366810D01*
X151042778Y-113510182D01*
X151042774Y-113510186D01*
X150884685Y-113681916D01*
X150855483Y-113726615D01*
X150801480Y-113772704D01*
X150731132Y-113782279D01*
X150666774Y-113752302D01*
X150644517Y-113726615D01*
X150615314Y-113681916D01*
X150457225Y-113510186D01*
X150457221Y-113510182D01*
X150279912Y-113372177D01*
X150273017Y-113366810D01*
X150067727Y-113255713D01*
X150067724Y-113255712D01*
X150067723Y-113255711D01*
X149846955Y-113179921D01*
X149846948Y-113179919D01*
X149748411Y-113163476D01*
X149616712Y-113141500D01*
X149383288Y-113141500D01*
X149268066Y-113160727D01*
X149153051Y-113179919D01*
X149153044Y-113179921D01*
X148932276Y-113255711D01*
X148932273Y-113255713D01*
X148744469Y-113357347D01*
X148675039Y-113372177D01*
X148608612Y-113347117D01*
X148566280Y-113290121D01*
X148558500Y-113246533D01*
X148558500Y-107549993D01*
X151386540Y-107549993D01*
X151386540Y-107550006D01*
X151406357Y-107865007D01*
X151406359Y-107865024D01*
X151465504Y-108175067D01*
X151465507Y-108175080D01*
X151563039Y-108475254D01*
X151563044Y-108475267D01*
X151616401Y-108588656D01*
X151697438Y-108760869D01*
X151697440Y-108760872D01*
X151697443Y-108760878D01*
X151866562Y-109027368D01*
X152067763Y-109270578D01*
X152067766Y-109270580D01*
X152067767Y-109270582D01*
X152217158Y-109410870D01*
X152297860Y-109486654D01*
X152491824Y-109627577D01*
X152553221Y-109672184D01*
X152829821Y-109824247D01*
X153123298Y-109940443D01*
X153429025Y-110018940D01*
X153429033Y-110018941D01*
X153429032Y-110018941D01*
X153593129Y-110039670D01*
X153742179Y-110058500D01*
X153742183Y-110058500D01*
X154057817Y-110058500D01*
X154057821Y-110058500D01*
X154370975Y-110018940D01*
X154676702Y-109940443D01*
X154970179Y-109824247D01*
X155246779Y-109672184D01*
X155502140Y-109486654D01*
X155732233Y-109270582D01*
X155933432Y-109027375D01*
X155933434Y-109027370D01*
X155933437Y-109027368D01*
X156102556Y-108760878D01*
X156102562Y-108760869D01*
X156236956Y-108475266D01*
X156334495Y-108175072D01*
X156393641Y-107865020D01*
X156405331Y-107679208D01*
X156409749Y-107608993D01*
X156432481Y-107546410D01*
X156414604Y-107518593D01*
X156409749Y-107491006D01*
X156393642Y-107234992D01*
X156393640Y-107234975D01*
X156375179Y-107138200D01*
X156334495Y-106924928D01*
X156236956Y-106624734D01*
X156102562Y-106339131D01*
X156041500Y-106242912D01*
X155933437Y-106072631D01*
X155732236Y-105829421D01*
X155728664Y-105826067D01*
X155502140Y-105613346D01*
X155493096Y-105606775D01*
X155246781Y-105427817D01*
X155204385Y-105404509D01*
X154970179Y-105275753D01*
X154676702Y-105159557D01*
X154370975Y-105081060D01*
X154370970Y-105081059D01*
X154370965Y-105081058D01*
X154370967Y-105081058D01*
X154057835Y-105041501D01*
X154057824Y-105041500D01*
X154057821Y-105041500D01*
X153742179Y-105041500D01*
X153742176Y-105041500D01*
X153742164Y-105041501D01*
X153429033Y-105081058D01*
X153123301Y-105159556D01*
X152829821Y-105275753D01*
X152553218Y-105427817D01*
X152297861Y-105613345D01*
X152297860Y-105613345D01*
X152067763Y-105829421D01*
X151866562Y-106072631D01*
X151697443Y-106339121D01*
X151697436Y-106339135D01*
X151563044Y-106624732D01*
X151563039Y-106624745D01*
X151465507Y-106924919D01*
X151465504Y-106924932D01*
X151406359Y-107234975D01*
X151406357Y-107234992D01*
X151386540Y-107549993D01*
X148558500Y-107549993D01*
X148558500Y-104404948D01*
X148578502Y-104336827D01*
X148595400Y-104315858D01*
X151589393Y-101321864D01*
X151589398Y-101321861D01*
X151599767Y-101311491D01*
X151599769Y-101311491D01*
X153151900Y-99759358D01*
X153214209Y-99725336D01*
X153261725Y-99724174D01*
X153467431Y-99758500D01*
X153467436Y-99758500D01*
X153692565Y-99758500D01*
X153692569Y-99758500D01*
X153914635Y-99721444D01*
X154127574Y-99648342D01*
X154325576Y-99541189D01*
X154503240Y-99402906D01*
X154655722Y-99237268D01*
X154744816Y-99100898D01*
X154798819Y-99054810D01*
X154869167Y-99045235D01*
X154933524Y-99075212D01*
X154955782Y-99100898D01*
X155044674Y-99236958D01*
X155197097Y-99402534D01*
X155374698Y-99540767D01*
X155374699Y-99540768D01*
X155572628Y-99647882D01*
X155572630Y-99647883D01*
X155785483Y-99720955D01*
X155785492Y-99720957D01*
X155866000Y-99734391D01*
X155866000Y-98830702D01*
X155927007Y-98865925D01*
X156054174Y-98900000D01*
X156185826Y-98900000D01*
X156312993Y-98865925D01*
X156374000Y-98830702D01*
X156374000Y-99734390D01*
G37*
G04 #@! TD.AperFunction*
G04 #@! TA.AperFunction,Conductor*
G36*
X148754000Y-99758000D02*
G01*
X149398585Y-99758000D01*
X149398597Y-99757999D01*
X149459093Y-99751494D01*
X149595964Y-99700444D01*
X149595965Y-99700444D01*
X149712904Y-99612904D01*
X149800444Y-99495965D01*
X149844618Y-99377530D01*
X149887165Y-99320694D01*
X149953685Y-99295883D01*
X150023059Y-99310974D01*
X150055372Y-99336222D01*
X150090582Y-99374469D01*
X150116762Y-99402908D01*
X150171331Y-99445381D01*
X150294424Y-99541189D01*
X150492426Y-99648342D01*
X150492427Y-99648342D01*
X150492428Y-99648343D01*
X150604227Y-99686723D01*
X150705365Y-99721444D01*
X150927431Y-99758500D01*
X150927435Y-99758500D01*
X150986048Y-99758500D01*
X151054169Y-99778502D01*
X151100662Y-99832158D01*
X151110766Y-99902432D01*
X151081272Y-99967012D01*
X151075144Y-99973595D01*
X150668509Y-100380231D01*
X150668508Y-100380230D01*
X150668507Y-100380233D01*
X147388512Y-103660226D01*
X147388506Y-103660234D01*
X147366472Y-103693212D01*
X147366471Y-103693214D01*
X147316445Y-103768082D01*
X147266807Y-103887919D01*
X147266806Y-103887922D01*
X147241500Y-104015139D01*
X147241500Y-105853277D01*
X147221498Y-105921398D01*
X147167842Y-105967891D01*
X147097568Y-105977995D01*
X147032988Y-105948501D01*
X147018416Y-105933593D01*
X146932242Y-105829428D01*
X146932239Y-105829424D01*
X146928667Y-105826070D01*
X146702140Y-105613346D01*
X146693096Y-105606775D01*
X146446781Y-105427817D01*
X146404385Y-105404509D01*
X146170179Y-105275753D01*
X145876702Y-105159557D01*
X145570975Y-105081060D01*
X145570970Y-105081059D01*
X145570965Y-105081058D01*
X145570967Y-105081058D01*
X145257835Y-105041501D01*
X145257824Y-105041500D01*
X145257821Y-105041500D01*
X144942179Y-105041500D01*
X144942176Y-105041500D01*
X144942164Y-105041501D01*
X144629033Y-105081058D01*
X144323301Y-105159556D01*
X144029821Y-105275753D01*
X143753218Y-105427817D01*
X143497861Y-105613345D01*
X143497860Y-105613345D01*
X143470753Y-105638801D01*
X143407402Y-105670852D01*
X143336781Y-105663565D01*
X143281309Y-105619254D01*
X143258601Y-105551987D01*
X143258500Y-105546951D01*
X143258500Y-103132055D01*
X143278502Y-103063934D01*
X143295405Y-103042960D01*
X146963896Y-99374469D01*
X147026208Y-99340443D01*
X147097023Y-99345508D01*
X147153859Y-99388055D01*
X147171046Y-99419531D01*
X147199553Y-99495960D01*
X147199555Y-99495965D01*
X147287095Y-99612904D01*
X147404034Y-99700444D01*
X147540906Y-99751494D01*
X147601402Y-99757999D01*
X147601415Y-99758000D01*
X148246000Y-99758000D01*
X148246000Y-98830702D01*
X148307007Y-98865925D01*
X148434174Y-98900000D01*
X148565826Y-98900000D01*
X148692993Y-98865925D01*
X148754000Y-98830702D01*
X148754000Y-99758000D01*
G37*
G04 #@! TD.AperFunction*
G04 #@! TA.AperFunction,Conductor*
G36*
X157454000Y-95814390D02*
G01*
X157534507Y-95800957D01*
X157534518Y-95800954D01*
X157574586Y-95787199D01*
X157645510Y-95783997D01*
X157706907Y-95819648D01*
X157739282Y-95882833D01*
X157741500Y-95906371D01*
X157741500Y-97006050D01*
X157721498Y-97074171D01*
X157667842Y-97120664D01*
X157597568Y-97130768D01*
X157532988Y-97101274D01*
X157526405Y-97095145D01*
X156695405Y-96264145D01*
X156661379Y-96201833D01*
X156658500Y-96175050D01*
X156658500Y-95906371D01*
X156678502Y-95838250D01*
X156732158Y-95791757D01*
X156802432Y-95781653D01*
X156825414Y-95787199D01*
X156865481Y-95800954D01*
X156865492Y-95800957D01*
X156946000Y-95814391D01*
X156946000Y-94910702D01*
X157007007Y-94945925D01*
X157134174Y-94980000D01*
X157265826Y-94980000D01*
X157392993Y-94945925D01*
X157454000Y-94910702D01*
X157454000Y-95814390D01*
G37*
G04 #@! TD.AperFunction*
G04 #@! TA.AperFunction,Conductor*
G36*
X147754000Y-95814392D02*
G01*
X147758029Y-95817805D01*
X147797083Y-95877094D01*
X147797884Y-95948086D01*
X147765691Y-96003048D01*
X146973596Y-96795144D01*
X146911283Y-96829169D01*
X146840468Y-96824105D01*
X146783632Y-96781558D01*
X146758821Y-96715038D01*
X146758500Y-96706049D01*
X146758500Y-95834280D01*
X146778502Y-95766159D01*
X146832158Y-95719666D01*
X146902432Y-95709562D01*
X146944472Y-95723468D01*
X146952626Y-95727880D01*
X146952630Y-95727883D01*
X147165483Y-95800955D01*
X147165492Y-95800957D01*
X147246000Y-95814391D01*
X147246000Y-94910702D01*
X147307007Y-94945925D01*
X147434174Y-94980000D01*
X147565826Y-94980000D01*
X147692993Y-94945925D01*
X147754000Y-94910702D01*
X147754000Y-95814392D01*
G37*
G04 #@! TD.AperFunction*
M02*
