M48
; DRILL file {KiCad 8.0.6-8.0.6-0~ubuntu22.04.1} date 2025-01-13T21:54:33+0000
; FORMAT={-:-/ absolute / metric / decimal}
; #@! TF.CreationDate,2025-01-13T21:54:33+00:00
; #@! TF.GenerationSoftware,Kicad,Pcbnew,8.0.6-8.0.6-0~ubuntu22.04.1
; #@! TF.FileFunction,Plated,1,2,PTH
FMAT,2
METRIC
; #@! TA.AperFunction,Plated,PTH,ComponentDrill
T1C3.000
; #@! TA.AperFunction,Plated,PTH,ViaDrill
T2C6.200
; #@! TA.AperFunction,Plated,PTH,ViaDrill
T3C7.000
%
G90
G05
T2
X182.5Y-125.4
X182.5Y-43.0
X182.5Y-140.0
X195.5Y-125.4
X195.5Y-43.0
X195.5Y-140.0
X208.5Y-125.4
X208.5Y-43.0
X208.5Y-140.0
X221.5Y-125.4
X221.5Y-43.0
X221.5Y-140.0
T3
X186.0Y-62.0
X186.0Y-107.0
X196.5Y-77.0
X196.5Y-107.0
X207.0Y-62.0
X207.0Y-92.0
X217.5Y-62.0
X217.5Y-107.0
T1
X183.25Y-30.5G85X185.75Y-30.5
G05
X183.25Y-153.0G85X185.75Y-153.0
G05
X218.25Y-30.5G85X220.75Y-30.5
G05
X218.25Y-153.0G85X220.75Y-153.0
G05
M30
