G04 #@! TF.GenerationSoftware,KiCad,Pcbnew,8.0.6-8.0.6-0~ubuntu22.04.1*
G04 #@! TF.CreationDate,2025-01-13T22:02:32+00:00*
G04 #@! TF.ProjectId,Basic_VCA,42617369-635f-4564-9341-2e6b69636164,rev?*
G04 #@! TF.SameCoordinates,Original*
G04 #@! TF.FileFunction,Legend,Bot*
G04 #@! TF.FilePolarity,Positive*
%FSLAX46Y46*%
G04 Gerber Fmt 4.6, Leading zero omitted, Abs format (unit mm)*
G04 Created by KiCad (PCBNEW 8.0.6-8.0.6-0~ubuntu22.04.1) date 2025-01-13 22:02:32*
%MOMM*%
%LPD*%
G01*
G04 APERTURE LIST*
%ADD10C,0.150000*%
%ADD11C,0.300000*%
%ADD12O,6.700000X4.200000*%
%ADD13C,8.000000*%
G04 APERTURE END LIST*
D10*
X189857143Y-92031009D02*
X190190476Y-92031009D01*
X190190476Y-92554819D02*
X190190476Y-91554819D01*
X190190476Y-91554819D02*
X189714286Y-91554819D01*
X189333333Y-92554819D02*
X189333333Y-91888152D01*
X189333333Y-92078628D02*
X189285714Y-91983390D01*
X189285714Y-91983390D02*
X189238095Y-91935771D01*
X189238095Y-91935771D02*
X189142857Y-91888152D01*
X189142857Y-91888152D02*
X189047619Y-91888152D01*
X188571428Y-92554819D02*
X188666666Y-92507200D01*
X188666666Y-92507200D02*
X188714285Y-92459580D01*
X188714285Y-92459580D02*
X188761904Y-92364342D01*
X188761904Y-92364342D02*
X188761904Y-92078628D01*
X188761904Y-92078628D02*
X188714285Y-91983390D01*
X188714285Y-91983390D02*
X188666666Y-91935771D01*
X188666666Y-91935771D02*
X188571428Y-91888152D01*
X188571428Y-91888152D02*
X188428571Y-91888152D01*
X188428571Y-91888152D02*
X188333333Y-91935771D01*
X188333333Y-91935771D02*
X188285714Y-91983390D01*
X188285714Y-91983390D02*
X188238095Y-92078628D01*
X188238095Y-92078628D02*
X188238095Y-92364342D01*
X188238095Y-92364342D02*
X188285714Y-92459580D01*
X188285714Y-92459580D02*
X188333333Y-92507200D01*
X188333333Y-92507200D02*
X188428571Y-92554819D01*
X188428571Y-92554819D02*
X188571428Y-92554819D01*
X187809523Y-91888152D02*
X187809523Y-92554819D01*
X187809523Y-91983390D02*
X187761904Y-91935771D01*
X187761904Y-91935771D02*
X187666666Y-91888152D01*
X187666666Y-91888152D02*
X187523809Y-91888152D01*
X187523809Y-91888152D02*
X187428571Y-91935771D01*
X187428571Y-91935771D02*
X187380952Y-92031009D01*
X187380952Y-92031009D02*
X187380952Y-92554819D01*
X187047618Y-91888152D02*
X186666666Y-91888152D01*
X186904761Y-91554819D02*
X186904761Y-92411961D01*
X186904761Y-92411961D02*
X186857142Y-92507200D01*
X186857142Y-92507200D02*
X186761904Y-92554819D01*
X186761904Y-92554819D02*
X186666666Y-92554819D01*
X192785714Y-89545085D02*
X192880952Y-89497466D01*
X192880952Y-89497466D02*
X192976190Y-89402228D01*
X192976190Y-89402228D02*
X193119047Y-89259370D01*
X193119047Y-89259370D02*
X193214285Y-89211751D01*
X193214285Y-89211751D02*
X193309523Y-89211751D01*
X193261904Y-89449847D02*
X193357142Y-89402228D01*
X193357142Y-89402228D02*
X193452380Y-89306989D01*
X193452380Y-89306989D02*
X193499999Y-89116513D01*
X193499999Y-89116513D02*
X193499999Y-88783180D01*
X193499999Y-88783180D02*
X193452380Y-88592704D01*
X193452380Y-88592704D02*
X193357142Y-88497466D01*
X193357142Y-88497466D02*
X193261904Y-88449847D01*
X193261904Y-88449847D02*
X193071428Y-88449847D01*
X193071428Y-88449847D02*
X192976190Y-88497466D01*
X192976190Y-88497466D02*
X192880952Y-88592704D01*
X192880952Y-88592704D02*
X192833333Y-88783180D01*
X192833333Y-88783180D02*
X192833333Y-89116513D01*
X192833333Y-89116513D02*
X192880952Y-89306989D01*
X192880952Y-89306989D02*
X192976190Y-89402228D01*
X192976190Y-89402228D02*
X193071428Y-89449847D01*
X193071428Y-89449847D02*
X193261904Y-89449847D01*
X191976190Y-88783180D02*
X191976190Y-89449847D01*
X192404761Y-88783180D02*
X192404761Y-89306989D01*
X192404761Y-89306989D02*
X192357142Y-89402228D01*
X192357142Y-89402228D02*
X192261904Y-89449847D01*
X192261904Y-89449847D02*
X192119047Y-89449847D01*
X192119047Y-89449847D02*
X192023809Y-89402228D01*
X192023809Y-89402228D02*
X191976190Y-89354608D01*
X191071428Y-89449847D02*
X191071428Y-88926037D01*
X191071428Y-88926037D02*
X191119047Y-88830799D01*
X191119047Y-88830799D02*
X191214285Y-88783180D01*
X191214285Y-88783180D02*
X191404761Y-88783180D01*
X191404761Y-88783180D02*
X191499999Y-88830799D01*
X191071428Y-89402228D02*
X191166666Y-89449847D01*
X191166666Y-89449847D02*
X191404761Y-89449847D01*
X191404761Y-89449847D02*
X191499999Y-89402228D01*
X191499999Y-89402228D02*
X191547618Y-89306989D01*
X191547618Y-89306989D02*
X191547618Y-89211751D01*
X191547618Y-89211751D02*
X191499999Y-89116513D01*
X191499999Y-89116513D02*
X191404761Y-89068894D01*
X191404761Y-89068894D02*
X191166666Y-89068894D01*
X191166666Y-89068894D02*
X191071428Y-89021275D01*
X190166666Y-89449847D02*
X190166666Y-88449847D01*
X190166666Y-89402228D02*
X190261904Y-89449847D01*
X190261904Y-89449847D02*
X190452380Y-89449847D01*
X190452380Y-89449847D02*
X190547618Y-89402228D01*
X190547618Y-89402228D02*
X190595237Y-89354608D01*
X190595237Y-89354608D02*
X190642856Y-89259370D01*
X190642856Y-89259370D02*
X190642856Y-88973656D01*
X190642856Y-88973656D02*
X190595237Y-88878418D01*
X190595237Y-88878418D02*
X190547618Y-88830799D01*
X190547618Y-88830799D02*
X190452380Y-88783180D01*
X190452380Y-88783180D02*
X190261904Y-88783180D01*
X190261904Y-88783180D02*
X190166666Y-88830799D01*
X189071427Y-88449847D02*
X188738094Y-89449847D01*
X188738094Y-89449847D02*
X188404761Y-88449847D01*
X187499999Y-89354608D02*
X187547618Y-89402228D01*
X187547618Y-89402228D02*
X187690475Y-89449847D01*
X187690475Y-89449847D02*
X187785713Y-89449847D01*
X187785713Y-89449847D02*
X187928570Y-89402228D01*
X187928570Y-89402228D02*
X188023808Y-89306989D01*
X188023808Y-89306989D02*
X188071427Y-89211751D01*
X188071427Y-89211751D02*
X188119046Y-89021275D01*
X188119046Y-89021275D02*
X188119046Y-88878418D01*
X188119046Y-88878418D02*
X188071427Y-88687942D01*
X188071427Y-88687942D02*
X188023808Y-88592704D01*
X188023808Y-88592704D02*
X187928570Y-88497466D01*
X187928570Y-88497466D02*
X187785713Y-88449847D01*
X187785713Y-88449847D02*
X187690475Y-88449847D01*
X187690475Y-88449847D02*
X187547618Y-88497466D01*
X187547618Y-88497466D02*
X187499999Y-88545085D01*
X187119046Y-89164132D02*
X186642856Y-89164132D01*
X187214284Y-89449847D02*
X186880951Y-88449847D01*
X186880951Y-88449847D02*
X186547618Y-89449847D01*
X184928570Y-89449847D02*
X185499998Y-89449847D01*
X185214284Y-89449847D02*
X185214284Y-88449847D01*
X185214284Y-88449847D02*
X185309522Y-88592704D01*
X185309522Y-88592704D02*
X185404760Y-88687942D01*
X185404760Y-88687942D02*
X185499998Y-88735561D01*
X184499998Y-89354608D02*
X184452379Y-89402228D01*
X184452379Y-89402228D02*
X184499998Y-89449847D01*
X184499998Y-89449847D02*
X184547617Y-89402228D01*
X184547617Y-89402228D02*
X184499998Y-89354608D01*
X184499998Y-89354608D02*
X184499998Y-89449847D01*
X183833332Y-88449847D02*
X183738094Y-88449847D01*
X183738094Y-88449847D02*
X183642856Y-88497466D01*
X183642856Y-88497466D02*
X183595237Y-88545085D01*
X183595237Y-88545085D02*
X183547618Y-88640323D01*
X183547618Y-88640323D02*
X183499999Y-88830799D01*
X183499999Y-88830799D02*
X183499999Y-89068894D01*
X183499999Y-89068894D02*
X183547618Y-89259370D01*
X183547618Y-89259370D02*
X183595237Y-89354608D01*
X183595237Y-89354608D02*
X183642856Y-89402228D01*
X183642856Y-89402228D02*
X183738094Y-89449847D01*
X183738094Y-89449847D02*
X183833332Y-89449847D01*
X183833332Y-89449847D02*
X183928570Y-89402228D01*
X183928570Y-89402228D02*
X183976189Y-89354608D01*
X183976189Y-89354608D02*
X184023808Y-89259370D01*
X184023808Y-89259370D02*
X184071427Y-89068894D01*
X184071427Y-89068894D02*
X184071427Y-88830799D01*
X184071427Y-88830799D02*
X184023808Y-88640323D01*
X184023808Y-88640323D02*
X183976189Y-88545085D01*
X183976189Y-88545085D02*
X183928570Y-88497466D01*
X183928570Y-88497466D02*
X183833332Y-88449847D01*
X194952381Y-90535981D02*
X194809524Y-90583600D01*
X194809524Y-90583600D02*
X194761905Y-90631219D01*
X194761905Y-90631219D02*
X194714286Y-90726457D01*
X194714286Y-90726457D02*
X194714286Y-90869314D01*
X194714286Y-90869314D02*
X194761905Y-90964552D01*
X194761905Y-90964552D02*
X194809524Y-91012172D01*
X194809524Y-91012172D02*
X194904762Y-91059791D01*
X194904762Y-91059791D02*
X195285714Y-91059791D01*
X195285714Y-91059791D02*
X195285714Y-90059791D01*
X195285714Y-90059791D02*
X194952381Y-90059791D01*
X194952381Y-90059791D02*
X194857143Y-90107410D01*
X194857143Y-90107410D02*
X194809524Y-90155029D01*
X194809524Y-90155029D02*
X194761905Y-90250267D01*
X194761905Y-90250267D02*
X194761905Y-90345505D01*
X194761905Y-90345505D02*
X194809524Y-90440743D01*
X194809524Y-90440743D02*
X194857143Y-90488362D01*
X194857143Y-90488362D02*
X194952381Y-90535981D01*
X194952381Y-90535981D02*
X195285714Y-90535981D01*
X194142857Y-91059791D02*
X194238095Y-91012172D01*
X194238095Y-91012172D02*
X194285714Y-90916933D01*
X194285714Y-90916933D02*
X194285714Y-90059791D01*
X193380952Y-91012172D02*
X193476190Y-91059791D01*
X193476190Y-91059791D02*
X193666666Y-91059791D01*
X193666666Y-91059791D02*
X193761904Y-91012172D01*
X193761904Y-91012172D02*
X193809523Y-90916933D01*
X193809523Y-90916933D02*
X193809523Y-90535981D01*
X193809523Y-90535981D02*
X193761904Y-90440743D01*
X193761904Y-90440743D02*
X193666666Y-90393124D01*
X193666666Y-90393124D02*
X193476190Y-90393124D01*
X193476190Y-90393124D02*
X193380952Y-90440743D01*
X193380952Y-90440743D02*
X193333333Y-90535981D01*
X193333333Y-90535981D02*
X193333333Y-90631219D01*
X193333333Y-90631219D02*
X193809523Y-90726457D01*
X192523809Y-91012172D02*
X192619047Y-91059791D01*
X192619047Y-91059791D02*
X192809523Y-91059791D01*
X192809523Y-91059791D02*
X192904761Y-91012172D01*
X192904761Y-91012172D02*
X192952380Y-90916933D01*
X192952380Y-90916933D02*
X192952380Y-90535981D01*
X192952380Y-90535981D02*
X192904761Y-90440743D01*
X192904761Y-90440743D02*
X192809523Y-90393124D01*
X192809523Y-90393124D02*
X192619047Y-90393124D01*
X192619047Y-90393124D02*
X192523809Y-90440743D01*
X192523809Y-90440743D02*
X192476190Y-90535981D01*
X192476190Y-90535981D02*
X192476190Y-90631219D01*
X192476190Y-90631219D02*
X192952380Y-90726457D01*
X192047618Y-90393124D02*
X192047618Y-91393124D01*
X192047618Y-90440743D02*
X191952380Y-90393124D01*
X191952380Y-90393124D02*
X191761904Y-90393124D01*
X191761904Y-90393124D02*
X191666666Y-90440743D01*
X191666666Y-90440743D02*
X191619047Y-90488362D01*
X191619047Y-90488362D02*
X191571428Y-90583600D01*
X191571428Y-90583600D02*
X191571428Y-90869314D01*
X191571428Y-90869314D02*
X191619047Y-90964552D01*
X191619047Y-90964552D02*
X191666666Y-91012172D01*
X191666666Y-91012172D02*
X191761904Y-91059791D01*
X191761904Y-91059791D02*
X191952380Y-91059791D01*
X191952380Y-91059791D02*
X192047618Y-91012172D01*
X190428570Y-91012172D02*
X190285713Y-91059791D01*
X190285713Y-91059791D02*
X190047618Y-91059791D01*
X190047618Y-91059791D02*
X189952380Y-91012172D01*
X189952380Y-91012172D02*
X189904761Y-90964552D01*
X189904761Y-90964552D02*
X189857142Y-90869314D01*
X189857142Y-90869314D02*
X189857142Y-90774076D01*
X189857142Y-90774076D02*
X189904761Y-90678838D01*
X189904761Y-90678838D02*
X189952380Y-90631219D01*
X189952380Y-90631219D02*
X190047618Y-90583600D01*
X190047618Y-90583600D02*
X190238094Y-90535981D01*
X190238094Y-90535981D02*
X190333332Y-90488362D01*
X190333332Y-90488362D02*
X190380951Y-90440743D01*
X190380951Y-90440743D02*
X190428570Y-90345505D01*
X190428570Y-90345505D02*
X190428570Y-90250267D01*
X190428570Y-90250267D02*
X190380951Y-90155029D01*
X190380951Y-90155029D02*
X190333332Y-90107410D01*
X190333332Y-90107410D02*
X190238094Y-90059791D01*
X190238094Y-90059791D02*
X189999999Y-90059791D01*
X189999999Y-90059791D02*
X189857142Y-90107410D01*
X189285713Y-91059791D02*
X189380951Y-91012172D01*
X189380951Y-91012172D02*
X189428570Y-90964552D01*
X189428570Y-90964552D02*
X189476189Y-90869314D01*
X189476189Y-90869314D02*
X189476189Y-90583600D01*
X189476189Y-90583600D02*
X189428570Y-90488362D01*
X189428570Y-90488362D02*
X189380951Y-90440743D01*
X189380951Y-90440743D02*
X189285713Y-90393124D01*
X189285713Y-90393124D02*
X189142856Y-90393124D01*
X189142856Y-90393124D02*
X189047618Y-90440743D01*
X189047618Y-90440743D02*
X188999999Y-90488362D01*
X188999999Y-90488362D02*
X188952380Y-90583600D01*
X188952380Y-90583600D02*
X188952380Y-90869314D01*
X188952380Y-90869314D02*
X188999999Y-90964552D01*
X188999999Y-90964552D02*
X189047618Y-91012172D01*
X189047618Y-91012172D02*
X189142856Y-91059791D01*
X189142856Y-91059791D02*
X189285713Y-91059791D01*
X188095237Y-90393124D02*
X188095237Y-91059791D01*
X188523808Y-90393124D02*
X188523808Y-90916933D01*
X188523808Y-90916933D02*
X188476189Y-91012172D01*
X188476189Y-91012172D02*
X188380951Y-91059791D01*
X188380951Y-91059791D02*
X188238094Y-91059791D01*
X188238094Y-91059791D02*
X188142856Y-91012172D01*
X188142856Y-91012172D02*
X188095237Y-90964552D01*
X187619046Y-90393124D02*
X187619046Y-91059791D01*
X187619046Y-90488362D02*
X187571427Y-90440743D01*
X187571427Y-90440743D02*
X187476189Y-90393124D01*
X187476189Y-90393124D02*
X187333332Y-90393124D01*
X187333332Y-90393124D02*
X187238094Y-90440743D01*
X187238094Y-90440743D02*
X187190475Y-90535981D01*
X187190475Y-90535981D02*
X187190475Y-91059791D01*
X186285713Y-91059791D02*
X186285713Y-90059791D01*
X186285713Y-91012172D02*
X186380951Y-91059791D01*
X186380951Y-91059791D02*
X186571427Y-91059791D01*
X186571427Y-91059791D02*
X186666665Y-91012172D01*
X186666665Y-91012172D02*
X186714284Y-90964552D01*
X186714284Y-90964552D02*
X186761903Y-90869314D01*
X186761903Y-90869314D02*
X186761903Y-90583600D01*
X186761903Y-90583600D02*
X186714284Y-90488362D01*
X186714284Y-90488362D02*
X186666665Y-90440743D01*
X186666665Y-90440743D02*
X186571427Y-90393124D01*
X186571427Y-90393124D02*
X186380951Y-90393124D01*
X186380951Y-90393124D02*
X186285713Y-90440743D01*
X185095236Y-90155029D02*
X185047617Y-90107410D01*
X185047617Y-90107410D02*
X184952379Y-90059791D01*
X184952379Y-90059791D02*
X184714284Y-90059791D01*
X184714284Y-90059791D02*
X184619046Y-90107410D01*
X184619046Y-90107410D02*
X184571427Y-90155029D01*
X184571427Y-90155029D02*
X184523808Y-90250267D01*
X184523808Y-90250267D02*
X184523808Y-90345505D01*
X184523808Y-90345505D02*
X184571427Y-90488362D01*
X184571427Y-90488362D02*
X185142855Y-91059791D01*
X185142855Y-91059791D02*
X184523808Y-91059791D01*
X183904760Y-90059791D02*
X183809522Y-90059791D01*
X183809522Y-90059791D02*
X183714284Y-90107410D01*
X183714284Y-90107410D02*
X183666665Y-90155029D01*
X183666665Y-90155029D02*
X183619046Y-90250267D01*
X183619046Y-90250267D02*
X183571427Y-90440743D01*
X183571427Y-90440743D02*
X183571427Y-90678838D01*
X183571427Y-90678838D02*
X183619046Y-90869314D01*
X183619046Y-90869314D02*
X183666665Y-90964552D01*
X183666665Y-90964552D02*
X183714284Y-91012172D01*
X183714284Y-91012172D02*
X183809522Y-91059791D01*
X183809522Y-91059791D02*
X183904760Y-91059791D01*
X183904760Y-91059791D02*
X183999998Y-91012172D01*
X183999998Y-91012172D02*
X184047617Y-90964552D01*
X184047617Y-90964552D02*
X184095236Y-90869314D01*
X184095236Y-90869314D02*
X184142855Y-90678838D01*
X184142855Y-90678838D02*
X184142855Y-90440743D01*
X184142855Y-90440743D02*
X184095236Y-90250267D01*
X184095236Y-90250267D02*
X184047617Y-90155029D01*
X184047617Y-90155029D02*
X183999998Y-90107410D01*
X183999998Y-90107410D02*
X183904760Y-90059791D01*
X183190474Y-90155029D02*
X183142855Y-90107410D01*
X183142855Y-90107410D02*
X183047617Y-90059791D01*
X183047617Y-90059791D02*
X182809522Y-90059791D01*
X182809522Y-90059791D02*
X182714284Y-90107410D01*
X182714284Y-90107410D02*
X182666665Y-90155029D01*
X182666665Y-90155029D02*
X182619046Y-90250267D01*
X182619046Y-90250267D02*
X182619046Y-90345505D01*
X182619046Y-90345505D02*
X182666665Y-90488362D01*
X182666665Y-90488362D02*
X183238093Y-91059791D01*
X183238093Y-91059791D02*
X182619046Y-91059791D01*
X181714284Y-90059791D02*
X182190474Y-90059791D01*
X182190474Y-90059791D02*
X182238093Y-90535981D01*
X182238093Y-90535981D02*
X182190474Y-90488362D01*
X182190474Y-90488362D02*
X182095236Y-90440743D01*
X182095236Y-90440743D02*
X181857141Y-90440743D01*
X181857141Y-90440743D02*
X181761903Y-90488362D01*
X181761903Y-90488362D02*
X181714284Y-90535981D01*
X181714284Y-90535981D02*
X181666665Y-90631219D01*
X181666665Y-90631219D02*
X181666665Y-90869314D01*
X181666665Y-90869314D02*
X181714284Y-90964552D01*
X181714284Y-90964552D02*
X181761903Y-91012172D01*
X181761903Y-91012172D02*
X181857141Y-91059791D01*
X181857141Y-91059791D02*
X182095236Y-91059791D01*
X182095236Y-91059791D02*
X182190474Y-91012172D01*
X182190474Y-91012172D02*
X182238093Y-90964552D01*
D11*
X178278328Y-73271428D02*
X179349757Y-73271428D01*
X179349757Y-73271428D02*
X179564042Y-73199999D01*
X179564042Y-73199999D02*
X179706900Y-73057142D01*
X179706900Y-73057142D02*
X179778328Y-72842856D01*
X179778328Y-72842856D02*
X179778328Y-72699999D01*
X179778328Y-74699999D02*
X179778328Y-73985713D01*
X179778328Y-73985713D02*
X178278328Y-73985713D01*
X179635471Y-76057142D02*
X179706900Y-75985714D01*
X179706900Y-75985714D02*
X179778328Y-75771428D01*
X179778328Y-75771428D02*
X179778328Y-75628571D01*
X179778328Y-75628571D02*
X179706900Y-75414285D01*
X179706900Y-75414285D02*
X179564042Y-75271428D01*
X179564042Y-75271428D02*
X179421185Y-75199999D01*
X179421185Y-75199999D02*
X179135471Y-75128571D01*
X179135471Y-75128571D02*
X178921185Y-75128571D01*
X178921185Y-75128571D02*
X178635471Y-75199999D01*
X178635471Y-75199999D02*
X178492614Y-75271428D01*
X178492614Y-75271428D02*
X178349757Y-75414285D01*
X178349757Y-75414285D02*
X178278328Y-75628571D01*
X178278328Y-75628571D02*
X178278328Y-75771428D01*
X178278328Y-75771428D02*
X178349757Y-75985714D01*
X178349757Y-75985714D02*
X178421185Y-76057142D01*
X178278328Y-77128571D02*
X179349757Y-77128571D01*
X179349757Y-77128571D02*
X179564042Y-77057142D01*
X179564042Y-77057142D02*
X179706900Y-76914285D01*
X179706900Y-76914285D02*
X179778328Y-76699999D01*
X179778328Y-76699999D02*
X179778328Y-76557142D01*
X179778328Y-78557142D02*
X179778328Y-77842856D01*
X179778328Y-77842856D02*
X178278328Y-77842856D01*
X179635471Y-79914285D02*
X179706900Y-79842857D01*
X179706900Y-79842857D02*
X179778328Y-79628571D01*
X179778328Y-79628571D02*
X179778328Y-79485714D01*
X179778328Y-79485714D02*
X179706900Y-79271428D01*
X179706900Y-79271428D02*
X179564042Y-79128571D01*
X179564042Y-79128571D02*
X179421185Y-79057142D01*
X179421185Y-79057142D02*
X179135471Y-78985714D01*
X179135471Y-78985714D02*
X178921185Y-78985714D01*
X178921185Y-78985714D02*
X178635471Y-79057142D01*
X178635471Y-79057142D02*
X178492614Y-79128571D01*
X178492614Y-79128571D02*
X178349757Y-79271428D01*
X178349757Y-79271428D02*
X178278328Y-79485714D01*
X178278328Y-79485714D02*
X178278328Y-79628571D01*
X178278328Y-79628571D02*
X178349757Y-79842857D01*
X178349757Y-79842857D02*
X178421185Y-79914285D01*
X178278328Y-80985714D02*
X179349757Y-80985714D01*
X179349757Y-80985714D02*
X179564042Y-80914285D01*
X179564042Y-80914285D02*
X179706900Y-80771428D01*
X179706900Y-80771428D02*
X179778328Y-80557142D01*
X179778328Y-80557142D02*
X179778328Y-80414285D01*
X179778328Y-82414285D02*
X179778328Y-81699999D01*
X179778328Y-81699999D02*
X178278328Y-81699999D01*
X179635471Y-83771428D02*
X179706900Y-83700000D01*
X179706900Y-83700000D02*
X179778328Y-83485714D01*
X179778328Y-83485714D02*
X179778328Y-83342857D01*
X179778328Y-83342857D02*
X179706900Y-83128571D01*
X179706900Y-83128571D02*
X179564042Y-82985714D01*
X179564042Y-82985714D02*
X179421185Y-82914285D01*
X179421185Y-82914285D02*
X179135471Y-82842857D01*
X179135471Y-82842857D02*
X178921185Y-82842857D01*
X178921185Y-82842857D02*
X178635471Y-82914285D01*
X178635471Y-82914285D02*
X178492614Y-82985714D01*
X178492614Y-82985714D02*
X178349757Y-83128571D01*
X178349757Y-83128571D02*
X178278328Y-83342857D01*
X178278328Y-83342857D02*
X178278328Y-83485714D01*
X178278328Y-83485714D02*
X178349757Y-83700000D01*
X178349757Y-83700000D02*
X178421185Y-83771428D01*
X178278328Y-84842857D02*
X179349757Y-84842857D01*
X179349757Y-84842857D02*
X179564042Y-84771428D01*
X179564042Y-84771428D02*
X179706900Y-84628571D01*
X179706900Y-84628571D02*
X179778328Y-84414285D01*
X179778328Y-84414285D02*
X179778328Y-84271428D01*
X179778328Y-86271428D02*
X179778328Y-85557142D01*
X179778328Y-85557142D02*
X178278328Y-85557142D01*
X179635471Y-87628571D02*
X179706900Y-87557143D01*
X179706900Y-87557143D02*
X179778328Y-87342857D01*
X179778328Y-87342857D02*
X179778328Y-87200000D01*
X179778328Y-87200000D02*
X179706900Y-86985714D01*
X179706900Y-86985714D02*
X179564042Y-86842857D01*
X179564042Y-86842857D02*
X179421185Y-86771428D01*
X179421185Y-86771428D02*
X179135471Y-86700000D01*
X179135471Y-86700000D02*
X178921185Y-86700000D01*
X178921185Y-86700000D02*
X178635471Y-86771428D01*
X178635471Y-86771428D02*
X178492614Y-86842857D01*
X178492614Y-86842857D02*
X178349757Y-86985714D01*
X178349757Y-86985714D02*
X178278328Y-87200000D01*
X178278328Y-87200000D02*
X178278328Y-87342857D01*
X178278328Y-87342857D02*
X178349757Y-87557143D01*
X178349757Y-87557143D02*
X178421185Y-87628571D01*
%LPC*%
D12*
X184500000Y-30500000D03*
X219500000Y-30500000D03*
X219500000Y-153000000D03*
X184500000Y-153000000D03*
D13*
X208500001Y-140000000D03*
X207000000Y-92000000D03*
X186000000Y-107000000D03*
X182500000Y-43000000D03*
X195500000Y-43000000D03*
X217500000Y-107000000D03*
X196500000Y-77000000D03*
X195500000Y-140000000D03*
X207000000Y-62000000D03*
X221500001Y-43000000D03*
X208500001Y-43000000D03*
X182500000Y-140000000D03*
X186000000Y-62000000D03*
X182499999Y-125400000D03*
X221500000Y-125400000D03*
X221500001Y-140000000D03*
X217500000Y-62000000D03*
X196500000Y-107000000D03*
X208500000Y-125400000D03*
X195499999Y-125400000D03*
%LPD*%
M02*
