G04 #@! TF.GenerationSoftware,KiCad,Pcbnew,8.0.6-8.0.6-0~ubuntu22.04.1*
G04 #@! TF.CreationDate,2025-01-13T22:02:32+00:00*
G04 #@! TF.ProjectId,Basic_VCA,42617369-635f-4564-9341-2e6b69636164,rev?*
G04 #@! TF.SameCoordinates,Original*
G04 #@! TF.FileFunction,Legend,Top*
G04 #@! TF.FilePolarity,Positive*
%FSLAX46Y46*%
G04 Gerber Fmt 4.6, Leading zero omitted, Abs format (unit mm)*
G04 Created by KiCad (PCBNEW 8.0.6-8.0.6-0~ubuntu22.04.1) date 2025-01-13 22:02:32*
%MOMM*%
%LPD*%
G01*
G04 APERTURE LIST*
%ADD10C,0.120000*%
%ADD11C,0.150000*%
%ADD12O,6.700000X4.200000*%
%ADD13C,8.000000*%
G04 APERTURE END LIST*
D10*
X196100001Y-152050000D02*
X195100001Y-151650000D01*
X200900001Y-153250000D02*
X201100001Y-153450000D01*
X205700001Y-152250000D02*
X204900001Y-152250000D01*
X208300001Y-152250000D02*
X208700001Y-153050000D01*
X221800000Y-35200000D02*
X221700000Y-35800000D01*
D11*
X202700000Y-140000000D02*
X201200000Y-142000000D01*
X201200000Y-138000000D01*
X202700000Y-140000000D01*
G36*
X202700000Y-140000000D02*
G01*
X201200000Y-142000000D01*
X201200000Y-138000000D01*
X202700000Y-140000000D01*
G37*
D10*
X195250001Y-146250000D02*
X194950001Y-147950000D01*
X189700000Y-102650000D02*
X190500000Y-102650000D01*
X222500000Y-49200000D02*
X222400000Y-49200000D01*
X196500000Y-131600000D02*
X196400000Y-131600000D01*
X196500000Y-49200000D02*
X195700000Y-50800000D01*
X209500000Y-49200000D02*
X209400000Y-49200000D01*
X220900000Y-133300000D02*
X221700000Y-131600000D01*
X221000000Y-131600000D02*
X220800000Y-131700000D01*
X190400000Y-100950000D02*
X190300000Y-100950000D01*
X221700000Y-35800000D02*
X221500000Y-36800000D01*
X208450000Y-36150000D02*
X208750000Y-35850000D01*
X211200000Y-66350000D02*
X210500000Y-68050000D01*
X201100001Y-153450000D02*
X201100001Y-153250000D01*
X182300000Y-49200000D02*
X182400000Y-49300000D01*
X202500001Y-152050000D02*
X201100001Y-152450000D01*
X181900000Y-133300000D02*
X181800000Y-133300000D01*
X208250001Y-146250000D02*
X207950001Y-147950000D01*
X209150001Y-146250000D02*
X209850001Y-146250000D01*
X192500000Y-100950000D02*
X191800000Y-101750000D01*
X190600000Y-113100000D02*
X191400000Y-111400000D01*
X196550001Y-146250000D02*
X195550001Y-147950000D01*
X213900000Y-66350000D02*
X213800000Y-66350000D01*
X204625000Y-30600000D02*
X204725000Y-30700000D01*
X182300000Y-36800000D02*
X182700000Y-36800000D01*
X205600000Y-30600000D02*
X205500000Y-32300000D01*
D11*
X189800001Y-140000000D02*
X188300001Y-142000000D01*
X188300001Y-138000000D01*
X189800001Y-140000000D01*
G36*
X189800001Y-140000000D02*
G01*
X188300001Y-142000000D01*
X188300001Y-138000000D01*
X189800001Y-140000000D01*
G37*
D10*
X208550000Y-35550000D02*
X208850000Y-35250000D01*
X200500000Y-30600000D02*
X200400000Y-32300000D01*
X195300000Y-49200000D02*
X194500000Y-50100000D01*
X207300001Y-152250000D02*
X206500001Y-153450000D01*
X198300001Y-151250000D02*
X199100001Y-151250000D01*
X211400000Y-55900000D02*
X211300000Y-55900000D01*
X207900001Y-152250000D02*
X207700001Y-152250000D01*
X190200000Y-111400000D02*
X189500000Y-113100000D01*
X199150000Y-32250000D02*
X200150000Y-30550000D01*
X208800000Y-49200000D02*
X208700000Y-50800000D01*
X182250001Y-146150000D02*
X181950001Y-147850000D01*
X204325000Y-32250000D02*
X204425000Y-32100000D01*
X183500000Y-49200000D02*
X183400000Y-49200000D01*
X213550000Y-57000000D02*
X213650000Y-57100000D01*
X208800000Y-49200000D02*
X208700000Y-49200000D01*
X207100001Y-153450000D02*
X207900001Y-152250000D01*
X196700001Y-153450000D02*
X197300001Y-153450000D01*
X213300000Y-57600000D02*
X213650000Y-57100000D01*
X212925000Y-55900000D02*
X211875000Y-57600000D01*
X181900000Y-133300000D02*
X182700000Y-131600000D01*
X208700000Y-131600000D02*
X208700000Y-133300000D01*
X200500000Y-30600000D02*
X199700000Y-32300000D01*
X221300000Y-49200000D02*
X221400000Y-49300000D01*
D11*
X193600000Y-62000000D02*
G75*
G02*
X178400000Y-62000000I-7600000J0D01*
G01*
X178400000Y-62000000D02*
G75*
G02*
X193600000Y-62000000I7600000J0D01*
G01*
D10*
X199700001Y-152250000D02*
X200500001Y-152250000D01*
X194200000Y-133300000D02*
X195000000Y-131600000D01*
X208300001Y-152250000D02*
X207700001Y-153450000D01*
X191400000Y-111400000D02*
X191500000Y-111600000D01*
X192900000Y-111400000D02*
X192800000Y-111400000D01*
X192550000Y-102050000D02*
X192650000Y-102150000D01*
X195850000Y-35250000D02*
X195750000Y-35850000D01*
X201000000Y-30600000D02*
X200600000Y-32300000D01*
X212300000Y-68050000D02*
X212200000Y-68050000D01*
X195800000Y-49200000D02*
X195700000Y-50800000D01*
X208300000Y-49200000D02*
X207500000Y-50100000D01*
D11*
X215800001Y-140000000D02*
X214300001Y-142000000D01*
X214300001Y-138000000D01*
X215800001Y-140000000D01*
G36*
X215800001Y-140000000D02*
G01*
X214300001Y-142000000D01*
X214300001Y-138000000D01*
X215800001Y-140000000D01*
G37*
D10*
X195450000Y-36150000D02*
X195750000Y-35850000D01*
X208700000Y-133300000D02*
X209500000Y-131600000D01*
X220500000Y-50100000D02*
X221000000Y-50800000D01*
X191925000Y-100950000D02*
X190875000Y-102650000D01*
X196700001Y-152050000D02*
X196700001Y-153450000D01*
X182700000Y-133300000D02*
X183500000Y-131600000D01*
X221500000Y-35400000D02*
X221400000Y-36100000D01*
X194550001Y-147950000D02*
X194050001Y-146250000D01*
X197900001Y-151650000D02*
X197900001Y-153450000D01*
X183500000Y-49200000D02*
X182700000Y-50800000D01*
X195000000Y-131600000D02*
X194800000Y-131700000D01*
X205700001Y-153450000D02*
X206900001Y-152250000D01*
X217500000Y-97800000D02*
X217500000Y-68000000D01*
X203500001Y-152450000D02*
X204300001Y-153050000D01*
X208000000Y-131600000D02*
X208100000Y-131800000D01*
X221400000Y-36100000D02*
X221700000Y-35800000D01*
X191125000Y-100950000D02*
X191925000Y-100950000D01*
X182000000Y-131600000D02*
X181800000Y-131700000D01*
X199150000Y-30550000D02*
X198100000Y-32300000D01*
X192100000Y-113100000D02*
X192900000Y-111400000D01*
X206500001Y-153450000D02*
X206700001Y-153450000D01*
X181500000Y-50100000D02*
X182000000Y-50800000D01*
X192300000Y-102650000D02*
X192650000Y-102150000D01*
X206900001Y-152250000D02*
X206700001Y-152250000D01*
X208750000Y-35850000D02*
X208650000Y-36550000D01*
X201100001Y-153450000D02*
X201300001Y-153250000D01*
X207900000Y-133300000D02*
X208700000Y-131600000D01*
X181200000Y-133300000D02*
X182000000Y-131600000D01*
X191300000Y-113100000D02*
X192100000Y-111400000D01*
X222500000Y-49200000D02*
X221700000Y-50800000D01*
X183150001Y-146150000D02*
X183850001Y-146150000D01*
X195550000Y-35550000D02*
X195850000Y-35250000D01*
X198300000Y-31700000D02*
X198500000Y-32300000D01*
X212800000Y-56700000D02*
X213300000Y-57600000D01*
X190875000Y-102650000D02*
X191125000Y-100950000D01*
X182800000Y-49200000D02*
X182700000Y-50800000D01*
X209500000Y-131600000D02*
X209400000Y-131600000D01*
X221800000Y-49200000D02*
X221700000Y-50800000D01*
X194050001Y-146250000D02*
X194950001Y-146250000D01*
X208650000Y-36550000D02*
X208350000Y-36850000D01*
X221800000Y-49200000D02*
X221700000Y-49200000D01*
X220550001Y-147950000D02*
X220050001Y-146250000D01*
X196700001Y-152050000D02*
X196900001Y-152250000D01*
X195100001Y-151650000D02*
X195100001Y-153450000D01*
X195100001Y-153450000D02*
X196100001Y-152850000D01*
X208300000Y-49200000D02*
X208400000Y-49300000D01*
X210500000Y-68050000D02*
X211300000Y-68050000D01*
X210700000Y-57600000D02*
X211500000Y-57600000D01*
X207900000Y-133300000D02*
X207800000Y-133300000D01*
D11*
X189800000Y-43000000D02*
X188300000Y-45000000D01*
X188300000Y-41000000D01*
X189800000Y-43000000D01*
G36*
X189800000Y-43000000D02*
G01*
X188300000Y-45000000D01*
X188300000Y-41000000D01*
X189800000Y-43000000D01*
G37*
D10*
X213500000Y-55900000D02*
X212800000Y-56700000D01*
X195800000Y-49200000D02*
X195700000Y-49200000D01*
X182000000Y-50800000D02*
X182100000Y-50700000D01*
X196500000Y-49200000D02*
X196400000Y-49200000D01*
X197900001Y-151650000D02*
G75*
G02*
X198300001Y-151250001I399999J0D01*
G01*
X221000000Y-50800000D02*
X221100000Y-50700000D01*
X183550001Y-146150000D02*
X182550001Y-147850000D01*
X199700001Y-153450000D02*
X200500001Y-153450000D01*
X211400000Y-55900000D02*
X210700000Y-57600000D01*
X194500000Y-50100000D02*
X195000000Y-50800000D01*
X182700000Y-131600000D02*
X182700000Y-133300000D01*
X203500001Y-153450000D02*
X203500001Y-153250000D01*
D11*
X225100000Y-107000000D02*
G75*
G02*
X209900000Y-107000000I-7600000J0D01*
G01*
X209900000Y-107000000D02*
G75*
G02*
X225100000Y-107000000I7600000J0D01*
G01*
D10*
X213100000Y-68050000D02*
X213900000Y-66350000D01*
X212400000Y-66350000D02*
X212200000Y-66450000D01*
X206100001Y-152250000D02*
X205900001Y-152250000D01*
X194900000Y-133300000D02*
X195700000Y-131600000D01*
X199700001Y-152250000D02*
X199700001Y-153450000D01*
X181050001Y-146150000D02*
X181950001Y-146150000D01*
X197900001Y-153450000D02*
X199100001Y-153450000D01*
X191300000Y-113100000D02*
X191200000Y-113100000D01*
X221700000Y-133300000D02*
X222500000Y-131600000D01*
X201600000Y-31800000D02*
X201000000Y-30600000D01*
X204300001Y-153050000D02*
X203500001Y-153450000D01*
X195700000Y-133300000D02*
X196500000Y-131600000D01*
X213500000Y-55900000D02*
X213600000Y-56000000D01*
X196700001Y-152050000D02*
X196500001Y-152250000D01*
X211875000Y-57600000D02*
X212125000Y-55900000D01*
D11*
X204100000Y-77000000D02*
G75*
G02*
X188900000Y-77000000I-7600000J0D01*
G01*
X188900000Y-77000000D02*
G75*
G02*
X204100000Y-77000000I7600000J0D01*
G01*
D10*
X201100001Y-151650000D02*
X201100001Y-153450000D01*
X182300000Y-49200000D02*
X181500000Y-50100000D01*
X204625000Y-30600000D02*
X203825000Y-31500000D01*
X195700000Y-131600000D02*
X195700000Y-133300000D01*
X212400000Y-66350000D02*
X212500000Y-66550000D01*
X199700001Y-152850000D02*
X199900001Y-152850000D01*
X204900001Y-152250000D02*
X204900001Y-153450000D01*
X192100000Y-111400000D02*
X192100000Y-113100000D01*
X183500000Y-131600000D02*
X183400000Y-131600000D01*
X211200000Y-66350000D02*
X211100000Y-66350000D01*
X207200000Y-133300000D02*
X208000000Y-131600000D01*
X196150001Y-146250000D02*
X196850001Y-146250000D01*
X195000000Y-50800000D02*
X195100000Y-50700000D01*
X220950001Y-146250000D02*
X220550001Y-147950000D01*
X201100001Y-151650000D02*
X202500001Y-152050000D01*
X213100000Y-66350000D02*
X213100000Y-68050000D01*
D11*
X215800000Y-43000000D02*
X214300000Y-45000000D01*
X214300000Y-41000000D01*
X215800000Y-43000000D01*
G36*
X215800000Y-43000000D02*
G01*
X214300000Y-45000000D01*
X214300000Y-41000000D01*
X215800000Y-43000000D01*
G37*
D10*
X211600000Y-68050000D02*
X212400000Y-66350000D01*
X207950001Y-147950000D02*
X208950001Y-146250000D01*
X205500000Y-31400000D02*
X205300000Y-31400000D01*
X222500000Y-131600000D02*
X222400000Y-131600000D01*
X195000000Y-131600000D02*
X195100000Y-131800000D01*
X199450000Y-30550000D02*
X199150000Y-32250000D01*
X204500001Y-152250000D02*
X203500001Y-152450000D01*
X209500000Y-49200000D02*
X208700000Y-50800000D01*
X194950001Y-146250000D02*
X194550001Y-147950000D01*
X202975000Y-32250000D02*
X203975000Y-30550000D01*
X204500001Y-152250000D02*
X204500001Y-152450000D01*
X208850000Y-35250000D02*
X208750000Y-35850000D01*
X212300000Y-68050000D02*
X213100000Y-66350000D01*
X220200000Y-133300000D02*
X221000000Y-131600000D01*
X200600000Y-32300000D02*
X201600000Y-31800000D01*
D11*
X214600000Y-92000000D02*
G75*
G02*
X199400000Y-92000000I-7600000J0D01*
G01*
X199400000Y-92000000D02*
G75*
G02*
X214600000Y-92000000I7600000J0D01*
G01*
D10*
X208000000Y-131600000D02*
X207800000Y-131700000D01*
X221000000Y-131600000D02*
X221100000Y-131800000D01*
X222550001Y-146250000D02*
X221550001Y-147950000D01*
X207550001Y-147950000D02*
X207050001Y-146250000D01*
X208000000Y-50800000D02*
X208100000Y-50700000D01*
X182000000Y-131600000D02*
X182100000Y-131800000D01*
X195300000Y-49200000D02*
X195400000Y-49300000D01*
X198100000Y-30550000D02*
X199150000Y-30550000D01*
X212125000Y-55900000D02*
X212925000Y-55900000D01*
X206100001Y-152250000D02*
X205700001Y-153450000D01*
X207050001Y-146250000D02*
X207950001Y-146250000D01*
X198100000Y-32300000D02*
X198100000Y-30550000D01*
X207500000Y-50100000D02*
X208000000Y-50800000D01*
X199100001Y-153450000D02*
X198900001Y-153250000D01*
X182800000Y-49200000D02*
X182700000Y-49200000D01*
X196100001Y-152850000D02*
X195100001Y-152450000D01*
X190200000Y-111400000D02*
X190100000Y-111400000D01*
X191400000Y-111400000D02*
X191200000Y-111500000D01*
X207000000Y-82800000D02*
X207000000Y-68000000D01*
X194950001Y-147950000D02*
X195950001Y-146250000D01*
X181950001Y-147850000D02*
X182950001Y-146150000D01*
X191800000Y-101750000D02*
X192300000Y-102650000D01*
X199100001Y-153450000D02*
X198900001Y-153650000D01*
X186000000Y-101000000D02*
X186000000Y-71200000D01*
X220900000Y-133300000D02*
X220800000Y-133300000D01*
X189500000Y-113100000D02*
X190300000Y-113100000D01*
X200400000Y-31400000D02*
X200200000Y-31400000D01*
X197900001Y-152250000D02*
X198300001Y-152250000D01*
X207700001Y-153450000D02*
X208700001Y-153050000D01*
X195450000Y-36150000D02*
X195350000Y-36850000D01*
X221700000Y-131600000D02*
X221700000Y-133300000D01*
X207300001Y-152250000D02*
X207100001Y-153450000D01*
X196500000Y-101000000D02*
X196500000Y-86200000D01*
X205600000Y-30600000D02*
X204800000Y-32300000D01*
X220950001Y-147950000D02*
X221950001Y-146250000D01*
X190400000Y-100950000D02*
X189700000Y-102650000D01*
X181950001Y-146150000D02*
X181550001Y-147850000D01*
X195650000Y-36550000D02*
X195350000Y-36850000D01*
X221300000Y-49200000D02*
X220500000Y-50100000D01*
X207950001Y-146250000D02*
X207550001Y-147950000D01*
X181550001Y-147850000D02*
X181050001Y-146150000D01*
X222150001Y-146250000D02*
X222850001Y-146250000D01*
X220050001Y-146250000D02*
X220950001Y-146250000D01*
X195100001Y-152450000D02*
X196100001Y-152050000D01*
X203825000Y-31500000D02*
X204325000Y-32250000D01*
X182500000Y-35600000D02*
X182800000Y-35200000D01*
X194900000Y-133300000D02*
X194800000Y-133300000D01*
X192500000Y-100950000D02*
X192600000Y-101050000D01*
X203275000Y-30550000D02*
X202975000Y-32250000D01*
X204900001Y-153450000D02*
X205700001Y-152250000D01*
X221250001Y-146250000D02*
X220950001Y-147950000D01*
X209550001Y-146250000D02*
X208550001Y-147950000D01*
X182800000Y-35200000D02*
X182500000Y-36800000D01*
%LPC*%
D12*
X184500000Y-30500000D03*
X219500000Y-30500000D03*
X219500000Y-153000000D03*
X184500000Y-153000000D03*
D13*
X208500001Y-140000000D03*
X207000000Y-92000000D03*
X186000000Y-107000000D03*
X182500000Y-43000000D03*
X195500000Y-43000000D03*
X217500000Y-107000000D03*
X196500000Y-77000000D03*
X195500000Y-140000000D03*
X207000000Y-62000000D03*
X221500001Y-43000000D03*
X208500001Y-43000000D03*
X182500000Y-140000000D03*
X186000000Y-62000000D03*
X182499999Y-125400000D03*
X221500000Y-125400000D03*
X221500001Y-140000000D03*
X217500000Y-62000000D03*
X196500000Y-107000000D03*
X208500000Y-125400000D03*
X195499999Y-125400000D03*
%LPD*%
M02*
