G04 #@! TF.GenerationSoftware,KiCad,Pcbnew,8.0.6-8.0.6-0~ubuntu22.04.1*
G04 #@! TF.CreationDate,2025-01-15T16:43:41+00:00*
G04 #@! TF.ProjectId,Basic_VCA,42617369-635f-4564-9341-2e6b69636164,rev?*
G04 #@! TF.SameCoordinates,Original*
G04 #@! TF.FileFunction,Soldermask,Bot*
G04 #@! TF.FilePolarity,Negative*
%FSLAX46Y46*%
G04 Gerber Fmt 4.6, Leading zero omitted, Abs format (unit mm)*
G04 Created by KiCad (PCBNEW 8.0.6-8.0.6-0~ubuntu22.04.1) date 2025-01-15 16:43:41*
%MOMM*%
%LPD*%
G01*
G04 APERTURE LIST*
%ADD10R,1.700000X1.700000*%
%ADD11O,1.700000X1.700000*%
%ADD12C,3.200000*%
%ADD13C,1.600000*%
%ADD14O,1.600000X1.600000*%
%ADD15R,1.050000X1.500000*%
%ADD16O,1.050000X1.500000*%
%ADD17C,1.440000*%
%ADD18R,1.600000X1.600000*%
%ADD19C,1.700000*%
%ADD20C,0.800000*%
G04 APERTURE END LIST*
D10*
X93000000Y-76700000D03*
D11*
X93000000Y-79240000D03*
X93000000Y-81780000D03*
X93000000Y-84320000D03*
X93000000Y-86860000D03*
X93000000Y-89400000D03*
X93000000Y-91940000D03*
X93000000Y-94480000D03*
D10*
X56300000Y-76700000D03*
D11*
X56300000Y-79240000D03*
X56300000Y-81780000D03*
X56300000Y-84320000D03*
X56300000Y-86860000D03*
X56300000Y-89400000D03*
X56300000Y-91940000D03*
X56300000Y-94480000D03*
D10*
X94000000Y-98400000D03*
D11*
X96540000Y-98400000D03*
X99080000Y-98400000D03*
X101620000Y-98400000D03*
D12*
X83500000Y-110500000D03*
D10*
X102700000Y-76700000D03*
D11*
X102700000Y-79240000D03*
X102700000Y-81780000D03*
X102700000Y-84320000D03*
X102700000Y-86860000D03*
X102700000Y-89400000D03*
X102700000Y-91940000D03*
X102700000Y-94480000D03*
D10*
X65600000Y-76700000D03*
D11*
X65600000Y-79240000D03*
X65600000Y-81780000D03*
X65600000Y-84320000D03*
X65600000Y-86860000D03*
X65600000Y-89400000D03*
X65600000Y-91940000D03*
X65600000Y-94480000D03*
D13*
X74400000Y-71900000D03*
X69400000Y-71900000D03*
X82900000Y-145220000D03*
D14*
X82900000Y-137600000D03*
D13*
X72500000Y-87280000D03*
D14*
X72500000Y-94900000D03*
D15*
X96670000Y-50320000D03*
D16*
X95400000Y-50320000D03*
X94130000Y-50320000D03*
D13*
X92500000Y-58720000D03*
D14*
X92500000Y-66340000D03*
D13*
X63000000Y-127390000D03*
D14*
X63000000Y-135010000D03*
D13*
X84000000Y-124610000D03*
D14*
X84000000Y-116990000D03*
D13*
X64610000Y-66900000D03*
D14*
X56990000Y-66900000D03*
D13*
X98100000Y-82910000D03*
D14*
X98100000Y-75290000D03*
D13*
X76800000Y-145220000D03*
D14*
X76800000Y-137600000D03*
D13*
X80400000Y-58720000D03*
D14*
X80400000Y-66340000D03*
D13*
X63610000Y-110900000D03*
D14*
X55990000Y-110900000D03*
D13*
X90600000Y-127480000D03*
D14*
X90600000Y-135100000D03*
D13*
X71900000Y-82110000D03*
D14*
X71900000Y-74490000D03*
D13*
X86400000Y-77690000D03*
D14*
X86400000Y-85310000D03*
D13*
X74300000Y-58720000D03*
D14*
X74300000Y-66340000D03*
D13*
X65800000Y-38510000D03*
D14*
X65800000Y-46130000D03*
D13*
X98600000Y-58710000D03*
D14*
X98600000Y-66330000D03*
D13*
X95600000Y-58710000D03*
D14*
X95600000Y-66330000D03*
D15*
X71370000Y-40130000D03*
D16*
X70100000Y-40130000D03*
X68830000Y-40130000D03*
D13*
X67800000Y-137600000D03*
D14*
X67800000Y-145220000D03*
D13*
X85900000Y-145220000D03*
D14*
X85900000Y-137600000D03*
D17*
X58500000Y-54260000D03*
X58500000Y-56800000D03*
X58500000Y-59340000D03*
D13*
X89500000Y-45840000D03*
D14*
X89500000Y-38220000D03*
D13*
X74400000Y-38210000D03*
D14*
X74400000Y-45830000D03*
D13*
X83400000Y-45720000D03*
X83400000Y-40720000D03*
X55880000Y-104902000D03*
D14*
X63500000Y-104902000D03*
D13*
X89500000Y-58720000D03*
D14*
X89500000Y-66340000D03*
D13*
X73600000Y-110200000D03*
D14*
X65980000Y-110200000D03*
D13*
X95500000Y-45920000D03*
D14*
X95500000Y-38300000D03*
D13*
X64610000Y-72900000D03*
D14*
X56990000Y-72900000D03*
D13*
X62300000Y-107900000D03*
X57300000Y-107900000D03*
D15*
X96730000Y-133300000D03*
D16*
X98000000Y-133300000D03*
X99270000Y-133300000D03*
D13*
X68800000Y-117000000D03*
D14*
X68800000Y-124620000D03*
D13*
X65110000Y-140150000D03*
D14*
X57490000Y-140150000D03*
D13*
X77400000Y-45830000D03*
D14*
X77400000Y-38210000D03*
D13*
X102800000Y-46420000D03*
D14*
X102800000Y-38800000D03*
D13*
X86500000Y-38210000D03*
D14*
X86500000Y-45830000D03*
D13*
X55990000Y-113900000D03*
D14*
X63610000Y-113900000D03*
D13*
X77900000Y-108300000D03*
D14*
X77900000Y-115920000D03*
D13*
X99210000Y-141400000D03*
D14*
X91590000Y-141400000D03*
D13*
X99800000Y-56530000D03*
D14*
X99800000Y-48910000D03*
D13*
X88900000Y-137600000D03*
D14*
X88900000Y-145220000D03*
D13*
X70800000Y-145220000D03*
D14*
X70800000Y-137600000D03*
D13*
X84690000Y-72000000D03*
D14*
X92310000Y-72000000D03*
D13*
X62800000Y-38500000D03*
D14*
X62800000Y-46120000D03*
D13*
X85210000Y-99200000D03*
D14*
X77590000Y-99200000D03*
D13*
X68690000Y-84700000D03*
D14*
X76310000Y-84700000D03*
D13*
X82410000Y-105700000D03*
D14*
X74790000Y-105700000D03*
D13*
X60000000Y-127390000D03*
D14*
X60000000Y-135010000D03*
D13*
X74800000Y-124610000D03*
D14*
X74800000Y-116990000D03*
D13*
X57800000Y-46100000D03*
D14*
X57800000Y-38480000D03*
D13*
X65990000Y-113200000D03*
D14*
X73610000Y-113200000D03*
D17*
X78860000Y-89600000D03*
X81400000Y-89600000D03*
X83940000Y-89600000D03*
X78820000Y-95000000D03*
X81360000Y-95000000D03*
X83900000Y-95000000D03*
D18*
X89460000Y-103800000D03*
D13*
X91460000Y-103800000D03*
X81000000Y-117000000D03*
D14*
X81000000Y-124620000D03*
D13*
X69460000Y-87280000D03*
D14*
X69460000Y-94900000D03*
D13*
X93700000Y-127480000D03*
D14*
X93700000Y-135100000D03*
D13*
X92310000Y-69000000D03*
D14*
X84690000Y-69000000D03*
D13*
X86500000Y-66340000D03*
D14*
X86500000Y-58720000D03*
D17*
X96000000Y-71100000D03*
X98540000Y-71100000D03*
X101080000Y-71100000D03*
D13*
X73800000Y-137600000D03*
D14*
X73800000Y-145220000D03*
D18*
X72175000Y-127400000D03*
D14*
X74715000Y-127400000D03*
X77255000Y-127400000D03*
X79795000Y-127400000D03*
X82335000Y-127400000D03*
X84875000Y-127400000D03*
X87415000Y-127400000D03*
X87415000Y-135020000D03*
X84875000Y-135020000D03*
X82335000Y-135020000D03*
X79795000Y-135020000D03*
X77255000Y-135020000D03*
X74715000Y-135020000D03*
X72175000Y-135020000D03*
G36*
G01*
X73450000Y-98505000D02*
X73450000Y-98805000D01*
G75*
G02*
X73300000Y-98955000I-150000J0D01*
G01*
X71650000Y-98955000D01*
G75*
G02*
X71500000Y-98805000I0J150000D01*
G01*
X71500000Y-98505000D01*
G75*
G02*
X71650000Y-98355000I150000J0D01*
G01*
X73300000Y-98355000D01*
G75*
G02*
X73450000Y-98505000I0J-150000D01*
G01*
G37*
G36*
G01*
X73450000Y-99775000D02*
X73450000Y-100075000D01*
G75*
G02*
X73300000Y-100225000I-150000J0D01*
G01*
X71650000Y-100225000D01*
G75*
G02*
X71500000Y-100075000I0J150000D01*
G01*
X71500000Y-99775000D01*
G75*
G02*
X71650000Y-99625000I150000J0D01*
G01*
X73300000Y-99625000D01*
G75*
G02*
X73450000Y-99775000I0J-150000D01*
G01*
G37*
G36*
G01*
X73450000Y-101045000D02*
X73450000Y-101345000D01*
G75*
G02*
X73300000Y-101495000I-150000J0D01*
G01*
X71650000Y-101495000D01*
G75*
G02*
X71500000Y-101345000I0J150000D01*
G01*
X71500000Y-101045000D01*
G75*
G02*
X71650000Y-100895000I150000J0D01*
G01*
X73300000Y-100895000D01*
G75*
G02*
X73450000Y-101045000I0J-150000D01*
G01*
G37*
G36*
G01*
X73450000Y-102315000D02*
X73450000Y-102615000D01*
G75*
G02*
X73300000Y-102765000I-150000J0D01*
G01*
X71650000Y-102765000D01*
G75*
G02*
X71500000Y-102615000I0J150000D01*
G01*
X71500000Y-102315000D01*
G75*
G02*
X71650000Y-102165000I150000J0D01*
G01*
X73300000Y-102165000D01*
G75*
G02*
X73450000Y-102315000I0J-150000D01*
G01*
G37*
G36*
G01*
X73450000Y-103585000D02*
X73450000Y-103885000D01*
G75*
G02*
X73300000Y-104035000I-150000J0D01*
G01*
X71650000Y-104035000D01*
G75*
G02*
X71500000Y-103885000I0J150000D01*
G01*
X71500000Y-103585000D01*
G75*
G02*
X71650000Y-103435000I150000J0D01*
G01*
X73300000Y-103435000D01*
G75*
G02*
X73450000Y-103585000I0J-150000D01*
G01*
G37*
G36*
G01*
X73450000Y-104855000D02*
X73450000Y-105155000D01*
G75*
G02*
X73300000Y-105305000I-150000J0D01*
G01*
X71650000Y-105305000D01*
G75*
G02*
X71500000Y-105155000I0J150000D01*
G01*
X71500000Y-104855000D01*
G75*
G02*
X71650000Y-104705000I150000J0D01*
G01*
X73300000Y-104705000D01*
G75*
G02*
X73450000Y-104855000I0J-150000D01*
G01*
G37*
G36*
G01*
X73450000Y-106125000D02*
X73450000Y-106425000D01*
G75*
G02*
X73300000Y-106575000I-150000J0D01*
G01*
X71650000Y-106575000D01*
G75*
G02*
X71500000Y-106425000I0J150000D01*
G01*
X71500000Y-106125000D01*
G75*
G02*
X71650000Y-105975000I150000J0D01*
G01*
X73300000Y-105975000D01*
G75*
G02*
X73450000Y-106125000I0J-150000D01*
G01*
G37*
G36*
G01*
X73450000Y-107395000D02*
X73450000Y-107695000D01*
G75*
G02*
X73300000Y-107845000I-150000J0D01*
G01*
X71650000Y-107845000D01*
G75*
G02*
X71500000Y-107695000I0J150000D01*
G01*
X71500000Y-107395000D01*
G75*
G02*
X71650000Y-107245000I150000J0D01*
G01*
X73300000Y-107245000D01*
G75*
G02*
X73450000Y-107395000I0J-150000D01*
G01*
G37*
G36*
G01*
X68500000Y-107395000D02*
X68500000Y-107695000D01*
G75*
G02*
X68350000Y-107845000I-150000J0D01*
G01*
X66700000Y-107845000D01*
G75*
G02*
X66550000Y-107695000I0J150000D01*
G01*
X66550000Y-107395000D01*
G75*
G02*
X66700000Y-107245000I150000J0D01*
G01*
X68350000Y-107245000D01*
G75*
G02*
X68500000Y-107395000I0J-150000D01*
G01*
G37*
G36*
G01*
X68500000Y-106125000D02*
X68500000Y-106425000D01*
G75*
G02*
X68350000Y-106575000I-150000J0D01*
G01*
X66700000Y-106575000D01*
G75*
G02*
X66550000Y-106425000I0J150000D01*
G01*
X66550000Y-106125000D01*
G75*
G02*
X66700000Y-105975000I150000J0D01*
G01*
X68350000Y-105975000D01*
G75*
G02*
X68500000Y-106125000I0J-150000D01*
G01*
G37*
G36*
G01*
X68500000Y-104855000D02*
X68500000Y-105155000D01*
G75*
G02*
X68350000Y-105305000I-150000J0D01*
G01*
X66700000Y-105305000D01*
G75*
G02*
X66550000Y-105155000I0J150000D01*
G01*
X66550000Y-104855000D01*
G75*
G02*
X66700000Y-104705000I150000J0D01*
G01*
X68350000Y-104705000D01*
G75*
G02*
X68500000Y-104855000I0J-150000D01*
G01*
G37*
G36*
G01*
X68500000Y-103585000D02*
X68500000Y-103885000D01*
G75*
G02*
X68350000Y-104035000I-150000J0D01*
G01*
X66700000Y-104035000D01*
G75*
G02*
X66550000Y-103885000I0J150000D01*
G01*
X66550000Y-103585000D01*
G75*
G02*
X66700000Y-103435000I150000J0D01*
G01*
X68350000Y-103435000D01*
G75*
G02*
X68500000Y-103585000I0J-150000D01*
G01*
G37*
G36*
G01*
X68500000Y-102315000D02*
X68500000Y-102615000D01*
G75*
G02*
X68350000Y-102765000I-150000J0D01*
G01*
X66700000Y-102765000D01*
G75*
G02*
X66550000Y-102615000I0J150000D01*
G01*
X66550000Y-102315000D01*
G75*
G02*
X66700000Y-102165000I150000J0D01*
G01*
X68350000Y-102165000D01*
G75*
G02*
X68500000Y-102315000I0J-150000D01*
G01*
G37*
G36*
G01*
X68500000Y-101045000D02*
X68500000Y-101345000D01*
G75*
G02*
X68350000Y-101495000I-150000J0D01*
G01*
X66700000Y-101495000D01*
G75*
G02*
X66550000Y-101345000I0J150000D01*
G01*
X66550000Y-101045000D01*
G75*
G02*
X66700000Y-100895000I150000J0D01*
G01*
X68350000Y-100895000D01*
G75*
G02*
X68500000Y-101045000I0J-150000D01*
G01*
G37*
G36*
G01*
X68500000Y-99775000D02*
X68500000Y-100075000D01*
G75*
G02*
X68350000Y-100225000I-150000J0D01*
G01*
X66700000Y-100225000D01*
G75*
G02*
X66550000Y-100075000I0J150000D01*
G01*
X66550000Y-99775000D01*
G75*
G02*
X66700000Y-99625000I150000J0D01*
G01*
X68350000Y-99625000D01*
G75*
G02*
X68500000Y-99775000I0J-150000D01*
G01*
G37*
G36*
G01*
X68500000Y-98505000D02*
X68500000Y-98805000D01*
G75*
G02*
X68350000Y-98955000I-150000J0D01*
G01*
X66700000Y-98955000D01*
G75*
G02*
X66550000Y-98805000I0J150000D01*
G01*
X66550000Y-98505000D01*
G75*
G02*
X66700000Y-98355000I150000J0D01*
G01*
X68350000Y-98355000D01*
G75*
G02*
X68500000Y-98505000I0J-150000D01*
G01*
G37*
D13*
X102800000Y-48910000D03*
D14*
X102800000Y-56530000D03*
D13*
X87000000Y-116990000D03*
D14*
X87000000Y-124610000D03*
D15*
X68830000Y-44220000D03*
D16*
X70100000Y-44220000D03*
X71370000Y-44220000D03*
D13*
X92500000Y-38300000D03*
D14*
X92500000Y-45920000D03*
D13*
X71300000Y-66350000D03*
D14*
X71300000Y-58730000D03*
D13*
X79800000Y-142800000D03*
X79800000Y-137800000D03*
X62900000Y-60910000D03*
D14*
X62900000Y-53290000D03*
D13*
X71800000Y-116990000D03*
D14*
X71800000Y-124610000D03*
D15*
X99270000Y-129270000D03*
D16*
X98000000Y-129270000D03*
X96730000Y-129270000D03*
D17*
X62340000Y-121100000D03*
X59800000Y-121100000D03*
X57260000Y-121100000D03*
D13*
X80200000Y-102700000D03*
X75200000Y-102700000D03*
X99230000Y-138400000D03*
D14*
X91610000Y-138400000D03*
D13*
X83400000Y-63920000D03*
X83400000Y-58920000D03*
X89400000Y-85310000D03*
D14*
X89400000Y-77690000D03*
D13*
X63600000Y-116900000D03*
D14*
X55980000Y-116900000D03*
D17*
X63450000Y-100700000D03*
X60910000Y-100700000D03*
X58370000Y-100700000D03*
D13*
X90000000Y-124610000D03*
D14*
X90000000Y-116990000D03*
G36*
G01*
X100550000Y-104980000D02*
X100550000Y-106180000D01*
G75*
G02*
X100300000Y-106430000I-250000J0D01*
G01*
X99100000Y-106430000D01*
G75*
G02*
X98850000Y-106180000I0J250000D01*
G01*
X98850000Y-104980000D01*
G75*
G02*
X99100000Y-104730000I250000J0D01*
G01*
X100300000Y-104730000D01*
G75*
G02*
X100550000Y-104980000I0J-250000D01*
G01*
G37*
D19*
X97160000Y-105580000D03*
X99700000Y-108120000D03*
X97160000Y-108120000D03*
X99700000Y-110660000D03*
X97160000Y-110660000D03*
X99700000Y-113200000D03*
X97160000Y-113200000D03*
X99700000Y-115740000D03*
X97160000Y-115740000D03*
D13*
X77400000Y-66340000D03*
D14*
X77400000Y-58720000D03*
D18*
X91515112Y-112120000D03*
D13*
X89515112Y-112120000D03*
X65110000Y-143300000D03*
D14*
X57490000Y-143300000D03*
D13*
X56990000Y-63900000D03*
D14*
X64610000Y-63900000D03*
D13*
X56990000Y-69900000D03*
D14*
X64610000Y-69900000D03*
D13*
X78000000Y-124600000D03*
X78000000Y-119600000D03*
D18*
X75775000Y-48520000D03*
D14*
X78315000Y-48520000D03*
X80855000Y-48520000D03*
X83395000Y-48520000D03*
X85935000Y-48520000D03*
X88475000Y-48520000D03*
X91015000Y-48520000D03*
X91015000Y-56140000D03*
X88475000Y-56140000D03*
X85935000Y-56140000D03*
X83395000Y-56140000D03*
X80855000Y-56140000D03*
X78315000Y-56140000D03*
X75775000Y-56140000D03*
D17*
X77160000Y-80500000D03*
X79700000Y-80500000D03*
X82240000Y-80500000D03*
D13*
X89900000Y-75100000D03*
X84900000Y-75100000D03*
G36*
G01*
X83250000Y-68005000D02*
X83250000Y-68305000D01*
G75*
G02*
X83100000Y-68455000I-150000J0D01*
G01*
X81450000Y-68455000D01*
G75*
G02*
X81300000Y-68305000I0J150000D01*
G01*
X81300000Y-68005000D01*
G75*
G02*
X81450000Y-67855000I150000J0D01*
G01*
X83100000Y-67855000D01*
G75*
G02*
X83250000Y-68005000I0J-150000D01*
G01*
G37*
G36*
G01*
X83250000Y-69275000D02*
X83250000Y-69575000D01*
G75*
G02*
X83100000Y-69725000I-150000J0D01*
G01*
X81450000Y-69725000D01*
G75*
G02*
X81300000Y-69575000I0J150000D01*
G01*
X81300000Y-69275000D01*
G75*
G02*
X81450000Y-69125000I150000J0D01*
G01*
X83100000Y-69125000D01*
G75*
G02*
X83250000Y-69275000I0J-150000D01*
G01*
G37*
G36*
G01*
X83250000Y-70545000D02*
X83250000Y-70845000D01*
G75*
G02*
X83100000Y-70995000I-150000J0D01*
G01*
X81450000Y-70995000D01*
G75*
G02*
X81300000Y-70845000I0J150000D01*
G01*
X81300000Y-70545000D01*
G75*
G02*
X81450000Y-70395000I150000J0D01*
G01*
X83100000Y-70395000D01*
G75*
G02*
X83250000Y-70545000I0J-150000D01*
G01*
G37*
G36*
G01*
X83250000Y-71815000D02*
X83250000Y-72115000D01*
G75*
G02*
X83100000Y-72265000I-150000J0D01*
G01*
X81450000Y-72265000D01*
G75*
G02*
X81300000Y-72115000I0J150000D01*
G01*
X81300000Y-71815000D01*
G75*
G02*
X81450000Y-71665000I150000J0D01*
G01*
X83100000Y-71665000D01*
G75*
G02*
X83250000Y-71815000I0J-150000D01*
G01*
G37*
G36*
G01*
X83250000Y-73085000D02*
X83250000Y-73385000D01*
G75*
G02*
X83100000Y-73535000I-150000J0D01*
G01*
X81450000Y-73535000D01*
G75*
G02*
X81300000Y-73385000I0J150000D01*
G01*
X81300000Y-73085000D01*
G75*
G02*
X81450000Y-72935000I150000J0D01*
G01*
X83100000Y-72935000D01*
G75*
G02*
X83250000Y-73085000I0J-150000D01*
G01*
G37*
G36*
G01*
X83250000Y-74355000D02*
X83250000Y-74655000D01*
G75*
G02*
X83100000Y-74805000I-150000J0D01*
G01*
X81450000Y-74805000D01*
G75*
G02*
X81300000Y-74655000I0J150000D01*
G01*
X81300000Y-74355000D01*
G75*
G02*
X81450000Y-74205000I150000J0D01*
G01*
X83100000Y-74205000D01*
G75*
G02*
X83250000Y-74355000I0J-150000D01*
G01*
G37*
G36*
G01*
X83250000Y-75625000D02*
X83250000Y-75925000D01*
G75*
G02*
X83100000Y-76075000I-150000J0D01*
G01*
X81450000Y-76075000D01*
G75*
G02*
X81300000Y-75925000I0J150000D01*
G01*
X81300000Y-75625000D01*
G75*
G02*
X81450000Y-75475000I150000J0D01*
G01*
X83100000Y-75475000D01*
G75*
G02*
X83250000Y-75625000I0J-150000D01*
G01*
G37*
G36*
G01*
X83250000Y-76895000D02*
X83250000Y-77195000D01*
G75*
G02*
X83100000Y-77345000I-150000J0D01*
G01*
X81450000Y-77345000D01*
G75*
G02*
X81300000Y-77195000I0J150000D01*
G01*
X81300000Y-76895000D01*
G75*
G02*
X81450000Y-76745000I150000J0D01*
G01*
X83100000Y-76745000D01*
G75*
G02*
X83250000Y-76895000I0J-150000D01*
G01*
G37*
G36*
G01*
X78300000Y-76895000D02*
X78300000Y-77195000D01*
G75*
G02*
X78150000Y-77345000I-150000J0D01*
G01*
X76500000Y-77345000D01*
G75*
G02*
X76350000Y-77195000I0J150000D01*
G01*
X76350000Y-76895000D01*
G75*
G02*
X76500000Y-76745000I150000J0D01*
G01*
X78150000Y-76745000D01*
G75*
G02*
X78300000Y-76895000I0J-150000D01*
G01*
G37*
G36*
G01*
X78300000Y-75625000D02*
X78300000Y-75925000D01*
G75*
G02*
X78150000Y-76075000I-150000J0D01*
G01*
X76500000Y-76075000D01*
G75*
G02*
X76350000Y-75925000I0J150000D01*
G01*
X76350000Y-75625000D01*
G75*
G02*
X76500000Y-75475000I150000J0D01*
G01*
X78150000Y-75475000D01*
G75*
G02*
X78300000Y-75625000I0J-150000D01*
G01*
G37*
G36*
G01*
X78300000Y-74355000D02*
X78300000Y-74655000D01*
G75*
G02*
X78150000Y-74805000I-150000J0D01*
G01*
X76500000Y-74805000D01*
G75*
G02*
X76350000Y-74655000I0J150000D01*
G01*
X76350000Y-74355000D01*
G75*
G02*
X76500000Y-74205000I150000J0D01*
G01*
X78150000Y-74205000D01*
G75*
G02*
X78300000Y-74355000I0J-150000D01*
G01*
G37*
G36*
G01*
X78300000Y-73085000D02*
X78300000Y-73385000D01*
G75*
G02*
X78150000Y-73535000I-150000J0D01*
G01*
X76500000Y-73535000D01*
G75*
G02*
X76350000Y-73385000I0J150000D01*
G01*
X76350000Y-73085000D01*
G75*
G02*
X76500000Y-72935000I150000J0D01*
G01*
X78150000Y-72935000D01*
G75*
G02*
X78300000Y-73085000I0J-150000D01*
G01*
G37*
G36*
G01*
X78300000Y-71815000D02*
X78300000Y-72115000D01*
G75*
G02*
X78150000Y-72265000I-150000J0D01*
G01*
X76500000Y-72265000D01*
G75*
G02*
X76350000Y-72115000I0J150000D01*
G01*
X76350000Y-71815000D01*
G75*
G02*
X76500000Y-71665000I150000J0D01*
G01*
X78150000Y-71665000D01*
G75*
G02*
X78300000Y-71815000I0J-150000D01*
G01*
G37*
G36*
G01*
X78300000Y-70545000D02*
X78300000Y-70845000D01*
G75*
G02*
X78150000Y-70995000I-150000J0D01*
G01*
X76500000Y-70995000D01*
G75*
G02*
X76350000Y-70845000I0J150000D01*
G01*
X76350000Y-70545000D01*
G75*
G02*
X76500000Y-70395000I150000J0D01*
G01*
X78150000Y-70395000D01*
G75*
G02*
X78300000Y-70545000I0J-150000D01*
G01*
G37*
G36*
G01*
X78300000Y-69275000D02*
X78300000Y-69575000D01*
G75*
G02*
X78150000Y-69725000I-150000J0D01*
G01*
X76500000Y-69725000D01*
G75*
G02*
X76350000Y-69575000I0J150000D01*
G01*
X76350000Y-69275000D01*
G75*
G02*
X76500000Y-69125000I150000J0D01*
G01*
X78150000Y-69125000D01*
G75*
G02*
X78300000Y-69275000I0J-150000D01*
G01*
G37*
G36*
G01*
X78300000Y-68005000D02*
X78300000Y-68305000D01*
G75*
G02*
X78150000Y-68455000I-150000J0D01*
G01*
X76500000Y-68455000D01*
G75*
G02*
X76350000Y-68305000I0J150000D01*
G01*
X76350000Y-68005000D01*
G75*
G02*
X76500000Y-67855000I150000J0D01*
G01*
X78150000Y-67855000D01*
G75*
G02*
X78300000Y-68005000I0J-150000D01*
G01*
G37*
D15*
X66030000Y-132900000D03*
D16*
X67300000Y-132900000D03*
X68570000Y-132900000D03*
D17*
X67100000Y-54260000D03*
X67100000Y-56800000D03*
X67100000Y-59340000D03*
D15*
X94130000Y-54420000D03*
D16*
X95400000Y-54420000D03*
X96670000Y-54420000D03*
D13*
X80400000Y-38210000D03*
D14*
X80400000Y-45830000D03*
D13*
X99800000Y-46420000D03*
D14*
X99800000Y-38800000D03*
D15*
X68600238Y-128800000D03*
D16*
X67330238Y-128800000D03*
X66060238Y-128800000D03*
D20*
X95400000Y-86700000D03*
X57400000Y-115400000D03*
X60800000Y-102700000D03*
X95700000Y-126700000D03*
X80700000Y-84700000D03*
X66500000Y-68800000D03*
X83400000Y-38700000D03*
X71800000Y-109600000D03*
X63800000Y-129400000D03*
X63500000Y-102700000D03*
X64100000Y-137000000D03*
X59200000Y-48800000D03*
X98700000Y-87900000D03*
X71900000Y-49500000D03*
X58400000Y-136900000D03*
X71800000Y-110500000D03*
X65100000Y-49000000D03*
X57800000Y-136100000D03*
X71800000Y-111400000D03*
X71100000Y-54400000D03*
X80000000Y-145200000D03*
X56900000Y-99000000D03*
X71100000Y-55300000D03*
X75100000Y-100900000D03*
X64200000Y-49000000D03*
X98700000Y-87000000D03*
X56900000Y-98100000D03*
X98000000Y-56000000D03*
X65100000Y-137000000D03*
X72800000Y-49500000D03*
X81600000Y-84700000D03*
X64500000Y-102700000D03*
X79800000Y-84700000D03*
X86700000Y-72100000D03*
X95400000Y-87600000D03*
X59200000Y-47900000D03*
X96700000Y-78000000D03*
X84800000Y-78400000D03*
X61250000Y-92650000D03*
X61250000Y-95410659D03*
X59700000Y-108800000D03*
X58500000Y-126300000D03*
X83600000Y-91700000D03*
X74000000Y-100700000D03*
X83650000Y-130050000D03*
X76000000Y-115300000D03*
X75100000Y-114100000D03*
X69750000Y-104449999D03*
X66200000Y-119600000D03*
X85430331Y-80569669D03*
X73500000Y-69000000D03*
X79700000Y-70000000D03*
X95080331Y-74019669D03*
X70500000Y-99400000D03*
M02*
