G04 #@! TF.GenerationSoftware,KiCad,Pcbnew,8.0.6-8.0.6-0~ubuntu22.04.1*
G04 #@! TF.CreationDate,2025-01-15T16:43:41+00:00*
G04 #@! TF.ProjectId,Basic_VCA,42617369-635f-4564-9341-2e6b69636164,rev?*
G04 #@! TF.SameCoordinates,Original*
G04 #@! TF.FileFunction,Legend,Top*
G04 #@! TF.FilePolarity,Positive*
%FSLAX46Y46*%
G04 Gerber Fmt 4.6, Leading zero omitted, Abs format (unit mm)*
G04 Created by KiCad (PCBNEW 8.0.6-8.0.6-0~ubuntu22.04.1) date 2025-01-15 16:43:41*
%MOMM*%
%LPD*%
G01*
G04 APERTURE LIST*
%ADD10C,0.300000*%
%ADD11C,0.150000*%
%ADD12C,0.120000*%
%ADD13C,0.000000*%
%ADD14R,1.700000X1.700000*%
%ADD15O,1.700000X1.700000*%
%ADD16C,3.200000*%
%ADD17C,1.600000*%
%ADD18O,1.600000X1.600000*%
%ADD19R,1.050000X1.500000*%
%ADD20O,1.050000X1.500000*%
%ADD21C,1.440000*%
%ADD22R,1.600000X1.600000*%
%ADD23C,1.700000*%
%ADD24C,0.800000*%
G04 APERTURE END LIST*
D10*
X103321671Y-127671428D02*
X102250242Y-127671428D01*
X102250242Y-127671428D02*
X102035957Y-127599999D01*
X102035957Y-127599999D02*
X101893100Y-127457142D01*
X101893100Y-127457142D02*
X101821671Y-127242856D01*
X101821671Y-127242856D02*
X101821671Y-127099999D01*
X101821671Y-129099999D02*
X101821671Y-128385713D01*
X101821671Y-128385713D02*
X103321671Y-128385713D01*
X101964528Y-130457142D02*
X101893100Y-130385714D01*
X101893100Y-130385714D02*
X101821671Y-130171428D01*
X101821671Y-130171428D02*
X101821671Y-130028571D01*
X101821671Y-130028571D02*
X101893100Y-129814285D01*
X101893100Y-129814285D02*
X102035957Y-129671428D01*
X102035957Y-129671428D02*
X102178814Y-129599999D01*
X102178814Y-129599999D02*
X102464528Y-129528571D01*
X102464528Y-129528571D02*
X102678814Y-129528571D01*
X102678814Y-129528571D02*
X102964528Y-129599999D01*
X102964528Y-129599999D02*
X103107385Y-129671428D01*
X103107385Y-129671428D02*
X103250242Y-129814285D01*
X103250242Y-129814285D02*
X103321671Y-130028571D01*
X103321671Y-130028571D02*
X103321671Y-130171428D01*
X103321671Y-130171428D02*
X103250242Y-130385714D01*
X103250242Y-130385714D02*
X103178814Y-130457142D01*
X103321671Y-131528571D02*
X102250242Y-131528571D01*
X102250242Y-131528571D02*
X102035957Y-131457142D01*
X102035957Y-131457142D02*
X101893100Y-131314285D01*
X101893100Y-131314285D02*
X101821671Y-131099999D01*
X101821671Y-131099999D02*
X101821671Y-130957142D01*
X101821671Y-132957142D02*
X101821671Y-132242856D01*
X101821671Y-132242856D02*
X103321671Y-132242856D01*
X101964528Y-134314285D02*
X101893100Y-134242857D01*
X101893100Y-134242857D02*
X101821671Y-134028571D01*
X101821671Y-134028571D02*
X101821671Y-133885714D01*
X101821671Y-133885714D02*
X101893100Y-133671428D01*
X101893100Y-133671428D02*
X102035957Y-133528571D01*
X102035957Y-133528571D02*
X102178814Y-133457142D01*
X102178814Y-133457142D02*
X102464528Y-133385714D01*
X102464528Y-133385714D02*
X102678814Y-133385714D01*
X102678814Y-133385714D02*
X102964528Y-133457142D01*
X102964528Y-133457142D02*
X103107385Y-133528571D01*
X103107385Y-133528571D02*
X103250242Y-133671428D01*
X103250242Y-133671428D02*
X103321671Y-133885714D01*
X103321671Y-133885714D02*
X103321671Y-134028571D01*
X103321671Y-134028571D02*
X103250242Y-134242857D01*
X103250242Y-134242857D02*
X103178814Y-134314285D01*
X103321671Y-135385714D02*
X102250242Y-135385714D01*
X102250242Y-135385714D02*
X102035957Y-135314285D01*
X102035957Y-135314285D02*
X101893100Y-135171428D01*
X101893100Y-135171428D02*
X101821671Y-134957142D01*
X101821671Y-134957142D02*
X101821671Y-134814285D01*
X101821671Y-136814285D02*
X101821671Y-136099999D01*
X101821671Y-136099999D02*
X103321671Y-136099999D01*
X101964528Y-138171428D02*
X101893100Y-138100000D01*
X101893100Y-138100000D02*
X101821671Y-137885714D01*
X101821671Y-137885714D02*
X101821671Y-137742857D01*
X101821671Y-137742857D02*
X101893100Y-137528571D01*
X101893100Y-137528571D02*
X102035957Y-137385714D01*
X102035957Y-137385714D02*
X102178814Y-137314285D01*
X102178814Y-137314285D02*
X102464528Y-137242857D01*
X102464528Y-137242857D02*
X102678814Y-137242857D01*
X102678814Y-137242857D02*
X102964528Y-137314285D01*
X102964528Y-137314285D02*
X103107385Y-137385714D01*
X103107385Y-137385714D02*
X103250242Y-137528571D01*
X103250242Y-137528571D02*
X103321671Y-137742857D01*
X103321671Y-137742857D02*
X103321671Y-137885714D01*
X103321671Y-137885714D02*
X103250242Y-138100000D01*
X103250242Y-138100000D02*
X103178814Y-138171428D01*
X103321671Y-139242857D02*
X102250242Y-139242857D01*
X102250242Y-139242857D02*
X102035957Y-139171428D01*
X102035957Y-139171428D02*
X101893100Y-139028571D01*
X101893100Y-139028571D02*
X101821671Y-138814285D01*
X101821671Y-138814285D02*
X101821671Y-138671428D01*
X101821671Y-140671428D02*
X101821671Y-139957142D01*
X101821671Y-139957142D02*
X103321671Y-139957142D01*
X101964528Y-142028571D02*
X101893100Y-141957143D01*
X101893100Y-141957143D02*
X101821671Y-141742857D01*
X101821671Y-141742857D02*
X101821671Y-141600000D01*
X101821671Y-141600000D02*
X101893100Y-141385714D01*
X101893100Y-141385714D02*
X102035957Y-141242857D01*
X102035957Y-141242857D02*
X102178814Y-141171428D01*
X102178814Y-141171428D02*
X102464528Y-141100000D01*
X102464528Y-141100000D02*
X102678814Y-141100000D01*
X102678814Y-141100000D02*
X102964528Y-141171428D01*
X102964528Y-141171428D02*
X103107385Y-141242857D01*
X103107385Y-141242857D02*
X103250242Y-141385714D01*
X103250242Y-141385714D02*
X103321671Y-141600000D01*
X103321671Y-141600000D02*
X103321671Y-141742857D01*
X103321671Y-141742857D02*
X103250242Y-141957143D01*
X103250242Y-141957143D02*
X103178814Y-142028571D01*
D11*
X88045085Y-96885714D02*
X87997466Y-96980952D01*
X87997466Y-96980952D02*
X87902228Y-97076190D01*
X87902228Y-97076190D02*
X87759370Y-97219047D01*
X87759370Y-97219047D02*
X87711751Y-97314285D01*
X87711751Y-97314285D02*
X87711751Y-97409523D01*
X87949847Y-97361904D02*
X87902228Y-97457142D01*
X87902228Y-97457142D02*
X87806989Y-97552380D01*
X87806989Y-97552380D02*
X87616513Y-97599999D01*
X87616513Y-97599999D02*
X87283180Y-97599999D01*
X87283180Y-97599999D02*
X87092704Y-97552380D01*
X87092704Y-97552380D02*
X86997466Y-97457142D01*
X86997466Y-97457142D02*
X86949847Y-97361904D01*
X86949847Y-97361904D02*
X86949847Y-97171428D01*
X86949847Y-97171428D02*
X86997466Y-97076190D01*
X86997466Y-97076190D02*
X87092704Y-96980952D01*
X87092704Y-96980952D02*
X87283180Y-96933333D01*
X87283180Y-96933333D02*
X87616513Y-96933333D01*
X87616513Y-96933333D02*
X87806989Y-96980952D01*
X87806989Y-96980952D02*
X87902228Y-97076190D01*
X87902228Y-97076190D02*
X87949847Y-97171428D01*
X87949847Y-97171428D02*
X87949847Y-97361904D01*
X87283180Y-96076190D02*
X87949847Y-96076190D01*
X87283180Y-96504761D02*
X87806989Y-96504761D01*
X87806989Y-96504761D02*
X87902228Y-96457142D01*
X87902228Y-96457142D02*
X87949847Y-96361904D01*
X87949847Y-96361904D02*
X87949847Y-96219047D01*
X87949847Y-96219047D02*
X87902228Y-96123809D01*
X87902228Y-96123809D02*
X87854608Y-96076190D01*
X87949847Y-95171428D02*
X87426037Y-95171428D01*
X87426037Y-95171428D02*
X87330799Y-95219047D01*
X87330799Y-95219047D02*
X87283180Y-95314285D01*
X87283180Y-95314285D02*
X87283180Y-95504761D01*
X87283180Y-95504761D02*
X87330799Y-95599999D01*
X87902228Y-95171428D02*
X87949847Y-95266666D01*
X87949847Y-95266666D02*
X87949847Y-95504761D01*
X87949847Y-95504761D02*
X87902228Y-95599999D01*
X87902228Y-95599999D02*
X87806989Y-95647618D01*
X87806989Y-95647618D02*
X87711751Y-95647618D01*
X87711751Y-95647618D02*
X87616513Y-95599999D01*
X87616513Y-95599999D02*
X87568894Y-95504761D01*
X87568894Y-95504761D02*
X87568894Y-95266666D01*
X87568894Y-95266666D02*
X87521275Y-95171428D01*
X87949847Y-94266666D02*
X86949847Y-94266666D01*
X87902228Y-94266666D02*
X87949847Y-94361904D01*
X87949847Y-94361904D02*
X87949847Y-94552380D01*
X87949847Y-94552380D02*
X87902228Y-94647618D01*
X87902228Y-94647618D02*
X87854608Y-94695237D01*
X87854608Y-94695237D02*
X87759370Y-94742856D01*
X87759370Y-94742856D02*
X87473656Y-94742856D01*
X87473656Y-94742856D02*
X87378418Y-94695237D01*
X87378418Y-94695237D02*
X87330799Y-94647618D01*
X87330799Y-94647618D02*
X87283180Y-94552380D01*
X87283180Y-94552380D02*
X87283180Y-94361904D01*
X87283180Y-94361904D02*
X87330799Y-94266666D01*
X86949847Y-93171427D02*
X87949847Y-92838094D01*
X87949847Y-92838094D02*
X86949847Y-92504761D01*
X87854608Y-91599999D02*
X87902228Y-91647618D01*
X87902228Y-91647618D02*
X87949847Y-91790475D01*
X87949847Y-91790475D02*
X87949847Y-91885713D01*
X87949847Y-91885713D02*
X87902228Y-92028570D01*
X87902228Y-92028570D02*
X87806989Y-92123808D01*
X87806989Y-92123808D02*
X87711751Y-92171427D01*
X87711751Y-92171427D02*
X87521275Y-92219046D01*
X87521275Y-92219046D02*
X87378418Y-92219046D01*
X87378418Y-92219046D02*
X87187942Y-92171427D01*
X87187942Y-92171427D02*
X87092704Y-92123808D01*
X87092704Y-92123808D02*
X86997466Y-92028570D01*
X86997466Y-92028570D02*
X86949847Y-91885713D01*
X86949847Y-91885713D02*
X86949847Y-91790475D01*
X86949847Y-91790475D02*
X86997466Y-91647618D01*
X86997466Y-91647618D02*
X87045085Y-91599999D01*
X87664132Y-91219046D02*
X87664132Y-90742856D01*
X87949847Y-91314284D02*
X86949847Y-90980951D01*
X86949847Y-90980951D02*
X87949847Y-90647618D01*
X87949847Y-89028570D02*
X87949847Y-89599998D01*
X87949847Y-89314284D02*
X86949847Y-89314284D01*
X86949847Y-89314284D02*
X87092704Y-89409522D01*
X87092704Y-89409522D02*
X87187942Y-89504760D01*
X87187942Y-89504760D02*
X87235561Y-89599998D01*
X87854608Y-88599998D02*
X87902228Y-88552379D01*
X87902228Y-88552379D02*
X87949847Y-88599998D01*
X87949847Y-88599998D02*
X87902228Y-88647617D01*
X87902228Y-88647617D02*
X87854608Y-88599998D01*
X87854608Y-88599998D02*
X87949847Y-88599998D01*
X86949847Y-87933332D02*
X86949847Y-87838094D01*
X86949847Y-87838094D02*
X86997466Y-87742856D01*
X86997466Y-87742856D02*
X87045085Y-87695237D01*
X87045085Y-87695237D02*
X87140323Y-87647618D01*
X87140323Y-87647618D02*
X87330799Y-87599999D01*
X87330799Y-87599999D02*
X87568894Y-87599999D01*
X87568894Y-87599999D02*
X87759370Y-87647618D01*
X87759370Y-87647618D02*
X87854608Y-87695237D01*
X87854608Y-87695237D02*
X87902228Y-87742856D01*
X87902228Y-87742856D02*
X87949847Y-87838094D01*
X87949847Y-87838094D02*
X87949847Y-87933332D01*
X87949847Y-87933332D02*
X87902228Y-88028570D01*
X87902228Y-88028570D02*
X87854608Y-88076189D01*
X87854608Y-88076189D02*
X87759370Y-88123808D01*
X87759370Y-88123808D02*
X87568894Y-88171427D01*
X87568894Y-88171427D02*
X87330799Y-88171427D01*
X87330799Y-88171427D02*
X87140323Y-88123808D01*
X87140323Y-88123808D02*
X87045085Y-88076189D01*
X87045085Y-88076189D02*
X86997466Y-88028570D01*
X86997466Y-88028570D02*
X86949847Y-87933332D01*
X89035981Y-99052381D02*
X89083600Y-98909524D01*
X89083600Y-98909524D02*
X89131219Y-98861905D01*
X89131219Y-98861905D02*
X89226457Y-98814286D01*
X89226457Y-98814286D02*
X89369314Y-98814286D01*
X89369314Y-98814286D02*
X89464552Y-98861905D01*
X89464552Y-98861905D02*
X89512172Y-98909524D01*
X89512172Y-98909524D02*
X89559791Y-99004762D01*
X89559791Y-99004762D02*
X89559791Y-99385714D01*
X89559791Y-99385714D02*
X88559791Y-99385714D01*
X88559791Y-99385714D02*
X88559791Y-99052381D01*
X88559791Y-99052381D02*
X88607410Y-98957143D01*
X88607410Y-98957143D02*
X88655029Y-98909524D01*
X88655029Y-98909524D02*
X88750267Y-98861905D01*
X88750267Y-98861905D02*
X88845505Y-98861905D01*
X88845505Y-98861905D02*
X88940743Y-98909524D01*
X88940743Y-98909524D02*
X88988362Y-98957143D01*
X88988362Y-98957143D02*
X89035981Y-99052381D01*
X89035981Y-99052381D02*
X89035981Y-99385714D01*
X89559791Y-98242857D02*
X89512172Y-98338095D01*
X89512172Y-98338095D02*
X89416933Y-98385714D01*
X89416933Y-98385714D02*
X88559791Y-98385714D01*
X89512172Y-97480952D02*
X89559791Y-97576190D01*
X89559791Y-97576190D02*
X89559791Y-97766666D01*
X89559791Y-97766666D02*
X89512172Y-97861904D01*
X89512172Y-97861904D02*
X89416933Y-97909523D01*
X89416933Y-97909523D02*
X89035981Y-97909523D01*
X89035981Y-97909523D02*
X88940743Y-97861904D01*
X88940743Y-97861904D02*
X88893124Y-97766666D01*
X88893124Y-97766666D02*
X88893124Y-97576190D01*
X88893124Y-97576190D02*
X88940743Y-97480952D01*
X88940743Y-97480952D02*
X89035981Y-97433333D01*
X89035981Y-97433333D02*
X89131219Y-97433333D01*
X89131219Y-97433333D02*
X89226457Y-97909523D01*
X89512172Y-96623809D02*
X89559791Y-96719047D01*
X89559791Y-96719047D02*
X89559791Y-96909523D01*
X89559791Y-96909523D02*
X89512172Y-97004761D01*
X89512172Y-97004761D02*
X89416933Y-97052380D01*
X89416933Y-97052380D02*
X89035981Y-97052380D01*
X89035981Y-97052380D02*
X88940743Y-97004761D01*
X88940743Y-97004761D02*
X88893124Y-96909523D01*
X88893124Y-96909523D02*
X88893124Y-96719047D01*
X88893124Y-96719047D02*
X88940743Y-96623809D01*
X88940743Y-96623809D02*
X89035981Y-96576190D01*
X89035981Y-96576190D02*
X89131219Y-96576190D01*
X89131219Y-96576190D02*
X89226457Y-97052380D01*
X88893124Y-96147618D02*
X89893124Y-96147618D01*
X88940743Y-96147618D02*
X88893124Y-96052380D01*
X88893124Y-96052380D02*
X88893124Y-95861904D01*
X88893124Y-95861904D02*
X88940743Y-95766666D01*
X88940743Y-95766666D02*
X88988362Y-95719047D01*
X88988362Y-95719047D02*
X89083600Y-95671428D01*
X89083600Y-95671428D02*
X89369314Y-95671428D01*
X89369314Y-95671428D02*
X89464552Y-95719047D01*
X89464552Y-95719047D02*
X89512172Y-95766666D01*
X89512172Y-95766666D02*
X89559791Y-95861904D01*
X89559791Y-95861904D02*
X89559791Y-96052380D01*
X89559791Y-96052380D02*
X89512172Y-96147618D01*
X89512172Y-94528570D02*
X89559791Y-94385713D01*
X89559791Y-94385713D02*
X89559791Y-94147618D01*
X89559791Y-94147618D02*
X89512172Y-94052380D01*
X89512172Y-94052380D02*
X89464552Y-94004761D01*
X89464552Y-94004761D02*
X89369314Y-93957142D01*
X89369314Y-93957142D02*
X89274076Y-93957142D01*
X89274076Y-93957142D02*
X89178838Y-94004761D01*
X89178838Y-94004761D02*
X89131219Y-94052380D01*
X89131219Y-94052380D02*
X89083600Y-94147618D01*
X89083600Y-94147618D02*
X89035981Y-94338094D01*
X89035981Y-94338094D02*
X88988362Y-94433332D01*
X88988362Y-94433332D02*
X88940743Y-94480951D01*
X88940743Y-94480951D02*
X88845505Y-94528570D01*
X88845505Y-94528570D02*
X88750267Y-94528570D01*
X88750267Y-94528570D02*
X88655029Y-94480951D01*
X88655029Y-94480951D02*
X88607410Y-94433332D01*
X88607410Y-94433332D02*
X88559791Y-94338094D01*
X88559791Y-94338094D02*
X88559791Y-94099999D01*
X88559791Y-94099999D02*
X88607410Y-93957142D01*
X89559791Y-93385713D02*
X89512172Y-93480951D01*
X89512172Y-93480951D02*
X89464552Y-93528570D01*
X89464552Y-93528570D02*
X89369314Y-93576189D01*
X89369314Y-93576189D02*
X89083600Y-93576189D01*
X89083600Y-93576189D02*
X88988362Y-93528570D01*
X88988362Y-93528570D02*
X88940743Y-93480951D01*
X88940743Y-93480951D02*
X88893124Y-93385713D01*
X88893124Y-93385713D02*
X88893124Y-93242856D01*
X88893124Y-93242856D02*
X88940743Y-93147618D01*
X88940743Y-93147618D02*
X88988362Y-93099999D01*
X88988362Y-93099999D02*
X89083600Y-93052380D01*
X89083600Y-93052380D02*
X89369314Y-93052380D01*
X89369314Y-93052380D02*
X89464552Y-93099999D01*
X89464552Y-93099999D02*
X89512172Y-93147618D01*
X89512172Y-93147618D02*
X89559791Y-93242856D01*
X89559791Y-93242856D02*
X89559791Y-93385713D01*
X88893124Y-92195237D02*
X89559791Y-92195237D01*
X88893124Y-92623808D02*
X89416933Y-92623808D01*
X89416933Y-92623808D02*
X89512172Y-92576189D01*
X89512172Y-92576189D02*
X89559791Y-92480951D01*
X89559791Y-92480951D02*
X89559791Y-92338094D01*
X89559791Y-92338094D02*
X89512172Y-92242856D01*
X89512172Y-92242856D02*
X89464552Y-92195237D01*
X88893124Y-91719046D02*
X89559791Y-91719046D01*
X88988362Y-91719046D02*
X88940743Y-91671427D01*
X88940743Y-91671427D02*
X88893124Y-91576189D01*
X88893124Y-91576189D02*
X88893124Y-91433332D01*
X88893124Y-91433332D02*
X88940743Y-91338094D01*
X88940743Y-91338094D02*
X89035981Y-91290475D01*
X89035981Y-91290475D02*
X89559791Y-91290475D01*
X89559791Y-90385713D02*
X88559791Y-90385713D01*
X89512172Y-90385713D02*
X89559791Y-90480951D01*
X89559791Y-90480951D02*
X89559791Y-90671427D01*
X89559791Y-90671427D02*
X89512172Y-90766665D01*
X89512172Y-90766665D02*
X89464552Y-90814284D01*
X89464552Y-90814284D02*
X89369314Y-90861903D01*
X89369314Y-90861903D02*
X89083600Y-90861903D01*
X89083600Y-90861903D02*
X88988362Y-90814284D01*
X88988362Y-90814284D02*
X88940743Y-90766665D01*
X88940743Y-90766665D02*
X88893124Y-90671427D01*
X88893124Y-90671427D02*
X88893124Y-90480951D01*
X88893124Y-90480951D02*
X88940743Y-90385713D01*
X88655029Y-89195236D02*
X88607410Y-89147617D01*
X88607410Y-89147617D02*
X88559791Y-89052379D01*
X88559791Y-89052379D02*
X88559791Y-88814284D01*
X88559791Y-88814284D02*
X88607410Y-88719046D01*
X88607410Y-88719046D02*
X88655029Y-88671427D01*
X88655029Y-88671427D02*
X88750267Y-88623808D01*
X88750267Y-88623808D02*
X88845505Y-88623808D01*
X88845505Y-88623808D02*
X88988362Y-88671427D01*
X88988362Y-88671427D02*
X89559791Y-89242855D01*
X89559791Y-89242855D02*
X89559791Y-88623808D01*
X88559791Y-88004760D02*
X88559791Y-87909522D01*
X88559791Y-87909522D02*
X88607410Y-87814284D01*
X88607410Y-87814284D02*
X88655029Y-87766665D01*
X88655029Y-87766665D02*
X88750267Y-87719046D01*
X88750267Y-87719046D02*
X88940743Y-87671427D01*
X88940743Y-87671427D02*
X89178838Y-87671427D01*
X89178838Y-87671427D02*
X89369314Y-87719046D01*
X89369314Y-87719046D02*
X89464552Y-87766665D01*
X89464552Y-87766665D02*
X89512172Y-87814284D01*
X89512172Y-87814284D02*
X89559791Y-87909522D01*
X89559791Y-87909522D02*
X89559791Y-88004760D01*
X89559791Y-88004760D02*
X89512172Y-88099998D01*
X89512172Y-88099998D02*
X89464552Y-88147617D01*
X89464552Y-88147617D02*
X89369314Y-88195236D01*
X89369314Y-88195236D02*
X89178838Y-88242855D01*
X89178838Y-88242855D02*
X88940743Y-88242855D01*
X88940743Y-88242855D02*
X88750267Y-88195236D01*
X88750267Y-88195236D02*
X88655029Y-88147617D01*
X88655029Y-88147617D02*
X88607410Y-88099998D01*
X88607410Y-88099998D02*
X88559791Y-88004760D01*
X88655029Y-87290474D02*
X88607410Y-87242855D01*
X88607410Y-87242855D02*
X88559791Y-87147617D01*
X88559791Y-87147617D02*
X88559791Y-86909522D01*
X88559791Y-86909522D02*
X88607410Y-86814284D01*
X88607410Y-86814284D02*
X88655029Y-86766665D01*
X88655029Y-86766665D02*
X88750267Y-86719046D01*
X88750267Y-86719046D02*
X88845505Y-86719046D01*
X88845505Y-86719046D02*
X88988362Y-86766665D01*
X88988362Y-86766665D02*
X89559791Y-87338093D01*
X89559791Y-87338093D02*
X89559791Y-86719046D01*
X88559791Y-85814284D02*
X88559791Y-86290474D01*
X88559791Y-86290474D02*
X89035981Y-86338093D01*
X89035981Y-86338093D02*
X88988362Y-86290474D01*
X88988362Y-86290474D02*
X88940743Y-86195236D01*
X88940743Y-86195236D02*
X88940743Y-85957141D01*
X88940743Y-85957141D02*
X88988362Y-85861903D01*
X88988362Y-85861903D02*
X89035981Y-85814284D01*
X89035981Y-85814284D02*
X89131219Y-85766665D01*
X89131219Y-85766665D02*
X89369314Y-85766665D01*
X89369314Y-85766665D02*
X89464552Y-85814284D01*
X89464552Y-85814284D02*
X89512172Y-85861903D01*
X89512172Y-85861903D02*
X89559791Y-85957141D01*
X89559791Y-85957141D02*
X89559791Y-86195236D01*
X89559791Y-86195236D02*
X89512172Y-86290474D01*
X89512172Y-86290474D02*
X89464552Y-86338093D01*
X90531009Y-95452381D02*
X90578628Y-95309524D01*
X90578628Y-95309524D02*
X90626247Y-95261905D01*
X90626247Y-95261905D02*
X90721485Y-95214286D01*
X90721485Y-95214286D02*
X90864342Y-95214286D01*
X90864342Y-95214286D02*
X90959580Y-95261905D01*
X90959580Y-95261905D02*
X91007200Y-95309524D01*
X91007200Y-95309524D02*
X91054819Y-95404762D01*
X91054819Y-95404762D02*
X91054819Y-95785714D01*
X91054819Y-95785714D02*
X90054819Y-95785714D01*
X90054819Y-95785714D02*
X90054819Y-95452381D01*
X90054819Y-95452381D02*
X90102438Y-95357143D01*
X90102438Y-95357143D02*
X90150057Y-95309524D01*
X90150057Y-95309524D02*
X90245295Y-95261905D01*
X90245295Y-95261905D02*
X90340533Y-95261905D01*
X90340533Y-95261905D02*
X90435771Y-95309524D01*
X90435771Y-95309524D02*
X90483390Y-95357143D01*
X90483390Y-95357143D02*
X90531009Y-95452381D01*
X90531009Y-95452381D02*
X90531009Y-95785714D01*
X91054819Y-94642857D02*
X91007200Y-94738095D01*
X91007200Y-94738095D02*
X90959580Y-94785714D01*
X90959580Y-94785714D02*
X90864342Y-94833333D01*
X90864342Y-94833333D02*
X90578628Y-94833333D01*
X90578628Y-94833333D02*
X90483390Y-94785714D01*
X90483390Y-94785714D02*
X90435771Y-94738095D01*
X90435771Y-94738095D02*
X90388152Y-94642857D01*
X90388152Y-94642857D02*
X90388152Y-94500000D01*
X90388152Y-94500000D02*
X90435771Y-94404762D01*
X90435771Y-94404762D02*
X90483390Y-94357143D01*
X90483390Y-94357143D02*
X90578628Y-94309524D01*
X90578628Y-94309524D02*
X90864342Y-94309524D01*
X90864342Y-94309524D02*
X90959580Y-94357143D01*
X90959580Y-94357143D02*
X91007200Y-94404762D01*
X91007200Y-94404762D02*
X91054819Y-94500000D01*
X91054819Y-94500000D02*
X91054819Y-94642857D01*
X91054819Y-93452381D02*
X90531009Y-93452381D01*
X90531009Y-93452381D02*
X90435771Y-93500000D01*
X90435771Y-93500000D02*
X90388152Y-93595238D01*
X90388152Y-93595238D02*
X90388152Y-93785714D01*
X90388152Y-93785714D02*
X90435771Y-93880952D01*
X91007200Y-93452381D02*
X91054819Y-93547619D01*
X91054819Y-93547619D02*
X91054819Y-93785714D01*
X91054819Y-93785714D02*
X91007200Y-93880952D01*
X91007200Y-93880952D02*
X90911961Y-93928571D01*
X90911961Y-93928571D02*
X90816723Y-93928571D01*
X90816723Y-93928571D02*
X90721485Y-93880952D01*
X90721485Y-93880952D02*
X90673866Y-93785714D01*
X90673866Y-93785714D02*
X90673866Y-93547619D01*
X90673866Y-93547619D02*
X90626247Y-93452381D01*
X91054819Y-92976190D02*
X90388152Y-92976190D01*
X90578628Y-92976190D02*
X90483390Y-92928571D01*
X90483390Y-92928571D02*
X90435771Y-92880952D01*
X90435771Y-92880952D02*
X90388152Y-92785714D01*
X90388152Y-92785714D02*
X90388152Y-92690476D01*
X91054819Y-91928571D02*
X90054819Y-91928571D01*
X91007200Y-91928571D02*
X91054819Y-92023809D01*
X91054819Y-92023809D02*
X91054819Y-92214285D01*
X91054819Y-92214285D02*
X91007200Y-92309523D01*
X91007200Y-92309523D02*
X90959580Y-92357142D01*
X90959580Y-92357142D02*
X90864342Y-92404761D01*
X90864342Y-92404761D02*
X90578628Y-92404761D01*
X90578628Y-92404761D02*
X90483390Y-92357142D01*
X90483390Y-92357142D02*
X90435771Y-92309523D01*
X90435771Y-92309523D02*
X90388152Y-92214285D01*
X90388152Y-92214285D02*
X90388152Y-92023809D01*
X90388152Y-92023809D02*
X90435771Y-91928571D01*
X91054819Y-90166666D02*
X91054819Y-90738094D01*
X91054819Y-90452380D02*
X90054819Y-90452380D01*
X90054819Y-90452380D02*
X90197676Y-90547618D01*
X90197676Y-90547618D02*
X90292914Y-90642856D01*
X90292914Y-90642856D02*
X90340533Y-90738094D01*
X92190476Y-73384819D02*
X92190476Y-74099104D01*
X92190476Y-74099104D02*
X92142857Y-74241961D01*
X92142857Y-74241961D02*
X92047619Y-74337200D01*
X92047619Y-74337200D02*
X91904762Y-74384819D01*
X91904762Y-74384819D02*
X91809524Y-74384819D01*
X93190476Y-74384819D02*
X92619048Y-74384819D01*
X92904762Y-74384819D02*
X92904762Y-73384819D01*
X92904762Y-73384819D02*
X92809524Y-73527676D01*
X92809524Y-73527676D02*
X92714286Y-73622914D01*
X92714286Y-73622914D02*
X92619048Y-73670533D01*
X93523810Y-73384819D02*
X94190476Y-73384819D01*
X94190476Y-73384819D02*
X93761905Y-74384819D01*
X55066666Y-73454819D02*
X55066666Y-74169104D01*
X55066666Y-74169104D02*
X55019047Y-74311961D01*
X55019047Y-74311961D02*
X54923809Y-74407200D01*
X54923809Y-74407200D02*
X54780952Y-74454819D01*
X54780952Y-74454819D02*
X54685714Y-74454819D01*
X55447619Y-73454819D02*
X56066666Y-73454819D01*
X56066666Y-73454819D02*
X55733333Y-73835771D01*
X55733333Y-73835771D02*
X55876190Y-73835771D01*
X55876190Y-73835771D02*
X55971428Y-73883390D01*
X55971428Y-73883390D02*
X56019047Y-73931009D01*
X56019047Y-73931009D02*
X56066666Y-74026247D01*
X56066666Y-74026247D02*
X56066666Y-74264342D01*
X56066666Y-74264342D02*
X56019047Y-74359580D01*
X56019047Y-74359580D02*
X55971428Y-74407200D01*
X55971428Y-74407200D02*
X55876190Y-74454819D01*
X55876190Y-74454819D02*
X55590476Y-74454819D01*
X55590476Y-74454819D02*
X55495238Y-74407200D01*
X55495238Y-74407200D02*
X55447619Y-74359580D01*
X90684819Y-98733333D02*
X91399104Y-98733333D01*
X91399104Y-98733333D02*
X91541961Y-98780952D01*
X91541961Y-98780952D02*
X91637200Y-98876190D01*
X91637200Y-98876190D02*
X91684819Y-99019047D01*
X91684819Y-99019047D02*
X91684819Y-99114285D01*
X91018152Y-97828571D02*
X91684819Y-97828571D01*
X90637200Y-98066666D02*
X91351485Y-98304761D01*
X91351485Y-98304761D02*
X91351485Y-97685714D01*
X101890476Y-73384819D02*
X101890476Y-74099104D01*
X101890476Y-74099104D02*
X101842857Y-74241961D01*
X101842857Y-74241961D02*
X101747619Y-74337200D01*
X101747619Y-74337200D02*
X101604762Y-74384819D01*
X101604762Y-74384819D02*
X101509524Y-74384819D01*
X102319048Y-73480057D02*
X102366667Y-73432438D01*
X102366667Y-73432438D02*
X102461905Y-73384819D01*
X102461905Y-73384819D02*
X102700000Y-73384819D01*
X102700000Y-73384819D02*
X102795238Y-73432438D01*
X102795238Y-73432438D02*
X102842857Y-73480057D01*
X102842857Y-73480057D02*
X102890476Y-73575295D01*
X102890476Y-73575295D02*
X102890476Y-73670533D01*
X102890476Y-73670533D02*
X102842857Y-73813390D01*
X102842857Y-73813390D02*
X102271429Y-74384819D01*
X102271429Y-74384819D02*
X102890476Y-74384819D01*
X103271429Y-73480057D02*
X103319048Y-73432438D01*
X103319048Y-73432438D02*
X103414286Y-73384819D01*
X103414286Y-73384819D02*
X103652381Y-73384819D01*
X103652381Y-73384819D02*
X103747619Y-73432438D01*
X103747619Y-73432438D02*
X103795238Y-73480057D01*
X103795238Y-73480057D02*
X103842857Y-73575295D01*
X103842857Y-73575295D02*
X103842857Y-73670533D01*
X103842857Y-73670533D02*
X103795238Y-73813390D01*
X103795238Y-73813390D02*
X103223810Y-74384819D01*
X103223810Y-74384819D02*
X103842857Y-74384819D01*
X65790476Y-73454819D02*
X65790476Y-74169104D01*
X65790476Y-74169104D02*
X65742857Y-74311961D01*
X65742857Y-74311961D02*
X65647619Y-74407200D01*
X65647619Y-74407200D02*
X65504762Y-74454819D01*
X65504762Y-74454819D02*
X65409524Y-74454819D01*
X66790476Y-74454819D02*
X66219048Y-74454819D01*
X66504762Y-74454819D02*
X66504762Y-73454819D01*
X66504762Y-73454819D02*
X66409524Y-73597676D01*
X66409524Y-73597676D02*
X66314286Y-73692914D01*
X66314286Y-73692914D02*
X66219048Y-73740533D01*
X67171429Y-73550057D02*
X67219048Y-73502438D01*
X67219048Y-73502438D02*
X67314286Y-73454819D01*
X67314286Y-73454819D02*
X67552381Y-73454819D01*
X67552381Y-73454819D02*
X67647619Y-73502438D01*
X67647619Y-73502438D02*
X67695238Y-73550057D01*
X67695238Y-73550057D02*
X67742857Y-73645295D01*
X67742857Y-73645295D02*
X67742857Y-73740533D01*
X67742857Y-73740533D02*
X67695238Y-73883390D01*
X67695238Y-73883390D02*
X67123810Y-74454819D01*
X67123810Y-74454819D02*
X67742857Y-74454819D01*
D12*
X91670000Y-77970000D02*
X91670000Y-95810000D01*
X91670000Y-77970000D02*
X94330000Y-77970000D01*
X91670000Y-95810000D02*
X94330000Y-95810000D01*
X93000000Y-75370000D02*
X94330000Y-75370000D01*
X94330000Y-75370000D02*
X94330000Y-76700000D01*
X94330000Y-77970000D02*
X94330000Y-95810000D01*
X54970000Y-77970000D02*
X54970000Y-95810000D01*
X54970000Y-77970000D02*
X57630000Y-77970000D01*
X54970000Y-95810000D02*
X57630000Y-95810000D01*
X56300000Y-75370000D02*
X57630000Y-75370000D01*
X57630000Y-75370000D02*
X57630000Y-76700000D01*
X57630000Y-77970000D02*
X57630000Y-95810000D01*
X92670000Y-97070000D02*
X94000000Y-97070000D01*
X92670000Y-98400000D02*
X92670000Y-97070000D01*
X95270000Y-97070000D02*
X102950000Y-97070000D01*
X95270000Y-99730000D02*
X95270000Y-97070000D01*
X95270000Y-99730000D02*
X102950000Y-99730000D01*
X102950000Y-99730000D02*
X102950000Y-97070000D01*
D13*
G36*
X63458643Y-82556704D02*
G01*
X63422779Y-82548465D01*
X63391761Y-82531018D01*
X63370436Y-82502908D01*
X63362682Y-82462682D01*
X63370921Y-82421971D01*
X63392730Y-82394830D01*
X63423263Y-82379321D01*
X63458643Y-82374475D01*
X63458643Y-82556704D01*
G37*
G36*
X63458643Y-87887884D02*
G01*
X63422779Y-87879645D01*
X63391761Y-87862197D01*
X63370436Y-87834087D01*
X63362682Y-87793861D01*
X63370921Y-87753150D01*
X63392730Y-87726010D01*
X63423263Y-87710501D01*
X63458643Y-87705654D01*
X63458643Y-87887884D01*
G37*
G36*
X63636995Y-82923102D02*
G01*
X63637964Y-82950242D01*
X63628271Y-82993740D01*
X63599192Y-83023425D01*
X63554847Y-83040509D01*
X63499354Y-83046203D01*
X63442892Y-83041357D01*
X63401454Y-83026817D01*
X63376010Y-83001615D01*
X63367528Y-82964782D01*
X63372859Y-82927948D01*
X63385945Y-82896930D01*
X63634087Y-82896930D01*
X63636995Y-82923102D01*
G37*
G36*
X63557512Y-89165549D02*
G01*
X63601131Y-89183360D01*
X63629483Y-89212803D01*
X63638934Y-89253635D01*
X63629483Y-89295436D01*
X63601131Y-89323909D01*
X63557512Y-89340266D01*
X63502262Y-89345719D01*
X63447132Y-89339782D01*
X63403877Y-89321971D01*
X63375889Y-89292528D01*
X63366559Y-89251696D01*
X63375889Y-89209895D01*
X63403877Y-89181422D01*
X63447132Y-89165065D01*
X63502262Y-89159612D01*
X63557512Y-89165549D01*
G37*
G36*
X63823425Y-82951212D02*
G01*
X63823425Y-83355412D01*
X63823425Y-83943780D01*
X63823425Y-84913086D01*
X63823425Y-85294023D01*
X63823425Y-86041357D01*
X63823425Y-86274960D01*
X63823425Y-87244265D01*
X63823425Y-87760905D01*
X63823425Y-88053635D01*
X63823425Y-88704039D01*
X63823425Y-89251696D01*
X63823425Y-89754766D01*
X63823425Y-89940872D01*
X63823425Y-89940953D01*
X63821386Y-89982456D01*
X63815289Y-90023559D01*
X63805192Y-90063867D01*
X63791194Y-90102991D01*
X63773427Y-90140554D01*
X63752065Y-90176195D01*
X63727312Y-90209571D01*
X63699407Y-90240360D01*
X63668618Y-90268265D01*
X63635242Y-90293018D01*
X63599601Y-90314380D01*
X63562038Y-90332147D01*
X63522914Y-90346145D01*
X63482606Y-90356242D01*
X63441503Y-90362339D01*
X63400000Y-90364378D01*
X63358497Y-90362339D01*
X63317394Y-90356242D01*
X63277086Y-90346145D01*
X63237962Y-90332147D01*
X63200399Y-90314380D01*
X63164758Y-90293018D01*
X63131382Y-90268265D01*
X63100593Y-90240360D01*
X63072688Y-90209571D01*
X63047935Y-90176195D01*
X63026573Y-90140554D01*
X63008806Y-90102991D01*
X62994808Y-90063867D01*
X62984711Y-90023559D01*
X62978614Y-89982456D01*
X62976575Y-89940953D01*
X62976575Y-89940872D01*
X62976575Y-89726656D01*
X63116478Y-89726656D01*
X63121756Y-89786053D01*
X63137588Y-89836295D01*
X63163974Y-89877383D01*
X63220679Y-89918457D01*
X63295800Y-89932149D01*
X63367044Y-89916640D01*
X63415024Y-89877383D01*
X63447011Y-89824556D01*
X63469305Y-89768336D01*
X63486268Y-89727625D01*
X63506624Y-89690792D01*
X63532310Y-89663651D01*
X63565267Y-89652989D01*
X63593861Y-89657351D01*
X63619063Y-89673344D01*
X63636511Y-89704846D01*
X63642811Y-89754766D01*
X63639418Y-89803110D01*
X63629241Y-89843457D01*
X63600162Y-89905977D01*
X63697092Y-89940872D01*
X63726656Y-89873990D01*
X63738651Y-89821890D01*
X63742649Y-89754766D01*
X63737534Y-89686753D01*
X63722186Y-89631341D01*
X63696607Y-89588530D01*
X63640994Y-89547456D01*
X63566236Y-89533764D01*
X63521042Y-89537884D01*
X63484330Y-89550242D01*
X63430048Y-89592407D01*
X63395153Y-89648627D01*
X63371405Y-89707270D01*
X63356866Y-89744588D01*
X63338934Y-89778514D01*
X63315670Y-89803231D01*
X63285137Y-89812924D01*
X63246904Y-89802369D01*
X63223963Y-89770705D01*
X63216317Y-89717932D01*
X63226010Y-89649596D01*
X63249273Y-89595800D01*
X63157189Y-89560905D01*
X63129079Y-89630210D01*
X63119628Y-89674919D01*
X63116478Y-89726656D01*
X62976575Y-89726656D01*
X62976575Y-89251696D01*
X63262843Y-89251696D01*
X63267084Y-89296527D01*
X63279806Y-89337964D01*
X63300404Y-89374919D01*
X63328271Y-89406300D01*
X63362924Y-89431745D01*
X63403877Y-89450888D01*
X63450283Y-89462884D01*
X63501292Y-89466882D01*
X63553029Y-89463005D01*
X63599677Y-89451373D01*
X63640751Y-89432593D01*
X63675767Y-89407270D01*
X63704120Y-89376010D01*
X63725202Y-89339418D01*
X63738288Y-89297859D01*
X63742649Y-89251696D01*
X63738288Y-89205533D01*
X63725202Y-89163974D01*
X63704120Y-89127504D01*
X63675767Y-89096607D01*
X63640751Y-89071648D01*
X63599677Y-89052989D01*
X63553029Y-89041357D01*
X63501292Y-89037480D01*
X63450283Y-89041357D01*
X63403877Y-89052989D01*
X63362924Y-89071769D01*
X63328271Y-89097092D01*
X63300404Y-89128352D01*
X63279806Y-89164943D01*
X63267084Y-89206260D01*
X63262843Y-89251696D01*
X62976575Y-89251696D01*
X62976575Y-88706947D01*
X63262843Y-88706947D01*
X63267569Y-88770073D01*
X63281745Y-88823748D01*
X63304039Y-88868457D01*
X63333118Y-88904685D01*
X63368376Y-88932552D01*
X63409208Y-88952181D01*
X63454281Y-88963813D01*
X63502262Y-88967690D01*
X63550969Y-88963934D01*
X63596284Y-88952666D01*
X63636995Y-88933401D01*
X63671890Y-88905654D01*
X63700485Y-88869184D01*
X63722294Y-88823748D01*
X63736107Y-88768861D01*
X63740711Y-88704039D01*
X63739136Y-88658724D01*
X63734410Y-88619709D01*
X63718417Y-88558643D01*
X63620517Y-88576090D01*
X63633118Y-88631825D01*
X63636995Y-88690468D01*
X63628029Y-88763287D01*
X63601131Y-88811147D01*
X63558481Y-88837682D01*
X63502262Y-88846527D01*
X63447981Y-88838772D01*
X63404847Y-88813570D01*
X63376737Y-88767528D01*
X63366559Y-88696284D01*
X63371890Y-88635703D01*
X63384006Y-88592569D01*
X63288045Y-88566397D01*
X63268659Y-88633279D01*
X63262843Y-88706947D01*
X62976575Y-88706947D01*
X62976575Y-88344426D01*
X63057351Y-88344426D01*
X63077706Y-88464620D01*
X63730048Y-88464620D01*
X63730048Y-88344426D01*
X63514863Y-88344426D01*
X63558966Y-88304200D01*
X63615186Y-88261066D01*
X63675283Y-88220840D01*
X63730048Y-88190307D01*
X63730048Y-88053635D01*
X63668013Y-88089984D01*
X63633118Y-88113853D01*
X63598223Y-88139903D01*
X63563934Y-88167286D01*
X63530856Y-88195153D01*
X63475121Y-88247496D01*
X63428595Y-88204362D01*
X63376252Y-88156866D01*
X63322940Y-88110824D01*
X63274475Y-88071082D01*
X63274475Y-88214540D01*
X63317609Y-88241680D01*
X63364620Y-88274152D01*
X63411632Y-88309047D01*
X63454766Y-88344426D01*
X63057351Y-88344426D01*
X62976575Y-88344426D01*
X62976575Y-87795800D01*
X63262843Y-87795800D01*
X63266721Y-87836026D01*
X63278352Y-87875283D01*
X63297617Y-87911874D01*
X63324394Y-87944103D01*
X63358683Y-87971244D01*
X63400485Y-87992569D01*
X63449677Y-88006381D01*
X63506139Y-88010985D01*
X63560662Y-88006624D01*
X63607916Y-87993538D01*
X63648021Y-87972334D01*
X63681099Y-87943619D01*
X63707027Y-87907754D01*
X63725687Y-87865105D01*
X63736955Y-87816034D01*
X63740711Y-87760905D01*
X63733441Y-87682391D01*
X63715509Y-87616478D01*
X63613732Y-87632956D01*
X63629241Y-87687722D01*
X63636995Y-87756058D01*
X63630574Y-87808885D01*
X63611309Y-87851050D01*
X63580897Y-87878675D01*
X63541034Y-87887884D01*
X63541034Y-87592245D01*
X63520679Y-87590792D01*
X63496446Y-87590307D01*
X63426279Y-87596123D01*
X63368282Y-87613570D01*
X63322456Y-87642649D01*
X63289338Y-87682929D01*
X63269467Y-87733979D01*
X63262843Y-87795800D01*
X62976575Y-87795800D01*
X62976575Y-87298546D01*
X63140711Y-87298546D01*
X63160097Y-87417771D01*
X63274475Y-87417771D01*
X63274475Y-87521486D01*
X63373344Y-87521486D01*
X63373344Y-87417771D01*
X63560420Y-87417771D01*
X63612157Y-87414863D01*
X63652989Y-87406139D01*
X63707754Y-87372213D01*
X63733926Y-87317932D01*
X63740711Y-87244265D01*
X63734895Y-87170113D01*
X63715509Y-87098869D01*
X63612763Y-87115347D01*
X63625363Y-87145880D01*
X63632633Y-87173021D01*
X63636026Y-87200161D01*
X63636995Y-87230695D01*
X63634087Y-87258804D01*
X63622456Y-87280129D01*
X63598223Y-87293699D01*
X63557512Y-87298546D01*
X63373344Y-87298546D01*
X63373344Y-87107593D01*
X63274475Y-87107593D01*
X63274475Y-87298546D01*
X63140711Y-87298546D01*
X62976575Y-87298546D01*
X62976575Y-86329241D01*
X63140711Y-86329241D01*
X63160097Y-86448465D01*
X63274475Y-86448465D01*
X63274475Y-86552181D01*
X63373344Y-86552181D01*
X63373344Y-86448465D01*
X63560420Y-86448465D01*
X63612157Y-86445557D01*
X63652989Y-86436834D01*
X63707754Y-86402908D01*
X63733926Y-86348627D01*
X63740711Y-86274960D01*
X63734895Y-86200808D01*
X63715509Y-86129564D01*
X63612763Y-86146042D01*
X63625363Y-86176575D01*
X63632633Y-86203716D01*
X63636026Y-86230856D01*
X63636995Y-86261389D01*
X63634087Y-86289499D01*
X63622456Y-86310824D01*
X63598223Y-86324394D01*
X63557512Y-86329241D01*
X63373344Y-86329241D01*
X63373344Y-86138287D01*
X63274475Y-86138287D01*
X63274475Y-86329241D01*
X63140711Y-86329241D01*
X62976575Y-86329241D01*
X62976575Y-85922132D01*
X63057351Y-85922132D01*
X63077706Y-86041357D01*
X63730048Y-86041357D01*
X63730048Y-85922132D01*
X63379160Y-85922132D01*
X63372375Y-85896446D01*
X63368498Y-85863974D01*
X63396607Y-85808724D01*
X63433683Y-85797819D01*
X63488691Y-85794184D01*
X63730048Y-85794184D01*
X63730048Y-85674960D01*
X63473183Y-85674960D01*
X63428716Y-85677140D01*
X63388368Y-85683683D01*
X63322456Y-85712762D01*
X63279806Y-85767044D01*
X63268538Y-85805089D01*
X63264782Y-85851373D01*
X63269144Y-85887237D01*
X63278352Y-85922132D01*
X63057351Y-85922132D01*
X62976575Y-85922132D01*
X62976575Y-85582876D01*
X63274475Y-85582876D01*
X63373344Y-85582876D01*
X63373344Y-85456866D01*
X63541034Y-85456866D01*
X63585864Y-85454927D01*
X63625363Y-85449111D01*
X63687884Y-85422456D01*
X63727141Y-85372052D01*
X63737318Y-85336793D01*
X63740711Y-85294023D01*
X63734410Y-85234410D01*
X63710662Y-85165105D01*
X63614701Y-85180614D01*
X63632633Y-85232956D01*
X63636995Y-85272698D01*
X63617124Y-85322617D01*
X63556543Y-85337641D01*
X63274475Y-85337641D01*
X63274475Y-85418094D01*
X63274475Y-85582876D01*
X62976575Y-85582876D01*
X62976575Y-85418094D01*
X63067044Y-85418094D01*
X63087399Y-85470921D01*
X63143619Y-85492730D01*
X63198869Y-85470921D01*
X63219225Y-85418094D01*
X63198869Y-85364782D01*
X63143619Y-85342488D01*
X63087399Y-85364782D01*
X63067044Y-85418094D01*
X62976575Y-85418094D01*
X62976575Y-84874313D01*
X63262843Y-84874313D01*
X63265630Y-84922052D01*
X63273990Y-84962520D01*
X63305008Y-85023102D01*
X63350565Y-85057997D01*
X63405331Y-85069144D01*
X63464943Y-85054604D01*
X63504200Y-85017771D01*
X63529887Y-84968336D01*
X63547819Y-84915024D01*
X63559451Y-84879645D01*
X63571567Y-84849596D01*
X63586591Y-84829241D01*
X63607916Y-84821971D01*
X63633603Y-84845234D01*
X63639903Y-84912116D01*
X63628271Y-84990145D01*
X63603069Y-85062359D01*
X63702908Y-85080775D01*
X63727141Y-85013893D01*
X63737318Y-84967851D01*
X63740711Y-84913086D01*
X63738045Y-84859531D01*
X63730048Y-84815186D01*
X63700969Y-84750727D01*
X63657351Y-84715347D01*
X63604039Y-84704685D01*
X63543457Y-84719224D01*
X63502746Y-84756543D01*
X63476090Y-84807431D01*
X63456704Y-84861712D01*
X63444588Y-84896123D01*
X63431502Y-84924233D01*
X63416478Y-84943619D01*
X63397577Y-84950888D01*
X63373829Y-84934895D01*
X63362682Y-84873344D01*
X63373829Y-84794830D01*
X63389822Y-84743457D01*
X63289015Y-84725040D01*
X63269628Y-84791438D01*
X63264540Y-84831300D01*
X63262843Y-84874313D01*
X62976575Y-84874313D01*
X62976575Y-83905008D01*
X63262843Y-83905008D01*
X63265630Y-83952746D01*
X63273990Y-83993215D01*
X63305008Y-84053796D01*
X63350565Y-84088691D01*
X63405331Y-84099838D01*
X63464943Y-84085299D01*
X63504200Y-84048465D01*
X63529887Y-83999031D01*
X63547819Y-83945719D01*
X63559451Y-83910339D01*
X63571567Y-83880291D01*
X63586591Y-83859935D01*
X63607916Y-83852666D01*
X63633603Y-83875929D01*
X63639903Y-83942811D01*
X63628271Y-84020840D01*
X63603069Y-84093053D01*
X63702908Y-84111470D01*
X63727141Y-84044588D01*
X63737318Y-83998546D01*
X63740711Y-83943780D01*
X63738045Y-83890226D01*
X63730048Y-83845880D01*
X63700969Y-83781422D01*
X63657351Y-83746042D01*
X63604039Y-83735380D01*
X63543457Y-83749919D01*
X63502746Y-83787237D01*
X63476090Y-83838126D01*
X63456704Y-83892407D01*
X63444588Y-83926817D01*
X63431502Y-83954927D01*
X63416478Y-83974313D01*
X63397577Y-83981583D01*
X63373829Y-83965590D01*
X63362682Y-83904039D01*
X63373829Y-83825525D01*
X63389822Y-83774152D01*
X63289015Y-83755735D01*
X63269628Y-83822132D01*
X63264540Y-83861995D01*
X63262843Y-83905008D01*
X62976575Y-83905008D01*
X62976575Y-83644265D01*
X63274475Y-83644265D01*
X63373344Y-83644265D01*
X63373344Y-83518255D01*
X63541034Y-83518255D01*
X63585864Y-83516317D01*
X63625363Y-83510501D01*
X63687884Y-83483845D01*
X63727141Y-83433441D01*
X63737318Y-83398182D01*
X63740711Y-83355412D01*
X63734410Y-83295800D01*
X63710662Y-83226494D01*
X63614701Y-83242003D01*
X63632633Y-83294346D01*
X63636995Y-83334087D01*
X63617124Y-83384006D01*
X63556543Y-83399031D01*
X63274475Y-83399031D01*
X63274475Y-83479483D01*
X63274475Y-83644265D01*
X62976575Y-83644265D01*
X62976575Y-83479483D01*
X63067044Y-83479483D01*
X63087399Y-83532310D01*
X63143619Y-83554119D01*
X63198869Y-83532310D01*
X63219225Y-83479483D01*
X63198869Y-83426171D01*
X63143619Y-83403877D01*
X63087399Y-83426171D01*
X63067044Y-83479483D01*
X62976575Y-83479483D01*
X62976575Y-82777706D01*
X63057351Y-82777706D01*
X63077706Y-82896930D01*
X63285137Y-82896930D01*
X63270113Y-82937641D01*
X63264782Y-82985137D01*
X63271944Y-83040334D01*
X63293430Y-83085730D01*
X63329241Y-83121325D01*
X63377437Y-83146904D01*
X63436080Y-83162251D01*
X63505170Y-83167367D01*
X63573021Y-83161282D01*
X63630533Y-83143026D01*
X63677706Y-83112601D01*
X63712709Y-83070328D01*
X63733710Y-83016532D01*
X63740711Y-82951212D01*
X63739015Y-82905170D01*
X63733926Y-82858158D01*
X63726171Y-82814297D01*
X63716478Y-82777706D01*
X63057351Y-82777706D01*
X62976575Y-82777706D01*
X62976575Y-82464620D01*
X63262843Y-82464620D01*
X63266721Y-82504846D01*
X63278352Y-82544103D01*
X63297617Y-82580695D01*
X63324394Y-82612924D01*
X63358683Y-82640065D01*
X63400485Y-82661389D01*
X63449677Y-82675202D01*
X63506139Y-82679806D01*
X63560662Y-82675444D01*
X63607916Y-82662359D01*
X63648021Y-82641155D01*
X63681099Y-82612439D01*
X63707027Y-82576575D01*
X63725687Y-82533926D01*
X63736955Y-82484855D01*
X63740711Y-82429725D01*
X63733441Y-82351212D01*
X63715509Y-82285299D01*
X63613732Y-82301777D01*
X63629241Y-82356543D01*
X63636995Y-82424879D01*
X63630574Y-82477706D01*
X63611309Y-82519871D01*
X63580897Y-82547496D01*
X63541034Y-82556704D01*
X63541034Y-82261066D01*
X63520679Y-82259612D01*
X63496446Y-82259128D01*
X63426279Y-82264943D01*
X63368282Y-82282391D01*
X63322456Y-82311470D01*
X63289338Y-82351750D01*
X63269467Y-82402800D01*
X63262843Y-82464620D01*
X62976575Y-82464620D01*
X62976575Y-82259128D01*
X62976575Y-82259047D01*
X62978614Y-82217544D01*
X62984711Y-82176441D01*
X62994808Y-82136133D01*
X63008806Y-82097009D01*
X63026573Y-82059446D01*
X63047935Y-82023805D01*
X63072688Y-81990429D01*
X63100593Y-81959640D01*
X63131382Y-81931735D01*
X63164758Y-81906982D01*
X63200399Y-81885619D01*
X63237962Y-81867853D01*
X63277086Y-81853855D01*
X63317394Y-81843758D01*
X63358497Y-81837661D01*
X63400000Y-81835622D01*
X63441503Y-81837661D01*
X63482606Y-81843758D01*
X63522914Y-81853855D01*
X63562038Y-81867853D01*
X63599601Y-81885619D01*
X63635242Y-81906982D01*
X63668618Y-81931735D01*
X63699407Y-81959640D01*
X63727312Y-81990429D01*
X63752065Y-82023805D01*
X63773427Y-82059446D01*
X63791194Y-82097009D01*
X63805192Y-82136133D01*
X63815289Y-82176441D01*
X63821386Y-82217544D01*
X63823425Y-82259047D01*
X63823425Y-82259128D01*
X63823425Y-82429725D01*
X63823425Y-82951212D01*
G37*
D12*
X101370000Y-77970000D02*
X101370000Y-95810000D01*
X101370000Y-77970000D02*
X104030000Y-77970000D01*
X101370000Y-95810000D02*
X104030000Y-95810000D01*
X102700000Y-75370000D02*
X104030000Y-75370000D01*
X104030000Y-75370000D02*
X104030000Y-76700000D01*
X104030000Y-77970000D02*
X104030000Y-95810000D01*
X64270000Y-77970000D02*
X64270000Y-95810000D01*
X64270000Y-77970000D02*
X66930000Y-77970000D01*
X64270000Y-95810000D02*
X66930000Y-95810000D01*
X65600000Y-75370000D02*
X66930000Y-75370000D01*
X66930000Y-75370000D02*
X66930000Y-76700000D01*
X66930000Y-77970000D02*
X66930000Y-95810000D01*
D13*
G36*
X100658643Y-82256704D02*
G01*
X100622779Y-82248465D01*
X100591761Y-82231018D01*
X100570436Y-82202908D01*
X100562682Y-82162682D01*
X100570921Y-82121971D01*
X100592730Y-82094830D01*
X100623263Y-82079321D01*
X100658643Y-82074475D01*
X100658643Y-82256704D01*
G37*
G36*
X100658643Y-87587884D02*
G01*
X100622779Y-87579645D01*
X100591761Y-87562197D01*
X100570436Y-87534087D01*
X100562682Y-87493861D01*
X100570921Y-87453150D01*
X100592730Y-87426010D01*
X100623263Y-87410501D01*
X100658643Y-87405654D01*
X100658643Y-87587884D01*
G37*
G36*
X100836995Y-82623102D02*
G01*
X100837964Y-82650242D01*
X100828271Y-82693740D01*
X100799192Y-82723425D01*
X100754847Y-82740509D01*
X100699354Y-82746203D01*
X100642892Y-82741357D01*
X100601454Y-82726817D01*
X100576010Y-82701615D01*
X100567528Y-82664782D01*
X100572859Y-82627948D01*
X100585945Y-82596930D01*
X100834087Y-82596930D01*
X100836995Y-82623102D01*
G37*
G36*
X100757512Y-88865549D02*
G01*
X100801131Y-88883360D01*
X100829483Y-88912803D01*
X100838934Y-88953635D01*
X100829483Y-88995436D01*
X100801131Y-89023909D01*
X100757512Y-89040266D01*
X100702262Y-89045719D01*
X100647132Y-89039782D01*
X100603877Y-89021971D01*
X100575889Y-88992528D01*
X100566559Y-88951696D01*
X100575889Y-88909895D01*
X100603877Y-88881422D01*
X100647132Y-88865065D01*
X100702262Y-88859612D01*
X100757512Y-88865549D01*
G37*
G36*
X101023425Y-82651212D02*
G01*
X101023425Y-83055412D01*
X101023425Y-83643780D01*
X101023425Y-84613086D01*
X101023425Y-84994023D01*
X101023425Y-85741357D01*
X101023425Y-85974960D01*
X101023425Y-86944265D01*
X101023425Y-87460905D01*
X101023425Y-87753635D01*
X101023425Y-88404039D01*
X101023425Y-88951696D01*
X101023425Y-89454766D01*
X101023425Y-89640872D01*
X101023425Y-89640953D01*
X101021386Y-89682456D01*
X101015289Y-89723559D01*
X101005192Y-89763867D01*
X100991194Y-89802991D01*
X100973427Y-89840554D01*
X100952065Y-89876195D01*
X100927312Y-89909571D01*
X100899407Y-89940360D01*
X100868618Y-89968265D01*
X100835242Y-89993018D01*
X100799601Y-90014380D01*
X100762038Y-90032147D01*
X100722914Y-90046145D01*
X100682606Y-90056242D01*
X100641503Y-90062339D01*
X100600000Y-90064378D01*
X100558497Y-90062339D01*
X100517394Y-90056242D01*
X100477086Y-90046145D01*
X100437962Y-90032147D01*
X100400399Y-90014380D01*
X100364758Y-89993018D01*
X100331382Y-89968265D01*
X100300593Y-89940360D01*
X100272688Y-89909571D01*
X100247935Y-89876195D01*
X100226573Y-89840554D01*
X100208806Y-89802991D01*
X100194808Y-89763867D01*
X100184711Y-89723559D01*
X100178614Y-89682456D01*
X100176575Y-89640953D01*
X100176575Y-89640872D01*
X100176575Y-89426656D01*
X100316478Y-89426656D01*
X100321756Y-89486053D01*
X100337588Y-89536295D01*
X100363974Y-89577383D01*
X100420679Y-89618457D01*
X100495800Y-89632149D01*
X100567044Y-89616640D01*
X100615024Y-89577383D01*
X100647011Y-89524556D01*
X100669305Y-89468336D01*
X100686268Y-89427625D01*
X100706624Y-89390792D01*
X100732310Y-89363651D01*
X100765267Y-89352989D01*
X100793861Y-89357351D01*
X100819063Y-89373344D01*
X100836511Y-89404846D01*
X100842811Y-89454766D01*
X100839418Y-89503110D01*
X100829241Y-89543457D01*
X100800162Y-89605977D01*
X100897092Y-89640872D01*
X100926656Y-89573990D01*
X100938651Y-89521890D01*
X100942649Y-89454766D01*
X100937534Y-89386753D01*
X100922186Y-89331341D01*
X100896607Y-89288530D01*
X100840994Y-89247456D01*
X100766236Y-89233764D01*
X100721042Y-89237884D01*
X100684330Y-89250242D01*
X100630048Y-89292407D01*
X100595153Y-89348627D01*
X100571405Y-89407270D01*
X100556866Y-89444588D01*
X100538934Y-89478514D01*
X100515670Y-89503231D01*
X100485137Y-89512924D01*
X100446904Y-89502369D01*
X100423963Y-89470705D01*
X100416317Y-89417932D01*
X100426010Y-89349596D01*
X100449273Y-89295800D01*
X100357189Y-89260905D01*
X100329079Y-89330210D01*
X100319628Y-89374919D01*
X100316478Y-89426656D01*
X100176575Y-89426656D01*
X100176575Y-88951696D01*
X100462843Y-88951696D01*
X100467084Y-88996527D01*
X100479806Y-89037964D01*
X100500404Y-89074919D01*
X100528271Y-89106300D01*
X100562924Y-89131745D01*
X100603877Y-89150888D01*
X100650283Y-89162884D01*
X100701292Y-89166882D01*
X100753029Y-89163005D01*
X100799677Y-89151373D01*
X100840751Y-89132593D01*
X100875767Y-89107270D01*
X100904120Y-89076010D01*
X100925202Y-89039418D01*
X100938288Y-88997859D01*
X100942649Y-88951696D01*
X100938288Y-88905533D01*
X100925202Y-88863974D01*
X100904120Y-88827504D01*
X100875767Y-88796607D01*
X100840751Y-88771648D01*
X100799677Y-88752989D01*
X100753029Y-88741357D01*
X100701292Y-88737480D01*
X100650283Y-88741357D01*
X100603877Y-88752989D01*
X100562924Y-88771769D01*
X100528271Y-88797092D01*
X100500404Y-88828352D01*
X100479806Y-88864943D01*
X100467084Y-88906260D01*
X100462843Y-88951696D01*
X100176575Y-88951696D01*
X100176575Y-88406947D01*
X100462843Y-88406947D01*
X100467569Y-88470073D01*
X100481745Y-88523748D01*
X100504039Y-88568457D01*
X100533118Y-88604685D01*
X100568376Y-88632552D01*
X100609208Y-88652181D01*
X100654281Y-88663813D01*
X100702262Y-88667690D01*
X100750969Y-88663934D01*
X100796284Y-88652666D01*
X100836995Y-88633401D01*
X100871890Y-88605654D01*
X100900485Y-88569184D01*
X100922294Y-88523748D01*
X100936107Y-88468861D01*
X100940711Y-88404039D01*
X100939136Y-88358724D01*
X100934410Y-88319709D01*
X100918417Y-88258643D01*
X100820517Y-88276090D01*
X100833118Y-88331825D01*
X100836995Y-88390468D01*
X100828029Y-88463287D01*
X100801131Y-88511147D01*
X100758481Y-88537682D01*
X100702262Y-88546527D01*
X100647981Y-88538772D01*
X100604847Y-88513570D01*
X100576737Y-88467528D01*
X100566559Y-88396284D01*
X100571890Y-88335703D01*
X100584006Y-88292569D01*
X100488045Y-88266397D01*
X100468659Y-88333279D01*
X100462843Y-88406947D01*
X100176575Y-88406947D01*
X100176575Y-88044426D01*
X100257351Y-88044426D01*
X100277706Y-88164620D01*
X100930048Y-88164620D01*
X100930048Y-88044426D01*
X100714863Y-88044426D01*
X100758966Y-88004200D01*
X100815186Y-87961066D01*
X100875283Y-87920840D01*
X100930048Y-87890307D01*
X100930048Y-87753635D01*
X100868013Y-87789984D01*
X100833118Y-87813853D01*
X100798223Y-87839903D01*
X100763934Y-87867286D01*
X100730856Y-87895153D01*
X100675121Y-87947496D01*
X100628595Y-87904362D01*
X100576252Y-87856866D01*
X100522940Y-87810824D01*
X100474475Y-87771082D01*
X100474475Y-87914540D01*
X100517609Y-87941680D01*
X100564620Y-87974152D01*
X100611632Y-88009047D01*
X100654766Y-88044426D01*
X100257351Y-88044426D01*
X100176575Y-88044426D01*
X100176575Y-87495800D01*
X100462843Y-87495800D01*
X100466721Y-87536026D01*
X100478352Y-87575283D01*
X100497617Y-87611874D01*
X100524394Y-87644103D01*
X100558683Y-87671244D01*
X100600485Y-87692569D01*
X100649677Y-87706381D01*
X100706139Y-87710985D01*
X100760662Y-87706624D01*
X100807916Y-87693538D01*
X100848021Y-87672334D01*
X100881099Y-87643619D01*
X100907027Y-87607754D01*
X100925687Y-87565105D01*
X100936955Y-87516034D01*
X100940711Y-87460905D01*
X100933441Y-87382391D01*
X100915509Y-87316478D01*
X100813732Y-87332956D01*
X100829241Y-87387722D01*
X100836995Y-87456058D01*
X100830574Y-87508885D01*
X100811309Y-87551050D01*
X100780897Y-87578675D01*
X100741034Y-87587884D01*
X100741034Y-87292245D01*
X100720679Y-87290792D01*
X100696446Y-87290307D01*
X100626279Y-87296123D01*
X100568282Y-87313570D01*
X100522456Y-87342649D01*
X100489338Y-87382929D01*
X100469467Y-87433979D01*
X100462843Y-87495800D01*
X100176575Y-87495800D01*
X100176575Y-86998546D01*
X100340711Y-86998546D01*
X100360097Y-87117771D01*
X100474475Y-87117771D01*
X100474475Y-87221486D01*
X100573344Y-87221486D01*
X100573344Y-87117771D01*
X100760420Y-87117771D01*
X100812157Y-87114863D01*
X100852989Y-87106139D01*
X100907754Y-87072213D01*
X100933926Y-87017932D01*
X100940711Y-86944265D01*
X100934895Y-86870113D01*
X100915509Y-86798869D01*
X100812763Y-86815347D01*
X100825363Y-86845880D01*
X100832633Y-86873021D01*
X100836026Y-86900161D01*
X100836995Y-86930695D01*
X100834087Y-86958804D01*
X100822456Y-86980129D01*
X100798223Y-86993699D01*
X100757512Y-86998546D01*
X100573344Y-86998546D01*
X100573344Y-86807593D01*
X100474475Y-86807593D01*
X100474475Y-86998546D01*
X100340711Y-86998546D01*
X100176575Y-86998546D01*
X100176575Y-86029241D01*
X100340711Y-86029241D01*
X100360097Y-86148465D01*
X100474475Y-86148465D01*
X100474475Y-86252181D01*
X100573344Y-86252181D01*
X100573344Y-86148465D01*
X100760420Y-86148465D01*
X100812157Y-86145557D01*
X100852989Y-86136834D01*
X100907754Y-86102908D01*
X100933926Y-86048627D01*
X100940711Y-85974960D01*
X100934895Y-85900808D01*
X100915509Y-85829564D01*
X100812763Y-85846042D01*
X100825363Y-85876575D01*
X100832633Y-85903716D01*
X100836026Y-85930856D01*
X100836995Y-85961389D01*
X100834087Y-85989499D01*
X100822456Y-86010824D01*
X100798223Y-86024394D01*
X100757512Y-86029241D01*
X100573344Y-86029241D01*
X100573344Y-85838287D01*
X100474475Y-85838287D01*
X100474475Y-86029241D01*
X100340711Y-86029241D01*
X100176575Y-86029241D01*
X100176575Y-85622132D01*
X100257351Y-85622132D01*
X100277706Y-85741357D01*
X100930048Y-85741357D01*
X100930048Y-85622132D01*
X100579160Y-85622132D01*
X100572375Y-85596446D01*
X100568498Y-85563974D01*
X100596607Y-85508724D01*
X100633683Y-85497819D01*
X100688691Y-85494184D01*
X100930048Y-85494184D01*
X100930048Y-85374960D01*
X100673183Y-85374960D01*
X100628716Y-85377140D01*
X100588368Y-85383683D01*
X100522456Y-85412762D01*
X100479806Y-85467044D01*
X100468538Y-85505089D01*
X100464782Y-85551373D01*
X100469144Y-85587237D01*
X100478352Y-85622132D01*
X100257351Y-85622132D01*
X100176575Y-85622132D01*
X100176575Y-85282876D01*
X100474475Y-85282876D01*
X100573344Y-85282876D01*
X100573344Y-85156866D01*
X100741034Y-85156866D01*
X100785864Y-85154927D01*
X100825363Y-85149111D01*
X100887884Y-85122456D01*
X100927141Y-85072052D01*
X100937318Y-85036793D01*
X100940711Y-84994023D01*
X100934410Y-84934410D01*
X100910662Y-84865105D01*
X100814701Y-84880614D01*
X100832633Y-84932956D01*
X100836995Y-84972698D01*
X100817124Y-85022617D01*
X100756543Y-85037641D01*
X100474475Y-85037641D01*
X100474475Y-85118094D01*
X100474475Y-85282876D01*
X100176575Y-85282876D01*
X100176575Y-85118094D01*
X100267044Y-85118094D01*
X100287399Y-85170921D01*
X100343619Y-85192730D01*
X100398869Y-85170921D01*
X100419225Y-85118094D01*
X100398869Y-85064782D01*
X100343619Y-85042488D01*
X100287399Y-85064782D01*
X100267044Y-85118094D01*
X100176575Y-85118094D01*
X100176575Y-84574313D01*
X100462843Y-84574313D01*
X100465630Y-84622052D01*
X100473990Y-84662520D01*
X100505008Y-84723102D01*
X100550565Y-84757997D01*
X100605331Y-84769144D01*
X100664943Y-84754604D01*
X100704200Y-84717771D01*
X100729887Y-84668336D01*
X100747819Y-84615024D01*
X100759451Y-84579645D01*
X100771567Y-84549596D01*
X100786591Y-84529241D01*
X100807916Y-84521971D01*
X100833603Y-84545234D01*
X100839903Y-84612116D01*
X100828271Y-84690145D01*
X100803069Y-84762359D01*
X100902908Y-84780775D01*
X100927141Y-84713893D01*
X100937318Y-84667851D01*
X100940711Y-84613086D01*
X100938045Y-84559531D01*
X100930048Y-84515186D01*
X100900969Y-84450727D01*
X100857351Y-84415347D01*
X100804039Y-84404685D01*
X100743457Y-84419224D01*
X100702746Y-84456543D01*
X100676090Y-84507431D01*
X100656704Y-84561712D01*
X100644588Y-84596123D01*
X100631502Y-84624233D01*
X100616478Y-84643619D01*
X100597577Y-84650888D01*
X100573829Y-84634895D01*
X100562682Y-84573344D01*
X100573829Y-84494830D01*
X100589822Y-84443457D01*
X100489015Y-84425040D01*
X100469628Y-84491438D01*
X100464540Y-84531300D01*
X100462843Y-84574313D01*
X100176575Y-84574313D01*
X100176575Y-83605008D01*
X100462843Y-83605008D01*
X100465630Y-83652746D01*
X100473990Y-83693215D01*
X100505008Y-83753796D01*
X100550565Y-83788691D01*
X100605331Y-83799838D01*
X100664943Y-83785299D01*
X100704200Y-83748465D01*
X100729887Y-83699031D01*
X100747819Y-83645719D01*
X100759451Y-83610339D01*
X100771567Y-83580291D01*
X100786591Y-83559935D01*
X100807916Y-83552666D01*
X100833603Y-83575929D01*
X100839903Y-83642811D01*
X100828271Y-83720840D01*
X100803069Y-83793053D01*
X100902908Y-83811470D01*
X100927141Y-83744588D01*
X100937318Y-83698546D01*
X100940711Y-83643780D01*
X100938045Y-83590226D01*
X100930048Y-83545880D01*
X100900969Y-83481422D01*
X100857351Y-83446042D01*
X100804039Y-83435380D01*
X100743457Y-83449919D01*
X100702746Y-83487237D01*
X100676090Y-83538126D01*
X100656704Y-83592407D01*
X100644588Y-83626817D01*
X100631502Y-83654927D01*
X100616478Y-83674313D01*
X100597577Y-83681583D01*
X100573829Y-83665590D01*
X100562682Y-83604039D01*
X100573829Y-83525525D01*
X100589822Y-83474152D01*
X100489015Y-83455735D01*
X100469628Y-83522132D01*
X100464540Y-83561995D01*
X100462843Y-83605008D01*
X100176575Y-83605008D01*
X100176575Y-83344265D01*
X100474475Y-83344265D01*
X100573344Y-83344265D01*
X100573344Y-83218255D01*
X100741034Y-83218255D01*
X100785864Y-83216317D01*
X100825363Y-83210501D01*
X100887884Y-83183845D01*
X100927141Y-83133441D01*
X100937318Y-83098182D01*
X100940711Y-83055412D01*
X100934410Y-82995800D01*
X100910662Y-82926494D01*
X100814701Y-82942003D01*
X100832633Y-82994346D01*
X100836995Y-83034087D01*
X100817124Y-83084006D01*
X100756543Y-83099031D01*
X100474475Y-83099031D01*
X100474475Y-83179483D01*
X100474475Y-83344265D01*
X100176575Y-83344265D01*
X100176575Y-83179483D01*
X100267044Y-83179483D01*
X100287399Y-83232310D01*
X100343619Y-83254119D01*
X100398869Y-83232310D01*
X100419225Y-83179483D01*
X100398869Y-83126171D01*
X100343619Y-83103877D01*
X100287399Y-83126171D01*
X100267044Y-83179483D01*
X100176575Y-83179483D01*
X100176575Y-82477706D01*
X100257351Y-82477706D01*
X100277706Y-82596930D01*
X100485137Y-82596930D01*
X100470113Y-82637641D01*
X100464782Y-82685137D01*
X100471944Y-82740334D01*
X100493430Y-82785730D01*
X100529241Y-82821325D01*
X100577437Y-82846904D01*
X100636080Y-82862251D01*
X100705170Y-82867367D01*
X100773021Y-82861282D01*
X100830533Y-82843026D01*
X100877706Y-82812601D01*
X100912709Y-82770328D01*
X100933710Y-82716532D01*
X100940711Y-82651212D01*
X100939015Y-82605170D01*
X100933926Y-82558158D01*
X100926171Y-82514297D01*
X100916478Y-82477706D01*
X100257351Y-82477706D01*
X100176575Y-82477706D01*
X100176575Y-82164620D01*
X100462843Y-82164620D01*
X100466721Y-82204846D01*
X100478352Y-82244103D01*
X100497617Y-82280695D01*
X100524394Y-82312924D01*
X100558683Y-82340065D01*
X100600485Y-82361389D01*
X100649677Y-82375202D01*
X100706139Y-82379806D01*
X100760662Y-82375444D01*
X100807916Y-82362359D01*
X100848021Y-82341155D01*
X100881099Y-82312439D01*
X100907027Y-82276575D01*
X100925687Y-82233926D01*
X100936955Y-82184855D01*
X100940711Y-82129725D01*
X100933441Y-82051212D01*
X100915509Y-81985299D01*
X100813732Y-82001777D01*
X100829241Y-82056543D01*
X100836995Y-82124879D01*
X100830574Y-82177706D01*
X100811309Y-82219871D01*
X100780897Y-82247496D01*
X100741034Y-82256704D01*
X100741034Y-81961066D01*
X100720679Y-81959612D01*
X100696446Y-81959128D01*
X100626279Y-81964943D01*
X100568282Y-81982391D01*
X100522456Y-82011470D01*
X100489338Y-82051750D01*
X100469467Y-82102800D01*
X100462843Y-82164620D01*
X100176575Y-82164620D01*
X100176575Y-81959128D01*
X100176575Y-81959047D01*
X100178614Y-81917544D01*
X100184711Y-81876441D01*
X100194808Y-81836133D01*
X100208806Y-81797009D01*
X100226573Y-81759446D01*
X100247935Y-81723805D01*
X100272688Y-81690429D01*
X100300593Y-81659640D01*
X100331382Y-81631735D01*
X100364758Y-81606982D01*
X100400399Y-81585619D01*
X100437962Y-81567853D01*
X100477086Y-81553855D01*
X100517394Y-81543758D01*
X100558497Y-81537661D01*
X100600000Y-81535622D01*
X100641503Y-81537661D01*
X100682606Y-81543758D01*
X100722914Y-81553855D01*
X100762038Y-81567853D01*
X100799601Y-81585619D01*
X100835242Y-81606982D01*
X100868618Y-81631735D01*
X100899407Y-81659640D01*
X100927312Y-81690429D01*
X100952065Y-81723805D01*
X100973427Y-81759446D01*
X100991194Y-81797009D01*
X101005192Y-81836133D01*
X101015289Y-81876441D01*
X101021386Y-81917544D01*
X101023425Y-81959047D01*
X101023425Y-81959128D01*
X101023425Y-82129725D01*
X101023425Y-82651212D01*
G37*
%LPC*%
D14*
X93000000Y-76700000D03*
D15*
X93000000Y-79240000D03*
X93000000Y-81780000D03*
X93000000Y-84320000D03*
X93000000Y-86860000D03*
X93000000Y-89400000D03*
X93000000Y-91940000D03*
X93000000Y-94480000D03*
D14*
X56300000Y-76700000D03*
D15*
X56300000Y-79240000D03*
X56300000Y-81780000D03*
X56300000Y-84320000D03*
X56300000Y-86860000D03*
X56300000Y-89400000D03*
X56300000Y-91940000D03*
X56300000Y-94480000D03*
D14*
X94000000Y-98400000D03*
D15*
X96540000Y-98400000D03*
X99080000Y-98400000D03*
X101620000Y-98400000D03*
D16*
X83500000Y-110500000D03*
D14*
X102700000Y-76700000D03*
D15*
X102700000Y-79240000D03*
X102700000Y-81780000D03*
X102700000Y-84320000D03*
X102700000Y-86860000D03*
X102700000Y-89400000D03*
X102700000Y-91940000D03*
X102700000Y-94480000D03*
D14*
X65600000Y-76700000D03*
D15*
X65600000Y-79240000D03*
X65600000Y-81780000D03*
X65600000Y-84320000D03*
X65600000Y-86860000D03*
X65600000Y-89400000D03*
X65600000Y-91940000D03*
X65600000Y-94480000D03*
D17*
X74400000Y-71900000D03*
X69400000Y-71900000D03*
X82900000Y-145220000D03*
D18*
X82900000Y-137600000D03*
D17*
X72500000Y-87280000D03*
D18*
X72500000Y-94900000D03*
D19*
X96670000Y-50320000D03*
D20*
X95400000Y-50320000D03*
X94130000Y-50320000D03*
D17*
X92500000Y-58720000D03*
D18*
X92500000Y-66340000D03*
D17*
X63000000Y-127390000D03*
D18*
X63000000Y-135010000D03*
D17*
X84000000Y-124610000D03*
D18*
X84000000Y-116990000D03*
D17*
X64610000Y-66900000D03*
D18*
X56990000Y-66900000D03*
D17*
X98100000Y-82910000D03*
D18*
X98100000Y-75290000D03*
D17*
X76800000Y-145220000D03*
D18*
X76800000Y-137600000D03*
D17*
X80400000Y-58720000D03*
D18*
X80400000Y-66340000D03*
D17*
X63610000Y-110900000D03*
D18*
X55990000Y-110900000D03*
D17*
X90600000Y-127480000D03*
D18*
X90600000Y-135100000D03*
D17*
X71900000Y-82110000D03*
D18*
X71900000Y-74490000D03*
D17*
X86400000Y-77690000D03*
D18*
X86400000Y-85310000D03*
D17*
X74300000Y-58720000D03*
D18*
X74300000Y-66340000D03*
D17*
X65800000Y-38510000D03*
D18*
X65800000Y-46130000D03*
D17*
X98600000Y-58710000D03*
D18*
X98600000Y-66330000D03*
D17*
X95600000Y-58710000D03*
D18*
X95600000Y-66330000D03*
D19*
X71370000Y-40130000D03*
D20*
X70100000Y-40130000D03*
X68830000Y-40130000D03*
D17*
X67800000Y-137600000D03*
D18*
X67800000Y-145220000D03*
D17*
X85900000Y-145220000D03*
D18*
X85900000Y-137600000D03*
D21*
X58500000Y-54260000D03*
X58500000Y-56800000D03*
X58500000Y-59340000D03*
D17*
X89500000Y-45840000D03*
D18*
X89500000Y-38220000D03*
D17*
X74400000Y-38210000D03*
D18*
X74400000Y-45830000D03*
D17*
X83400000Y-45720000D03*
X83400000Y-40720000D03*
X55880000Y-104902000D03*
D18*
X63500000Y-104902000D03*
D17*
X89500000Y-58720000D03*
D18*
X89500000Y-66340000D03*
D17*
X73600000Y-110200000D03*
D18*
X65980000Y-110200000D03*
D17*
X95500000Y-45920000D03*
D18*
X95500000Y-38300000D03*
D17*
X64610000Y-72900000D03*
D18*
X56990000Y-72900000D03*
D17*
X62300000Y-107900000D03*
X57300000Y-107900000D03*
D19*
X96730000Y-133300000D03*
D20*
X98000000Y-133300000D03*
X99270000Y-133300000D03*
D17*
X68800000Y-117000000D03*
D18*
X68800000Y-124620000D03*
D17*
X65110000Y-140150000D03*
D18*
X57490000Y-140150000D03*
D17*
X77400000Y-45830000D03*
D18*
X77400000Y-38210000D03*
D17*
X102800000Y-46420000D03*
D18*
X102800000Y-38800000D03*
D17*
X86500000Y-38210000D03*
D18*
X86500000Y-45830000D03*
D17*
X55990000Y-113900000D03*
D18*
X63610000Y-113900000D03*
D17*
X77900000Y-108300000D03*
D18*
X77900000Y-115920000D03*
D17*
X99210000Y-141400000D03*
D18*
X91590000Y-141400000D03*
D17*
X99800000Y-56530000D03*
D18*
X99800000Y-48910000D03*
D17*
X88900000Y-137600000D03*
D18*
X88900000Y-145220000D03*
D17*
X70800000Y-145220000D03*
D18*
X70800000Y-137600000D03*
D17*
X84690000Y-72000000D03*
D18*
X92310000Y-72000000D03*
D17*
X62800000Y-38500000D03*
D18*
X62800000Y-46120000D03*
D17*
X85210000Y-99200000D03*
D18*
X77590000Y-99200000D03*
D17*
X68690000Y-84700000D03*
D18*
X76310000Y-84700000D03*
D17*
X82410000Y-105700000D03*
D18*
X74790000Y-105700000D03*
D17*
X60000000Y-127390000D03*
D18*
X60000000Y-135010000D03*
D17*
X74800000Y-124610000D03*
D18*
X74800000Y-116990000D03*
D17*
X57800000Y-46100000D03*
D18*
X57800000Y-38480000D03*
D17*
X65990000Y-113200000D03*
D18*
X73610000Y-113200000D03*
D21*
X78860000Y-89600000D03*
X81400000Y-89600000D03*
X83940000Y-89600000D03*
X78820000Y-95000000D03*
X81360000Y-95000000D03*
X83900000Y-95000000D03*
D22*
X89460000Y-103800000D03*
D17*
X91460000Y-103800000D03*
X81000000Y-117000000D03*
D18*
X81000000Y-124620000D03*
D17*
X69460000Y-87280000D03*
D18*
X69460000Y-94900000D03*
D17*
X93700000Y-127480000D03*
D18*
X93700000Y-135100000D03*
D17*
X92310000Y-69000000D03*
D18*
X84690000Y-69000000D03*
D17*
X86500000Y-66340000D03*
D18*
X86500000Y-58720000D03*
D21*
X96000000Y-71100000D03*
X98540000Y-71100000D03*
X101080000Y-71100000D03*
D17*
X73800000Y-137600000D03*
D18*
X73800000Y-145220000D03*
D22*
X72175000Y-127400000D03*
D18*
X74715000Y-127400000D03*
X77255000Y-127400000D03*
X79795000Y-127400000D03*
X82335000Y-127400000D03*
X84875000Y-127400000D03*
X87415000Y-127400000D03*
X87415000Y-135020000D03*
X84875000Y-135020000D03*
X82335000Y-135020000D03*
X79795000Y-135020000D03*
X77255000Y-135020000D03*
X74715000Y-135020000D03*
X72175000Y-135020000D03*
D17*
X102800000Y-48910000D03*
D18*
X102800000Y-56530000D03*
D17*
X87000000Y-116990000D03*
D18*
X87000000Y-124610000D03*
D19*
X68830000Y-44220000D03*
D20*
X70100000Y-44220000D03*
X71370000Y-44220000D03*
D17*
X92500000Y-38300000D03*
D18*
X92500000Y-45920000D03*
D17*
X71300000Y-66350000D03*
D18*
X71300000Y-58730000D03*
D17*
X79800000Y-142800000D03*
X79800000Y-137800000D03*
X62900000Y-60910000D03*
D18*
X62900000Y-53290000D03*
D17*
X71800000Y-116990000D03*
D18*
X71800000Y-124610000D03*
D19*
X99270000Y-129270000D03*
D20*
X98000000Y-129270000D03*
X96730000Y-129270000D03*
D21*
X62340000Y-121100000D03*
X59800000Y-121100000D03*
X57260000Y-121100000D03*
D17*
X80200000Y-102700000D03*
X75200000Y-102700000D03*
X99230000Y-138400000D03*
D18*
X91610000Y-138400000D03*
D17*
X83400000Y-63920000D03*
X83400000Y-58920000D03*
X89400000Y-85310000D03*
D18*
X89400000Y-77690000D03*
D17*
X63600000Y-116900000D03*
D18*
X55980000Y-116900000D03*
D21*
X63450000Y-100700000D03*
X60910000Y-100700000D03*
X58370000Y-100700000D03*
D17*
X90000000Y-124610000D03*
D18*
X90000000Y-116990000D03*
G36*
G01*
X100550000Y-104980000D02*
X100550000Y-106180000D01*
G75*
G02*
X100300000Y-106430000I-250000J0D01*
G01*
X99100000Y-106430000D01*
G75*
G02*
X98850000Y-106180000I0J250000D01*
G01*
X98850000Y-104980000D01*
G75*
G02*
X99100000Y-104730000I250000J0D01*
G01*
X100300000Y-104730000D01*
G75*
G02*
X100550000Y-104980000I0J-250000D01*
G01*
G37*
D23*
X97160000Y-105580000D03*
X99700000Y-108120000D03*
X97160000Y-108120000D03*
X99700000Y-110660000D03*
X97160000Y-110660000D03*
X99700000Y-113200000D03*
X97160000Y-113200000D03*
X99700000Y-115740000D03*
X97160000Y-115740000D03*
D17*
X77400000Y-66340000D03*
D18*
X77400000Y-58720000D03*
D22*
X91515112Y-112120000D03*
D17*
X89515112Y-112120000D03*
X65110000Y-143300000D03*
D18*
X57490000Y-143300000D03*
D17*
X56990000Y-63900000D03*
D18*
X64610000Y-63900000D03*
D17*
X56990000Y-69900000D03*
D18*
X64610000Y-69900000D03*
D17*
X78000000Y-124600000D03*
X78000000Y-119600000D03*
D22*
X75775000Y-48520000D03*
D18*
X78315000Y-48520000D03*
X80855000Y-48520000D03*
X83395000Y-48520000D03*
X85935000Y-48520000D03*
X88475000Y-48520000D03*
X91015000Y-48520000D03*
X91015000Y-56140000D03*
X88475000Y-56140000D03*
X85935000Y-56140000D03*
X83395000Y-56140000D03*
X80855000Y-56140000D03*
X78315000Y-56140000D03*
X75775000Y-56140000D03*
D21*
X77160000Y-80500000D03*
X79700000Y-80500000D03*
X82240000Y-80500000D03*
D17*
X89900000Y-75100000D03*
X84900000Y-75100000D03*
D19*
X66030000Y-132900000D03*
D20*
X67300000Y-132900000D03*
X68570000Y-132900000D03*
D21*
X67100000Y-54260000D03*
X67100000Y-56800000D03*
X67100000Y-59340000D03*
D19*
X94130000Y-54420000D03*
D20*
X95400000Y-54420000D03*
X96670000Y-54420000D03*
D17*
X80400000Y-38210000D03*
D18*
X80400000Y-45830000D03*
D17*
X99800000Y-46420000D03*
D18*
X99800000Y-38800000D03*
D19*
X68600238Y-128800000D03*
D20*
X67330238Y-128800000D03*
X66060238Y-128800000D03*
D24*
X95400000Y-86700000D03*
X57400000Y-115400000D03*
X60800000Y-102700000D03*
X95700000Y-126700000D03*
X80700000Y-84700000D03*
X66500000Y-68800000D03*
X83400000Y-38700000D03*
X71800000Y-109600000D03*
X63800000Y-129400000D03*
X63500000Y-102700000D03*
X64100000Y-137000000D03*
X59200000Y-48800000D03*
X98700000Y-87900000D03*
X71900000Y-49500000D03*
X58400000Y-136900000D03*
X71800000Y-110500000D03*
X65100000Y-49000000D03*
X57800000Y-136100000D03*
X71800000Y-111400000D03*
X71100000Y-54400000D03*
X80000000Y-145200000D03*
X56900000Y-99000000D03*
X71100000Y-55300000D03*
X75100000Y-100900000D03*
X64200000Y-49000000D03*
X98700000Y-87000000D03*
X56900000Y-98100000D03*
X98000000Y-56000000D03*
X65100000Y-137000000D03*
X72800000Y-49500000D03*
X81600000Y-84700000D03*
X64500000Y-102700000D03*
X79800000Y-84700000D03*
X86700000Y-72100000D03*
X95400000Y-87600000D03*
X59200000Y-47900000D03*
X96700000Y-78000000D03*
X84800000Y-78400000D03*
X61250000Y-92650000D03*
X61250000Y-95410659D03*
X59700000Y-108800000D03*
X58500000Y-126300000D03*
X83600000Y-91700000D03*
X74000000Y-100700000D03*
X83650000Y-130050000D03*
X76000000Y-115300000D03*
X75100000Y-114100000D03*
X69750000Y-104449999D03*
X66200000Y-119600000D03*
X85430331Y-80569669D03*
X73500000Y-69000000D03*
X79700000Y-70000000D03*
X95080331Y-74019669D03*
X70500000Y-99400000D03*
%LPD*%
M02*
