M48
; DRILL file {KiCad 8.0.6-8.0.6-0~ubuntu22.04.1} date 2025-01-15T16:43:41+0000
; FORMAT={-:-/ absolute / metric / decimal}
; #@! TF.CreationDate,2025-01-15T16:43:41+00:00
; #@! TF.GenerationSoftware,Kicad,Pcbnew,8.0.6-8.0.6-0~ubuntu22.04.1
; #@! TF.FileFunction,Plated,1,2,PTH
FMAT,2
METRIC
; #@! TA.AperFunction,Plated,PTH,ViaDrill
T1C0.400
; #@! TA.AperFunction,Plated,PTH,ComponentDrill
T2C0.750
; #@! TA.AperFunction,Plated,PTH,ComponentDrill
T3C0.800
; #@! TA.AperFunction,Plated,PTH,ComponentDrill
T4C1.000
%
G90
G05
T1
X56.9Y-98.1
X56.9Y-99.0
X57.4Y-115.4
X57.8Y-136.1
X58.4Y-136.9
X58.5Y-126.3
X59.2Y-47.9
X59.2Y-48.8
X59.7Y-108.8
X60.8Y-102.7
X61.25Y-92.65
X61.25Y-95.411
X63.5Y-102.7
X63.8Y-129.4
X64.1Y-137.0
X64.2Y-49.0
X64.5Y-102.7
X65.1Y-49.0
X65.1Y-137.0
X66.2Y-119.6
X66.5Y-68.8
X69.75Y-104.45
X70.5Y-99.4
X71.1Y-54.4
X71.1Y-55.3
X71.8Y-109.6
X71.8Y-110.5
X71.8Y-111.4
X71.9Y-49.5
X72.8Y-49.5
X73.5Y-69.0
X74.0Y-100.7
X75.1Y-100.9
X75.1Y-114.1
X76.0Y-115.3
X79.7Y-70.0
X79.8Y-84.7
X80.0Y-145.2
X80.7Y-84.7
X81.6Y-84.7
X83.4Y-38.7
X83.6Y-91.7
X83.65Y-130.05
X84.8Y-78.4
X85.43Y-80.57
X86.7Y-72.1
X95.08Y-74.02
X95.4Y-86.7
X95.4Y-87.6
X95.7Y-126.7
X96.7Y-78.0
X98.0Y-56.0
X98.7Y-87.0
X98.7Y-87.9
T2
X66.03Y-132.9
X66.06Y-128.8
X67.3Y-132.9
X67.33Y-128.8
X68.57Y-132.9
X68.6Y-128.8
X68.83Y-40.13
X68.83Y-44.22
X70.1Y-40.13
X70.1Y-44.22
X71.37Y-40.13
X71.37Y-44.22
X94.13Y-50.32
X94.13Y-54.42
X95.4Y-50.32
X95.4Y-54.42
X96.67Y-50.32
X96.67Y-54.42
X96.73Y-129.27
X96.73Y-133.3
X98.0Y-129.27
X98.0Y-133.3
X99.27Y-129.27
X99.27Y-133.3
T3
X55.88Y-104.902
X55.98Y-116.9
X55.99Y-110.9
X55.99Y-113.9
X56.99Y-63.9
X56.99Y-66.9
X56.99Y-69.9
X56.99Y-72.9
X57.26Y-121.1
X57.3Y-107.9
X57.49Y-140.15
X57.49Y-143.3
X57.8Y-38.48
X57.8Y-46.1
X58.37Y-100.7
X58.5Y-54.26
X58.5Y-56.8
X58.5Y-59.34
X59.8Y-121.1
X60.0Y-127.39
X60.0Y-135.01
X60.91Y-100.7
X62.3Y-107.9
X62.34Y-121.1
X62.8Y-38.5
X62.8Y-46.12
X62.9Y-53.29
X62.9Y-60.91
X63.0Y-127.39
X63.0Y-135.01
X63.45Y-100.7
X63.5Y-104.902
X63.6Y-116.9
X63.61Y-110.9
X63.61Y-113.9
X64.61Y-63.9
X64.61Y-66.9
X64.61Y-69.9
X64.61Y-72.9
X65.11Y-140.15
X65.11Y-143.3
X65.8Y-38.51
X65.8Y-46.13
X65.98Y-110.2
X65.99Y-113.2
X67.1Y-54.26
X67.1Y-56.8
X67.1Y-59.34
X67.8Y-137.6
X67.8Y-145.22
X68.69Y-84.7
X68.8Y-117.0
X68.8Y-124.62
X69.4Y-71.9
X69.46Y-87.28
X69.46Y-94.9
X70.8Y-137.6
X70.8Y-145.22
X71.3Y-58.73
X71.3Y-66.35
X71.8Y-116.99
X71.8Y-124.61
X71.9Y-74.49
X71.9Y-82.11
X72.175Y-127.4
X72.175Y-135.02
X72.5Y-87.28
X72.5Y-94.9
X73.6Y-110.2
X73.61Y-113.2
X73.8Y-137.6
X73.8Y-145.22
X74.3Y-58.72
X74.3Y-66.34
X74.4Y-38.21
X74.4Y-45.83
X74.4Y-71.9
X74.715Y-127.4
X74.715Y-135.02
X74.79Y-105.7
X74.8Y-116.99
X74.8Y-124.61
X75.2Y-102.7
X75.775Y-48.52
X75.775Y-56.14
X76.31Y-84.7
X76.8Y-137.6
X76.8Y-145.22
X77.16Y-80.5
X77.255Y-127.4
X77.255Y-135.02
X77.4Y-38.21
X77.4Y-45.83
X77.4Y-58.72
X77.4Y-66.34
X77.59Y-99.2
X77.9Y-108.3
X77.9Y-115.92
X78.0Y-119.6
X78.0Y-124.6
X78.315Y-48.52
X78.315Y-56.14
X78.82Y-95.0
X78.86Y-89.6
X79.7Y-80.5
X79.795Y-127.4
X79.795Y-135.02
X79.8Y-137.8
X79.8Y-142.8
X80.2Y-102.7
X80.4Y-38.21
X80.4Y-45.83
X80.4Y-58.72
X80.4Y-66.34
X80.855Y-48.52
X80.855Y-56.14
X81.0Y-117.0
X81.0Y-124.62
X81.36Y-95.0
X81.4Y-89.6
X82.24Y-80.5
X82.335Y-127.4
X82.335Y-135.02
X82.41Y-105.7
X82.9Y-137.6
X82.9Y-145.22
X83.395Y-48.52
X83.395Y-56.14
X83.4Y-40.72
X83.4Y-45.72
X83.4Y-58.92
X83.4Y-63.92
X83.9Y-95.0
X83.94Y-89.6
X84.0Y-116.99
X84.0Y-124.61
X84.69Y-69.0
X84.69Y-72.0
X84.875Y-127.4
X84.875Y-135.02
X84.9Y-75.1
X85.21Y-99.2
X85.9Y-137.6
X85.9Y-145.22
X85.935Y-48.52
X85.935Y-56.14
X86.4Y-77.69
X86.4Y-85.31
X86.5Y-38.21
X86.5Y-45.83
X86.5Y-58.72
X86.5Y-66.34
X87.0Y-116.99
X87.0Y-124.61
X87.415Y-127.4
X87.415Y-135.02
X88.475Y-48.52
X88.475Y-56.14
X88.9Y-137.6
X88.9Y-145.22
X89.4Y-77.69
X89.4Y-85.31
X89.46Y-103.8
X89.5Y-38.22
X89.5Y-45.84
X89.5Y-58.72
X89.5Y-66.34
X89.515Y-112.12
X89.9Y-75.1
X90.0Y-116.99
X90.0Y-124.61
X90.6Y-127.48
X90.6Y-135.1
X91.015Y-48.52
X91.015Y-56.14
X91.46Y-103.8
X91.515Y-112.12
X91.59Y-141.4
X91.61Y-138.4
X92.31Y-69.0
X92.31Y-72.0
X92.5Y-38.3
X92.5Y-45.92
X92.5Y-58.72
X92.5Y-66.34
X93.7Y-127.48
X93.7Y-135.1
X95.5Y-38.3
X95.5Y-45.92
X95.6Y-58.71
X95.6Y-66.33
X96.0Y-71.1
X98.1Y-75.29
X98.1Y-82.91
X98.54Y-71.1
X98.6Y-58.71
X98.6Y-66.33
X99.21Y-141.4
X99.23Y-138.4
X99.8Y-38.8
X99.8Y-46.42
X99.8Y-48.91
X99.8Y-56.53
X101.08Y-71.1
X102.8Y-38.8
X102.8Y-46.42
X102.8Y-48.91
X102.8Y-56.53
T4
X56.3Y-76.7
X56.3Y-79.24
X56.3Y-81.78
X56.3Y-84.32
X56.3Y-86.86
X56.3Y-89.4
X56.3Y-91.94
X56.3Y-94.48
X65.6Y-76.7
X65.6Y-79.24
X65.6Y-81.78
X65.6Y-84.32
X65.6Y-86.86
X65.6Y-89.4
X65.6Y-91.94
X65.6Y-94.48
X93.0Y-76.7
X93.0Y-79.24
X93.0Y-81.78
X93.0Y-84.32
X93.0Y-86.86
X93.0Y-89.4
X93.0Y-91.94
X93.0Y-94.48
X94.0Y-98.4
X96.54Y-98.4
X97.16Y-105.58
X97.16Y-108.12
X97.16Y-110.66
X97.16Y-113.2
X97.16Y-115.74
X99.08Y-98.4
X99.7Y-105.58
X99.7Y-108.12
X99.7Y-110.66
X99.7Y-113.2
X99.7Y-115.74
X101.62Y-98.4
X102.7Y-76.7
X102.7Y-79.24
X102.7Y-81.78
X102.7Y-84.32
X102.7Y-86.86
X102.7Y-89.4
X102.7Y-91.94
X102.7Y-94.48
M30
