%TF.GenerationSoftware,KiCad,Pcbnew,8.0.6-8.0.6-0~ubuntu22.04.1*%
%TF.CreationDate,2025-01-13T21:54:26+00:00*%
%TF.ProjectId,Basic_VCA,42617369-635f-4564-9341-2e6b69636164,rev?*%
%TF.SameCoordinates,Original*%
%TF.FileFunction,Drillmap*%
%TF.FilePolarity,Positive*%
%FSLAX45Y45*%
G04 Gerber Fmt 4.5, Leading zero omitted, Abs format (unit mm)*
G04 Created by KiCad (PCBNEW 8.0.6-8.0.6-0~ubuntu22.04.1) date 2025-01-13 21:54:26*
%MOMM*%
%LPD*%
G01*
G04 APERTURE LIST*
%ADD10C,0.050000*%
%ADD11C,0.200000*%
%ADD12C,0.100000*%
G04 APERTURE END LIST*
D10*
X5450000Y-3650000D02*
X10450000Y-3650000D01*
X5450000Y-3650000D02*
X5450000Y-14650000D01*
X5450000Y-14650000D02*
X10450000Y-14650000D01*
X10450000Y-3650000D02*
X10450000Y-14650000D01*
D11*
D12*
X5670000Y-9790000D02*
X5710000Y-9830000D01*
X5710000Y-9790000D02*
X5670000Y-9830000D01*
X5670000Y-9880000D02*
X5710000Y-9920000D01*
X5710000Y-9880000D02*
X5670000Y-9920000D01*
X5720000Y-11520000D02*
X5760000Y-11560000D01*
X5760000Y-11520000D02*
X5720000Y-11560000D01*
X5760000Y-13590000D02*
X5800000Y-13630000D01*
X5800000Y-13590000D02*
X5760000Y-13630000D01*
X5820000Y-13670000D02*
X5860000Y-13710000D01*
X5860000Y-13670000D02*
X5820000Y-13710000D01*
X5830000Y-12610000D02*
X5870000Y-12650000D01*
X5870000Y-12610000D02*
X5830000Y-12650000D01*
X5900000Y-4770000D02*
X5940000Y-4810000D01*
X5940000Y-4770000D02*
X5900000Y-4810000D01*
X5900000Y-4860000D02*
X5940000Y-4900000D01*
X5940000Y-4860000D02*
X5900000Y-4900000D01*
X5950000Y-10860000D02*
X5990000Y-10900000D01*
X5990000Y-10860000D02*
X5950000Y-10900000D01*
X6060000Y-10250000D02*
X6100000Y-10290000D01*
X6100000Y-10250000D02*
X6060000Y-10290000D01*
X6105000Y-9245000D02*
X6145000Y-9285000D01*
X6145000Y-9245000D02*
X6105000Y-9285000D01*
X6105000Y-9521066D02*
X6145000Y-9561066D01*
X6145000Y-9521066D02*
X6105000Y-9561066D01*
X6330000Y-10250000D02*
X6370000Y-10290000D01*
X6370000Y-10250000D02*
X6330000Y-10290000D01*
X6360000Y-12920000D02*
X6400000Y-12960000D01*
X6400000Y-12920000D02*
X6360000Y-12960000D01*
X6390000Y-13680000D02*
X6430000Y-13720000D01*
X6430000Y-13680000D02*
X6390000Y-13720000D01*
X6400000Y-4880000D02*
X6440000Y-4920000D01*
X6440000Y-4880000D02*
X6400000Y-4920000D01*
X6430000Y-10250000D02*
X6470000Y-10290000D01*
X6470000Y-10250000D02*
X6430000Y-10290000D01*
X6490000Y-4880000D02*
X6530000Y-4920000D01*
X6530000Y-4880000D02*
X6490000Y-4920000D01*
X6490000Y-13680000D02*
X6530000Y-13720000D01*
X6530000Y-13680000D02*
X6490000Y-13720000D01*
X6600000Y-11940000D02*
X6640000Y-11980000D01*
X6640000Y-11940000D02*
X6600000Y-11980000D01*
X6630000Y-6860000D02*
X6670000Y-6900000D01*
X6670000Y-6860000D02*
X6630000Y-6900000D01*
X6955000Y-10425000D02*
X6995000Y-10465000D01*
X6995000Y-10425000D02*
X6955000Y-10465000D01*
X7030000Y-9920000D02*
X7070000Y-9960000D01*
X7070000Y-9920000D02*
X7030000Y-9960000D01*
X7090000Y-5420000D02*
X7130000Y-5460000D01*
X7130000Y-5420000D02*
X7090000Y-5460000D01*
X7090000Y-5510000D02*
X7130000Y-5550000D01*
X7130000Y-5510000D02*
X7090000Y-5550000D01*
X7160000Y-10940000D02*
X7200000Y-10980000D01*
X7200000Y-10940000D02*
X7160000Y-10980000D01*
X7160000Y-11030000D02*
X7200000Y-11070000D01*
X7200000Y-11030000D02*
X7160000Y-11070000D01*
X7160000Y-11120000D02*
X7200000Y-11160000D01*
X7200000Y-11120000D02*
X7160000Y-11160000D01*
X7170000Y-4930000D02*
X7210000Y-4970000D01*
X7210000Y-4930000D02*
X7170000Y-4970000D01*
X7260000Y-4930000D02*
X7300000Y-4970000D01*
X7300000Y-4930000D02*
X7260000Y-4970000D01*
X7330000Y-6880000D02*
X7370000Y-6920000D01*
X7370000Y-6880000D02*
X7330000Y-6920000D01*
X7380000Y-10050000D02*
X7420000Y-10090000D01*
X7420000Y-10050000D02*
X7380000Y-10090000D01*
X7490000Y-10070000D02*
X7530000Y-10110000D01*
X7530000Y-10070000D02*
X7490000Y-10110000D01*
X7490000Y-11390000D02*
X7530000Y-11430000D01*
X7530000Y-11390000D02*
X7490000Y-11430000D01*
X7580000Y-11510000D02*
X7620000Y-11550000D01*
X7620000Y-11510000D02*
X7580000Y-11550000D01*
X7950000Y-6980000D02*
X7990000Y-7020000D01*
X7990000Y-6980000D02*
X7950000Y-7020000D01*
X7960000Y-8450000D02*
X8000000Y-8490000D01*
X8000000Y-8450000D02*
X7960000Y-8490000D01*
X7980000Y-14500000D02*
X8020000Y-14540000D01*
X8020000Y-14500000D02*
X7980000Y-14540000D01*
X8050000Y-8450000D02*
X8090000Y-8490000D01*
X8090000Y-8450000D02*
X8050000Y-8490000D01*
X8140000Y-8450000D02*
X8180000Y-8490000D01*
X8180000Y-8450000D02*
X8140000Y-8490000D01*
X8320000Y-3850000D02*
X8360000Y-3890000D01*
X8360000Y-3850000D02*
X8320000Y-3890000D01*
X8340000Y-9150000D02*
X8380000Y-9190000D01*
X8380000Y-9150000D02*
X8340000Y-9190000D01*
X8345000Y-12985000D02*
X8385000Y-13025000D01*
X8385000Y-12985000D02*
X8345000Y-13025000D01*
X8460000Y-7820000D02*
X8500000Y-7860000D01*
X8500000Y-7820000D02*
X8460000Y-7860000D01*
X8523033Y-8036967D02*
X8563033Y-8076967D01*
X8563033Y-8036967D02*
X8523033Y-8076967D01*
X8650000Y-7190000D02*
X8690000Y-7230000D01*
X8690000Y-7190000D02*
X8650000Y-7230000D01*
X9488033Y-7381967D02*
X9528033Y-7421967D01*
X9528033Y-7381967D02*
X9488033Y-7421967D01*
X9520000Y-8650000D02*
X9560000Y-8690000D01*
X9560000Y-8650000D02*
X9520000Y-8690000D01*
X9520000Y-8740000D02*
X9560000Y-8780000D01*
X9560000Y-8740000D02*
X9520000Y-8780000D01*
X9550000Y-12650000D02*
X9590000Y-12690000D01*
X9590000Y-12650000D02*
X9550000Y-12690000D01*
X9650000Y-7780000D02*
X9690000Y-7820000D01*
X9690000Y-7780000D02*
X9650000Y-7820000D01*
X9780000Y-5580000D02*
X9820000Y-5620000D01*
X9820000Y-5580000D02*
X9780000Y-5620000D01*
X9850000Y-8680000D02*
X9890000Y-8720000D01*
X9890000Y-8680000D02*
X9850000Y-8720000D01*
X9850000Y-8770000D02*
X9890000Y-8810000D01*
X9890000Y-8770000D02*
X9850000Y-8810000D01*
X6640500Y-13290000D02*
G75*
G02*
X6565500Y-13290000I-37500J0D01*
G01*
X6565500Y-13290000D02*
G75*
G02*
X6640500Y-13290000I37500J0D01*
G01*
X6643524Y-12880000D02*
G75*
G02*
X6568524Y-12880000I-37500J0D01*
G01*
X6568524Y-12880000D02*
G75*
G02*
X6643524Y-12880000I37500J0D01*
G01*
X6767500Y-13290000D02*
G75*
G02*
X6692500Y-13290000I-37500J0D01*
G01*
X6692500Y-13290000D02*
G75*
G02*
X6767500Y-13290000I37500J0D01*
G01*
X6770524Y-12880000D02*
G75*
G02*
X6695524Y-12880000I-37500J0D01*
G01*
X6695524Y-12880000D02*
G75*
G02*
X6770524Y-12880000I37500J0D01*
G01*
X6894500Y-13290000D02*
G75*
G02*
X6819500Y-13290000I-37500J0D01*
G01*
X6819500Y-13290000D02*
G75*
G02*
X6894500Y-13290000I37500J0D01*
G01*
X6897524Y-12880000D02*
G75*
G02*
X6822524Y-12880000I-37500J0D01*
G01*
X6822524Y-12880000D02*
G75*
G02*
X6897524Y-12880000I37500J0D01*
G01*
X6920500Y-4013000D02*
G75*
G02*
X6845500Y-4013000I-37500J0D01*
G01*
X6845500Y-4013000D02*
G75*
G02*
X6920500Y-4013000I37500J0D01*
G01*
X6920500Y-4422000D02*
G75*
G02*
X6845500Y-4422000I-37500J0D01*
G01*
X6845500Y-4422000D02*
G75*
G02*
X6920500Y-4422000I37500J0D01*
G01*
X7047500Y-4013000D02*
G75*
G02*
X6972500Y-4013000I-37500J0D01*
G01*
X6972500Y-4013000D02*
G75*
G02*
X7047500Y-4013000I37500J0D01*
G01*
X7047500Y-4422000D02*
G75*
G02*
X6972500Y-4422000I-37500J0D01*
G01*
X6972500Y-4422000D02*
G75*
G02*
X7047500Y-4422000I37500J0D01*
G01*
X7174500Y-4013000D02*
G75*
G02*
X7099500Y-4013000I-37500J0D01*
G01*
X7099500Y-4013000D02*
G75*
G02*
X7174500Y-4013000I37500J0D01*
G01*
X7174500Y-4422000D02*
G75*
G02*
X7099500Y-4422000I-37500J0D01*
G01*
X7099500Y-4422000D02*
G75*
G02*
X7174500Y-4422000I37500J0D01*
G01*
X9450500Y-5032000D02*
G75*
G02*
X9375500Y-5032000I-37500J0D01*
G01*
X9375500Y-5032000D02*
G75*
G02*
X9450500Y-5032000I37500J0D01*
G01*
X9450500Y-5442000D02*
G75*
G02*
X9375500Y-5442000I-37500J0D01*
G01*
X9375500Y-5442000D02*
G75*
G02*
X9450500Y-5442000I37500J0D01*
G01*
X9577500Y-5032000D02*
G75*
G02*
X9502500Y-5032000I-37500J0D01*
G01*
X9502500Y-5032000D02*
G75*
G02*
X9577500Y-5032000I37500J0D01*
G01*
X9577500Y-5442000D02*
G75*
G02*
X9502500Y-5442000I-37500J0D01*
G01*
X9502500Y-5442000D02*
G75*
G02*
X9577500Y-5442000I37500J0D01*
G01*
X9704500Y-5032000D02*
G75*
G02*
X9629500Y-5032000I-37500J0D01*
G01*
X9629500Y-5032000D02*
G75*
G02*
X9704500Y-5032000I37500J0D01*
G01*
X9704500Y-5442000D02*
G75*
G02*
X9629500Y-5442000I-37500J0D01*
G01*
X9629500Y-5442000D02*
G75*
G02*
X9704500Y-5442000I37500J0D01*
G01*
X9710500Y-12927000D02*
G75*
G02*
X9635500Y-12927000I-37500J0D01*
G01*
X9635500Y-12927000D02*
G75*
G02*
X9710500Y-12927000I37500J0D01*
G01*
X9710500Y-13330000D02*
G75*
G02*
X9635500Y-13330000I-37500J0D01*
G01*
X9635500Y-13330000D02*
G75*
G02*
X9710500Y-13330000I37500J0D01*
G01*
X9837500Y-12927000D02*
G75*
G02*
X9762500Y-12927000I-37500J0D01*
G01*
X9762500Y-12927000D02*
G75*
G02*
X9837500Y-12927000I37500J0D01*
G01*
X9837500Y-13330000D02*
G75*
G02*
X9762500Y-13330000I-37500J0D01*
G01*
X9762500Y-13330000D02*
G75*
G02*
X9837500Y-13330000I37500J0D01*
G01*
X9964500Y-12927000D02*
G75*
G02*
X9889500Y-12927000I-37500J0D01*
G01*
X9889500Y-12927000D02*
G75*
G02*
X9964500Y-12927000I37500J0D01*
G01*
X9964500Y-13330000D02*
G75*
G02*
X9889500Y-13330000I-37500J0D01*
G01*
X9889500Y-13330000D02*
G75*
G02*
X9964500Y-13330000I37500J0D01*
G01*
X5588000Y-10450200D02*
X5588000Y-10530200D01*
X5548000Y-10490200D02*
X5628000Y-10490200D01*
X5598000Y-11650000D02*
X5598000Y-11730000D01*
X5558000Y-11690000D02*
X5638000Y-11690000D01*
X5599000Y-11050000D02*
X5599000Y-11130000D01*
X5559000Y-11090000D02*
X5639000Y-11090000D01*
X5599000Y-11350000D02*
X5599000Y-11430000D01*
X5559000Y-11390000D02*
X5639000Y-11390000D01*
X5699000Y-6350000D02*
X5699000Y-6430000D01*
X5659000Y-6390000D02*
X5739000Y-6390000D01*
X5699000Y-6650000D02*
X5699000Y-6730000D01*
X5659000Y-6690000D02*
X5739000Y-6690000D01*
X5699000Y-6950000D02*
X5699000Y-7030000D01*
X5659000Y-6990000D02*
X5739000Y-6990000D01*
X5699000Y-7250000D02*
X5699000Y-7330000D01*
X5659000Y-7290000D02*
X5739000Y-7290000D01*
X5726000Y-12070000D02*
X5726000Y-12150000D01*
X5686000Y-12110000D02*
X5766000Y-12110000D01*
X5730000Y-10750000D02*
X5730000Y-10830000D01*
X5690000Y-10790000D02*
X5770000Y-10790000D01*
X5749000Y-13975000D02*
X5749000Y-14055000D01*
X5709000Y-14015000D02*
X5789000Y-14015000D01*
X5749000Y-14290000D02*
X5749000Y-14370000D01*
X5709000Y-14330000D02*
X5789000Y-14330000D01*
X5780000Y-3808000D02*
X5780000Y-3888000D01*
X5740000Y-3848000D02*
X5820000Y-3848000D01*
X5780000Y-4570000D02*
X5780000Y-4650000D01*
X5740000Y-4610000D02*
X5820000Y-4610000D01*
X5830000Y-10030000D02*
X5830000Y-10110000D01*
X5790000Y-10070000D02*
X5870000Y-10070000D01*
X5850000Y-5386000D02*
X5850000Y-5466000D01*
X5810000Y-5426000D02*
X5890000Y-5426000D01*
X5850000Y-5640000D02*
X5850000Y-5720000D01*
X5810000Y-5680000D02*
X5890000Y-5680000D01*
X5850000Y-5894000D02*
X5850000Y-5974000D01*
X5810000Y-5934000D02*
X5890000Y-5934000D01*
X5980000Y-12070000D02*
X5980000Y-12150000D01*
X5940000Y-12110000D02*
X6020000Y-12110000D01*
X6000000Y-12699000D02*
X6000000Y-12779000D01*
X5960000Y-12739000D02*
X6040000Y-12739000D01*
X6000000Y-13461000D02*
X6000000Y-13541000D01*
X5960000Y-13501000D02*
X6040000Y-13501000D01*
X6084000Y-10030000D02*
X6084000Y-10110000D01*
X6044000Y-10070000D02*
X6124000Y-10070000D01*
X6230000Y-10750000D02*
X6230000Y-10830000D01*
X6190000Y-10790000D02*
X6270000Y-10790000D01*
X6234000Y-12070000D02*
X6234000Y-12150000D01*
X6194000Y-12110000D02*
X6274000Y-12110000D01*
X6280000Y-3810000D02*
X6280000Y-3890000D01*
X6240000Y-3850000D02*
X6320000Y-3850000D01*
X6280000Y-4572000D02*
X6280000Y-4652000D01*
X6240000Y-4612000D02*
X6320000Y-4612000D01*
X6290000Y-5289000D02*
X6290000Y-5369000D01*
X6250000Y-5329000D02*
X6330000Y-5329000D01*
X6290000Y-6051000D02*
X6290000Y-6131000D01*
X6250000Y-6091000D02*
X6330000Y-6091000D01*
X6300000Y-12699000D02*
X6300000Y-12779000D01*
X6260000Y-12739000D02*
X6340000Y-12739000D01*
X6300000Y-13461000D02*
X6300000Y-13541000D01*
X6260000Y-13501000D02*
X6340000Y-13501000D01*
X6338000Y-10030000D02*
X6338000Y-10110000D01*
X6298000Y-10070000D02*
X6378000Y-10070000D01*
X6350000Y-10450200D02*
X6350000Y-10530200D01*
X6310000Y-10490200D02*
X6390000Y-10490200D01*
X6360000Y-11650000D02*
X6360000Y-11730000D01*
X6320000Y-11690000D02*
X6400000Y-11690000D01*
X6361000Y-11050000D02*
X6361000Y-11130000D01*
X6321000Y-11090000D02*
X6401000Y-11090000D01*
X6361000Y-11350000D02*
X6361000Y-11430000D01*
X6321000Y-11390000D02*
X6401000Y-11390000D01*
X6461000Y-6350000D02*
X6461000Y-6430000D01*
X6421000Y-6390000D02*
X6501000Y-6390000D01*
X6461000Y-6650000D02*
X6461000Y-6730000D01*
X6421000Y-6690000D02*
X6501000Y-6690000D01*
X6461000Y-6950000D02*
X6461000Y-7030000D01*
X6421000Y-6990000D02*
X6501000Y-6990000D01*
X6461000Y-7250000D02*
X6461000Y-7330000D01*
X6421000Y-7290000D02*
X6501000Y-7290000D01*
X6511000Y-13975000D02*
X6511000Y-14055000D01*
X6471000Y-14015000D02*
X6551000Y-14015000D01*
X6511000Y-14290000D02*
X6511000Y-14370000D01*
X6471000Y-14330000D02*
X6551000Y-14330000D01*
X6580000Y-3811000D02*
X6580000Y-3891000D01*
X6540000Y-3851000D02*
X6620000Y-3851000D01*
X6580000Y-4573000D02*
X6580000Y-4653000D01*
X6540000Y-4613000D02*
X6620000Y-4613000D01*
X6598000Y-10980000D02*
X6598000Y-11060000D01*
X6558000Y-11020000D02*
X6638000Y-11020000D01*
X6599000Y-11280000D02*
X6599000Y-11360000D01*
X6559000Y-11320000D02*
X6639000Y-11320000D01*
X6710000Y-5413000D02*
X6710000Y-5493000D01*
X6670000Y-5453000D02*
X6750000Y-5453000D01*
X6710000Y-5667000D02*
X6710000Y-5747000D01*
X6670000Y-5707000D02*
X6750000Y-5707000D01*
X6710000Y-5921000D02*
X6710000Y-6001000D01*
X6670000Y-5961000D02*
X6750000Y-5961000D01*
X6780000Y-13720000D02*
X6780000Y-13800000D01*
X6740000Y-13760000D02*
X6820000Y-13760000D01*
X6780000Y-14482000D02*
X6780000Y-14562000D01*
X6740000Y-14522000D02*
X6820000Y-14522000D01*
X6869000Y-8430000D02*
X6869000Y-8510000D01*
X6829000Y-8470000D02*
X6909000Y-8470000D01*
X6880000Y-11660000D02*
X6880000Y-11740000D01*
X6840000Y-11700000D02*
X6920000Y-11700000D01*
X6880000Y-12422000D02*
X6880000Y-12502000D01*
X6840000Y-12462000D02*
X6920000Y-12462000D01*
X6940000Y-7150000D02*
X6940000Y-7230000D01*
X6900000Y-7190000D02*
X6980000Y-7190000D01*
X6946000Y-8688000D02*
X6946000Y-8768000D01*
X6906000Y-8728000D02*
X6986000Y-8728000D01*
X6946000Y-9450000D02*
X6946000Y-9530000D01*
X6906000Y-9490000D02*
X6986000Y-9490000D01*
X7080000Y-13720000D02*
X7080000Y-13800000D01*
X7040000Y-13760000D02*
X7120000Y-13760000D01*
X7080000Y-14482000D02*
X7080000Y-14562000D01*
X7040000Y-14522000D02*
X7120000Y-14522000D01*
X7130000Y-5833000D02*
X7130000Y-5913000D01*
X7090000Y-5873000D02*
X7170000Y-5873000D01*
X7130000Y-6595000D02*
X7130000Y-6675000D01*
X7090000Y-6635000D02*
X7170000Y-6635000D01*
X7180000Y-11659000D02*
X7180000Y-11739000D01*
X7140000Y-11699000D02*
X7220000Y-11699000D01*
X7180000Y-12421000D02*
X7180000Y-12501000D01*
X7140000Y-12461000D02*
X7220000Y-12461000D01*
X7190000Y-7409000D02*
X7190000Y-7489000D01*
X7150000Y-7449000D02*
X7230000Y-7449000D01*
X7190000Y-8171000D02*
X7190000Y-8251000D01*
X7150000Y-8211000D02*
X7230000Y-8211000D01*
X7217500Y-12700000D02*
X7217500Y-12780000D01*
X7177500Y-12740000D02*
X7257500Y-12740000D01*
X7217500Y-13462000D02*
X7217500Y-13542000D01*
X7177500Y-13502000D02*
X7257500Y-13502000D01*
X7250000Y-8688000D02*
X7250000Y-8768000D01*
X7210000Y-8728000D02*
X7290000Y-8728000D01*
X7250000Y-9450000D02*
X7250000Y-9530000D01*
X7210000Y-9490000D02*
X7290000Y-9490000D01*
X7360000Y-10980000D02*
X7360000Y-11060000D01*
X7320000Y-11020000D02*
X7400000Y-11020000D01*
X7361000Y-11280000D02*
X7361000Y-11360000D01*
X7321000Y-11320000D02*
X7401000Y-11320000D01*
X7380000Y-13720000D02*
X7380000Y-13800000D01*
X7340000Y-13760000D02*
X7420000Y-13760000D01*
X7380000Y-14482000D02*
X7380000Y-14562000D01*
X7340000Y-14522000D02*
X7420000Y-14522000D01*
X7430000Y-5832000D02*
X7430000Y-5912000D01*
X7390000Y-5872000D02*
X7470000Y-5872000D01*
X7430000Y-6594000D02*
X7430000Y-6674000D01*
X7390000Y-6634000D02*
X7470000Y-6634000D01*
X7440000Y-3781000D02*
X7440000Y-3861000D01*
X7400000Y-3821000D02*
X7480000Y-3821000D01*
X7440000Y-4543000D02*
X7440000Y-4623000D01*
X7400000Y-4583000D02*
X7480000Y-4583000D01*
X7440000Y-7150000D02*
X7440000Y-7230000D01*
X7400000Y-7190000D02*
X7480000Y-7190000D01*
X7471500Y-12700000D02*
X7471500Y-12780000D01*
X7431500Y-12740000D02*
X7511500Y-12740000D01*
X7471500Y-13462000D02*
X7471500Y-13542000D01*
X7431500Y-13502000D02*
X7511500Y-13502000D01*
X7479000Y-10530000D02*
X7479000Y-10610000D01*
X7439000Y-10570000D02*
X7519000Y-10570000D01*
X7480000Y-11659000D02*
X7480000Y-11739000D01*
X7440000Y-11699000D02*
X7520000Y-11699000D01*
X7480000Y-12421000D02*
X7480000Y-12501000D01*
X7440000Y-12461000D02*
X7520000Y-12461000D01*
X7520000Y-10230000D02*
X7520000Y-10310000D01*
X7480000Y-10270000D02*
X7560000Y-10270000D01*
X7577500Y-4812000D02*
X7577500Y-4892000D01*
X7537500Y-4852000D02*
X7617500Y-4852000D01*
X7577500Y-5574000D02*
X7577500Y-5654000D01*
X7537500Y-5614000D02*
X7617500Y-5614000D01*
X7631000Y-8430000D02*
X7631000Y-8510000D01*
X7591000Y-8470000D02*
X7671000Y-8470000D01*
X7680000Y-13720000D02*
X7680000Y-13800000D01*
X7640000Y-13760000D02*
X7720000Y-13760000D01*
X7680000Y-14482000D02*
X7680000Y-14562000D01*
X7640000Y-14522000D02*
X7720000Y-14522000D01*
X7725500Y-12700000D02*
X7725500Y-12780000D01*
X7685500Y-12740000D02*
X7765500Y-12740000D01*
X7725500Y-13462000D02*
X7725500Y-13542000D01*
X7685500Y-13502000D02*
X7765500Y-13502000D01*
X7726000Y-8010000D02*
X7726000Y-8090000D01*
X7686000Y-8050000D02*
X7766000Y-8050000D01*
X7740000Y-3781000D02*
X7740000Y-3861000D01*
X7700000Y-3821000D02*
X7780000Y-3821000D01*
X7740000Y-4543000D02*
X7740000Y-4623000D01*
X7700000Y-4583000D02*
X7780000Y-4583000D01*
X7740000Y-5832000D02*
X7740000Y-5912000D01*
X7700000Y-5872000D02*
X7780000Y-5872000D01*
X7740000Y-6594000D02*
X7740000Y-6674000D01*
X7700000Y-6634000D02*
X7780000Y-6634000D01*
X7759000Y-9880000D02*
X7759000Y-9960000D01*
X7719000Y-9920000D02*
X7799000Y-9920000D01*
X7790000Y-10790000D02*
X7790000Y-10870000D01*
X7750000Y-10830000D02*
X7830000Y-10830000D01*
X7790000Y-11552000D02*
X7790000Y-11632000D01*
X7750000Y-11592000D02*
X7830000Y-11592000D01*
X7800000Y-11920000D02*
X7800000Y-12000000D01*
X7760000Y-11960000D02*
X7840000Y-11960000D01*
X7800000Y-12420000D02*
X7800000Y-12500000D01*
X7760000Y-12460000D02*
X7840000Y-12460000D01*
X7831500Y-4812000D02*
X7831500Y-4892000D01*
X7791500Y-4852000D02*
X7871500Y-4852000D01*
X7831500Y-5574000D02*
X7831500Y-5654000D01*
X7791500Y-5614000D02*
X7871500Y-5614000D01*
X7886000Y-8920000D02*
X7886000Y-9000000D01*
X7846000Y-8960000D02*
X7926000Y-8960000D01*
X7886000Y-9460000D02*
X7886000Y-9540000D01*
X7846000Y-9500000D02*
X7926000Y-9500000D01*
X7979500Y-12700000D02*
X7979500Y-12780000D01*
X7939500Y-12740000D02*
X8019500Y-12740000D01*
X7979500Y-13462000D02*
X7979500Y-13542000D01*
X7939500Y-13502000D02*
X8019500Y-13502000D01*
X7980000Y-8010000D02*
X7980000Y-8090000D01*
X7940000Y-8050000D02*
X8020000Y-8050000D01*
X7980000Y-13740000D02*
X7980000Y-13820000D01*
X7940000Y-13780000D02*
X8020000Y-13780000D01*
X7980000Y-14240000D02*
X7980000Y-14320000D01*
X7940000Y-14280000D02*
X8020000Y-14280000D01*
X8020000Y-10230000D02*
X8020000Y-10310000D01*
X7980000Y-10270000D02*
X8060000Y-10270000D01*
X8040000Y-3781000D02*
X8040000Y-3861000D01*
X8000000Y-3821000D02*
X8080000Y-3821000D01*
X8040000Y-4543000D02*
X8040000Y-4623000D01*
X8000000Y-4583000D02*
X8080000Y-4583000D01*
X8040000Y-5832000D02*
X8040000Y-5912000D01*
X8000000Y-5872000D02*
X8080000Y-5872000D01*
X8040000Y-6594000D02*
X8040000Y-6674000D01*
X8000000Y-6634000D02*
X8080000Y-6634000D01*
X8085500Y-4812000D02*
X8085500Y-4892000D01*
X8045500Y-4852000D02*
X8125500Y-4852000D01*
X8085500Y-5574000D02*
X8085500Y-5654000D01*
X8045500Y-5614000D02*
X8125500Y-5614000D01*
X8100000Y-11660000D02*
X8100000Y-11740000D01*
X8060000Y-11700000D02*
X8140000Y-11700000D01*
X8100000Y-12422000D02*
X8100000Y-12502000D01*
X8060000Y-12462000D02*
X8140000Y-12462000D01*
X8140000Y-8920000D02*
X8140000Y-9000000D01*
X8100000Y-8960000D02*
X8180000Y-8960000D01*
X8140000Y-9460000D02*
X8140000Y-9540000D01*
X8100000Y-9500000D02*
X8180000Y-9500000D01*
X8233500Y-12700000D02*
X8233500Y-12780000D01*
X8193500Y-12740000D02*
X8273500Y-12740000D01*
X8233500Y-13462000D02*
X8233500Y-13542000D01*
X8193500Y-13502000D02*
X8273500Y-13502000D01*
X8234000Y-8010000D02*
X8234000Y-8090000D01*
X8194000Y-8050000D02*
X8274000Y-8050000D01*
X8241000Y-10530000D02*
X8241000Y-10610000D01*
X8201000Y-10570000D02*
X8281000Y-10570000D01*
X8290000Y-13720000D02*
X8290000Y-13800000D01*
X8250000Y-13760000D02*
X8330000Y-13760000D01*
X8290000Y-14482000D02*
X8290000Y-14562000D01*
X8250000Y-14522000D02*
X8330000Y-14522000D01*
X8339500Y-4812000D02*
X8339500Y-4892000D01*
X8299500Y-4852000D02*
X8379500Y-4852000D01*
X8339500Y-5574000D02*
X8339500Y-5654000D01*
X8299500Y-5614000D02*
X8379500Y-5614000D01*
X8340000Y-4032000D02*
X8340000Y-4112000D01*
X8300000Y-4072000D02*
X8380000Y-4072000D01*
X8340000Y-4532000D02*
X8340000Y-4612000D01*
X8300000Y-4572000D02*
X8380000Y-4572000D01*
X8340000Y-5852000D02*
X8340000Y-5932000D01*
X8300000Y-5892000D02*
X8380000Y-5892000D01*
X8340000Y-6352000D02*
X8340000Y-6432000D01*
X8300000Y-6392000D02*
X8380000Y-6392000D01*
X8394000Y-8920000D02*
X8394000Y-9000000D01*
X8354000Y-8960000D02*
X8434000Y-8960000D01*
X8394000Y-9460000D02*
X8394000Y-9540000D01*
X8354000Y-9500000D02*
X8434000Y-9500000D01*
X8400000Y-11659000D02*
X8400000Y-11739000D01*
X8360000Y-11699000D02*
X8440000Y-11699000D01*
X8400000Y-12421000D02*
X8400000Y-12501000D01*
X8360000Y-12461000D02*
X8440000Y-12461000D01*
X8469000Y-6860000D02*
X8469000Y-6940000D01*
X8429000Y-6900000D02*
X8509000Y-6900000D01*
X8469000Y-7160000D02*
X8469000Y-7240000D01*
X8429000Y-7200000D02*
X8509000Y-7200000D01*
X8487500Y-12700000D02*
X8487500Y-12780000D01*
X8447500Y-12740000D02*
X8527500Y-12740000D01*
X8487500Y-13462000D02*
X8487500Y-13542000D01*
X8447500Y-13502000D02*
X8527500Y-13502000D01*
X8490000Y-7470000D02*
X8490000Y-7550000D01*
X8450000Y-7510000D02*
X8530000Y-7510000D01*
X8521000Y-9880000D02*
X8521000Y-9960000D01*
X8481000Y-9920000D02*
X8561000Y-9920000D01*
X8590000Y-13720000D02*
X8590000Y-13800000D01*
X8550000Y-13760000D02*
X8630000Y-13760000D01*
X8590000Y-14482000D02*
X8590000Y-14562000D01*
X8550000Y-14522000D02*
X8630000Y-14522000D01*
X8593500Y-4812000D02*
X8593500Y-4892000D01*
X8553500Y-4852000D02*
X8633500Y-4852000D01*
X8593500Y-5574000D02*
X8593500Y-5654000D01*
X8553500Y-5614000D02*
X8633500Y-5614000D01*
X8640000Y-7729000D02*
X8640000Y-7809000D01*
X8600000Y-7769000D02*
X8680000Y-7769000D01*
X8640000Y-8491000D02*
X8640000Y-8571000D01*
X8600000Y-8531000D02*
X8680000Y-8531000D01*
X8650000Y-3781000D02*
X8650000Y-3861000D01*
X8610000Y-3821000D02*
X8690000Y-3821000D01*
X8650000Y-4543000D02*
X8650000Y-4623000D01*
X8610000Y-4583000D02*
X8690000Y-4583000D01*
X8650000Y-5832000D02*
X8650000Y-5912000D01*
X8610000Y-5872000D02*
X8690000Y-5872000D01*
X8650000Y-6594000D02*
X8650000Y-6674000D01*
X8610000Y-6634000D02*
X8690000Y-6634000D01*
X8700000Y-11659000D02*
X8700000Y-11739000D01*
X8660000Y-11699000D02*
X8740000Y-11699000D01*
X8700000Y-12421000D02*
X8700000Y-12501000D01*
X8660000Y-12461000D02*
X8740000Y-12461000D01*
X8741500Y-12700000D02*
X8741500Y-12780000D01*
X8701500Y-12740000D02*
X8781500Y-12740000D01*
X8741500Y-13462000D02*
X8741500Y-13542000D01*
X8701500Y-13502000D02*
X8781500Y-13502000D01*
X8847500Y-4812000D02*
X8847500Y-4892000D01*
X8807500Y-4852000D02*
X8887500Y-4852000D01*
X8847500Y-5574000D02*
X8847500Y-5654000D01*
X8807500Y-5614000D02*
X8887500Y-5614000D01*
X8890000Y-13720000D02*
X8890000Y-13800000D01*
X8850000Y-13760000D02*
X8930000Y-13760000D01*
X8890000Y-14482000D02*
X8890000Y-14562000D01*
X8850000Y-14522000D02*
X8930000Y-14522000D01*
X8940000Y-7729000D02*
X8940000Y-7809000D01*
X8900000Y-7769000D02*
X8980000Y-7769000D01*
X8940000Y-8491000D02*
X8940000Y-8571000D01*
X8900000Y-8531000D02*
X8980000Y-8531000D01*
X8946000Y-10340000D02*
X8946000Y-10420000D01*
X8906000Y-10380000D02*
X8986000Y-10380000D01*
X8950000Y-3782000D02*
X8950000Y-3862000D01*
X8910000Y-3822000D02*
X8990000Y-3822000D01*
X8950000Y-4544000D02*
X8950000Y-4624000D01*
X8910000Y-4584000D02*
X8990000Y-4584000D01*
X8950000Y-5832000D02*
X8950000Y-5912000D01*
X8910000Y-5872000D02*
X8990000Y-5872000D01*
X8950000Y-6594000D02*
X8950000Y-6674000D01*
X8910000Y-6634000D02*
X8990000Y-6634000D01*
X8951511Y-11172000D02*
X8951511Y-11252000D01*
X8911511Y-11212000D02*
X8991511Y-11212000D01*
X8990000Y-7470000D02*
X8990000Y-7550000D01*
X8950000Y-7510000D02*
X9030000Y-7510000D01*
X9000000Y-11659000D02*
X9000000Y-11739000D01*
X8960000Y-11699000D02*
X9040000Y-11699000D01*
X9000000Y-12421000D02*
X9000000Y-12501000D01*
X8960000Y-12461000D02*
X9040000Y-12461000D01*
X9060000Y-12708000D02*
X9060000Y-12788000D01*
X9020000Y-12748000D02*
X9100000Y-12748000D01*
X9060000Y-13470000D02*
X9060000Y-13550000D01*
X9020000Y-13510000D02*
X9100000Y-13510000D01*
X9101500Y-4812000D02*
X9101500Y-4892000D01*
X9061500Y-4852000D02*
X9141500Y-4852000D01*
X9101500Y-5574000D02*
X9101500Y-5654000D01*
X9061500Y-5614000D02*
X9141500Y-5614000D01*
X9146000Y-10340000D02*
X9146000Y-10420000D01*
X9106000Y-10380000D02*
X9186000Y-10380000D01*
X9151511Y-11172000D02*
X9151511Y-11252000D01*
X9111511Y-11212000D02*
X9191511Y-11212000D01*
X9159000Y-14100000D02*
X9159000Y-14180000D01*
X9119000Y-14140000D02*
X9199000Y-14140000D01*
X9161000Y-13800000D02*
X9161000Y-13880000D01*
X9121000Y-13840000D02*
X9201000Y-13840000D01*
X9231000Y-6860000D02*
X9231000Y-6940000D01*
X9191000Y-6900000D02*
X9271000Y-6900000D01*
X9231000Y-7160000D02*
X9231000Y-7240000D01*
X9191000Y-7200000D02*
X9271000Y-7200000D01*
X9250000Y-3790000D02*
X9250000Y-3870000D01*
X9210000Y-3830000D02*
X9290000Y-3830000D01*
X9250000Y-4552000D02*
X9250000Y-4632000D01*
X9210000Y-4592000D02*
X9290000Y-4592000D01*
X9250000Y-5832000D02*
X9250000Y-5912000D01*
X9210000Y-5872000D02*
X9290000Y-5872000D01*
X9250000Y-6594000D02*
X9250000Y-6674000D01*
X9210000Y-6634000D02*
X9290000Y-6634000D01*
X9370000Y-12708000D02*
X9370000Y-12788000D01*
X9330000Y-12748000D02*
X9410000Y-12748000D01*
X9370000Y-13470000D02*
X9370000Y-13550000D01*
X9330000Y-13510000D02*
X9410000Y-13510000D01*
X9550000Y-3790000D02*
X9550000Y-3870000D01*
X9510000Y-3830000D02*
X9590000Y-3830000D01*
X9550000Y-4552000D02*
X9550000Y-4632000D01*
X9510000Y-4592000D02*
X9590000Y-4592000D01*
X9560000Y-5831000D02*
X9560000Y-5911000D01*
X9520000Y-5871000D02*
X9600000Y-5871000D01*
X9560000Y-6593000D02*
X9560000Y-6673000D01*
X9520000Y-6633000D02*
X9600000Y-6633000D01*
X9601000Y-7070000D02*
X9601000Y-7150000D01*
X9561000Y-7110000D02*
X9641000Y-7110000D01*
X9810000Y-7489000D02*
X9810000Y-7569000D01*
X9770000Y-7529000D02*
X9850000Y-7529000D01*
X9810000Y-8251000D02*
X9810000Y-8331000D01*
X9770000Y-8291000D02*
X9850000Y-8291000D01*
X9855000Y-7070000D02*
X9855000Y-7150000D01*
X9815000Y-7110000D02*
X9895000Y-7110000D01*
X9860000Y-5831000D02*
X9860000Y-5911000D01*
X9820000Y-5871000D02*
X9900000Y-5871000D01*
X9860000Y-6593000D02*
X9860000Y-6673000D01*
X9820000Y-6633000D02*
X9900000Y-6633000D01*
X9921000Y-14100000D02*
X9921000Y-14180000D01*
X9881000Y-14140000D02*
X9961000Y-14140000D01*
X9923000Y-13800000D02*
X9923000Y-13880000D01*
X9883000Y-13840000D02*
X9963000Y-13840000D01*
X9980000Y-3840000D02*
X9980000Y-3920000D01*
X9940000Y-3880000D02*
X10020000Y-3880000D01*
X9980000Y-4602000D02*
X9980000Y-4682000D01*
X9940000Y-4642000D02*
X10020000Y-4642000D01*
X9980000Y-4851000D02*
X9980000Y-4931000D01*
X9940000Y-4891000D02*
X10020000Y-4891000D01*
X9980000Y-5613000D02*
X9980000Y-5693000D01*
X9940000Y-5653000D02*
X10020000Y-5653000D01*
X10109000Y-7070000D02*
X10109000Y-7150000D01*
X10069000Y-7110000D02*
X10149000Y-7110000D01*
X10280000Y-3840000D02*
X10280000Y-3920000D01*
X10240000Y-3880000D02*
X10320000Y-3880000D01*
X10280000Y-4602000D02*
X10280000Y-4682000D01*
X10240000Y-4642000D02*
X10320000Y-4642000D01*
X10280000Y-4851000D02*
X10280000Y-4931000D01*
X10240000Y-4891000D02*
X10320000Y-4891000D01*
X10280000Y-5613000D02*
X10280000Y-5693000D01*
X10240000Y-5653000D02*
X10320000Y-5653000D01*
X5665356Y-7705356D02*
X5665356Y-7634644D01*
X5594644Y-7634644D01*
X5594644Y-7705356D01*
X5665356Y-7705356D01*
X5665356Y-7959356D02*
X5665356Y-7888644D01*
X5594644Y-7888644D01*
X5594644Y-7959356D01*
X5665356Y-7959356D01*
X5665356Y-8213356D02*
X5665356Y-8142644D01*
X5594644Y-8142644D01*
X5594644Y-8213356D01*
X5665356Y-8213356D01*
X5665356Y-8467356D02*
X5665356Y-8396644D01*
X5594644Y-8396644D01*
X5594644Y-8467356D01*
X5665356Y-8467356D01*
X5665356Y-8721356D02*
X5665356Y-8650644D01*
X5594644Y-8650644D01*
X5594644Y-8721356D01*
X5665356Y-8721356D01*
X5665356Y-8975356D02*
X5665356Y-8904644D01*
X5594644Y-8904644D01*
X5594644Y-8975356D01*
X5665356Y-8975356D01*
X5665356Y-9229356D02*
X5665356Y-9158644D01*
X5594644Y-9158644D01*
X5594644Y-9229356D01*
X5665356Y-9229356D01*
X5665356Y-9483356D02*
X5665356Y-9412644D01*
X5594644Y-9412644D01*
X5594644Y-9483356D01*
X5665356Y-9483356D01*
X6595356Y-7705356D02*
X6595356Y-7634644D01*
X6524644Y-7634644D01*
X6524644Y-7705356D01*
X6595356Y-7705356D01*
X6595356Y-7959356D02*
X6595356Y-7888644D01*
X6524644Y-7888644D01*
X6524644Y-7959356D01*
X6595356Y-7959356D01*
X6595356Y-8213356D02*
X6595356Y-8142644D01*
X6524644Y-8142644D01*
X6524644Y-8213356D01*
X6595356Y-8213356D01*
X6595356Y-8467356D02*
X6595356Y-8396644D01*
X6524644Y-8396644D01*
X6524644Y-8467356D01*
X6595356Y-8467356D01*
X6595356Y-8721356D02*
X6595356Y-8650644D01*
X6524644Y-8650644D01*
X6524644Y-8721356D01*
X6595356Y-8721356D01*
X6595356Y-8975356D02*
X6595356Y-8904644D01*
X6524644Y-8904644D01*
X6524644Y-8975356D01*
X6595356Y-8975356D01*
X6595356Y-9229356D02*
X6595356Y-9158644D01*
X6524644Y-9158644D01*
X6524644Y-9229356D01*
X6595356Y-9229356D01*
X6595356Y-9483356D02*
X6595356Y-9412644D01*
X6524644Y-9412644D01*
X6524644Y-9483356D01*
X6595356Y-9483356D01*
X9335356Y-7705356D02*
X9335356Y-7634644D01*
X9264644Y-7634644D01*
X9264644Y-7705356D01*
X9335356Y-7705356D01*
X9335356Y-7959356D02*
X9335356Y-7888644D01*
X9264644Y-7888644D01*
X9264644Y-7959356D01*
X9335356Y-7959356D01*
X9335356Y-8213356D02*
X9335356Y-8142644D01*
X9264644Y-8142644D01*
X9264644Y-8213356D01*
X9335356Y-8213356D01*
X9335356Y-8467356D02*
X9335356Y-8396644D01*
X9264644Y-8396644D01*
X9264644Y-8467356D01*
X9335356Y-8467356D01*
X9335356Y-8721356D02*
X9335356Y-8650644D01*
X9264644Y-8650644D01*
X9264644Y-8721356D01*
X9335356Y-8721356D01*
X9335356Y-8975356D02*
X9335356Y-8904644D01*
X9264644Y-8904644D01*
X9264644Y-8975356D01*
X9335356Y-8975356D01*
X9335356Y-9229356D02*
X9335356Y-9158644D01*
X9264644Y-9158644D01*
X9264644Y-9229356D01*
X9335356Y-9229356D01*
X9335356Y-9483356D02*
X9335356Y-9412644D01*
X9264644Y-9412644D01*
X9264644Y-9483356D01*
X9335356Y-9483356D01*
X9435356Y-9875356D02*
X9435356Y-9804644D01*
X9364644Y-9804644D01*
X9364644Y-9875356D01*
X9435356Y-9875356D01*
X9689356Y-9875356D02*
X9689356Y-9804644D01*
X9618644Y-9804644D01*
X9618644Y-9875356D01*
X9689356Y-9875356D01*
X9751356Y-10593356D02*
X9751356Y-10522644D01*
X9680644Y-10522644D01*
X9680644Y-10593356D01*
X9751356Y-10593356D01*
X9751356Y-10847356D02*
X9751356Y-10776644D01*
X9680644Y-10776644D01*
X9680644Y-10847356D01*
X9751356Y-10847356D01*
X9751356Y-11101356D02*
X9751356Y-11030644D01*
X9680644Y-11030644D01*
X9680644Y-11101356D01*
X9751356Y-11101356D01*
X9751356Y-11355356D02*
X9751356Y-11284644D01*
X9680644Y-11284644D01*
X9680644Y-11355356D01*
X9751356Y-11355356D01*
X9751356Y-11609356D02*
X9751356Y-11538644D01*
X9680644Y-11538644D01*
X9680644Y-11609356D01*
X9751356Y-11609356D01*
X9943356Y-9875356D02*
X9943356Y-9804644D01*
X9872644Y-9804644D01*
X9872644Y-9875356D01*
X9943356Y-9875356D01*
X10005356Y-10593356D02*
X10005356Y-10522644D01*
X9934644Y-10522644D01*
X9934644Y-10593356D01*
X10005356Y-10593356D01*
X10005356Y-10847356D02*
X10005356Y-10776644D01*
X9934644Y-10776644D01*
X9934644Y-10847356D01*
X10005356Y-10847356D01*
X10005356Y-11101356D02*
X10005356Y-11030644D01*
X9934644Y-11030644D01*
X9934644Y-11101356D01*
X10005356Y-11101356D01*
X10005356Y-11355356D02*
X10005356Y-11284644D01*
X9934644Y-11284644D01*
X9934644Y-11355356D01*
X10005356Y-11355356D01*
X10005356Y-11609356D02*
X10005356Y-11538644D01*
X9934644Y-11538644D01*
X9934644Y-11609356D01*
X10005356Y-11609356D01*
X10197356Y-9875356D02*
X10197356Y-9804644D01*
X10126644Y-9804644D01*
X10126644Y-9875356D01*
X10197356Y-9875356D01*
X10305356Y-7705356D02*
X10305356Y-7634644D01*
X10234644Y-7634644D01*
X10234644Y-7705356D01*
X10305356Y-7705356D01*
X10305356Y-7959356D02*
X10305356Y-7888644D01*
X10234644Y-7888644D01*
X10234644Y-7959356D01*
X10305356Y-7959356D01*
X10305356Y-8213356D02*
X10305356Y-8142644D01*
X10234644Y-8142644D01*
X10234644Y-8213356D01*
X10305356Y-8213356D01*
X10305356Y-8467356D02*
X10305356Y-8396644D01*
X10234644Y-8396644D01*
X10234644Y-8467356D01*
X10305356Y-8467356D01*
X10305356Y-8721356D02*
X10305356Y-8650644D01*
X10234644Y-8650644D01*
X10234644Y-8721356D01*
X10305356Y-8721356D01*
X10305356Y-8975356D02*
X10305356Y-8904644D01*
X10234644Y-8904644D01*
X10234644Y-8975356D01*
X10305356Y-8975356D01*
X10305356Y-9229356D02*
X10305356Y-9158644D01*
X10234644Y-9158644D01*
X10234644Y-9229356D01*
X10305356Y-9229356D01*
X10305356Y-9483356D02*
X10305356Y-9412644D01*
X10234644Y-9412644D01*
X10234644Y-9483356D01*
X10305356Y-9483356D01*
D11*
X5708277Y-14963984D02*
X5708277Y-14763984D01*
X5708277Y-14763984D02*
X5755896Y-14763984D01*
X5755896Y-14763984D02*
X5784467Y-14773508D01*
X5784467Y-14773508D02*
X5803515Y-14792555D01*
X5803515Y-14792555D02*
X5813039Y-14811603D01*
X5813039Y-14811603D02*
X5822562Y-14849698D01*
X5822562Y-14849698D02*
X5822562Y-14878269D01*
X5822562Y-14878269D02*
X5813039Y-14916365D01*
X5813039Y-14916365D02*
X5803515Y-14935412D01*
X5803515Y-14935412D02*
X5784467Y-14954460D01*
X5784467Y-14954460D02*
X5755896Y-14963984D01*
X5755896Y-14963984D02*
X5708277Y-14963984D01*
X5908277Y-14963984D02*
X5908277Y-14830650D01*
X5908277Y-14868746D02*
X5917801Y-14849698D01*
X5917801Y-14849698D02*
X5927324Y-14840174D01*
X5927324Y-14840174D02*
X5946372Y-14830650D01*
X5946372Y-14830650D02*
X5965420Y-14830650D01*
X6032086Y-14963984D02*
X6032086Y-14830650D01*
X6032086Y-14763984D02*
X6022562Y-14773508D01*
X6022562Y-14773508D02*
X6032086Y-14783031D01*
X6032086Y-14783031D02*
X6041610Y-14773508D01*
X6041610Y-14773508D02*
X6032086Y-14763984D01*
X6032086Y-14763984D02*
X6032086Y-14783031D01*
X6155896Y-14963984D02*
X6136848Y-14954460D01*
X6136848Y-14954460D02*
X6127324Y-14935412D01*
X6127324Y-14935412D02*
X6127324Y-14763984D01*
X6260658Y-14963984D02*
X6241610Y-14954460D01*
X6241610Y-14954460D02*
X6232086Y-14935412D01*
X6232086Y-14935412D02*
X6232086Y-14763984D01*
X6489229Y-14963984D02*
X6489229Y-14763984D01*
X6489229Y-14763984D02*
X6555896Y-14906841D01*
X6555896Y-14906841D02*
X6622562Y-14763984D01*
X6622562Y-14763984D02*
X6622562Y-14963984D01*
X6803515Y-14963984D02*
X6803515Y-14859222D01*
X6803515Y-14859222D02*
X6793991Y-14840174D01*
X6793991Y-14840174D02*
X6774943Y-14830650D01*
X6774943Y-14830650D02*
X6736848Y-14830650D01*
X6736848Y-14830650D02*
X6717801Y-14840174D01*
X6803515Y-14954460D02*
X6784467Y-14963984D01*
X6784467Y-14963984D02*
X6736848Y-14963984D01*
X6736848Y-14963984D02*
X6717801Y-14954460D01*
X6717801Y-14954460D02*
X6708277Y-14935412D01*
X6708277Y-14935412D02*
X6708277Y-14916365D01*
X6708277Y-14916365D02*
X6717801Y-14897317D01*
X6717801Y-14897317D02*
X6736848Y-14887793D01*
X6736848Y-14887793D02*
X6784467Y-14887793D01*
X6784467Y-14887793D02*
X6803515Y-14878269D01*
X6898753Y-14830650D02*
X6898753Y-15030650D01*
X6898753Y-14840174D02*
X6917801Y-14830650D01*
X6917801Y-14830650D02*
X6955896Y-14830650D01*
X6955896Y-14830650D02*
X6974943Y-14840174D01*
X6974943Y-14840174D02*
X6984467Y-14849698D01*
X6984467Y-14849698D02*
X6993991Y-14868746D01*
X6993991Y-14868746D02*
X6993991Y-14925888D01*
X6993991Y-14925888D02*
X6984467Y-14944936D01*
X6984467Y-14944936D02*
X6974943Y-14954460D01*
X6974943Y-14954460D02*
X6955896Y-14963984D01*
X6955896Y-14963984D02*
X6917801Y-14963984D01*
X6917801Y-14963984D02*
X6898753Y-14954460D01*
X7079705Y-14944936D02*
X7089229Y-14954460D01*
X7089229Y-14954460D02*
X7079705Y-14963984D01*
X7079705Y-14963984D02*
X7070182Y-14954460D01*
X7070182Y-14954460D02*
X7079705Y-14944936D01*
X7079705Y-14944936D02*
X7079705Y-14963984D01*
X7079705Y-14840174D02*
X7089229Y-14849698D01*
X7089229Y-14849698D02*
X7079705Y-14859222D01*
X7079705Y-14859222D02*
X7070182Y-14849698D01*
X7070182Y-14849698D02*
X7079705Y-14840174D01*
X7079705Y-14840174D02*
X7079705Y-14859222D01*
D12*
X5407500Y-15272500D02*
X5447500Y-15312500D01*
X5447500Y-15272500D02*
X5407500Y-15312500D01*
D11*
X5746372Y-15183984D02*
X5765420Y-15183984D01*
X5765420Y-15183984D02*
X5784467Y-15193508D01*
X5784467Y-15193508D02*
X5793991Y-15203031D01*
X5793991Y-15203031D02*
X5803515Y-15222079D01*
X5803515Y-15222079D02*
X5813039Y-15260174D01*
X5813039Y-15260174D02*
X5813039Y-15307793D01*
X5813039Y-15307793D02*
X5803515Y-15345888D01*
X5803515Y-15345888D02*
X5793991Y-15364936D01*
X5793991Y-15364936D02*
X5784467Y-15374460D01*
X5784467Y-15374460D02*
X5765420Y-15383984D01*
X5765420Y-15383984D02*
X5746372Y-15383984D01*
X5746372Y-15383984D02*
X5727324Y-15374460D01*
X5727324Y-15374460D02*
X5717801Y-15364936D01*
X5717801Y-15364936D02*
X5708277Y-15345888D01*
X5708277Y-15345888D02*
X5698753Y-15307793D01*
X5698753Y-15307793D02*
X5698753Y-15260174D01*
X5698753Y-15260174D02*
X5708277Y-15222079D01*
X5708277Y-15222079D02*
X5717801Y-15203031D01*
X5717801Y-15203031D02*
X5727324Y-15193508D01*
X5727324Y-15193508D02*
X5746372Y-15183984D01*
X5898753Y-15364936D02*
X5908277Y-15374460D01*
X5908277Y-15374460D02*
X5898753Y-15383984D01*
X5898753Y-15383984D02*
X5889229Y-15374460D01*
X5889229Y-15374460D02*
X5898753Y-15364936D01*
X5898753Y-15364936D02*
X5898753Y-15383984D01*
X6079705Y-15250650D02*
X6079705Y-15383984D01*
X6032086Y-15174460D02*
X5984467Y-15317317D01*
X5984467Y-15317317D02*
X6108277Y-15317317D01*
X6222562Y-15183984D02*
X6241610Y-15183984D01*
X6241610Y-15183984D02*
X6260658Y-15193508D01*
X6260658Y-15193508D02*
X6270182Y-15203031D01*
X6270182Y-15203031D02*
X6279705Y-15222079D01*
X6279705Y-15222079D02*
X6289229Y-15260174D01*
X6289229Y-15260174D02*
X6289229Y-15307793D01*
X6289229Y-15307793D02*
X6279705Y-15345888D01*
X6279705Y-15345888D02*
X6270182Y-15364936D01*
X6270182Y-15364936D02*
X6260658Y-15374460D01*
X6260658Y-15374460D02*
X6241610Y-15383984D01*
X6241610Y-15383984D02*
X6222562Y-15383984D01*
X6222562Y-15383984D02*
X6203515Y-15374460D01*
X6203515Y-15374460D02*
X6193991Y-15364936D01*
X6193991Y-15364936D02*
X6184467Y-15345888D01*
X6184467Y-15345888D02*
X6174943Y-15307793D01*
X6174943Y-15307793D02*
X6174943Y-15260174D01*
X6174943Y-15260174D02*
X6184467Y-15222079D01*
X6184467Y-15222079D02*
X6193991Y-15203031D01*
X6193991Y-15203031D02*
X6203515Y-15193508D01*
X6203515Y-15193508D02*
X6222562Y-15183984D01*
X6413039Y-15183984D02*
X6432086Y-15183984D01*
X6432086Y-15183984D02*
X6451134Y-15193508D01*
X6451134Y-15193508D02*
X6460658Y-15203031D01*
X6460658Y-15203031D02*
X6470182Y-15222079D01*
X6470182Y-15222079D02*
X6479705Y-15260174D01*
X6479705Y-15260174D02*
X6479705Y-15307793D01*
X6479705Y-15307793D02*
X6470182Y-15345888D01*
X6470182Y-15345888D02*
X6460658Y-15364936D01*
X6460658Y-15364936D02*
X6451134Y-15374460D01*
X6451134Y-15374460D02*
X6432086Y-15383984D01*
X6432086Y-15383984D02*
X6413039Y-15383984D01*
X6413039Y-15383984D02*
X6393991Y-15374460D01*
X6393991Y-15374460D02*
X6384467Y-15364936D01*
X6384467Y-15364936D02*
X6374943Y-15345888D01*
X6374943Y-15345888D02*
X6365420Y-15307793D01*
X6365420Y-15307793D02*
X6365420Y-15260174D01*
X6365420Y-15260174D02*
X6374943Y-15222079D01*
X6374943Y-15222079D02*
X6384467Y-15203031D01*
X6384467Y-15203031D02*
X6393991Y-15193508D01*
X6393991Y-15193508D02*
X6413039Y-15183984D01*
X6565420Y-15383984D02*
X6565420Y-15250650D01*
X6565420Y-15269698D02*
X6574943Y-15260174D01*
X6574943Y-15260174D02*
X6593991Y-15250650D01*
X6593991Y-15250650D02*
X6622563Y-15250650D01*
X6622563Y-15250650D02*
X6641610Y-15260174D01*
X6641610Y-15260174D02*
X6651134Y-15279222D01*
X6651134Y-15279222D02*
X6651134Y-15383984D01*
X6651134Y-15279222D02*
X6660658Y-15260174D01*
X6660658Y-15260174D02*
X6679705Y-15250650D01*
X6679705Y-15250650D02*
X6708277Y-15250650D01*
X6708277Y-15250650D02*
X6727324Y-15260174D01*
X6727324Y-15260174D02*
X6736848Y-15279222D01*
X6736848Y-15279222D02*
X6736848Y-15383984D01*
X6832086Y-15383984D02*
X6832086Y-15250650D01*
X6832086Y-15269698D02*
X6841610Y-15260174D01*
X6841610Y-15260174D02*
X6860658Y-15250650D01*
X6860658Y-15250650D02*
X6889229Y-15250650D01*
X6889229Y-15250650D02*
X6908277Y-15260174D01*
X6908277Y-15260174D02*
X6917801Y-15279222D01*
X6917801Y-15279222D02*
X6917801Y-15383984D01*
X6917801Y-15279222D02*
X6927324Y-15260174D01*
X6927324Y-15260174D02*
X6946372Y-15250650D01*
X6946372Y-15250650D02*
X6974943Y-15250650D01*
X6974943Y-15250650D02*
X6993991Y-15260174D01*
X6993991Y-15260174D02*
X7003515Y-15279222D01*
X7003515Y-15279222D02*
X7003515Y-15383984D01*
X7393991Y-15174460D02*
X7222563Y-15431603D01*
X7651134Y-15183984D02*
X7670182Y-15183984D01*
X7670182Y-15183984D02*
X7689229Y-15193508D01*
X7689229Y-15193508D02*
X7698753Y-15203031D01*
X7698753Y-15203031D02*
X7708277Y-15222079D01*
X7708277Y-15222079D02*
X7717801Y-15260174D01*
X7717801Y-15260174D02*
X7717801Y-15307793D01*
X7717801Y-15307793D02*
X7708277Y-15345888D01*
X7708277Y-15345888D02*
X7698753Y-15364936D01*
X7698753Y-15364936D02*
X7689229Y-15374460D01*
X7689229Y-15374460D02*
X7670182Y-15383984D01*
X7670182Y-15383984D02*
X7651134Y-15383984D01*
X7651134Y-15383984D02*
X7632086Y-15374460D01*
X7632086Y-15374460D02*
X7622563Y-15364936D01*
X7622563Y-15364936D02*
X7613039Y-15345888D01*
X7613039Y-15345888D02*
X7603515Y-15307793D01*
X7603515Y-15307793D02*
X7603515Y-15260174D01*
X7603515Y-15260174D02*
X7613039Y-15222079D01*
X7613039Y-15222079D02*
X7622563Y-15203031D01*
X7622563Y-15203031D02*
X7632086Y-15193508D01*
X7632086Y-15193508D02*
X7651134Y-15183984D01*
X7803515Y-15364936D02*
X7813039Y-15374460D01*
X7813039Y-15374460D02*
X7803515Y-15383984D01*
X7803515Y-15383984D02*
X7793991Y-15374460D01*
X7793991Y-15374460D02*
X7803515Y-15364936D01*
X7803515Y-15364936D02*
X7803515Y-15383984D01*
X7936848Y-15183984D02*
X7955896Y-15183984D01*
X7955896Y-15183984D02*
X7974944Y-15193508D01*
X7974944Y-15193508D02*
X7984467Y-15203031D01*
X7984467Y-15203031D02*
X7993991Y-15222079D01*
X7993991Y-15222079D02*
X8003515Y-15260174D01*
X8003515Y-15260174D02*
X8003515Y-15307793D01*
X8003515Y-15307793D02*
X7993991Y-15345888D01*
X7993991Y-15345888D02*
X7984467Y-15364936D01*
X7984467Y-15364936D02*
X7974944Y-15374460D01*
X7974944Y-15374460D02*
X7955896Y-15383984D01*
X7955896Y-15383984D02*
X7936848Y-15383984D01*
X7936848Y-15383984D02*
X7917801Y-15374460D01*
X7917801Y-15374460D02*
X7908277Y-15364936D01*
X7908277Y-15364936D02*
X7898753Y-15345888D01*
X7898753Y-15345888D02*
X7889229Y-15307793D01*
X7889229Y-15307793D02*
X7889229Y-15260174D01*
X7889229Y-15260174D02*
X7898753Y-15222079D01*
X7898753Y-15222079D02*
X7908277Y-15203031D01*
X7908277Y-15203031D02*
X7917801Y-15193508D01*
X7917801Y-15193508D02*
X7936848Y-15183984D01*
X8193991Y-15383984D02*
X8079706Y-15383984D01*
X8136848Y-15383984D02*
X8136848Y-15183984D01*
X8136848Y-15183984D02*
X8117801Y-15212555D01*
X8117801Y-15212555D02*
X8098753Y-15231603D01*
X8098753Y-15231603D02*
X8079706Y-15241127D01*
X8374944Y-15183984D02*
X8279706Y-15183984D01*
X8279706Y-15183984D02*
X8270182Y-15279222D01*
X8270182Y-15279222D02*
X8279706Y-15269698D01*
X8279706Y-15269698D02*
X8298753Y-15260174D01*
X8298753Y-15260174D02*
X8346372Y-15260174D01*
X8346372Y-15260174D02*
X8365420Y-15269698D01*
X8365420Y-15269698D02*
X8374944Y-15279222D01*
X8374944Y-15279222D02*
X8384467Y-15298269D01*
X8384467Y-15298269D02*
X8384467Y-15345888D01*
X8384467Y-15345888D02*
X8374944Y-15364936D01*
X8374944Y-15364936D02*
X8365420Y-15374460D01*
X8365420Y-15374460D02*
X8346372Y-15383984D01*
X8346372Y-15383984D02*
X8298753Y-15383984D01*
X8298753Y-15383984D02*
X8279706Y-15374460D01*
X8279706Y-15374460D02*
X8270182Y-15364936D01*
X8451134Y-15183984D02*
X8584468Y-15183984D01*
X8584468Y-15183984D02*
X8498753Y-15383984D01*
X8651134Y-15183984D02*
X8651134Y-15222079D01*
X8727325Y-15183984D02*
X8727325Y-15222079D01*
X9022563Y-15460174D02*
X9013039Y-15450650D01*
X9013039Y-15450650D02*
X8993991Y-15422079D01*
X8993991Y-15422079D02*
X8984468Y-15403031D01*
X8984468Y-15403031D02*
X8974944Y-15374460D01*
X8974944Y-15374460D02*
X8965420Y-15326841D01*
X8965420Y-15326841D02*
X8965420Y-15288746D01*
X8965420Y-15288746D02*
X8974944Y-15241127D01*
X8974944Y-15241127D02*
X8984468Y-15212555D01*
X8984468Y-15212555D02*
X8993991Y-15193508D01*
X8993991Y-15193508D02*
X9013039Y-15164936D01*
X9013039Y-15164936D02*
X9022563Y-15155412D01*
X9193991Y-15183984D02*
X9098753Y-15183984D01*
X9098753Y-15183984D02*
X9089230Y-15279222D01*
X9089230Y-15279222D02*
X9098753Y-15269698D01*
X9098753Y-15269698D02*
X9117801Y-15260174D01*
X9117801Y-15260174D02*
X9165420Y-15260174D01*
X9165420Y-15260174D02*
X9184468Y-15269698D01*
X9184468Y-15269698D02*
X9193991Y-15279222D01*
X9193991Y-15279222D02*
X9203515Y-15298269D01*
X9203515Y-15298269D02*
X9203515Y-15345888D01*
X9203515Y-15345888D02*
X9193991Y-15364936D01*
X9193991Y-15364936D02*
X9184468Y-15374460D01*
X9184468Y-15374460D02*
X9165420Y-15383984D01*
X9165420Y-15383984D02*
X9117801Y-15383984D01*
X9117801Y-15383984D02*
X9098753Y-15374460D01*
X9098753Y-15374460D02*
X9089230Y-15364936D01*
X9374944Y-15250650D02*
X9374944Y-15383984D01*
X9327325Y-15174460D02*
X9279706Y-15317317D01*
X9279706Y-15317317D02*
X9403515Y-15317317D01*
X9632087Y-15383984D02*
X9632087Y-15183984D01*
X9717801Y-15383984D02*
X9717801Y-15279222D01*
X9717801Y-15279222D02*
X9708277Y-15260174D01*
X9708277Y-15260174D02*
X9689230Y-15250650D01*
X9689230Y-15250650D02*
X9660658Y-15250650D01*
X9660658Y-15250650D02*
X9641611Y-15260174D01*
X9641611Y-15260174D02*
X9632087Y-15269698D01*
X9841611Y-15383984D02*
X9822563Y-15374460D01*
X9822563Y-15374460D02*
X9813039Y-15364936D01*
X9813039Y-15364936D02*
X9803515Y-15345888D01*
X9803515Y-15345888D02*
X9803515Y-15288746D01*
X9803515Y-15288746D02*
X9813039Y-15269698D01*
X9813039Y-15269698D02*
X9822563Y-15260174D01*
X9822563Y-15260174D02*
X9841611Y-15250650D01*
X9841611Y-15250650D02*
X9870182Y-15250650D01*
X9870182Y-15250650D02*
X9889230Y-15260174D01*
X9889230Y-15260174D02*
X9898753Y-15269698D01*
X9898753Y-15269698D02*
X9908277Y-15288746D01*
X9908277Y-15288746D02*
X9908277Y-15345888D01*
X9908277Y-15345888D02*
X9898753Y-15364936D01*
X9898753Y-15364936D02*
X9889230Y-15374460D01*
X9889230Y-15374460D02*
X9870182Y-15383984D01*
X9870182Y-15383984D02*
X9841611Y-15383984D01*
X10022563Y-15383984D02*
X10003515Y-15374460D01*
X10003515Y-15374460D02*
X9993992Y-15355412D01*
X9993992Y-15355412D02*
X9993992Y-15183984D01*
X10174944Y-15374460D02*
X10155896Y-15383984D01*
X10155896Y-15383984D02*
X10117801Y-15383984D01*
X10117801Y-15383984D02*
X10098753Y-15374460D01*
X10098753Y-15374460D02*
X10089230Y-15355412D01*
X10089230Y-15355412D02*
X10089230Y-15279222D01*
X10089230Y-15279222D02*
X10098753Y-15260174D01*
X10098753Y-15260174D02*
X10117801Y-15250650D01*
X10117801Y-15250650D02*
X10155896Y-15250650D01*
X10155896Y-15250650D02*
X10174944Y-15260174D01*
X10174944Y-15260174D02*
X10184468Y-15279222D01*
X10184468Y-15279222D02*
X10184468Y-15298269D01*
X10184468Y-15298269D02*
X10089230Y-15317317D01*
X10260658Y-15374460D02*
X10279706Y-15383984D01*
X10279706Y-15383984D02*
X10317801Y-15383984D01*
X10317801Y-15383984D02*
X10336849Y-15374460D01*
X10336849Y-15374460D02*
X10346373Y-15355412D01*
X10346373Y-15355412D02*
X10346373Y-15345888D01*
X10346373Y-15345888D02*
X10336849Y-15326841D01*
X10336849Y-15326841D02*
X10317801Y-15317317D01*
X10317801Y-15317317D02*
X10289230Y-15317317D01*
X10289230Y-15317317D02*
X10270182Y-15307793D01*
X10270182Y-15307793D02*
X10260658Y-15288746D01*
X10260658Y-15288746D02*
X10260658Y-15279222D01*
X10260658Y-15279222D02*
X10270182Y-15260174D01*
X10270182Y-15260174D02*
X10289230Y-15250650D01*
X10289230Y-15250650D02*
X10317801Y-15250650D01*
X10317801Y-15250650D02*
X10336849Y-15260174D01*
X10413039Y-15460174D02*
X10422563Y-15450650D01*
X10422563Y-15450650D02*
X10441611Y-15422079D01*
X10441611Y-15422079D02*
X10451134Y-15403031D01*
X10451134Y-15403031D02*
X10460658Y-15374460D01*
X10460658Y-15374460D02*
X10470182Y-15326841D01*
X10470182Y-15326841D02*
X10470182Y-15288746D01*
X10470182Y-15288746D02*
X10460658Y-15241127D01*
X10460658Y-15241127D02*
X10451134Y-15212555D01*
X10451134Y-15212555D02*
X10441611Y-15193508D01*
X10441611Y-15193508D02*
X10422563Y-15164936D01*
X10422563Y-15164936D02*
X10413039Y-15155412D01*
D12*
X5447500Y-15556500D02*
G75*
G02*
X5372500Y-15556500I-37500J0D01*
G01*
X5372500Y-15556500D02*
G75*
G02*
X5447500Y-15556500I37500J0D01*
G01*
D11*
X5746372Y-15447984D02*
X5765420Y-15447984D01*
X5765420Y-15447984D02*
X5784467Y-15457508D01*
X5784467Y-15457508D02*
X5793991Y-15467031D01*
X5793991Y-15467031D02*
X5803515Y-15486079D01*
X5803515Y-15486079D02*
X5813039Y-15524174D01*
X5813039Y-15524174D02*
X5813039Y-15571793D01*
X5813039Y-15571793D02*
X5803515Y-15609888D01*
X5803515Y-15609888D02*
X5793991Y-15628936D01*
X5793991Y-15628936D02*
X5784467Y-15638460D01*
X5784467Y-15638460D02*
X5765420Y-15647984D01*
X5765420Y-15647984D02*
X5746372Y-15647984D01*
X5746372Y-15647984D02*
X5727324Y-15638460D01*
X5727324Y-15638460D02*
X5717801Y-15628936D01*
X5717801Y-15628936D02*
X5708277Y-15609888D01*
X5708277Y-15609888D02*
X5698753Y-15571793D01*
X5698753Y-15571793D02*
X5698753Y-15524174D01*
X5698753Y-15524174D02*
X5708277Y-15486079D01*
X5708277Y-15486079D02*
X5717801Y-15467031D01*
X5717801Y-15467031D02*
X5727324Y-15457508D01*
X5727324Y-15457508D02*
X5746372Y-15447984D01*
X5898753Y-15628936D02*
X5908277Y-15638460D01*
X5908277Y-15638460D02*
X5898753Y-15647984D01*
X5898753Y-15647984D02*
X5889229Y-15638460D01*
X5889229Y-15638460D02*
X5898753Y-15628936D01*
X5898753Y-15628936D02*
X5898753Y-15647984D01*
X5974943Y-15447984D02*
X6108277Y-15447984D01*
X6108277Y-15447984D02*
X6022562Y-15647984D01*
X6279705Y-15447984D02*
X6184467Y-15447984D01*
X6184467Y-15447984D02*
X6174943Y-15543222D01*
X6174943Y-15543222D02*
X6184467Y-15533698D01*
X6184467Y-15533698D02*
X6203515Y-15524174D01*
X6203515Y-15524174D02*
X6251134Y-15524174D01*
X6251134Y-15524174D02*
X6270182Y-15533698D01*
X6270182Y-15533698D02*
X6279705Y-15543222D01*
X6279705Y-15543222D02*
X6289229Y-15562269D01*
X6289229Y-15562269D02*
X6289229Y-15609888D01*
X6289229Y-15609888D02*
X6279705Y-15628936D01*
X6279705Y-15628936D02*
X6270182Y-15638460D01*
X6270182Y-15638460D02*
X6251134Y-15647984D01*
X6251134Y-15647984D02*
X6203515Y-15647984D01*
X6203515Y-15647984D02*
X6184467Y-15638460D01*
X6184467Y-15638460D02*
X6174943Y-15628936D01*
X6413039Y-15447984D02*
X6432086Y-15447984D01*
X6432086Y-15447984D02*
X6451134Y-15457508D01*
X6451134Y-15457508D02*
X6460658Y-15467031D01*
X6460658Y-15467031D02*
X6470182Y-15486079D01*
X6470182Y-15486079D02*
X6479705Y-15524174D01*
X6479705Y-15524174D02*
X6479705Y-15571793D01*
X6479705Y-15571793D02*
X6470182Y-15609888D01*
X6470182Y-15609888D02*
X6460658Y-15628936D01*
X6460658Y-15628936D02*
X6451134Y-15638460D01*
X6451134Y-15638460D02*
X6432086Y-15647984D01*
X6432086Y-15647984D02*
X6413039Y-15647984D01*
X6413039Y-15647984D02*
X6393991Y-15638460D01*
X6393991Y-15638460D02*
X6384467Y-15628936D01*
X6384467Y-15628936D02*
X6374943Y-15609888D01*
X6374943Y-15609888D02*
X6365420Y-15571793D01*
X6365420Y-15571793D02*
X6365420Y-15524174D01*
X6365420Y-15524174D02*
X6374943Y-15486079D01*
X6374943Y-15486079D02*
X6384467Y-15467031D01*
X6384467Y-15467031D02*
X6393991Y-15457508D01*
X6393991Y-15457508D02*
X6413039Y-15447984D01*
X6565420Y-15647984D02*
X6565420Y-15514650D01*
X6565420Y-15533698D02*
X6574943Y-15524174D01*
X6574943Y-15524174D02*
X6593991Y-15514650D01*
X6593991Y-15514650D02*
X6622563Y-15514650D01*
X6622563Y-15514650D02*
X6641610Y-15524174D01*
X6641610Y-15524174D02*
X6651134Y-15543222D01*
X6651134Y-15543222D02*
X6651134Y-15647984D01*
X6651134Y-15543222D02*
X6660658Y-15524174D01*
X6660658Y-15524174D02*
X6679705Y-15514650D01*
X6679705Y-15514650D02*
X6708277Y-15514650D01*
X6708277Y-15514650D02*
X6727324Y-15524174D01*
X6727324Y-15524174D02*
X6736848Y-15543222D01*
X6736848Y-15543222D02*
X6736848Y-15647984D01*
X6832086Y-15647984D02*
X6832086Y-15514650D01*
X6832086Y-15533698D02*
X6841610Y-15524174D01*
X6841610Y-15524174D02*
X6860658Y-15514650D01*
X6860658Y-15514650D02*
X6889229Y-15514650D01*
X6889229Y-15514650D02*
X6908277Y-15524174D01*
X6908277Y-15524174D02*
X6917801Y-15543222D01*
X6917801Y-15543222D02*
X6917801Y-15647984D01*
X6917801Y-15543222D02*
X6927324Y-15524174D01*
X6927324Y-15524174D02*
X6946372Y-15514650D01*
X6946372Y-15514650D02*
X6974943Y-15514650D01*
X6974943Y-15514650D02*
X6993991Y-15524174D01*
X6993991Y-15524174D02*
X7003515Y-15543222D01*
X7003515Y-15543222D02*
X7003515Y-15647984D01*
X7393991Y-15438460D02*
X7222563Y-15695603D01*
X7651134Y-15447984D02*
X7670182Y-15447984D01*
X7670182Y-15447984D02*
X7689229Y-15457508D01*
X7689229Y-15457508D02*
X7698753Y-15467031D01*
X7698753Y-15467031D02*
X7708277Y-15486079D01*
X7708277Y-15486079D02*
X7717801Y-15524174D01*
X7717801Y-15524174D02*
X7717801Y-15571793D01*
X7717801Y-15571793D02*
X7708277Y-15609888D01*
X7708277Y-15609888D02*
X7698753Y-15628936D01*
X7698753Y-15628936D02*
X7689229Y-15638460D01*
X7689229Y-15638460D02*
X7670182Y-15647984D01*
X7670182Y-15647984D02*
X7651134Y-15647984D01*
X7651134Y-15647984D02*
X7632086Y-15638460D01*
X7632086Y-15638460D02*
X7622563Y-15628936D01*
X7622563Y-15628936D02*
X7613039Y-15609888D01*
X7613039Y-15609888D02*
X7603515Y-15571793D01*
X7603515Y-15571793D02*
X7603515Y-15524174D01*
X7603515Y-15524174D02*
X7613039Y-15486079D01*
X7613039Y-15486079D02*
X7622563Y-15467031D01*
X7622563Y-15467031D02*
X7632086Y-15457508D01*
X7632086Y-15457508D02*
X7651134Y-15447984D01*
X7803515Y-15628936D02*
X7813039Y-15638460D01*
X7813039Y-15638460D02*
X7803515Y-15647984D01*
X7803515Y-15647984D02*
X7793991Y-15638460D01*
X7793991Y-15638460D02*
X7803515Y-15628936D01*
X7803515Y-15628936D02*
X7803515Y-15647984D01*
X7936848Y-15447984D02*
X7955896Y-15447984D01*
X7955896Y-15447984D02*
X7974944Y-15457508D01*
X7974944Y-15457508D02*
X7984467Y-15467031D01*
X7984467Y-15467031D02*
X7993991Y-15486079D01*
X7993991Y-15486079D02*
X8003515Y-15524174D01*
X8003515Y-15524174D02*
X8003515Y-15571793D01*
X8003515Y-15571793D02*
X7993991Y-15609888D01*
X7993991Y-15609888D02*
X7984467Y-15628936D01*
X7984467Y-15628936D02*
X7974944Y-15638460D01*
X7974944Y-15638460D02*
X7955896Y-15647984D01*
X7955896Y-15647984D02*
X7936848Y-15647984D01*
X7936848Y-15647984D02*
X7917801Y-15638460D01*
X7917801Y-15638460D02*
X7908277Y-15628936D01*
X7908277Y-15628936D02*
X7898753Y-15609888D01*
X7898753Y-15609888D02*
X7889229Y-15571793D01*
X7889229Y-15571793D02*
X7889229Y-15524174D01*
X7889229Y-15524174D02*
X7898753Y-15486079D01*
X7898753Y-15486079D02*
X7908277Y-15467031D01*
X7908277Y-15467031D02*
X7917801Y-15457508D01*
X7917801Y-15457508D02*
X7936848Y-15447984D01*
X8079706Y-15467031D02*
X8089229Y-15457508D01*
X8089229Y-15457508D02*
X8108277Y-15447984D01*
X8108277Y-15447984D02*
X8155896Y-15447984D01*
X8155896Y-15447984D02*
X8174944Y-15457508D01*
X8174944Y-15457508D02*
X8184467Y-15467031D01*
X8184467Y-15467031D02*
X8193991Y-15486079D01*
X8193991Y-15486079D02*
X8193991Y-15505127D01*
X8193991Y-15505127D02*
X8184467Y-15533698D01*
X8184467Y-15533698D02*
X8070182Y-15647984D01*
X8070182Y-15647984D02*
X8193991Y-15647984D01*
X8289229Y-15647984D02*
X8327325Y-15647984D01*
X8327325Y-15647984D02*
X8346372Y-15638460D01*
X8346372Y-15638460D02*
X8355896Y-15628936D01*
X8355896Y-15628936D02*
X8374944Y-15600365D01*
X8374944Y-15600365D02*
X8384467Y-15562269D01*
X8384467Y-15562269D02*
X8384467Y-15486079D01*
X8384467Y-15486079D02*
X8374944Y-15467031D01*
X8374944Y-15467031D02*
X8365420Y-15457508D01*
X8365420Y-15457508D02*
X8346372Y-15447984D01*
X8346372Y-15447984D02*
X8308277Y-15447984D01*
X8308277Y-15447984D02*
X8289229Y-15457508D01*
X8289229Y-15457508D02*
X8279706Y-15467031D01*
X8279706Y-15467031D02*
X8270182Y-15486079D01*
X8270182Y-15486079D02*
X8270182Y-15533698D01*
X8270182Y-15533698D02*
X8279706Y-15552746D01*
X8279706Y-15552746D02*
X8289229Y-15562269D01*
X8289229Y-15562269D02*
X8308277Y-15571793D01*
X8308277Y-15571793D02*
X8346372Y-15571793D01*
X8346372Y-15571793D02*
X8365420Y-15562269D01*
X8365420Y-15562269D02*
X8374944Y-15552746D01*
X8374944Y-15552746D02*
X8384467Y-15533698D01*
X8565420Y-15447984D02*
X8470182Y-15447984D01*
X8470182Y-15447984D02*
X8460658Y-15543222D01*
X8460658Y-15543222D02*
X8470182Y-15533698D01*
X8470182Y-15533698D02*
X8489229Y-15524174D01*
X8489229Y-15524174D02*
X8536849Y-15524174D01*
X8536849Y-15524174D02*
X8555896Y-15533698D01*
X8555896Y-15533698D02*
X8565420Y-15543222D01*
X8565420Y-15543222D02*
X8574944Y-15562269D01*
X8574944Y-15562269D02*
X8574944Y-15609888D01*
X8574944Y-15609888D02*
X8565420Y-15628936D01*
X8565420Y-15628936D02*
X8555896Y-15638460D01*
X8555896Y-15638460D02*
X8536849Y-15647984D01*
X8536849Y-15647984D02*
X8489229Y-15647984D01*
X8489229Y-15647984D02*
X8470182Y-15638460D01*
X8470182Y-15638460D02*
X8460658Y-15628936D01*
X8651134Y-15447984D02*
X8651134Y-15486079D01*
X8727325Y-15447984D02*
X8727325Y-15486079D01*
X9022563Y-15724174D02*
X9013039Y-15714650D01*
X9013039Y-15714650D02*
X8993991Y-15686079D01*
X8993991Y-15686079D02*
X8984468Y-15667031D01*
X8984468Y-15667031D02*
X8974944Y-15638460D01*
X8974944Y-15638460D02*
X8965420Y-15590841D01*
X8965420Y-15590841D02*
X8965420Y-15552746D01*
X8965420Y-15552746D02*
X8974944Y-15505127D01*
X8974944Y-15505127D02*
X8984468Y-15476555D01*
X8984468Y-15476555D02*
X8993991Y-15457508D01*
X8993991Y-15457508D02*
X9013039Y-15428936D01*
X9013039Y-15428936D02*
X9022563Y-15419412D01*
X9089230Y-15467031D02*
X9098753Y-15457508D01*
X9098753Y-15457508D02*
X9117801Y-15447984D01*
X9117801Y-15447984D02*
X9165420Y-15447984D01*
X9165420Y-15447984D02*
X9184468Y-15457508D01*
X9184468Y-15457508D02*
X9193991Y-15467031D01*
X9193991Y-15467031D02*
X9203515Y-15486079D01*
X9203515Y-15486079D02*
X9203515Y-15505127D01*
X9203515Y-15505127D02*
X9193991Y-15533698D01*
X9193991Y-15533698D02*
X9079706Y-15647984D01*
X9079706Y-15647984D02*
X9203515Y-15647984D01*
X9374944Y-15514650D02*
X9374944Y-15647984D01*
X9327325Y-15438460D02*
X9279706Y-15581317D01*
X9279706Y-15581317D02*
X9403515Y-15581317D01*
X9632087Y-15647984D02*
X9632087Y-15447984D01*
X9717801Y-15647984D02*
X9717801Y-15543222D01*
X9717801Y-15543222D02*
X9708277Y-15524174D01*
X9708277Y-15524174D02*
X9689230Y-15514650D01*
X9689230Y-15514650D02*
X9660658Y-15514650D01*
X9660658Y-15514650D02*
X9641611Y-15524174D01*
X9641611Y-15524174D02*
X9632087Y-15533698D01*
X9841611Y-15647984D02*
X9822563Y-15638460D01*
X9822563Y-15638460D02*
X9813039Y-15628936D01*
X9813039Y-15628936D02*
X9803515Y-15609888D01*
X9803515Y-15609888D02*
X9803515Y-15552746D01*
X9803515Y-15552746D02*
X9813039Y-15533698D01*
X9813039Y-15533698D02*
X9822563Y-15524174D01*
X9822563Y-15524174D02*
X9841611Y-15514650D01*
X9841611Y-15514650D02*
X9870182Y-15514650D01*
X9870182Y-15514650D02*
X9889230Y-15524174D01*
X9889230Y-15524174D02*
X9898753Y-15533698D01*
X9898753Y-15533698D02*
X9908277Y-15552746D01*
X9908277Y-15552746D02*
X9908277Y-15609888D01*
X9908277Y-15609888D02*
X9898753Y-15628936D01*
X9898753Y-15628936D02*
X9889230Y-15638460D01*
X9889230Y-15638460D02*
X9870182Y-15647984D01*
X9870182Y-15647984D02*
X9841611Y-15647984D01*
X10022563Y-15647984D02*
X10003515Y-15638460D01*
X10003515Y-15638460D02*
X9993992Y-15619412D01*
X9993992Y-15619412D02*
X9993992Y-15447984D01*
X10174944Y-15638460D02*
X10155896Y-15647984D01*
X10155896Y-15647984D02*
X10117801Y-15647984D01*
X10117801Y-15647984D02*
X10098753Y-15638460D01*
X10098753Y-15638460D02*
X10089230Y-15619412D01*
X10089230Y-15619412D02*
X10089230Y-15543222D01*
X10089230Y-15543222D02*
X10098753Y-15524174D01*
X10098753Y-15524174D02*
X10117801Y-15514650D01*
X10117801Y-15514650D02*
X10155896Y-15514650D01*
X10155896Y-15514650D02*
X10174944Y-15524174D01*
X10174944Y-15524174D02*
X10184468Y-15543222D01*
X10184468Y-15543222D02*
X10184468Y-15562269D01*
X10184468Y-15562269D02*
X10089230Y-15581317D01*
X10260658Y-15638460D02*
X10279706Y-15647984D01*
X10279706Y-15647984D02*
X10317801Y-15647984D01*
X10317801Y-15647984D02*
X10336849Y-15638460D01*
X10336849Y-15638460D02*
X10346373Y-15619412D01*
X10346373Y-15619412D02*
X10346373Y-15609888D01*
X10346373Y-15609888D02*
X10336849Y-15590841D01*
X10336849Y-15590841D02*
X10317801Y-15581317D01*
X10317801Y-15581317D02*
X10289230Y-15581317D01*
X10289230Y-15581317D02*
X10270182Y-15571793D01*
X10270182Y-15571793D02*
X10260658Y-15552746D01*
X10260658Y-15552746D02*
X10260658Y-15543222D01*
X10260658Y-15543222D02*
X10270182Y-15524174D01*
X10270182Y-15524174D02*
X10289230Y-15514650D01*
X10289230Y-15514650D02*
X10317801Y-15514650D01*
X10317801Y-15514650D02*
X10336849Y-15524174D01*
X10413039Y-15724174D02*
X10422563Y-15714650D01*
X10422563Y-15714650D02*
X10441611Y-15686079D01*
X10441611Y-15686079D02*
X10451134Y-15667031D01*
X10451134Y-15667031D02*
X10460658Y-15638460D01*
X10460658Y-15638460D02*
X10470182Y-15590841D01*
X10470182Y-15590841D02*
X10470182Y-15552746D01*
X10470182Y-15552746D02*
X10460658Y-15505127D01*
X10460658Y-15505127D02*
X10451134Y-15476555D01*
X10451134Y-15476555D02*
X10441611Y-15457508D01*
X10441611Y-15457508D02*
X10422563Y-15428936D01*
X10422563Y-15428936D02*
X10413039Y-15419412D01*
D12*
X5407500Y-15780500D02*
X5407500Y-15860500D01*
X5367500Y-15820500D02*
X5447500Y-15820500D01*
D11*
X5746372Y-15711984D02*
X5765420Y-15711984D01*
X5765420Y-15711984D02*
X5784467Y-15721508D01*
X5784467Y-15721508D02*
X5793991Y-15731031D01*
X5793991Y-15731031D02*
X5803515Y-15750079D01*
X5803515Y-15750079D02*
X5813039Y-15788174D01*
X5813039Y-15788174D02*
X5813039Y-15835793D01*
X5813039Y-15835793D02*
X5803515Y-15873888D01*
X5803515Y-15873888D02*
X5793991Y-15892936D01*
X5793991Y-15892936D02*
X5784467Y-15902460D01*
X5784467Y-15902460D02*
X5765420Y-15911984D01*
X5765420Y-15911984D02*
X5746372Y-15911984D01*
X5746372Y-15911984D02*
X5727324Y-15902460D01*
X5727324Y-15902460D02*
X5717801Y-15892936D01*
X5717801Y-15892936D02*
X5708277Y-15873888D01*
X5708277Y-15873888D02*
X5698753Y-15835793D01*
X5698753Y-15835793D02*
X5698753Y-15788174D01*
X5698753Y-15788174D02*
X5708277Y-15750079D01*
X5708277Y-15750079D02*
X5717801Y-15731031D01*
X5717801Y-15731031D02*
X5727324Y-15721508D01*
X5727324Y-15721508D02*
X5746372Y-15711984D01*
X5898753Y-15892936D02*
X5908277Y-15902460D01*
X5908277Y-15902460D02*
X5898753Y-15911984D01*
X5898753Y-15911984D02*
X5889229Y-15902460D01*
X5889229Y-15902460D02*
X5898753Y-15892936D01*
X5898753Y-15892936D02*
X5898753Y-15911984D01*
X6022562Y-15797698D02*
X6003515Y-15788174D01*
X6003515Y-15788174D02*
X5993991Y-15778650D01*
X5993991Y-15778650D02*
X5984467Y-15759603D01*
X5984467Y-15759603D02*
X5984467Y-15750079D01*
X5984467Y-15750079D02*
X5993991Y-15731031D01*
X5993991Y-15731031D02*
X6003515Y-15721508D01*
X6003515Y-15721508D02*
X6022562Y-15711984D01*
X6022562Y-15711984D02*
X6060658Y-15711984D01*
X6060658Y-15711984D02*
X6079705Y-15721508D01*
X6079705Y-15721508D02*
X6089229Y-15731031D01*
X6089229Y-15731031D02*
X6098753Y-15750079D01*
X6098753Y-15750079D02*
X6098753Y-15759603D01*
X6098753Y-15759603D02*
X6089229Y-15778650D01*
X6089229Y-15778650D02*
X6079705Y-15788174D01*
X6079705Y-15788174D02*
X6060658Y-15797698D01*
X6060658Y-15797698D02*
X6022562Y-15797698D01*
X6022562Y-15797698D02*
X6003515Y-15807222D01*
X6003515Y-15807222D02*
X5993991Y-15816746D01*
X5993991Y-15816746D02*
X5984467Y-15835793D01*
X5984467Y-15835793D02*
X5984467Y-15873888D01*
X5984467Y-15873888D02*
X5993991Y-15892936D01*
X5993991Y-15892936D02*
X6003515Y-15902460D01*
X6003515Y-15902460D02*
X6022562Y-15911984D01*
X6022562Y-15911984D02*
X6060658Y-15911984D01*
X6060658Y-15911984D02*
X6079705Y-15902460D01*
X6079705Y-15902460D02*
X6089229Y-15892936D01*
X6089229Y-15892936D02*
X6098753Y-15873888D01*
X6098753Y-15873888D02*
X6098753Y-15835793D01*
X6098753Y-15835793D02*
X6089229Y-15816746D01*
X6089229Y-15816746D02*
X6079705Y-15807222D01*
X6079705Y-15807222D02*
X6060658Y-15797698D01*
X6222562Y-15711984D02*
X6241610Y-15711984D01*
X6241610Y-15711984D02*
X6260658Y-15721508D01*
X6260658Y-15721508D02*
X6270182Y-15731031D01*
X6270182Y-15731031D02*
X6279705Y-15750079D01*
X6279705Y-15750079D02*
X6289229Y-15788174D01*
X6289229Y-15788174D02*
X6289229Y-15835793D01*
X6289229Y-15835793D02*
X6279705Y-15873888D01*
X6279705Y-15873888D02*
X6270182Y-15892936D01*
X6270182Y-15892936D02*
X6260658Y-15902460D01*
X6260658Y-15902460D02*
X6241610Y-15911984D01*
X6241610Y-15911984D02*
X6222562Y-15911984D01*
X6222562Y-15911984D02*
X6203515Y-15902460D01*
X6203515Y-15902460D02*
X6193991Y-15892936D01*
X6193991Y-15892936D02*
X6184467Y-15873888D01*
X6184467Y-15873888D02*
X6174943Y-15835793D01*
X6174943Y-15835793D02*
X6174943Y-15788174D01*
X6174943Y-15788174D02*
X6184467Y-15750079D01*
X6184467Y-15750079D02*
X6193991Y-15731031D01*
X6193991Y-15731031D02*
X6203515Y-15721508D01*
X6203515Y-15721508D02*
X6222562Y-15711984D01*
X6413039Y-15711984D02*
X6432086Y-15711984D01*
X6432086Y-15711984D02*
X6451134Y-15721508D01*
X6451134Y-15721508D02*
X6460658Y-15731031D01*
X6460658Y-15731031D02*
X6470182Y-15750079D01*
X6470182Y-15750079D02*
X6479705Y-15788174D01*
X6479705Y-15788174D02*
X6479705Y-15835793D01*
X6479705Y-15835793D02*
X6470182Y-15873888D01*
X6470182Y-15873888D02*
X6460658Y-15892936D01*
X6460658Y-15892936D02*
X6451134Y-15902460D01*
X6451134Y-15902460D02*
X6432086Y-15911984D01*
X6432086Y-15911984D02*
X6413039Y-15911984D01*
X6413039Y-15911984D02*
X6393991Y-15902460D01*
X6393991Y-15902460D02*
X6384467Y-15892936D01*
X6384467Y-15892936D02*
X6374943Y-15873888D01*
X6374943Y-15873888D02*
X6365420Y-15835793D01*
X6365420Y-15835793D02*
X6365420Y-15788174D01*
X6365420Y-15788174D02*
X6374943Y-15750079D01*
X6374943Y-15750079D02*
X6384467Y-15731031D01*
X6384467Y-15731031D02*
X6393991Y-15721508D01*
X6393991Y-15721508D02*
X6413039Y-15711984D01*
X6565420Y-15911984D02*
X6565420Y-15778650D01*
X6565420Y-15797698D02*
X6574943Y-15788174D01*
X6574943Y-15788174D02*
X6593991Y-15778650D01*
X6593991Y-15778650D02*
X6622563Y-15778650D01*
X6622563Y-15778650D02*
X6641610Y-15788174D01*
X6641610Y-15788174D02*
X6651134Y-15807222D01*
X6651134Y-15807222D02*
X6651134Y-15911984D01*
X6651134Y-15807222D02*
X6660658Y-15788174D01*
X6660658Y-15788174D02*
X6679705Y-15778650D01*
X6679705Y-15778650D02*
X6708277Y-15778650D01*
X6708277Y-15778650D02*
X6727324Y-15788174D01*
X6727324Y-15788174D02*
X6736848Y-15807222D01*
X6736848Y-15807222D02*
X6736848Y-15911984D01*
X6832086Y-15911984D02*
X6832086Y-15778650D01*
X6832086Y-15797698D02*
X6841610Y-15788174D01*
X6841610Y-15788174D02*
X6860658Y-15778650D01*
X6860658Y-15778650D02*
X6889229Y-15778650D01*
X6889229Y-15778650D02*
X6908277Y-15788174D01*
X6908277Y-15788174D02*
X6917801Y-15807222D01*
X6917801Y-15807222D02*
X6917801Y-15911984D01*
X6917801Y-15807222D02*
X6927324Y-15788174D01*
X6927324Y-15788174D02*
X6946372Y-15778650D01*
X6946372Y-15778650D02*
X6974943Y-15778650D01*
X6974943Y-15778650D02*
X6993991Y-15788174D01*
X6993991Y-15788174D02*
X7003515Y-15807222D01*
X7003515Y-15807222D02*
X7003515Y-15911984D01*
X7393991Y-15702460D02*
X7222563Y-15959603D01*
X7651134Y-15711984D02*
X7670182Y-15711984D01*
X7670182Y-15711984D02*
X7689229Y-15721508D01*
X7689229Y-15721508D02*
X7698753Y-15731031D01*
X7698753Y-15731031D02*
X7708277Y-15750079D01*
X7708277Y-15750079D02*
X7717801Y-15788174D01*
X7717801Y-15788174D02*
X7717801Y-15835793D01*
X7717801Y-15835793D02*
X7708277Y-15873888D01*
X7708277Y-15873888D02*
X7698753Y-15892936D01*
X7698753Y-15892936D02*
X7689229Y-15902460D01*
X7689229Y-15902460D02*
X7670182Y-15911984D01*
X7670182Y-15911984D02*
X7651134Y-15911984D01*
X7651134Y-15911984D02*
X7632086Y-15902460D01*
X7632086Y-15902460D02*
X7622563Y-15892936D01*
X7622563Y-15892936D02*
X7613039Y-15873888D01*
X7613039Y-15873888D02*
X7603515Y-15835793D01*
X7603515Y-15835793D02*
X7603515Y-15788174D01*
X7603515Y-15788174D02*
X7613039Y-15750079D01*
X7613039Y-15750079D02*
X7622563Y-15731031D01*
X7622563Y-15731031D02*
X7632086Y-15721508D01*
X7632086Y-15721508D02*
X7651134Y-15711984D01*
X7803515Y-15892936D02*
X7813039Y-15902460D01*
X7813039Y-15902460D02*
X7803515Y-15911984D01*
X7803515Y-15911984D02*
X7793991Y-15902460D01*
X7793991Y-15902460D02*
X7803515Y-15892936D01*
X7803515Y-15892936D02*
X7803515Y-15911984D01*
X7936848Y-15711984D02*
X7955896Y-15711984D01*
X7955896Y-15711984D02*
X7974944Y-15721508D01*
X7974944Y-15721508D02*
X7984467Y-15731031D01*
X7984467Y-15731031D02*
X7993991Y-15750079D01*
X7993991Y-15750079D02*
X8003515Y-15788174D01*
X8003515Y-15788174D02*
X8003515Y-15835793D01*
X8003515Y-15835793D02*
X7993991Y-15873888D01*
X7993991Y-15873888D02*
X7984467Y-15892936D01*
X7984467Y-15892936D02*
X7974944Y-15902460D01*
X7974944Y-15902460D02*
X7955896Y-15911984D01*
X7955896Y-15911984D02*
X7936848Y-15911984D01*
X7936848Y-15911984D02*
X7917801Y-15902460D01*
X7917801Y-15902460D02*
X7908277Y-15892936D01*
X7908277Y-15892936D02*
X7898753Y-15873888D01*
X7898753Y-15873888D02*
X7889229Y-15835793D01*
X7889229Y-15835793D02*
X7889229Y-15788174D01*
X7889229Y-15788174D02*
X7898753Y-15750079D01*
X7898753Y-15750079D02*
X7908277Y-15731031D01*
X7908277Y-15731031D02*
X7917801Y-15721508D01*
X7917801Y-15721508D02*
X7936848Y-15711984D01*
X8070182Y-15711984D02*
X8193991Y-15711984D01*
X8193991Y-15711984D02*
X8127325Y-15788174D01*
X8127325Y-15788174D02*
X8155896Y-15788174D01*
X8155896Y-15788174D02*
X8174944Y-15797698D01*
X8174944Y-15797698D02*
X8184467Y-15807222D01*
X8184467Y-15807222D02*
X8193991Y-15826269D01*
X8193991Y-15826269D02*
X8193991Y-15873888D01*
X8193991Y-15873888D02*
X8184467Y-15892936D01*
X8184467Y-15892936D02*
X8174944Y-15902460D01*
X8174944Y-15902460D02*
X8155896Y-15911984D01*
X8155896Y-15911984D02*
X8098753Y-15911984D01*
X8098753Y-15911984D02*
X8079706Y-15902460D01*
X8079706Y-15902460D02*
X8070182Y-15892936D01*
X8384467Y-15911984D02*
X8270182Y-15911984D01*
X8327325Y-15911984D02*
X8327325Y-15711984D01*
X8327325Y-15711984D02*
X8308277Y-15740555D01*
X8308277Y-15740555D02*
X8289229Y-15759603D01*
X8289229Y-15759603D02*
X8270182Y-15769127D01*
X8565420Y-15711984D02*
X8470182Y-15711984D01*
X8470182Y-15711984D02*
X8460658Y-15807222D01*
X8460658Y-15807222D02*
X8470182Y-15797698D01*
X8470182Y-15797698D02*
X8489229Y-15788174D01*
X8489229Y-15788174D02*
X8536849Y-15788174D01*
X8536849Y-15788174D02*
X8555896Y-15797698D01*
X8555896Y-15797698D02*
X8565420Y-15807222D01*
X8565420Y-15807222D02*
X8574944Y-15826269D01*
X8574944Y-15826269D02*
X8574944Y-15873888D01*
X8574944Y-15873888D02*
X8565420Y-15892936D01*
X8565420Y-15892936D02*
X8555896Y-15902460D01*
X8555896Y-15902460D02*
X8536849Y-15911984D01*
X8536849Y-15911984D02*
X8489229Y-15911984D01*
X8489229Y-15911984D02*
X8470182Y-15902460D01*
X8470182Y-15902460D02*
X8460658Y-15892936D01*
X8651134Y-15711984D02*
X8651134Y-15750079D01*
X8727325Y-15711984D02*
X8727325Y-15750079D01*
X9022563Y-15988174D02*
X9013039Y-15978650D01*
X9013039Y-15978650D02*
X8993991Y-15950079D01*
X8993991Y-15950079D02*
X8984468Y-15931031D01*
X8984468Y-15931031D02*
X8974944Y-15902460D01*
X8974944Y-15902460D02*
X8965420Y-15854841D01*
X8965420Y-15854841D02*
X8965420Y-15816746D01*
X8965420Y-15816746D02*
X8974944Y-15769127D01*
X8974944Y-15769127D02*
X8984468Y-15740555D01*
X8984468Y-15740555D02*
X8993991Y-15721508D01*
X8993991Y-15721508D02*
X9013039Y-15692936D01*
X9013039Y-15692936D02*
X9022563Y-15683412D01*
X9089230Y-15731031D02*
X9098753Y-15721508D01*
X9098753Y-15721508D02*
X9117801Y-15711984D01*
X9117801Y-15711984D02*
X9165420Y-15711984D01*
X9165420Y-15711984D02*
X9184468Y-15721508D01*
X9184468Y-15721508D02*
X9193991Y-15731031D01*
X9193991Y-15731031D02*
X9203515Y-15750079D01*
X9203515Y-15750079D02*
X9203515Y-15769127D01*
X9203515Y-15769127D02*
X9193991Y-15797698D01*
X9193991Y-15797698D02*
X9079706Y-15911984D01*
X9079706Y-15911984D02*
X9203515Y-15911984D01*
X9327325Y-15711984D02*
X9346372Y-15711984D01*
X9346372Y-15711984D02*
X9365420Y-15721508D01*
X9365420Y-15721508D02*
X9374944Y-15731031D01*
X9374944Y-15731031D02*
X9384468Y-15750079D01*
X9384468Y-15750079D02*
X9393991Y-15788174D01*
X9393991Y-15788174D02*
X9393991Y-15835793D01*
X9393991Y-15835793D02*
X9384468Y-15873888D01*
X9384468Y-15873888D02*
X9374944Y-15892936D01*
X9374944Y-15892936D02*
X9365420Y-15902460D01*
X9365420Y-15902460D02*
X9346372Y-15911984D01*
X9346372Y-15911984D02*
X9327325Y-15911984D01*
X9327325Y-15911984D02*
X9308277Y-15902460D01*
X9308277Y-15902460D02*
X9298753Y-15892936D01*
X9298753Y-15892936D02*
X9289230Y-15873888D01*
X9289230Y-15873888D02*
X9279706Y-15835793D01*
X9279706Y-15835793D02*
X9279706Y-15788174D01*
X9279706Y-15788174D02*
X9289230Y-15750079D01*
X9289230Y-15750079D02*
X9298753Y-15731031D01*
X9298753Y-15731031D02*
X9308277Y-15721508D01*
X9308277Y-15721508D02*
X9327325Y-15711984D01*
X9508277Y-15797698D02*
X9489230Y-15788174D01*
X9489230Y-15788174D02*
X9479706Y-15778650D01*
X9479706Y-15778650D02*
X9470182Y-15759603D01*
X9470182Y-15759603D02*
X9470182Y-15750079D01*
X9470182Y-15750079D02*
X9479706Y-15731031D01*
X9479706Y-15731031D02*
X9489230Y-15721508D01*
X9489230Y-15721508D02*
X9508277Y-15711984D01*
X9508277Y-15711984D02*
X9546372Y-15711984D01*
X9546372Y-15711984D02*
X9565420Y-15721508D01*
X9565420Y-15721508D02*
X9574944Y-15731031D01*
X9574944Y-15731031D02*
X9584468Y-15750079D01*
X9584468Y-15750079D02*
X9584468Y-15759603D01*
X9584468Y-15759603D02*
X9574944Y-15778650D01*
X9574944Y-15778650D02*
X9565420Y-15788174D01*
X9565420Y-15788174D02*
X9546372Y-15797698D01*
X9546372Y-15797698D02*
X9508277Y-15797698D01*
X9508277Y-15797698D02*
X9489230Y-15807222D01*
X9489230Y-15807222D02*
X9479706Y-15816746D01*
X9479706Y-15816746D02*
X9470182Y-15835793D01*
X9470182Y-15835793D02*
X9470182Y-15873888D01*
X9470182Y-15873888D02*
X9479706Y-15892936D01*
X9479706Y-15892936D02*
X9489230Y-15902460D01*
X9489230Y-15902460D02*
X9508277Y-15911984D01*
X9508277Y-15911984D02*
X9546372Y-15911984D01*
X9546372Y-15911984D02*
X9565420Y-15902460D01*
X9565420Y-15902460D02*
X9574944Y-15892936D01*
X9574944Y-15892936D02*
X9584468Y-15873888D01*
X9584468Y-15873888D02*
X9584468Y-15835793D01*
X9584468Y-15835793D02*
X9574944Y-15816746D01*
X9574944Y-15816746D02*
X9565420Y-15807222D01*
X9565420Y-15807222D02*
X9546372Y-15797698D01*
X9822563Y-15911984D02*
X9822563Y-15711984D01*
X9908277Y-15911984D02*
X9908277Y-15807222D01*
X9908277Y-15807222D02*
X9898753Y-15788174D01*
X9898753Y-15788174D02*
X9879706Y-15778650D01*
X9879706Y-15778650D02*
X9851134Y-15778650D01*
X9851134Y-15778650D02*
X9832087Y-15788174D01*
X9832087Y-15788174D02*
X9822563Y-15797698D01*
X10032087Y-15911984D02*
X10013039Y-15902460D01*
X10013039Y-15902460D02*
X10003515Y-15892936D01*
X10003515Y-15892936D02*
X9993992Y-15873888D01*
X9993992Y-15873888D02*
X9993992Y-15816746D01*
X9993992Y-15816746D02*
X10003515Y-15797698D01*
X10003515Y-15797698D02*
X10013039Y-15788174D01*
X10013039Y-15788174D02*
X10032087Y-15778650D01*
X10032087Y-15778650D02*
X10060658Y-15778650D01*
X10060658Y-15778650D02*
X10079706Y-15788174D01*
X10079706Y-15788174D02*
X10089230Y-15797698D01*
X10089230Y-15797698D02*
X10098753Y-15816746D01*
X10098753Y-15816746D02*
X10098753Y-15873888D01*
X10098753Y-15873888D02*
X10089230Y-15892936D01*
X10089230Y-15892936D02*
X10079706Y-15902460D01*
X10079706Y-15902460D02*
X10060658Y-15911984D01*
X10060658Y-15911984D02*
X10032087Y-15911984D01*
X10213039Y-15911984D02*
X10193992Y-15902460D01*
X10193992Y-15902460D02*
X10184468Y-15883412D01*
X10184468Y-15883412D02*
X10184468Y-15711984D01*
X10365420Y-15902460D02*
X10346373Y-15911984D01*
X10346373Y-15911984D02*
X10308277Y-15911984D01*
X10308277Y-15911984D02*
X10289230Y-15902460D01*
X10289230Y-15902460D02*
X10279706Y-15883412D01*
X10279706Y-15883412D02*
X10279706Y-15807222D01*
X10279706Y-15807222D02*
X10289230Y-15788174D01*
X10289230Y-15788174D02*
X10308277Y-15778650D01*
X10308277Y-15778650D02*
X10346373Y-15778650D01*
X10346373Y-15778650D02*
X10365420Y-15788174D01*
X10365420Y-15788174D02*
X10374944Y-15807222D01*
X10374944Y-15807222D02*
X10374944Y-15826269D01*
X10374944Y-15826269D02*
X10279706Y-15845317D01*
X10451134Y-15902460D02*
X10470182Y-15911984D01*
X10470182Y-15911984D02*
X10508277Y-15911984D01*
X10508277Y-15911984D02*
X10527325Y-15902460D01*
X10527325Y-15902460D02*
X10536849Y-15883412D01*
X10536849Y-15883412D02*
X10536849Y-15873888D01*
X10536849Y-15873888D02*
X10527325Y-15854841D01*
X10527325Y-15854841D02*
X10508277Y-15845317D01*
X10508277Y-15845317D02*
X10479706Y-15845317D01*
X10479706Y-15845317D02*
X10460658Y-15835793D01*
X10460658Y-15835793D02*
X10451134Y-15816746D01*
X10451134Y-15816746D02*
X10451134Y-15807222D01*
X10451134Y-15807222D02*
X10460658Y-15788174D01*
X10460658Y-15788174D02*
X10479706Y-15778650D01*
X10479706Y-15778650D02*
X10508277Y-15778650D01*
X10508277Y-15778650D02*
X10527325Y-15788174D01*
X10603515Y-15988174D02*
X10613039Y-15978650D01*
X10613039Y-15978650D02*
X10632087Y-15950079D01*
X10632087Y-15950079D02*
X10641611Y-15931031D01*
X10641611Y-15931031D02*
X10651134Y-15902460D01*
X10651134Y-15902460D02*
X10660658Y-15854841D01*
X10660658Y-15854841D02*
X10660658Y-15816746D01*
X10660658Y-15816746D02*
X10651134Y-15769127D01*
X10651134Y-15769127D02*
X10641611Y-15740555D01*
X10641611Y-15740555D02*
X10632087Y-15721508D01*
X10632087Y-15721508D02*
X10613039Y-15692936D01*
X10613039Y-15692936D02*
X10603515Y-15683412D01*
D12*
X5432856Y-16119856D02*
X5432856Y-16049144D01*
X5362144Y-16049144D01*
X5362144Y-16119856D01*
X5432856Y-16119856D01*
D11*
X5813039Y-16175984D02*
X5698753Y-16175984D01*
X5755896Y-16175984D02*
X5755896Y-15975984D01*
X5755896Y-15975984D02*
X5736848Y-16004555D01*
X5736848Y-16004555D02*
X5717801Y-16023603D01*
X5717801Y-16023603D02*
X5698753Y-16033127D01*
X5898753Y-16156936D02*
X5908277Y-16166460D01*
X5908277Y-16166460D02*
X5898753Y-16175984D01*
X5898753Y-16175984D02*
X5889229Y-16166460D01*
X5889229Y-16166460D02*
X5898753Y-16156936D01*
X5898753Y-16156936D02*
X5898753Y-16175984D01*
X6032086Y-15975984D02*
X6051134Y-15975984D01*
X6051134Y-15975984D02*
X6070182Y-15985508D01*
X6070182Y-15985508D02*
X6079705Y-15995031D01*
X6079705Y-15995031D02*
X6089229Y-16014079D01*
X6089229Y-16014079D02*
X6098753Y-16052174D01*
X6098753Y-16052174D02*
X6098753Y-16099793D01*
X6098753Y-16099793D02*
X6089229Y-16137888D01*
X6089229Y-16137888D02*
X6079705Y-16156936D01*
X6079705Y-16156936D02*
X6070182Y-16166460D01*
X6070182Y-16166460D02*
X6051134Y-16175984D01*
X6051134Y-16175984D02*
X6032086Y-16175984D01*
X6032086Y-16175984D02*
X6013039Y-16166460D01*
X6013039Y-16166460D02*
X6003515Y-16156936D01*
X6003515Y-16156936D02*
X5993991Y-16137888D01*
X5993991Y-16137888D02*
X5984467Y-16099793D01*
X5984467Y-16099793D02*
X5984467Y-16052174D01*
X5984467Y-16052174D02*
X5993991Y-16014079D01*
X5993991Y-16014079D02*
X6003515Y-15995031D01*
X6003515Y-15995031D02*
X6013039Y-15985508D01*
X6013039Y-15985508D02*
X6032086Y-15975984D01*
X6222562Y-15975984D02*
X6241610Y-15975984D01*
X6241610Y-15975984D02*
X6260658Y-15985508D01*
X6260658Y-15985508D02*
X6270182Y-15995031D01*
X6270182Y-15995031D02*
X6279705Y-16014079D01*
X6279705Y-16014079D02*
X6289229Y-16052174D01*
X6289229Y-16052174D02*
X6289229Y-16099793D01*
X6289229Y-16099793D02*
X6279705Y-16137888D01*
X6279705Y-16137888D02*
X6270182Y-16156936D01*
X6270182Y-16156936D02*
X6260658Y-16166460D01*
X6260658Y-16166460D02*
X6241610Y-16175984D01*
X6241610Y-16175984D02*
X6222562Y-16175984D01*
X6222562Y-16175984D02*
X6203515Y-16166460D01*
X6203515Y-16166460D02*
X6193991Y-16156936D01*
X6193991Y-16156936D02*
X6184467Y-16137888D01*
X6184467Y-16137888D02*
X6174943Y-16099793D01*
X6174943Y-16099793D02*
X6174943Y-16052174D01*
X6174943Y-16052174D02*
X6184467Y-16014079D01*
X6184467Y-16014079D02*
X6193991Y-15995031D01*
X6193991Y-15995031D02*
X6203515Y-15985508D01*
X6203515Y-15985508D02*
X6222562Y-15975984D01*
X6413039Y-15975984D02*
X6432086Y-15975984D01*
X6432086Y-15975984D02*
X6451134Y-15985508D01*
X6451134Y-15985508D02*
X6460658Y-15995031D01*
X6460658Y-15995031D02*
X6470182Y-16014079D01*
X6470182Y-16014079D02*
X6479705Y-16052174D01*
X6479705Y-16052174D02*
X6479705Y-16099793D01*
X6479705Y-16099793D02*
X6470182Y-16137888D01*
X6470182Y-16137888D02*
X6460658Y-16156936D01*
X6460658Y-16156936D02*
X6451134Y-16166460D01*
X6451134Y-16166460D02*
X6432086Y-16175984D01*
X6432086Y-16175984D02*
X6413039Y-16175984D01*
X6413039Y-16175984D02*
X6393991Y-16166460D01*
X6393991Y-16166460D02*
X6384467Y-16156936D01*
X6384467Y-16156936D02*
X6374943Y-16137888D01*
X6374943Y-16137888D02*
X6365420Y-16099793D01*
X6365420Y-16099793D02*
X6365420Y-16052174D01*
X6365420Y-16052174D02*
X6374943Y-16014079D01*
X6374943Y-16014079D02*
X6384467Y-15995031D01*
X6384467Y-15995031D02*
X6393991Y-15985508D01*
X6393991Y-15985508D02*
X6413039Y-15975984D01*
X6565420Y-16175984D02*
X6565420Y-16042650D01*
X6565420Y-16061698D02*
X6574943Y-16052174D01*
X6574943Y-16052174D02*
X6593991Y-16042650D01*
X6593991Y-16042650D02*
X6622563Y-16042650D01*
X6622563Y-16042650D02*
X6641610Y-16052174D01*
X6641610Y-16052174D02*
X6651134Y-16071222D01*
X6651134Y-16071222D02*
X6651134Y-16175984D01*
X6651134Y-16071222D02*
X6660658Y-16052174D01*
X6660658Y-16052174D02*
X6679705Y-16042650D01*
X6679705Y-16042650D02*
X6708277Y-16042650D01*
X6708277Y-16042650D02*
X6727324Y-16052174D01*
X6727324Y-16052174D02*
X6736848Y-16071222D01*
X6736848Y-16071222D02*
X6736848Y-16175984D01*
X6832086Y-16175984D02*
X6832086Y-16042650D01*
X6832086Y-16061698D02*
X6841610Y-16052174D01*
X6841610Y-16052174D02*
X6860658Y-16042650D01*
X6860658Y-16042650D02*
X6889229Y-16042650D01*
X6889229Y-16042650D02*
X6908277Y-16052174D01*
X6908277Y-16052174D02*
X6917801Y-16071222D01*
X6917801Y-16071222D02*
X6917801Y-16175984D01*
X6917801Y-16071222D02*
X6927324Y-16052174D01*
X6927324Y-16052174D02*
X6946372Y-16042650D01*
X6946372Y-16042650D02*
X6974943Y-16042650D01*
X6974943Y-16042650D02*
X6993991Y-16052174D01*
X6993991Y-16052174D02*
X7003515Y-16071222D01*
X7003515Y-16071222D02*
X7003515Y-16175984D01*
X7393991Y-15966460D02*
X7222563Y-16223603D01*
X7651134Y-15975984D02*
X7670182Y-15975984D01*
X7670182Y-15975984D02*
X7689229Y-15985508D01*
X7689229Y-15985508D02*
X7698753Y-15995031D01*
X7698753Y-15995031D02*
X7708277Y-16014079D01*
X7708277Y-16014079D02*
X7717801Y-16052174D01*
X7717801Y-16052174D02*
X7717801Y-16099793D01*
X7717801Y-16099793D02*
X7708277Y-16137888D01*
X7708277Y-16137888D02*
X7698753Y-16156936D01*
X7698753Y-16156936D02*
X7689229Y-16166460D01*
X7689229Y-16166460D02*
X7670182Y-16175984D01*
X7670182Y-16175984D02*
X7651134Y-16175984D01*
X7651134Y-16175984D02*
X7632086Y-16166460D01*
X7632086Y-16166460D02*
X7622563Y-16156936D01*
X7622563Y-16156936D02*
X7613039Y-16137888D01*
X7613039Y-16137888D02*
X7603515Y-16099793D01*
X7603515Y-16099793D02*
X7603515Y-16052174D01*
X7603515Y-16052174D02*
X7613039Y-16014079D01*
X7613039Y-16014079D02*
X7622563Y-15995031D01*
X7622563Y-15995031D02*
X7632086Y-15985508D01*
X7632086Y-15985508D02*
X7651134Y-15975984D01*
X7803515Y-16156936D02*
X7813039Y-16166460D01*
X7813039Y-16166460D02*
X7803515Y-16175984D01*
X7803515Y-16175984D02*
X7793991Y-16166460D01*
X7793991Y-16166460D02*
X7803515Y-16156936D01*
X7803515Y-16156936D02*
X7803515Y-16175984D01*
X7936848Y-15975984D02*
X7955896Y-15975984D01*
X7955896Y-15975984D02*
X7974944Y-15985508D01*
X7974944Y-15985508D02*
X7984467Y-15995031D01*
X7984467Y-15995031D02*
X7993991Y-16014079D01*
X7993991Y-16014079D02*
X8003515Y-16052174D01*
X8003515Y-16052174D02*
X8003515Y-16099793D01*
X8003515Y-16099793D02*
X7993991Y-16137888D01*
X7993991Y-16137888D02*
X7984467Y-16156936D01*
X7984467Y-16156936D02*
X7974944Y-16166460D01*
X7974944Y-16166460D02*
X7955896Y-16175984D01*
X7955896Y-16175984D02*
X7936848Y-16175984D01*
X7936848Y-16175984D02*
X7917801Y-16166460D01*
X7917801Y-16166460D02*
X7908277Y-16156936D01*
X7908277Y-16156936D02*
X7898753Y-16137888D01*
X7898753Y-16137888D02*
X7889229Y-16099793D01*
X7889229Y-16099793D02*
X7889229Y-16052174D01*
X7889229Y-16052174D02*
X7898753Y-16014079D01*
X7898753Y-16014079D02*
X7908277Y-15995031D01*
X7908277Y-15995031D02*
X7917801Y-15985508D01*
X7917801Y-15985508D02*
X7936848Y-15975984D01*
X8070182Y-15975984D02*
X8193991Y-15975984D01*
X8193991Y-15975984D02*
X8127325Y-16052174D01*
X8127325Y-16052174D02*
X8155896Y-16052174D01*
X8155896Y-16052174D02*
X8174944Y-16061698D01*
X8174944Y-16061698D02*
X8184467Y-16071222D01*
X8184467Y-16071222D02*
X8193991Y-16090269D01*
X8193991Y-16090269D02*
X8193991Y-16137888D01*
X8193991Y-16137888D02*
X8184467Y-16156936D01*
X8184467Y-16156936D02*
X8174944Y-16166460D01*
X8174944Y-16166460D02*
X8155896Y-16175984D01*
X8155896Y-16175984D02*
X8098753Y-16175984D01*
X8098753Y-16175984D02*
X8079706Y-16166460D01*
X8079706Y-16166460D02*
X8070182Y-16156936D01*
X8289229Y-16175984D02*
X8327325Y-16175984D01*
X8327325Y-16175984D02*
X8346372Y-16166460D01*
X8346372Y-16166460D02*
X8355896Y-16156936D01*
X8355896Y-16156936D02*
X8374944Y-16128365D01*
X8374944Y-16128365D02*
X8384467Y-16090269D01*
X8384467Y-16090269D02*
X8384467Y-16014079D01*
X8384467Y-16014079D02*
X8374944Y-15995031D01*
X8374944Y-15995031D02*
X8365420Y-15985508D01*
X8365420Y-15985508D02*
X8346372Y-15975984D01*
X8346372Y-15975984D02*
X8308277Y-15975984D01*
X8308277Y-15975984D02*
X8289229Y-15985508D01*
X8289229Y-15985508D02*
X8279706Y-15995031D01*
X8279706Y-15995031D02*
X8270182Y-16014079D01*
X8270182Y-16014079D02*
X8270182Y-16061698D01*
X8270182Y-16061698D02*
X8279706Y-16080746D01*
X8279706Y-16080746D02*
X8289229Y-16090269D01*
X8289229Y-16090269D02*
X8308277Y-16099793D01*
X8308277Y-16099793D02*
X8346372Y-16099793D01*
X8346372Y-16099793D02*
X8365420Y-16090269D01*
X8365420Y-16090269D02*
X8374944Y-16080746D01*
X8374944Y-16080746D02*
X8384467Y-16061698D01*
X8555896Y-16042650D02*
X8555896Y-16175984D01*
X8508277Y-15966460D02*
X8460658Y-16109317D01*
X8460658Y-16109317D02*
X8584468Y-16109317D01*
X8651134Y-15975984D02*
X8651134Y-16014079D01*
X8727325Y-15975984D02*
X8727325Y-16014079D01*
X9022563Y-16252174D02*
X9013039Y-16242650D01*
X9013039Y-16242650D02*
X8993991Y-16214079D01*
X8993991Y-16214079D02*
X8984468Y-16195031D01*
X8984468Y-16195031D02*
X8974944Y-16166460D01*
X8974944Y-16166460D02*
X8965420Y-16118841D01*
X8965420Y-16118841D02*
X8965420Y-16080746D01*
X8965420Y-16080746D02*
X8974944Y-16033127D01*
X8974944Y-16033127D02*
X8984468Y-16004555D01*
X8984468Y-16004555D02*
X8993991Y-15985508D01*
X8993991Y-15985508D02*
X9013039Y-15956936D01*
X9013039Y-15956936D02*
X9022563Y-15947412D01*
X9184468Y-16042650D02*
X9184468Y-16175984D01*
X9136849Y-15966460D02*
X9089230Y-16109317D01*
X9089230Y-16109317D02*
X9213039Y-16109317D01*
X9374944Y-15975984D02*
X9336849Y-15975984D01*
X9336849Y-15975984D02*
X9317801Y-15985508D01*
X9317801Y-15985508D02*
X9308277Y-15995031D01*
X9308277Y-15995031D02*
X9289230Y-16023603D01*
X9289230Y-16023603D02*
X9279706Y-16061698D01*
X9279706Y-16061698D02*
X9279706Y-16137888D01*
X9279706Y-16137888D02*
X9289230Y-16156936D01*
X9289230Y-16156936D02*
X9298753Y-16166460D01*
X9298753Y-16166460D02*
X9317801Y-16175984D01*
X9317801Y-16175984D02*
X9355896Y-16175984D01*
X9355896Y-16175984D02*
X9374944Y-16166460D01*
X9374944Y-16166460D02*
X9384468Y-16156936D01*
X9384468Y-16156936D02*
X9393991Y-16137888D01*
X9393991Y-16137888D02*
X9393991Y-16090269D01*
X9393991Y-16090269D02*
X9384468Y-16071222D01*
X9384468Y-16071222D02*
X9374944Y-16061698D01*
X9374944Y-16061698D02*
X9355896Y-16052174D01*
X9355896Y-16052174D02*
X9317801Y-16052174D01*
X9317801Y-16052174D02*
X9298753Y-16061698D01*
X9298753Y-16061698D02*
X9289230Y-16071222D01*
X9289230Y-16071222D02*
X9279706Y-16090269D01*
X9632087Y-16175984D02*
X9632087Y-15975984D01*
X9717801Y-16175984D02*
X9717801Y-16071222D01*
X9717801Y-16071222D02*
X9708277Y-16052174D01*
X9708277Y-16052174D02*
X9689230Y-16042650D01*
X9689230Y-16042650D02*
X9660658Y-16042650D01*
X9660658Y-16042650D02*
X9641611Y-16052174D01*
X9641611Y-16052174D02*
X9632087Y-16061698D01*
X9841611Y-16175984D02*
X9822563Y-16166460D01*
X9822563Y-16166460D02*
X9813039Y-16156936D01*
X9813039Y-16156936D02*
X9803515Y-16137888D01*
X9803515Y-16137888D02*
X9803515Y-16080746D01*
X9803515Y-16080746D02*
X9813039Y-16061698D01*
X9813039Y-16061698D02*
X9822563Y-16052174D01*
X9822563Y-16052174D02*
X9841611Y-16042650D01*
X9841611Y-16042650D02*
X9870182Y-16042650D01*
X9870182Y-16042650D02*
X9889230Y-16052174D01*
X9889230Y-16052174D02*
X9898753Y-16061698D01*
X9898753Y-16061698D02*
X9908277Y-16080746D01*
X9908277Y-16080746D02*
X9908277Y-16137888D01*
X9908277Y-16137888D02*
X9898753Y-16156936D01*
X9898753Y-16156936D02*
X9889230Y-16166460D01*
X9889230Y-16166460D02*
X9870182Y-16175984D01*
X9870182Y-16175984D02*
X9841611Y-16175984D01*
X10022563Y-16175984D02*
X10003515Y-16166460D01*
X10003515Y-16166460D02*
X9993992Y-16147412D01*
X9993992Y-16147412D02*
X9993992Y-15975984D01*
X10174944Y-16166460D02*
X10155896Y-16175984D01*
X10155896Y-16175984D02*
X10117801Y-16175984D01*
X10117801Y-16175984D02*
X10098753Y-16166460D01*
X10098753Y-16166460D02*
X10089230Y-16147412D01*
X10089230Y-16147412D02*
X10089230Y-16071222D01*
X10089230Y-16071222D02*
X10098753Y-16052174D01*
X10098753Y-16052174D02*
X10117801Y-16042650D01*
X10117801Y-16042650D02*
X10155896Y-16042650D01*
X10155896Y-16042650D02*
X10174944Y-16052174D01*
X10174944Y-16052174D02*
X10184468Y-16071222D01*
X10184468Y-16071222D02*
X10184468Y-16090269D01*
X10184468Y-16090269D02*
X10089230Y-16109317D01*
X10260658Y-16166460D02*
X10279706Y-16175984D01*
X10279706Y-16175984D02*
X10317801Y-16175984D01*
X10317801Y-16175984D02*
X10336849Y-16166460D01*
X10336849Y-16166460D02*
X10346373Y-16147412D01*
X10346373Y-16147412D02*
X10346373Y-16137888D01*
X10346373Y-16137888D02*
X10336849Y-16118841D01*
X10336849Y-16118841D02*
X10317801Y-16109317D01*
X10317801Y-16109317D02*
X10289230Y-16109317D01*
X10289230Y-16109317D02*
X10270182Y-16099793D01*
X10270182Y-16099793D02*
X10260658Y-16080746D01*
X10260658Y-16080746D02*
X10260658Y-16071222D01*
X10260658Y-16071222D02*
X10270182Y-16052174D01*
X10270182Y-16052174D02*
X10289230Y-16042650D01*
X10289230Y-16042650D02*
X10317801Y-16042650D01*
X10317801Y-16042650D02*
X10336849Y-16052174D01*
X10413039Y-16252174D02*
X10422563Y-16242650D01*
X10422563Y-16242650D02*
X10441611Y-16214079D01*
X10441611Y-16214079D02*
X10451134Y-16195031D01*
X10451134Y-16195031D02*
X10460658Y-16166460D01*
X10460658Y-16166460D02*
X10470182Y-16118841D01*
X10470182Y-16118841D02*
X10470182Y-16080746D01*
X10470182Y-16080746D02*
X10460658Y-16033127D01*
X10460658Y-16033127D02*
X10451134Y-16004555D01*
X10451134Y-16004555D02*
X10441611Y-15985508D01*
X10441611Y-15985508D02*
X10422563Y-15956936D01*
X10422563Y-15956936D02*
X10413039Y-15947412D01*
M02*
