G04 #@! TF.GenerationSoftware,KiCad,Pcbnew,8.0.6-8.0.6-0~ubuntu22.04.1*
G04 #@! TF.CreationDate,2025-01-13T21:54:26+00:00*
G04 #@! TF.ProjectId,Basic_VCA,42617369-635f-4564-9341-2e6b69636164,rev?*
G04 #@! TF.SameCoordinates,Original*
G04 #@! TF.FileFunction,Paste,Bot*
G04 #@! TF.FilePolarity,Positive*
%FSLAX46Y46*%
G04 Gerber Fmt 4.6, Leading zero omitted, Abs format (unit mm)*
G04 Created by KiCad (PCBNEW 8.0.6-8.0.6-0~ubuntu22.04.1) date 2025-01-13 21:54:26*
%MOMM*%
%LPD*%
G01*
G04 APERTURE LIST*
G04 APERTURE END LIST*
G36*
G01*
X73450000Y-98505000D02*
X73450000Y-98805000D01*
G75*
G02*
X73300000Y-98955000I-150000J0D01*
G01*
X71650000Y-98955000D01*
G75*
G02*
X71500000Y-98805000I0J150000D01*
G01*
X71500000Y-98505000D01*
G75*
G02*
X71650000Y-98355000I150000J0D01*
G01*
X73300000Y-98355000D01*
G75*
G02*
X73450000Y-98505000I0J-150000D01*
G01*
G37*
G36*
G01*
X73450000Y-99775000D02*
X73450000Y-100075000D01*
G75*
G02*
X73300000Y-100225000I-150000J0D01*
G01*
X71650000Y-100225000D01*
G75*
G02*
X71500000Y-100075000I0J150000D01*
G01*
X71500000Y-99775000D01*
G75*
G02*
X71650000Y-99625000I150000J0D01*
G01*
X73300000Y-99625000D01*
G75*
G02*
X73450000Y-99775000I0J-150000D01*
G01*
G37*
G36*
G01*
X73450000Y-101045000D02*
X73450000Y-101345000D01*
G75*
G02*
X73300000Y-101495000I-150000J0D01*
G01*
X71650000Y-101495000D01*
G75*
G02*
X71500000Y-101345000I0J150000D01*
G01*
X71500000Y-101045000D01*
G75*
G02*
X71650000Y-100895000I150000J0D01*
G01*
X73300000Y-100895000D01*
G75*
G02*
X73450000Y-101045000I0J-150000D01*
G01*
G37*
G36*
G01*
X73450000Y-102315000D02*
X73450000Y-102615000D01*
G75*
G02*
X73300000Y-102765000I-150000J0D01*
G01*
X71650000Y-102765000D01*
G75*
G02*
X71500000Y-102615000I0J150000D01*
G01*
X71500000Y-102315000D01*
G75*
G02*
X71650000Y-102165000I150000J0D01*
G01*
X73300000Y-102165000D01*
G75*
G02*
X73450000Y-102315000I0J-150000D01*
G01*
G37*
G36*
G01*
X73450000Y-103585000D02*
X73450000Y-103885000D01*
G75*
G02*
X73300000Y-104035000I-150000J0D01*
G01*
X71650000Y-104035000D01*
G75*
G02*
X71500000Y-103885000I0J150000D01*
G01*
X71500000Y-103585000D01*
G75*
G02*
X71650000Y-103435000I150000J0D01*
G01*
X73300000Y-103435000D01*
G75*
G02*
X73450000Y-103585000I0J-150000D01*
G01*
G37*
G36*
G01*
X73450000Y-104855000D02*
X73450000Y-105155000D01*
G75*
G02*
X73300000Y-105305000I-150000J0D01*
G01*
X71650000Y-105305000D01*
G75*
G02*
X71500000Y-105155000I0J150000D01*
G01*
X71500000Y-104855000D01*
G75*
G02*
X71650000Y-104705000I150000J0D01*
G01*
X73300000Y-104705000D01*
G75*
G02*
X73450000Y-104855000I0J-150000D01*
G01*
G37*
G36*
G01*
X73450000Y-106125000D02*
X73450000Y-106425000D01*
G75*
G02*
X73300000Y-106575000I-150000J0D01*
G01*
X71650000Y-106575000D01*
G75*
G02*
X71500000Y-106425000I0J150000D01*
G01*
X71500000Y-106125000D01*
G75*
G02*
X71650000Y-105975000I150000J0D01*
G01*
X73300000Y-105975000D01*
G75*
G02*
X73450000Y-106125000I0J-150000D01*
G01*
G37*
G36*
G01*
X73450000Y-107395000D02*
X73450000Y-107695000D01*
G75*
G02*
X73300000Y-107845000I-150000J0D01*
G01*
X71650000Y-107845000D01*
G75*
G02*
X71500000Y-107695000I0J150000D01*
G01*
X71500000Y-107395000D01*
G75*
G02*
X71650000Y-107245000I150000J0D01*
G01*
X73300000Y-107245000D01*
G75*
G02*
X73450000Y-107395000I0J-150000D01*
G01*
G37*
G36*
G01*
X68500000Y-107395000D02*
X68500000Y-107695000D01*
G75*
G02*
X68350000Y-107845000I-150000J0D01*
G01*
X66700000Y-107845000D01*
G75*
G02*
X66550000Y-107695000I0J150000D01*
G01*
X66550000Y-107395000D01*
G75*
G02*
X66700000Y-107245000I150000J0D01*
G01*
X68350000Y-107245000D01*
G75*
G02*
X68500000Y-107395000I0J-150000D01*
G01*
G37*
G36*
G01*
X68500000Y-106125000D02*
X68500000Y-106425000D01*
G75*
G02*
X68350000Y-106575000I-150000J0D01*
G01*
X66700000Y-106575000D01*
G75*
G02*
X66550000Y-106425000I0J150000D01*
G01*
X66550000Y-106125000D01*
G75*
G02*
X66700000Y-105975000I150000J0D01*
G01*
X68350000Y-105975000D01*
G75*
G02*
X68500000Y-106125000I0J-150000D01*
G01*
G37*
G36*
G01*
X68500000Y-104855000D02*
X68500000Y-105155000D01*
G75*
G02*
X68350000Y-105305000I-150000J0D01*
G01*
X66700000Y-105305000D01*
G75*
G02*
X66550000Y-105155000I0J150000D01*
G01*
X66550000Y-104855000D01*
G75*
G02*
X66700000Y-104705000I150000J0D01*
G01*
X68350000Y-104705000D01*
G75*
G02*
X68500000Y-104855000I0J-150000D01*
G01*
G37*
G36*
G01*
X68500000Y-103585000D02*
X68500000Y-103885000D01*
G75*
G02*
X68350000Y-104035000I-150000J0D01*
G01*
X66700000Y-104035000D01*
G75*
G02*
X66550000Y-103885000I0J150000D01*
G01*
X66550000Y-103585000D01*
G75*
G02*
X66700000Y-103435000I150000J0D01*
G01*
X68350000Y-103435000D01*
G75*
G02*
X68500000Y-103585000I0J-150000D01*
G01*
G37*
G36*
G01*
X68500000Y-102315000D02*
X68500000Y-102615000D01*
G75*
G02*
X68350000Y-102765000I-150000J0D01*
G01*
X66700000Y-102765000D01*
G75*
G02*
X66550000Y-102615000I0J150000D01*
G01*
X66550000Y-102315000D01*
G75*
G02*
X66700000Y-102165000I150000J0D01*
G01*
X68350000Y-102165000D01*
G75*
G02*
X68500000Y-102315000I0J-150000D01*
G01*
G37*
G36*
G01*
X68500000Y-101045000D02*
X68500000Y-101345000D01*
G75*
G02*
X68350000Y-101495000I-150000J0D01*
G01*
X66700000Y-101495000D01*
G75*
G02*
X66550000Y-101345000I0J150000D01*
G01*
X66550000Y-101045000D01*
G75*
G02*
X66700000Y-100895000I150000J0D01*
G01*
X68350000Y-100895000D01*
G75*
G02*
X68500000Y-101045000I0J-150000D01*
G01*
G37*
G36*
G01*
X68500000Y-99775000D02*
X68500000Y-100075000D01*
G75*
G02*
X68350000Y-100225000I-150000J0D01*
G01*
X66700000Y-100225000D01*
G75*
G02*
X66550000Y-100075000I0J150000D01*
G01*
X66550000Y-99775000D01*
G75*
G02*
X66700000Y-99625000I150000J0D01*
G01*
X68350000Y-99625000D01*
G75*
G02*
X68500000Y-99775000I0J-150000D01*
G01*
G37*
G36*
G01*
X68500000Y-98505000D02*
X68500000Y-98805000D01*
G75*
G02*
X68350000Y-98955000I-150000J0D01*
G01*
X66700000Y-98955000D01*
G75*
G02*
X66550000Y-98805000I0J150000D01*
G01*
X66550000Y-98505000D01*
G75*
G02*
X66700000Y-98355000I150000J0D01*
G01*
X68350000Y-98355000D01*
G75*
G02*
X68500000Y-98505000I0J-150000D01*
G01*
G37*
G36*
G01*
X83250000Y-68005000D02*
X83250000Y-68305000D01*
G75*
G02*
X83100000Y-68455000I-150000J0D01*
G01*
X81450000Y-68455000D01*
G75*
G02*
X81300000Y-68305000I0J150000D01*
G01*
X81300000Y-68005000D01*
G75*
G02*
X81450000Y-67855000I150000J0D01*
G01*
X83100000Y-67855000D01*
G75*
G02*
X83250000Y-68005000I0J-150000D01*
G01*
G37*
G36*
G01*
X83250000Y-69275000D02*
X83250000Y-69575000D01*
G75*
G02*
X83100000Y-69725000I-150000J0D01*
G01*
X81450000Y-69725000D01*
G75*
G02*
X81300000Y-69575000I0J150000D01*
G01*
X81300000Y-69275000D01*
G75*
G02*
X81450000Y-69125000I150000J0D01*
G01*
X83100000Y-69125000D01*
G75*
G02*
X83250000Y-69275000I0J-150000D01*
G01*
G37*
G36*
G01*
X83250000Y-70545000D02*
X83250000Y-70845000D01*
G75*
G02*
X83100000Y-70995000I-150000J0D01*
G01*
X81450000Y-70995000D01*
G75*
G02*
X81300000Y-70845000I0J150000D01*
G01*
X81300000Y-70545000D01*
G75*
G02*
X81450000Y-70395000I150000J0D01*
G01*
X83100000Y-70395000D01*
G75*
G02*
X83250000Y-70545000I0J-150000D01*
G01*
G37*
G36*
G01*
X83250000Y-71815000D02*
X83250000Y-72115000D01*
G75*
G02*
X83100000Y-72265000I-150000J0D01*
G01*
X81450000Y-72265000D01*
G75*
G02*
X81300000Y-72115000I0J150000D01*
G01*
X81300000Y-71815000D01*
G75*
G02*
X81450000Y-71665000I150000J0D01*
G01*
X83100000Y-71665000D01*
G75*
G02*
X83250000Y-71815000I0J-150000D01*
G01*
G37*
G36*
G01*
X83250000Y-73085000D02*
X83250000Y-73385000D01*
G75*
G02*
X83100000Y-73535000I-150000J0D01*
G01*
X81450000Y-73535000D01*
G75*
G02*
X81300000Y-73385000I0J150000D01*
G01*
X81300000Y-73085000D01*
G75*
G02*
X81450000Y-72935000I150000J0D01*
G01*
X83100000Y-72935000D01*
G75*
G02*
X83250000Y-73085000I0J-150000D01*
G01*
G37*
G36*
G01*
X83250000Y-74355000D02*
X83250000Y-74655000D01*
G75*
G02*
X83100000Y-74805000I-150000J0D01*
G01*
X81450000Y-74805000D01*
G75*
G02*
X81300000Y-74655000I0J150000D01*
G01*
X81300000Y-74355000D01*
G75*
G02*
X81450000Y-74205000I150000J0D01*
G01*
X83100000Y-74205000D01*
G75*
G02*
X83250000Y-74355000I0J-150000D01*
G01*
G37*
G36*
G01*
X83250000Y-75625000D02*
X83250000Y-75925000D01*
G75*
G02*
X83100000Y-76075000I-150000J0D01*
G01*
X81450000Y-76075000D01*
G75*
G02*
X81300000Y-75925000I0J150000D01*
G01*
X81300000Y-75625000D01*
G75*
G02*
X81450000Y-75475000I150000J0D01*
G01*
X83100000Y-75475000D01*
G75*
G02*
X83250000Y-75625000I0J-150000D01*
G01*
G37*
G36*
G01*
X83250000Y-76895000D02*
X83250000Y-77195000D01*
G75*
G02*
X83100000Y-77345000I-150000J0D01*
G01*
X81450000Y-77345000D01*
G75*
G02*
X81300000Y-77195000I0J150000D01*
G01*
X81300000Y-76895000D01*
G75*
G02*
X81450000Y-76745000I150000J0D01*
G01*
X83100000Y-76745000D01*
G75*
G02*
X83250000Y-76895000I0J-150000D01*
G01*
G37*
G36*
G01*
X78300000Y-76895000D02*
X78300000Y-77195000D01*
G75*
G02*
X78150000Y-77345000I-150000J0D01*
G01*
X76500000Y-77345000D01*
G75*
G02*
X76350000Y-77195000I0J150000D01*
G01*
X76350000Y-76895000D01*
G75*
G02*
X76500000Y-76745000I150000J0D01*
G01*
X78150000Y-76745000D01*
G75*
G02*
X78300000Y-76895000I0J-150000D01*
G01*
G37*
G36*
G01*
X78300000Y-75625000D02*
X78300000Y-75925000D01*
G75*
G02*
X78150000Y-76075000I-150000J0D01*
G01*
X76500000Y-76075000D01*
G75*
G02*
X76350000Y-75925000I0J150000D01*
G01*
X76350000Y-75625000D01*
G75*
G02*
X76500000Y-75475000I150000J0D01*
G01*
X78150000Y-75475000D01*
G75*
G02*
X78300000Y-75625000I0J-150000D01*
G01*
G37*
G36*
G01*
X78300000Y-74355000D02*
X78300000Y-74655000D01*
G75*
G02*
X78150000Y-74805000I-150000J0D01*
G01*
X76500000Y-74805000D01*
G75*
G02*
X76350000Y-74655000I0J150000D01*
G01*
X76350000Y-74355000D01*
G75*
G02*
X76500000Y-74205000I150000J0D01*
G01*
X78150000Y-74205000D01*
G75*
G02*
X78300000Y-74355000I0J-150000D01*
G01*
G37*
G36*
G01*
X78300000Y-73085000D02*
X78300000Y-73385000D01*
G75*
G02*
X78150000Y-73535000I-150000J0D01*
G01*
X76500000Y-73535000D01*
G75*
G02*
X76350000Y-73385000I0J150000D01*
G01*
X76350000Y-73085000D01*
G75*
G02*
X76500000Y-72935000I150000J0D01*
G01*
X78150000Y-72935000D01*
G75*
G02*
X78300000Y-73085000I0J-150000D01*
G01*
G37*
G36*
G01*
X78300000Y-71815000D02*
X78300000Y-72115000D01*
G75*
G02*
X78150000Y-72265000I-150000J0D01*
G01*
X76500000Y-72265000D01*
G75*
G02*
X76350000Y-72115000I0J150000D01*
G01*
X76350000Y-71815000D01*
G75*
G02*
X76500000Y-71665000I150000J0D01*
G01*
X78150000Y-71665000D01*
G75*
G02*
X78300000Y-71815000I0J-150000D01*
G01*
G37*
G36*
G01*
X78300000Y-70545000D02*
X78300000Y-70845000D01*
G75*
G02*
X78150000Y-70995000I-150000J0D01*
G01*
X76500000Y-70995000D01*
G75*
G02*
X76350000Y-70845000I0J150000D01*
G01*
X76350000Y-70545000D01*
G75*
G02*
X76500000Y-70395000I150000J0D01*
G01*
X78150000Y-70395000D01*
G75*
G02*
X78300000Y-70545000I0J-150000D01*
G01*
G37*
G36*
G01*
X78300000Y-69275000D02*
X78300000Y-69575000D01*
G75*
G02*
X78150000Y-69725000I-150000J0D01*
G01*
X76500000Y-69725000D01*
G75*
G02*
X76350000Y-69575000I0J150000D01*
G01*
X76350000Y-69275000D01*
G75*
G02*
X76500000Y-69125000I150000J0D01*
G01*
X78150000Y-69125000D01*
G75*
G02*
X78300000Y-69275000I0J-150000D01*
G01*
G37*
G36*
G01*
X78300000Y-68005000D02*
X78300000Y-68305000D01*
G75*
G02*
X78150000Y-68455000I-150000J0D01*
G01*
X76500000Y-68455000D01*
G75*
G02*
X76350000Y-68305000I0J150000D01*
G01*
X76350000Y-68005000D01*
G75*
G02*
X76500000Y-67855000I150000J0D01*
G01*
X78150000Y-67855000D01*
G75*
G02*
X78300000Y-68005000I0J-150000D01*
G01*
G37*
M02*
